<svg width="20" height="19" viewBox="0 0 20 19" fill="none" xmlns="http://www.w3.org/2000/svg">
<path d="M18.25 3.75H14.5V3C14.5 2.40326 14.2629 1.83097 13.841 1.40901C13.419 0.987053 12.8467 0.75 12.25 0.75H7.75C7.15326 0.75 6.58097 0.987053 6.15901 1.40901C5.73705 1.83097 5.5 2.40326 5.5 3V3.75H1.75C1.35218 3.75 0.970644 3.90804 0.68934 4.18934C0.408035 4.47064 0.25 4.85218 0.25 5.25V17.25C0.25 17.6478 0.408035 18.0294 0.68934 18.3107C0.970644 18.592 1.35218 18.75 1.75 18.75H18.25C18.6478 18.75 19.0294 18.592 19.3107 18.3107C19.592 18.0294 19.75 17.6478 19.75 17.25V5.25C19.75 4.85218 19.592 4.47064 19.3107 4.18934C19.0294 3.90804 18.6478 3.75 18.25 3.75ZM7 3C7 2.80109 7.07902 2.61032 7.21967 2.46967C7.36032 2.32902 7.55109 2.25 7.75 2.25H12.25C12.4489 2.25 12.6397 2.32902 12.7803 2.46967C12.921 2.61032 13 2.80109 13 3V3.75H7V3ZM18.25 5.25V12H1.75V5.25H18.25ZM18.25 17.25H1.75V13.5H18.25V17.25Z" fill="black" fill-opacity="0.6"/>
</svg>
