<svg width="38" height="48" viewBox="0 0 38 48" fill="none" xmlns="http://www.w3.org/2000/svg">
<path d="M20.3233 22.1767C20.1014 21.9642 19.8398 21.7977 19.5533 21.6867C18.9853 21.4533 18.3481 21.4533 17.78 21.6867C17.4936 21.7977 17.2319 21.9642 17.01 22.1767L12.3433 26.8433C11.904 27.2827 11.6571 27.8786 11.6571 28.5C11.6571 29.1214 11.904 29.7173 12.3433 30.1567C12.7827 30.596 13.3786 30.8429 14 30.8429C14.6214 30.8429 15.2173 30.596 15.6567 30.1567L16.3333 29.4567V35.5C16.3333 36.1188 16.5792 36.7123 17.0168 37.1499C17.4543 37.5875 18.0478 37.8333 18.6667 37.8333C19.2855 37.8333 19.879 37.5875 20.3166 37.1499C20.7542 36.7123 21 36.1188 21 35.5V29.4567L21.6767 30.1567C21.8936 30.3754 22.1517 30.549 22.436 30.6674C22.7203 30.7859 23.0253 30.8469 23.3333 30.8469C23.6414 30.8469 23.9463 30.7859 24.2307 30.6674C24.515 30.549 24.7731 30.3754 24.99 30.1567C25.2087 29.9398 25.3823 29.6817 25.5007 29.3973C25.6192 29.113 25.6802 28.808 25.6802 28.5C25.6802 28.192 25.6192 27.887 25.5007 27.6027C25.3823 27.3183 25.2087 27.0602 24.99 26.8433L20.3233 22.1767ZM37.3333 16.6933C37.309 16.479 37.2621 16.2678 37.1933 16.0633V15.8533C37.0811 15.6134 36.9315 15.3929 36.75 15.2L22.75 1.2C22.5571 1.0185 22.3366 0.868856 22.0967 0.756666H21.8633C21.6364 0.63534 21.3926 0.548818 21.14 0.5H7C5.14349 0.5 3.36301 1.2375 2.05025 2.55025C0.737498 3.86301 0 5.64348 0 7.5V40.1667C0 42.0232 0.737498 43.8037 2.05025 45.1164C3.36301 46.4292 5.14349 47.1667 7 47.1667H30.3333C32.1898 47.1667 33.9703 46.4292 35.2831 45.1164C36.5958 43.8037 37.3333 42.0232 37.3333 40.1667V16.8333V16.6933ZM23.3333 8.45667L29.3767 14.5H25.6667C25.0478 14.5 24.4543 14.2542 24.0168 13.8166C23.5792 13.379 23.3333 12.7855 23.3333 12.1667V8.45667ZM32.6667 40.1667C32.6667 40.7855 32.4208 41.379 31.9833 41.8166C31.5457 42.2542 30.9522 42.5 30.3333 42.5H7C6.38116 42.5 5.78767 42.2542 5.35008 41.8166C4.9125 41.379 4.66667 40.7855 4.66667 40.1667V7.5C4.66667 6.88116 4.9125 6.28767 5.35008 5.85008C5.78767 5.4125 6.38116 5.16667 7 5.16667H18.6667V12.1667C18.6667 14.0232 19.4042 15.8037 20.7169 17.1164C22.0297 18.4292 23.8102 19.1667 25.6667 19.1667H32.6667V40.1667Z" fill="#9E9D9D"/>
</svg>
