<svg width="224" height="45" viewBox="0 0 224 45" fill="none" xmlns="http://www.w3.org/2000/svg">
<path d="M167.631 33.7891L162.672 17.3373H166.762L169.253 25.9862C169.394 26.4876 169.511 27.0047 169.605 27.5374C169.699 28.0545 169.778 28.5402 169.84 28.9946C169.903 29.4333 169.942 29.778 169.958 30.0287L169.417 30.0522C169.527 29.4568 169.613 28.9319 169.676 28.4775C169.739 28.0231 169.817 27.6001 169.911 27.2084C170.005 26.801 170.122 26.3936 170.264 25.9862L172.731 19.476H175.951L178.372 25.9862C178.56 26.5033 178.709 26.9968 178.818 27.4669C178.944 27.9213 179.038 28.3522 179.1 28.7595C179.179 29.1512 179.241 29.5429 179.288 29.9347L178.795 30.0287C178.826 29.731 178.85 29.4646 178.865 29.2296C178.897 28.9946 178.92 28.7674 178.936 28.548C178.952 28.313 178.975 28.078 179.006 27.8429C179.038 27.5922 179.085 27.318 179.147 27.0203C179.21 26.707 179.296 26.3544 179.406 25.9627L181.85 17.3373H185.869L180.91 33.7891H177.855L173.93 24.3411L174.376 24.3881L170.781 33.7891H167.631ZM191.995 34.0241C190.71 34.0241 189.559 33.7499 188.54 33.2015C187.522 32.6374 186.723 31.8697 186.143 30.8983C185.563 29.9112 185.274 28.7987 185.274 27.5609C185.274 26.2918 185.563 25.1715 186.143 24.2C186.723 23.2129 187.522 22.4452 188.54 21.8968C189.559 21.3327 190.71 21.0507 191.995 21.0507C193.296 21.0507 194.447 21.3327 195.45 21.8968C196.469 22.4452 197.268 23.2129 197.847 24.2C198.427 25.1715 198.717 26.2918 198.717 27.5609C198.717 28.7987 198.427 29.9112 197.847 30.8983C197.268 31.8697 196.469 32.6374 195.45 33.2015C194.447 33.7499 193.296 34.0241 191.995 34.0241ZM191.995 30.7807C192.559 30.7807 193.053 30.6397 193.476 30.3577C193.915 30.0757 194.259 29.6918 194.51 29.2061C194.761 28.7204 194.878 28.172 194.863 27.5609C194.878 26.9185 194.761 26.3544 194.51 25.8687C194.259 25.3673 193.915 24.9835 193.476 24.7171C193.053 24.4351 192.559 24.2941 191.995 24.2941C191.447 24.2941 190.953 24.4351 190.515 24.7171C190.076 24.9991 189.731 25.383 189.48 25.8687C189.23 26.3544 189.104 26.9185 189.104 27.5609C189.104 28.172 189.23 28.7204 189.48 29.2061C189.731 29.6918 190.076 30.0757 190.515 30.3577C190.953 30.6397 191.447 30.7807 191.995 30.7807ZM200.236 33.7891V21.3092H203.832L203.997 25.3752L203.292 24.5761C203.495 23.918 203.809 23.3226 204.232 22.7899C204.655 22.2572 205.156 21.8341 205.736 21.5208C206.331 21.2074 206.95 21.0507 207.593 21.0507C207.875 21.0507 208.133 21.0742 208.368 21.1212C208.619 21.1526 208.838 21.2074 209.026 21.2857L208.016 25.4457C207.843 25.3517 207.608 25.2733 207.311 25.2107C207.029 25.1323 206.731 25.0931 206.417 25.0931C206.073 25.0931 205.752 25.1558 205.454 25.2812C205.172 25.3908 204.921 25.5554 204.702 25.7747C204.498 25.9941 204.334 26.2526 204.208 26.5503C204.099 26.848 204.044 27.1849 204.044 27.5609V33.7891H200.236ZM213.634 30.1227L212.294 27.2554L218.1 21.3092H223.059L213.634 30.1227ZM210.015 33.7891V16.3972H213.799V33.7891H210.015ZM218.452 33.7891L214.104 28.1485L216.783 26.0802L222.941 33.7891H218.452Z" fill="#F26522"/>
<path d="M37.8328 30.494C39.5384 27.5114 40.5171 24.055 40.5171 20.368C40.5171 9.11922 31.448 1.30572e-07 20.2585 1.30572e-07C9.07036 -0.00125995 0 9.11796 0 20.3667C0 26.2576 2.48626 31.5638 6.4688 35.2848C6.57281 29.4809 6.75452 22.9889 7.06405 20.5721C7.64802 16.0257 11.8912 14.2755 17.4853 9.51488C19.1382 8.10359 21.726 7.74321 25.0932 10.1399C28.6672 12.6853 32.2087 14.1595 33.344 15.3239C34.8315 16.8498 34.1523 18.2309 32.7438 18.2309C31.3452 18.2309 28.6434 16.3647 26.795 15.4776C20.7711 12.5693 20.2573 12.3425 17.4452 15.533C14.4589 18.9239 12.6857 22.1989 16.5981 24.1936C19.9503 25.901 23.3777 22.2694 25.5043 19.719C27.379 17.4748 29.8377 17.6097 30.6911 18.6895C31.5445 19.7783 29.6497 20.4524 28.3001 21.836C25.6396 24.5641 26.4404 25.2521 24.3639 28.8244C22.6646 31.749 20.3312 31.5525 18.1733 33.7186C17.35 34.5401 17.1745 37.5328 17.2234 40.5117C18.2134 40.6666 19.2272 40.7423 20.2573 40.7423C23.9366 40.7423 27.384 39.7468 30.3615 38.023L37.2464 39.2087C37.2464 39.2087 39.383 39.4544 38.8579 36.6256C38.6236 35.3529 38.1749 32.6109 37.8328 30.494ZM30.2262 11.7919L24.3651 8.56226C25.5807 8.69205 26.0557 8.68701 26.9391 8.842C27.6885 8.97431 30.1134 9.05243 30.6974 10.0983C31.2788 11.1354 30.2262 11.7919 30.2262 11.7919Z" fill="#F26522"/>
<path d="M88.176 22.5035L87.4166 32.9887L87.3903 33.3856C87.2386 34.1366 86.5557 34.6709 85.7687 34.6154L82.3513 34.3697C81.4967 34.308 80.8651 33.5721 80.9215 32.7165L81.6658 22.2994C81.8187 20.185 80.3663 18.2104 78.2773 17.9294C76.0041 17.6194 73.969 19.3079 73.8086 21.5761L73.0391 32.3107C72.905 33.0794 72.2145 33.6426 71.42 33.5847L67.9952 33.3364C67.2044 33.281 66.5891 32.6258 66.5703 31.8382L67.1418 23.7838C67.1392 23.843 67.1317 23.9022 67.1242 23.9602L67.1593 23.5796L68.6656 2.43795C68.7821 1.64536 69.4864 1.0632 70.2947 1.12116L73.7171 1.3694C74.5116 1.4261 75.1118 2.07001 75.1419 2.84874L74.4502 12.5363C75.3174 12.1015 76.2923 11.5181 77.2196 11.2774C83.3864 9.6557 88.7788 14.0811 88.176 22.5035Z" fill="#115934"/>
<path d="M87.4192 33.1744C87.4154 33.2298 87.4116 33.2802 87.3989 33.3332C87.3951 33.347 87.3951 33.3596 87.3926 33.3722L87.4192 32.9766C87.4218 32.9904 87.4218 33.003 87.4218 33.0169C87.4256 33.0685 87.4218 33.124 87.4192 33.1744Z" fill="#115934"/>
<path d="M112.103 21.5623C112.103 21.5005 112.099 21.4375 112.098 21.3808L112.123 21.7664L112.127 21.7979L112.95 32.9395C112.946 32.9395 112.946 32.9395 112.95 32.9421L112.976 33.3491C112.936 34.0761 112.392 34.6873 111.663 34.7856L111.483 34.7982C111.478 34.7994 111.468 34.8007 111.462 34.7994L108.287 35.0388C108.283 35.0376 108.283 35.0388 108.283 35.0388L107.981 35.0603C107.254 35.0426 106.645 34.521 106.509 33.8115C106.509 33.8115 106.509 33.8115 106.509 33.8077C106.505 33.7914 106.501 33.7725 106.5 33.7536L106.481 33.5154L106.38 32.1318C105.323 34.0585 104.009 35.0502 103.138 35.4207C97.268 37.9295 92.1037 34.3282 91.4796 25.9007L90.7165 15.3954L90.6914 15.0451C90.719 14.2828 91.3117 13.6376 92.0874 13.5708L92.1313 13.5658L95.3168 13.3289C95.3181 13.3238 95.3181 13.3238 95.3243 13.3289L95.7354 13.2949H95.7391H95.7454C96.4396 13.344 97.0261 13.8669 97.1489 14.5625C97.159 14.6129 97.1652 14.6658 97.169 14.7188L97.9447 25.1548C98.1026 27.2679 99.8269 29.0081 101.931 28.9829C104.232 28.9564 105.995 26.9869 105.826 24.72L105.648 22.2881L105.054 14.3256C105.054 14.3256 105.054 14.3256 105.053 14.3243L105.028 13.9829C105.029 13.9766 105.029 13.9715 105.029 13.9677C105.055 13.2041 105.653 12.5602 106.427 12.4934L106.467 12.4909L109.663 12.2515L110.068 12.2188H110.074C110.776 12.2603 111.365 12.7858 111.491 13.4851C111.503 13.5406 111.505 13.5948 111.511 13.6464C111.513 13.6716 111.513 13.6993 111.513 13.7258L112.082 21.343L112.103 21.5623Z" fill="#115934"/>
<path d="M139.51 18.7496C138.848 17.2778 137.872 15.9648 136.718 14.8749C135.549 13.7861 134.183 12.9305 132.693 12.3837C131.208 11.8318 129.616 11.6012 128.066 11.6906C125.797 11.804 123.61 12.6143 121.785 13.9071L121.781 13.8907C121.656 13.243 121.129 12.7352 120.459 12.6559H120.457C120.398 12.6496 120.352 12.6458 120.296 12.6458L116.768 12.7C116.003 12.7352 115.388 13.335 115.315 14.0835C115.315 14.086 115.315 14.0898 115.311 14.0936C115.305 14.1516 115.299 14.207 115.301 14.2662L115.739 43.4687C115.741 43.5291 115.745 43.5846 115.758 43.6438C115.758 43.6463 115.757 43.6463 115.755 43.6501C115.856 44.4175 116.517 45.0022 117.299 44.9896L120.716 44.9404C121.515 44.9303 122.16 44.3129 122.224 43.5291C122.224 43.5191 122.226 43.5014 122.226 43.4913L122.083 33.7106C122.651 34.0911 123.25 34.425 123.874 34.706C125.297 35.3462 126.852 35.7254 128.426 35.7746C130 35.825 131.622 35.5654 133.121 34.9694C134.624 34.3721 135.993 33.4523 137.133 32.2955C138.272 31.1425 139.179 29.7527 139.774 28.233C140.371 26.7083 140.641 25.0664 140.609 23.4535C140.557 21.8406 140.194 20.2176 139.51 18.7496ZM133.307 23.5656C133.285 24.9568 132.808 26.2925 131.928 27.3711C131.04 28.4296 129.79 29.1869 128.334 29.3771C127.6 29.4628 126.847 29.4049 126.136 29.1617C125.423 28.9197 124.748 28.5115 124.198 27.9558C123.642 27.4051 123.238 26.7184 122.979 25.9951C122.716 25.2605 122.577 24.5019 122.556 23.7257C122.543 22.9495 122.625 22.1758 122.844 21.421C123.063 20.67 123.444 19.9479 123.984 19.3658C124.525 18.7786 125.2 18.3325 125.912 18.0566C126.637 17.7793 127.401 17.671 128.156 17.7176C129.663 17.8285 131.035 18.5367 131.962 19.6455C132.907 20.7657 133.322 22.1758 133.307 23.5656Z" fill="#115934"/>
<path d="M63.5459 32.8541C63.5334 32.9058 63.5221 32.9675 63.5096 33.023C63.4244 33.3292 63.2665 33.5938 63.0497 33.8017C63.0459 33.8042 63.0434 33.8055 63.0434 33.8055C62.9006 33.9101 62.7565 34.0046 62.6073 34.1016C62.6073 34.1028 62.6073 34.1028 62.6048 34.1028C60.6248 35.3944 58.2488 36.1404 55.7087 36.1152C48.8301 36.0358 43.315 30.368 43.3914 23.4514C43.4679 16.5386 49.1046 10.9967 55.9806 11.0711C58.5007 11.0988 60.8391 11.8775 62.7828 13.1956C62.7853 13.1956 62.7853 13.1956 62.789 13.1993C62.9607 13.3165 63.1337 13.44 63.3028 13.5635C63.3066 13.5698 63.3066 13.5698 63.3091 13.5748C63.3442 13.6076 63.3755 13.6429 63.4043 13.6819C63.8843 14.2956 63.8818 15.155 63.4094 15.7611L63.0923 16.0711L60.7915 18.3405L60.5196 18.6026C60.5158 18.6063 60.512 18.6089 60.507 18.6164C60.0083 18.9932 59.3504 19.0537 58.799 18.8029C58.7037 18.7412 58.6035 18.6807 58.5007 18.6252C58.5007 18.6227 58.4982 18.6227 58.4957 18.6215C57.7225 18.1993 56.8441 17.9574 55.9067 17.9486C52.8126 17.9133 50.2675 20.4171 50.2349 23.527C50.1961 26.6369 52.6911 29.1999 55.7801 29.2314C56.7062 29.2414 57.5834 29.0234 58.3616 28.6253C58.4807 28.566 58.6035 28.5018 58.7175 28.4287C58.9907 28.3178 59.2965 28.2724 59.6148 28.3266C59.9782 28.3884 60.2953 28.556 60.5371 28.8143C60.5471 28.8231 60.5534 28.8319 60.5634 28.8395L62.8805 31.2223C62.8805 31.2248 62.883 31.2248 62.8868 31.2286L63.2665 31.6217C63.269 31.623 63.2728 31.6243 63.2728 31.6268C63.4795 31.9305 63.5886 32.2921 63.5672 32.6815C63.5597 32.7331 63.5547 32.7924 63.5459 32.8541Z" fill="#115934"/>
<path d="M155.484 33.2838H154.762V35.431H154.253V33.2838H153.545V32.8906H155.485V33.2838H155.484Z" fill="#115934"/>
<path d="M157.067 34.7644H157.081L157.731 32.8906H158.39V35.4309H157.882V33.6996L157.871 33.6933L157.25 35.4309H156.904L156.279 33.6895L156.269 33.6908V35.4309H155.764V32.8906H156.429L157.067 34.7644Z" fill="#115934"/>
<path d="M152.362 8.20876C152.362 8.20876 152.356 8.20876 152.355 8.20876C152.306 8.1949 152.253 8.18482 152.204 8.17978L147.016 7.76143C146.242 7.70851 145.556 8.24152 145.395 8.99001C145.395 8.99379 145.395 8.99631 145.388 8.99757C145.376 9.05176 145.363 9.11098 145.357 9.16642L144.73 31.0389C145.441 30.8449 146.198 30.7743 146.969 30.8638C147.734 30.9482 148.452 31.1813 149.098 31.5203L153.559 9.6314V9.61375C153.506 8.94339 153.021 8.37131 152.362 8.20876Z" fill="#115934"/>
<path d="M146.733 32.9156C144.527 32.6698 142.541 34.2676 142.301 36.4829C142.051 38.6956 143.639 40.6928 145.843 40.9398C148.047 41.1855 150.036 39.594 150.28 37.3788C150.523 35.1636 148.938 33.1651 146.733 32.9156Z" fill="#F26522"/>
</svg>
