<svg width="255" height="46" viewBox="0 0 255 46" fill="none" xmlns="http://www.w3.org/2000/svg">
<path d="M174.812 33.7578V17.308H178.83V33.7578H174.812ZM164.589 33.7578V17.308H168.608V33.7578H164.589ZM166.187 27.3659V23.747H176.927V27.3659H166.187ZM187.461 33.9928C186.176 33.9928 185.025 33.7186 184.007 33.1703C182.988 32.6063 182.189 31.8387 181.61 30.8674C181.03 29.8804 180.74 28.768 180.74 27.5304C180.74 26.2614 181.03 25.1413 181.61 24.1699C182.189 23.183 182.988 22.4153 184.007 21.867C185.025 21.303 186.176 21.021 187.461 21.021C188.761 21.021 189.913 21.303 190.915 21.867C191.934 22.4153 192.733 23.183 193.312 24.1699C193.892 25.1413 194.182 26.2614 194.182 27.5304C194.182 28.768 193.892 29.8804 193.312 30.8674C192.733 31.8387 191.934 32.6063 190.915 33.1703C189.913 33.7186 188.761 33.9928 187.461 33.9928ZM187.461 30.7499C188.025 30.7499 188.518 30.6089 188.941 30.3269C189.38 30.0449 189.725 29.661 189.975 29.1754C190.226 28.6897 190.344 28.1414 190.328 27.5304C190.344 26.8881 190.226 26.3241 189.975 25.8384C189.725 25.3371 189.38 24.9533 188.941 24.6869C188.518 24.4049 188.025 24.2639 187.461 24.2639C186.913 24.2639 186.419 24.4049 185.981 24.6869C185.542 24.9689 185.197 25.3528 184.947 25.8384C184.696 26.3241 184.571 26.8881 184.571 27.5304C184.571 28.1414 184.696 28.6897 184.947 29.1754C185.197 29.661 185.542 30.0449 185.981 30.3269C186.419 30.6089 186.913 30.7499 187.461 30.7499ZM199.908 33.9928C198.717 33.9928 197.652 33.8048 196.712 33.4288C195.772 33.0372 195.02 32.5045 194.456 31.8308L196.759 29.8569C197.244 30.3425 197.793 30.7029 198.404 30.9379C199.015 31.1572 199.594 31.2668 200.143 31.2668C200.346 31.2668 200.526 31.2433 200.683 31.1963C200.84 31.1493 200.973 31.0867 201.083 31.0084C201.208 30.9144 201.302 30.8125 201.365 30.7029C201.427 30.5775 201.459 30.4365 201.459 30.2799C201.459 29.9665 201.325 29.7315 201.059 29.5749C200.934 29.4965 200.707 29.4025 200.378 29.2929C200.049 29.1675 199.626 29.0422 199.109 28.9169C198.372 28.7289 197.73 28.5017 197.182 28.2354C196.649 27.9691 196.21 27.6636 195.866 27.3189C195.552 27.0056 195.309 26.6452 195.137 26.2379C194.98 25.8306 194.902 25.3763 194.902 24.8749C194.902 24.1073 195.129 23.4336 195.584 22.854C196.054 22.2743 196.665 21.8278 197.417 21.5145C198.169 21.1855 198.983 21.021 199.861 21.021C200.55 21.021 201.2 21.0993 201.811 21.256C202.438 21.4127 203.017 21.632 203.55 21.914C204.098 22.196 204.584 22.5328 205.007 22.9245L203.01 25.1569C202.743 24.8906 202.43 24.6556 202.07 24.4519C201.709 24.2326 201.349 24.0603 200.989 23.9349C200.628 23.794 200.291 23.7235 199.978 23.7235C199.743 23.7235 199.532 23.747 199.344 23.794C199.171 23.8253 199.022 23.8879 198.897 23.9819C198.787 24.0603 198.701 24.1621 198.639 24.2874C198.576 24.3971 198.545 24.5224 198.545 24.6634C198.545 24.8358 198.584 24.9924 198.662 25.1334C198.756 25.2588 198.881 25.3763 199.038 25.4859C199.179 25.5643 199.422 25.6661 199.767 25.7914C200.127 25.9168 200.597 26.0578 201.177 26.2144C201.913 26.4181 202.54 26.6531 203.057 26.9194C203.589 27.1701 204.012 27.4677 204.326 27.8124C204.592 28.0787 204.78 28.3921 204.889 28.7524C205.015 29.097 205.077 29.473 205.077 29.8804C205.077 30.6794 204.85 31.3922 204.396 32.0188C203.957 32.6298 203.346 33.1155 202.563 33.4758C201.795 33.8205 200.91 33.9928 199.908 33.9928ZM206.396 38.9277V21.2795H209.992L210.156 24.0289L209.428 23.8175C209.522 23.3161 209.78 22.8618 210.203 22.4545C210.642 22.0315 211.182 21.6946 211.825 21.444C212.467 21.1777 213.148 21.0445 213.869 21.0445C214.934 21.0445 215.882 21.3187 216.713 21.867C217.543 22.4153 218.193 23.183 218.663 24.1699C219.149 25.1413 219.392 26.2614 219.392 27.5304C219.392 28.768 219.149 29.8725 218.663 30.8439C218.193 31.8152 217.535 32.5828 216.689 33.1468C215.859 33.6951 214.911 33.9693 213.846 33.9693C213.125 33.9693 212.443 33.8361 211.801 33.5698C211.159 33.2878 210.618 32.9275 210.18 32.4888C209.741 32.0502 209.459 31.5723 209.334 31.0553L210.203 30.7029V38.9277H206.396ZM212.929 30.7734C213.493 30.7734 213.979 30.6402 214.386 30.3739C214.809 30.1075 215.13 29.7315 215.35 29.2459C215.585 28.7445 215.702 28.1727 215.702 27.5304C215.702 26.8724 215.585 26.3006 215.35 25.8149C215.13 25.3136 214.809 24.9298 214.386 24.6634C213.979 24.3814 213.493 24.2404 212.929 24.2404C212.349 24.2404 211.848 24.3814 211.425 24.6634C211.002 24.9298 210.673 25.3058 210.438 25.7914C210.203 26.2771 210.086 26.8567 210.086 27.5304C210.086 28.1727 210.203 28.7445 210.438 29.2459C210.673 29.7315 211.002 30.1075 211.425 30.3739C211.848 30.6402 212.349 30.7734 212.929 30.7734ZM221.135 33.7578V21.2795H224.919V33.7578H221.135ZM223.039 18.812C222.318 18.812 221.754 18.6475 221.347 18.3185C220.955 17.9739 220.759 17.4882 220.759 16.8615C220.759 16.2819 220.963 15.8119 221.37 15.4516C221.778 15.0912 222.334 14.9111 223.039 14.9111C223.728 14.9111 224.269 15.0834 224.66 15.4281C225.068 15.7571 225.271 16.2349 225.271 16.8615C225.271 17.4412 225.068 17.9112 224.66 18.2715C224.269 18.6319 223.728 18.812 223.039 18.812ZM228.568 33.7578V18.1305H232.351V33.7578H228.568ZM226.359 24.5929V21.2795H234.748V24.5929H226.359ZM242.516 33.7578V26.0969C242.516 25.4546 242.336 24.9846 241.975 24.6869C241.631 24.3736 241.145 24.2169 240.518 24.2169C239.907 24.2169 239.359 24.3344 238.873 24.5694C238.403 24.7888 237.949 25.1569 237.51 25.6739L235.254 23.4885C236.006 22.7208 236.868 22.1176 237.839 21.679C238.811 21.2403 239.868 21.021 241.012 21.021C242.061 21.021 242.97 21.1777 243.738 21.491C244.505 21.8043 245.101 22.2821 245.524 22.9245C245.947 23.5668 246.158 24.3814 246.158 25.3684V33.7578H242.516ZM239.273 33.9928C238.49 33.9928 237.777 33.8361 237.134 33.5228C236.508 33.2095 236.006 32.7787 235.63 32.2303C235.27 31.6663 235.09 31.0084 235.09 30.2564C235.09 29.614 235.207 29.05 235.442 28.5644C235.677 28.0787 236.022 27.6792 236.476 27.3659C236.946 27.0369 237.526 26.7941 238.215 26.6374C238.92 26.4651 239.735 26.3789 240.659 26.3789H244.443L244.231 28.7524H240.753C240.424 28.7524 240.134 28.7837 239.884 28.8464C239.633 28.8934 239.422 28.9795 239.249 29.1049C239.077 29.2145 238.944 29.3477 238.85 29.5044C238.772 29.661 238.732 29.849 238.732 30.0684C238.732 30.3034 238.795 30.507 238.92 30.6794C239.046 30.8517 239.21 30.9849 239.414 31.0788C239.633 31.1728 239.884 31.2198 240.166 31.2198C240.573 31.2198 240.957 31.1572 241.317 31.0319C241.693 30.8909 242.022 30.695 242.304 30.4444C242.602 30.1937 242.837 29.9039 243.009 29.5749L243.667 31.2668C243.338 31.7995 242.939 32.2695 242.469 32.6768C242.014 33.0842 241.513 33.4053 240.965 33.6403C240.432 33.8753 239.868 33.9928 239.273 33.9928ZM248.236 33.7578V16.3681H252.019V33.7578H248.236Z" fill="#F26522"/>
<path d="M37.8305 30.4886C39.5359 27.5065 40.5146 24.0507 40.5146 20.3644C40.5146 9.11761 31.446 1.30549e-07 20.2573 1.30549e-07C9.06979 -0.00125973 0 9.11634 0 20.3631C0 26.253 2.48611 31.5582 6.4684 35.2786C6.5724 29.4757 6.7541 22.9849 7.06361 20.5685C7.64755 16.0229 11.8905 14.2729 17.4842 9.5132C19.137 8.10216 21.7246 7.74184 25.0917 10.1381C28.6655 12.683 32.2067 14.157 33.342 15.3212C34.8294 16.8468 34.1502 18.2276 32.7417 18.2276C31.3433 18.2276 28.6416 16.3618 26.7934 15.4749C20.7698 12.5671 20.256 12.3403 17.4441 15.5303C14.458 18.9206 12.6849 22.1949 16.597 24.1893C19.949 25.8964 23.3762 22.2655 25.5027 19.7155C27.3773 17.4717 29.8358 17.6065 30.6892 18.6862C31.5425 19.7748 29.6479 20.4488 28.2983 21.8321C25.638 24.5597 26.4387 25.2476 24.3624 28.8193C22.6632 31.7434 20.33 31.5469 18.1722 33.7126C17.3489 34.534 17.1735 37.5262 17.2223 40.5045C18.2123 40.6594 19.226 40.735 20.256 40.735C23.9351 40.735 27.3823 39.7397 30.3596 38.0163L37.244 39.2018C37.244 39.2018 39.3805 39.4475 38.8555 36.6191C38.6212 35.3466 38.1726 32.6052 37.8305 30.4886ZM30.2243 11.7898L24.3636 8.56075C25.5791 8.69051 26.054 8.68547 26.9375 8.84043C27.6868 8.97272 30.1115 9.05083 30.6954 10.0965C31.2769 11.1334 30.2243 11.7898 30.2243 11.7898Z" fill="#F26522"/>
<path d="M88.1669 22.4802L87.4075 32.9635L87.3812 33.3603C87.2295 34.1112 86.5466 34.6454 85.7597 34.59L82.3425 34.3443C81.4879 34.2826 80.8564 33.5468 80.9128 32.6914L81.6571 22.2761C81.81 20.1621 80.3577 18.1878 78.2688 17.9069C75.9957 17.597 73.9607 19.2852 73.8003 21.5529L73.0309 32.2857C72.8968 33.0542 72.2064 33.6174 71.4119 33.5594L67.9873 33.3112C67.1966 33.2558 66.5813 32.6006 66.5625 31.8132L67.1339 23.7602C67.1314 23.8194 67.1239 23.8786 67.1164 23.9366L67.1514 23.5561L68.6577 2.41819C68.7742 1.62573 69.4784 1.04368 70.2867 1.10163L73.7088 1.34983C74.5033 1.40652 75.1035 2.05031 75.1336 2.8289L74.4419 12.5147C75.309 12.0801 76.2839 11.4967 77.2112 11.2561C83.3776 9.63466 88.7696 14.0593 88.1669 22.4802Z" fill="#115934"/>
<path d="M87.4114 33.1626C87.4076 33.2181 87.4038 33.2685 87.3911 33.3214C87.3873 33.3352 87.3873 33.3478 87.3848 33.3604L87.4114 32.9648C87.414 32.9787 87.414 32.9913 87.414 33.0052C87.4178 33.0568 87.414 33.1122 87.4114 33.1626Z" fill="#115934"/>
<path d="M112.094 21.5528C112.094 21.4911 112.09 21.4281 112.089 21.3714L112.114 21.7569L112.118 21.7884L112.941 32.9281C112.937 32.9281 112.937 32.9281 112.941 32.9306L112.967 33.3375C112.927 34.0645 112.383 34.6755 111.654 34.7738L111.473 34.7864C111.468 34.7876 111.458 34.7889 111.453 34.7876L108.278 35.027C108.274 35.0257 108.274 35.027 108.274 35.027L107.972 35.0484C107.246 35.0308 106.637 34.5092 106.5 33.7999C106.5 33.7999 106.5 33.7999 106.5 33.7961C106.496 33.7797 106.492 33.7608 106.491 33.7419L106.472 33.5038L106.371 32.1205C105.315 34.0468 104 35.0383 103.129 35.4087C97.2598 37.9171 92.0958 34.3164 91.4718 25.8905L90.7087 15.387L90.6836 15.0368C90.7112 14.2746 91.3039 13.6295 92.0795 13.5628L92.1234 13.5577L95.3087 13.3209C95.31 13.3158 95.31 13.3158 95.3162 13.3209L95.7272 13.2869H95.731H95.7373C96.4315 13.336 97.0179 13.8588 97.1407 14.5543C97.1507 14.6047 97.157 14.6576 97.1608 14.7105L97.9364 25.1447C98.0943 27.2574 99.8185 28.9973 101.922 28.9721C104.223 28.9457 105.986 26.9765 105.817 24.71L105.639 22.2785L105.045 14.3174C105.045 14.3174 105.045 14.3174 105.044 14.3162L105.019 13.9747C105.02 13.9684 105.02 13.9634 105.02 13.9596C105.046 13.1961 105.644 12.5524 106.419 12.4856L106.459 12.4831L109.654 12.2437L110.059 12.2109H110.065C110.767 12.2525 111.356 12.7779 111.482 13.4771C111.493 13.5325 111.496 13.5867 111.502 13.6384C111.504 13.6636 111.504 13.6913 111.504 13.7177L112.072 21.3336L112.094 21.5528Z" fill="#115934"/>
<path d="M139.501 18.7757C138.839 17.3042 137.863 15.9914 136.709 14.9016C135.54 13.8131 134.174 12.9577 132.684 12.4109C131.199 11.8591 129.607 11.6285 128.057 11.718C125.788 11.8314 123.601 12.6414 121.777 13.9341L121.773 13.9177C121.648 13.2701 121.12 12.7624 120.451 12.683H120.449C120.39 12.6767 120.343 12.6729 120.288 12.6729L116.76 12.7271C115.995 12.7624 115.38 13.3621 115.307 14.1104C115.307 14.113 115.307 14.1167 115.304 14.1205C115.297 14.1785 115.291 14.2339 115.294 14.2931L115.731 43.4904C115.733 43.5508 115.737 43.6063 115.75 43.6655C115.75 43.668 115.75 43.668 115.747 43.6718C115.849 44.439 116.509 45.0236 117.291 45.011L120.708 44.9619C121.506 44.9518 122.152 44.3345 122.216 43.5508C122.216 43.5408 122.218 43.5231 122.218 43.513L122.075 33.734C122.643 34.1145 123.242 34.4484 123.866 34.7293C125.288 35.3693 126.843 35.7485 128.417 35.7977C129.991 35.8481 131.614 35.5885 133.112 34.9926C134.615 34.3954 135.984 33.4757 137.123 32.3192C138.262 31.1664 139.17 29.7768 139.765 28.2574C140.361 26.733 140.632 25.0914 140.599 23.4788C140.548 21.8661 140.185 20.2434 139.501 18.7757ZM133.298 23.5909C133.276 24.9818 132.799 26.3172 131.919 27.3957C131.031 28.4539 129.782 29.2111 128.326 29.4014C127.591 29.487 126.838 29.4291 126.128 29.1859C125.415 28.944 124.739 28.5358 124.189 27.9802C123.634 27.4297 123.229 26.7431 122.971 26.0199C122.708 25.2854 122.569 24.527 122.548 23.7509C122.535 22.9748 122.617 22.2013 122.836 21.4466C123.055 20.6957 123.436 19.9738 123.976 19.3918C124.516 18.8047 125.192 18.3587 125.903 18.0828C126.629 17.8056 127.392 17.6973 128.148 17.7439C129.654 17.8547 131.026 18.5628 131.953 19.6715C132.898 20.7915 133.313 22.2013 133.298 23.5909Z" fill="#115934"/>
<path d="M63.5447 32.8346C63.5322 32.8863 63.5209 32.948 63.5084 33.0034C63.4231 33.3096 63.2653 33.5742 63.0485 33.782C63.0447 33.7846 63.0422 33.7858 63.0422 33.7858C62.8994 33.8904 62.7553 33.9849 62.6061 34.0819C62.6061 34.0831 62.6061 34.0831 62.6036 34.0831C60.6238 35.3745 58.2479 36.1203 55.7079 36.0951C48.8298 36.0158 43.315 30.3489 43.3914 23.4335C43.4678 16.522 49.1042 10.9811 55.9798 11.0554C58.4998 11.0831 60.838 11.8617 62.7816 13.1795C62.7841 13.1795 62.7841 13.1796 62.7878 13.1833C62.9595 13.3005 63.1324 13.424 63.3016 13.5474C63.3054 13.5537 63.3054 13.5537 63.3079 13.5588C63.3429 13.5915 63.3743 13.6268 63.4031 13.6659C63.883 14.2794 63.8805 15.1386 63.4081 15.7446L63.0911 16.0546L60.7904 18.3236L60.5185 18.5856C60.5147 18.5894 60.511 18.5919 60.506 18.5995C60.0072 18.9762 59.3494 19.0366 58.798 18.7859C58.7028 18.7242 58.6025 18.6637 58.4998 18.6083C58.4998 18.6058 58.4973 18.6058 58.4948 18.6045C57.7216 18.1825 56.8432 17.9406 55.9059 17.9317C52.8121 17.8965 50.2671 20.3998 50.2345 23.5091C50.1956 26.6185 52.6905 29.181 55.7794 29.2125C56.7054 29.2226 57.5825 29.0046 58.3607 28.6065C58.4797 28.5473 58.6025 28.4831 58.7166 28.41C58.9897 28.2991 59.2955 28.2538 59.6138 28.3079C59.9772 28.3697 60.2942 28.5372 60.5361 28.7955C60.5461 28.8043 60.5523 28.8131 60.5624 28.8207L62.8793 31.2031C62.8793 31.2056 62.8818 31.2056 62.8856 31.2094L63.2653 31.6025C63.2678 31.6037 63.2715 31.605 63.2715 31.6075C63.4783 31.9111 63.5873 32.2727 63.566 32.662C63.5585 32.7137 63.5535 32.7729 63.5447 32.8346Z" fill="#115934"/>
<path d="M155.474 33.2759H154.752V35.4227H154.243V33.2759H153.535V32.8828H155.475V33.2759H155.474Z" fill="#115934"/>
<path d="M157.057 34.7562H157.071L157.721 32.8828H158.38V35.4227H157.872V33.6916L157.862 33.6853L157.24 35.4227H156.894L156.269 33.6816L156.259 33.6828V35.4227H155.754V32.8828H156.419L157.057 34.7562Z" fill="#115934"/>
<path d="M152.352 8.19306C152.352 8.19306 152.346 8.19306 152.344 8.19306C152.296 8.1792 152.243 8.16912 152.194 8.16408L147.006 7.74581C146.232 7.69289 145.546 8.22581 145.385 8.97417C145.385 8.97795 145.385 8.98047 145.379 8.98173C145.366 9.0359 145.354 9.09512 145.347 9.15055L144.721 31.0192C145.431 30.8252 146.188 30.7546 146.959 30.8441C147.724 30.9285 148.442 31.1616 149.088 31.5005L153.549 9.61544V9.5978C153.496 8.92756 153.011 8.35558 152.352 8.19306Z" fill="#115934"/>
<path d="M146.723 32.9077C144.517 32.6621 142.531 34.2596 142.292 36.4744C142.041 38.6867 143.629 40.6836 145.833 40.9305C148.037 41.1762 150.026 39.585 150.27 37.3702C150.513 35.1553 148.928 33.1572 146.723 32.9077Z" fill="#F26522"/>
</svg>
