<svg width="329" height="65" viewBox="0 0 329 65" fill="none" xmlns="http://www.w3.org/2000/svg">
<g clip-path="url(#clip0_496_73790)">
<path d="M57.5852 29.3742C57.5837 24.5308 56.3556 19.7666 54.0155 15.5261C51.6754 11.2855 48.2995 7.70655 44.2027 5.12306C40.1058 2.53957 35.4214 1.03564 30.5863 0.75154C25.7513 0.467434 20.923 1.4124 16.5518 3.49831C12.1805 5.58423 8.40875 8.74315 5.58812 12.6805C2.76749 16.6178 0.989904 21.2054 0.421121 26.0153C-0.147663 30.8252 0.510887 35.7008 2.33536 40.1874C4.15983 44.6741 7.09079 48.6256 10.8549 51.6735V28.6439C10.8549 24.0658 27.4227 13.4671 29.0149 13.0413C30.6072 12.6155 37.4381 17.1936 39.2498 18.1303C41.0614 19.0671 48.9607 23.9652 47.9078 25.3561C46.8549 26.7471 44.0756 25.6632 41.9569 24.7135C39.8381 23.7639 29.6446 18.2335 28.904 18.5639C28.1633 18.8942 22.4523 23.5497 20.7311 27.9084C19.0098 32.2671 22.5143 36.3445 27.2962 35.8181C32.0781 35.2916 36.9298 28.1716 38.9091 26.9587C41.7323 25.2606 43.6472 28.7652 43.6472 28.7652C35.4149 32.8013 36.2175 42.4426 31.6575 44.3677C27.0975 46.2929 24.5504 49.2529 24.5504 51.049V57.7329C30.8439 58.6966 37.279 57.5361 42.8394 54.4348L55.7943 57.5316L53.4407 44.2103C56.1538 39.7374 57.5873 34.6056 57.5852 29.3742ZM43.1336 17.4C42.9456 17.619 42.6825 17.7598 42.396 17.7947C42.1095 17.8295 41.8203 17.7559 41.5852 17.5884L34.9401 13.849C36.5194 13.6735 41.1336 13.0748 43.0769 14.6645C44.251 15.6297 43.7246 16.6981 43.1259 17.4H43.1336Z" fill="#F2662B"/>
<path d="M194.523 17.2198L189.068 44.7939L183.762 44.2159L184.355 16.1152L194.523 17.2198Z" fill="#145A35"/>
<path d="M185.329 57.4807C188.024 57.4807 190.209 55.2959 190.209 52.6007C190.209 49.9056 188.024 47.7207 185.329 47.7207C182.634 47.7207 180.449 49.9056 180.449 52.6007C180.449 55.2959 182.634 57.4807 185.329 57.4807Z" fill="#F2662B"/>
<path d="M75.6124 52.6C71.5539 52.6 68.1655 51.2778 65.4472 48.6335C62.7289 45.9892 61.3689 42.7058 61.3672 38.7832C61.3672 34.8606 62.7272 31.5772 65.4472 28.9329C68.1672 26.2886 71.5556 24.9673 75.6124 24.969C78.1056 24.9364 80.566 25.5404 82.7607 26.7239C84.8456 27.8447 86.5901 29.5063 87.8111 31.5342L81.2459 35.5264C80.6981 34.5414 79.896 33.7215 78.9233 33.1522C77.9212 32.5603 76.7761 32.2542 75.6124 32.2671C74.7507 32.2401 73.8929 32.3925 73.0932 32.7146C72.2936 33.0367 71.5696 33.5214 70.9672 34.1381C69.7826 35.3946 69.1228 37.0563 69.1228 38.7832C69.1228 40.5101 69.7826 42.1718 70.9672 43.4284C71.5695 44.0452 72.2935 44.53 73.0931 44.8521C73.8928 45.1741 74.7507 45.3265 75.6124 45.2993C76.775 45.3127 77.9192 45.0074 78.9207 44.4168C79.8935 43.8475 80.6956 43.0276 81.2433 42.0426L87.8085 46.009C86.5938 48.0485 84.8483 49.72 82.7582 50.8452C80.5642 52.0282 78.1047 52.6321 75.6124 52.6Z" fill="#145A35"/>
<path d="M106.387 25.3105C109.416 25.4447 111.815 26.4649 113.584 28.3712C115.353 30.2774 116.172 32.7445 116.041 35.7725L115.354 51.935L107.816 51.597L108.387 37.9892C108.455 36.3927 108.049 35.0937 107.166 34.0925C106.283 33.0912 105.079 32.5587 103.553 32.495C101.919 32.4228 100.577 32.8529 99.5273 33.7854C98.4778 34.7178 97.9161 35.9953 97.8421 37.6176L97.215 51.9247L89.6641 51.597L91.2924 14.3789L98.8383 14.717L98.2395 28.3712C100.459 26.1914 103.175 25.1712 106.387 25.3105Z" fill="#145A35"/>
<path d="M165.269 27.5557C168.908 27.5557 171.939 28.8727 174.363 31.5066C176.787 34.1406 177.999 37.4284 177.999 41.3699C177.999 45.3096 176.787 48.5974 174.363 51.2331C171.939 53.8688 168.908 55.1866 165.269 55.1866C162.088 55.1866 159.437 54.1002 157.315 51.9273V64.2008H149.762V28.1853H157.315V30.8124C159.437 28.6395 162.088 27.5539 165.269 27.5557ZM159.158 46.0176C160.398 47.2162 162.055 47.8862 163.78 47.8862C165.504 47.8862 167.162 47.2162 168.402 46.0176C169.584 44.7599 170.242 43.0986 170.242 41.3724C170.242 39.6462 169.584 37.985 168.402 36.7273C167.162 35.5286 165.504 34.8586 163.78 34.8586C162.055 34.8586 160.398 35.5286 159.158 36.7273C157.976 37.985 157.317 39.6462 157.317 41.3724C157.317 43.0986 157.976 44.7599 159.158 46.0176Z" fill="#145A35"/>
<path d="M136.313 25.3495L136.992 40.1108C137.061 41.5886 136.67 42.799 135.82 43.7418C134.97 44.6846 133.805 45.1886 132.324 45.254C130.844 45.3246 129.634 44.9297 128.693 44.0695C127.752 43.2093 127.247 42.0394 127.178 40.5598L126.499 25.7908L118.969 26.1469L119.694 41.9405C119.849 45.3056 121.113 47.9577 123.487 49.8966C125.859 51.8347 128.287 52.7172 132.04 52.5469C133.882 52.4618 136.636 51.205 137.622 50.2476L137.795 52.3121L145.111 51.9689L144.595 40.7921L144.445 37.5379L143.859 25.0166L136.313 25.3495Z" fill="#145A35"/>
<path d="M220.675 25.5144C218.554 24.3716 216.183 23.7734 213.775 23.7734C211.366 23.7734 208.995 24.3716 206.874 25.5144C204.848 26.6359 203.169 28.2927 202.02 30.3039C201.002 32.1309 200.409 34.1635 200.283 36.2511C200.157 38.3386 200.503 40.4277 201.294 42.3635C201.941 43.9569 202.904 45.4021 204.127 46.6108C205.35 47.8196 206.806 48.7666 208.407 49.3943C211.849 50.7675 215.686 50.7675 219.127 49.3943C220.733 48.7546 222.197 47.8049 223.436 46.5994C224.652 45.3902 225.615 43.95 226.267 42.3635C226.964 40.6935 227.318 38.9001 227.307 37.0904C227.335 34.7109 226.725 32.3672 225.539 30.3039C224.386 28.2929 222.704 26.6364 220.675 25.5144ZM220.651 43.0236V40.0667C220.644 39.3241 220.344 38.6142 219.816 38.0923C219.288 37.5704 218.574 37.2789 217.832 37.2814H217.07C216.332 37.2853 215.626 37.5798 215.104 38.1013C214.582 38.6227 214.287 39.3289 214.282 40.0667V46.111C214.108 46.111 213.937 46.1352 213.76 46.1352C213.584 46.1352 213.342 46.1207 213.136 46.1086V40.0643C213.136 39.0029 213.521 37.7674 214.531 37.279H213.315C212.578 37.2835 211.872 37.5783 211.351 38.0997C210.829 38.6211 210.534 39.3269 210.53 40.0643V45.5646C210.199 45.4432 209.876 45.3019 209.563 45.1415V40.0643C209.563 39.0029 209.947 37.7674 210.958 37.279H209.713C208.976 37.2835 208.27 37.5783 207.748 38.0997C207.227 38.6211 206.932 39.3269 206.928 40.0643V43.0284C205.525 41.3964 204.817 39.4163 204.817 37.088C204.817 34.5091 205.67 32.3622 207.377 30.6472C209.084 28.9322 211.213 28.0731 213.763 28.0699C216.324 28.0699 218.463 28.929 220.182 30.6472C221.9 32.3654 222.759 34.5123 222.759 37.088C222.759 39.4163 222.051 41.3916 220.651 43.0236Z" fill="#F2662B"/>
<path d="M252.323 49.969V37.9988C252.323 35.7422 251.633 33.9273 250.255 32.554C248.877 31.1808 247.059 30.4941 244.801 30.4941C242.09 30.4941 239.953 31.4661 238.389 33.4099V30.9511H234.199V49.969H238.389V39.4397C238.389 37.9569 238.85 36.7665 239.772 35.8688C240.694 34.971 241.909 34.5229 243.416 34.5245C244.849 34.5245 245.996 34.9686 246.858 35.8567C247.721 36.7448 248.152 37.9158 248.152 39.3696V49.9738L252.323 49.969Z" fill="#F2662B"/>
<path d="M264.124 23.0986H259.934V49.9669H264.124V23.0986Z" fill="#F2662B"/>
<path d="M276.233 30.9512H272.043V49.969H276.233V30.9512Z" fill="#F2662B"/>
<path d="M274.14 22.4366C273.79 22.4276 273.442 22.4891 273.116 22.6175C272.79 22.7458 272.494 22.9384 272.244 23.1837C271.754 23.6893 271.48 24.3656 271.48 25.0695C271.48 25.7735 271.754 26.4498 272.244 26.9554C272.491 27.2053 272.787 27.4021 273.113 27.5335C273.439 27.6649 273.788 27.7281 274.14 27.7194C274.493 27.7293 274.844 27.6676 275.173 27.5379C275.502 27.4083 275.801 27.2134 276.052 26.965C276.544 26.4584 276.819 25.7803 276.819 25.0744C276.819 24.3685 276.544 23.6903 276.052 23.1837C275.8 22.9373 275.5 22.7442 275.172 22.6159C274.843 22.4875 274.492 22.4266 274.14 22.4366Z" fill="#F2662B"/>
<path d="M294.758 30.4941C292.049 30.4941 289.911 31.4661 288.346 33.4099V30.9511H284.156V49.969H288.346V39.4397C288.346 37.9569 288.807 36.7665 289.729 35.8688C290.651 34.971 291.866 34.5213 293.373 34.5197C294.804 34.5197 295.952 34.9637 296.815 35.8518C297.679 36.7399 298.111 37.9109 298.109 39.3648V49.969H302.289V37.9988C302.289 35.7422 301.6 33.9273 300.222 32.554C298.844 31.1808 297.023 30.4941 294.758 30.4941Z" fill="#F2662B"/>
<path d="M318.781 30.4948C316.994 30.4741 315.233 30.92 313.672 31.7883C312.161 32.6224 310.907 33.8539 310.045 35.3496C309.166 36.881 308.714 38.6201 308.735 40.3858C308.735 43.2419 309.734 45.6282 311.731 47.5447C313.728 49.4611 316.232 50.421 319.245 50.4242C320.939 50.4382 322.615 50.0774 324.153 49.3676C325.621 48.7083 326.912 47.7088 327.917 46.4518L325.096 44.0341C324.457 44.8409 323.636 45.4847 322.7 45.9127C321.663 46.4112 320.526 46.6659 319.376 46.6573C317.956 46.6964 316.564 46.2645 315.415 45.4291C314.326 44.6256 313.56 43.4595 313.254 42.141H328.667C328.74 41.5977 328.776 41.05 328.776 40.5018C328.776 37.6344 327.825 35.2505 325.923 33.3502C324.021 31.4498 321.64 30.4981 318.781 30.4948ZM313.205 38.7151C313.504 37.4484 314.212 36.3156 315.219 35.4923C316.215 34.6852 317.464 34.2569 318.745 34.2834C320.037 34.2571 321.297 34.6849 322.306 35.4923C323.32 36.3067 324.024 37.4443 324.3 38.7151H313.205Z" fill="#F2662B"/>
<path d="M213.587 32.7891C213.3 32.7891 213.02 32.8741 212.781 33.0335C212.543 33.1929 212.357 33.4195 212.247 33.6846C212.137 33.9496 212.109 34.2413 212.165 34.5227C212.221 34.8041 212.359 35.0626 212.562 35.2655C212.764 35.4683 213.023 35.6065 213.304 35.6625C213.586 35.7184 213.877 35.6897 214.142 35.5799C214.408 35.4701 214.634 35.2842 214.794 35.0456C214.953 34.8071 215.038 34.5266 215.038 34.2397C215.038 33.855 214.885 33.486 214.613 33.2139C214.341 32.9419 213.972 32.7891 213.587 32.7891Z" fill="#F2662B"/>
<path d="M217.466 32.7891C217.179 32.7891 216.899 32.8741 216.66 33.0335C216.422 33.1929 216.236 33.4195 216.126 33.6846C216.016 33.9496 215.988 34.2413 216.043 34.5227C216.099 34.8041 216.238 35.0626 216.441 35.2655C216.643 35.4683 216.902 35.6065 217.183 35.6625C217.465 35.7184 217.756 35.6897 218.021 35.5799C218.286 35.4701 218.513 35.2842 218.672 35.0456C218.832 34.8071 218.917 34.5266 218.917 34.2397C218.917 33.855 218.764 33.486 218.492 33.2139C218.22 32.9419 217.851 32.7891 217.466 32.7891Z" fill="#F2662B"/>
<path d="M261.933 61.1856C259.807 61.1506 257.738 60.4951 255.98 59.2997C254.222 58.1043 252.851 56.421 252.037 54.457H248.672C249.567 57.2823 251.326 59.7553 253.701 61.5273C256.077 63.2993 258.948 64.2809 261.911 64.3335H262.03C265.015 64.3119 267.916 63.3442 270.316 61.5695C272.717 59.7948 274.492 57.3046 275.388 54.457H272.022C271.213 56.4639 269.818 58.1798 268.017 59.3803C266.217 60.5809 264.097 61.21 261.933 61.1856Z" fill="#F2662B"/>
</g>
<defs>
<clipPath id="clip0_496_73790">
<rect width="328.774" height="64" fill="white" transform="translate(0 0.5)"/>
</clipPath>
</defs>
</svg>
