<svg width="225" height="45" viewBox="0 0 225 45" fill="none" xmlns="http://www.w3.org/2000/svg">
<path d="M172.058 34.0241C170.82 34.0241 169.677 33.8204 168.627 33.4131C167.593 32.9901 166.693 32.4026 165.925 31.6507C165.173 30.883 164.585 29.9822 164.162 28.9483C163.755 27.8987 163.551 26.755 163.551 25.5174C163.551 24.2955 163.763 23.1675 164.186 22.1336C164.625 21.0996 165.236 20.1988 166.019 19.4312C166.802 18.6635 167.719 18.0682 168.768 17.6453C169.834 17.2223 170.985 17.0108 172.223 17.0108C173.006 17.0108 173.774 17.1126 174.525 17.3163C175.277 17.5199 175.975 17.8254 176.617 18.2327C177.275 18.6244 177.839 19.1022 178.309 19.6662L175.841 22.4626C175.356 21.9299 174.807 21.5148 174.197 21.2171C173.601 20.9195 172.935 20.7706 172.199 20.7706C171.572 20.7706 170.977 20.8803 170.413 21.0996C169.865 21.3189 169.387 21.6401 168.98 22.0631C168.572 22.486 168.251 22.9874 168.016 23.567C167.781 24.1466 167.664 24.8046 167.664 25.5409C167.664 26.2616 167.773 26.9195 167.993 27.5148C168.228 28.0945 168.557 28.5958 168.98 29.0188C169.418 29.4261 169.935 29.7394 170.531 29.9587C171.142 30.1781 171.815 30.2877 172.552 30.2877C173.037 30.2877 173.499 30.225 173.938 30.0997C174.392 29.9587 174.815 29.7629 175.207 29.5122C175.599 29.2616 175.935 28.9796 176.217 28.6663L178.168 31.7681C177.792 32.1911 177.275 32.5749 176.617 32.9196C175.975 33.2643 175.254 33.5384 174.455 33.7421C173.672 33.9301 172.873 34.0241 172.058 34.0241ZM179.563 33.7891V16.3998H183.346V33.7891H179.563ZM185.971 33.7891V21.3111H189.754V33.7891H185.971ZM187.875 18.8437C187.154 18.8437 186.59 18.6792 186.183 18.3502C185.791 18.0056 185.595 17.5199 185.595 16.8933C185.595 16.3136 185.799 15.8437 186.206 15.4834C186.613 15.123 187.17 14.9429 187.875 14.9429C188.564 14.9429 189.104 15.1152 189.496 15.4599C189.903 15.7888 190.107 16.2667 190.107 16.8933C190.107 17.4729 189.903 17.9429 189.496 18.3032C189.104 18.6635 188.564 18.8437 187.875 18.8437ZM192.37 33.7891V21.3111H195.965L196.106 23.849L195.331 24.131C195.503 23.567 195.808 23.0579 196.247 22.6035C196.701 22.1336 197.242 21.7576 197.868 21.4756C198.495 21.1936 199.153 21.0526 199.842 21.0526C200.782 21.0526 201.573 21.2484 202.216 21.6401C202.858 22.0161 203.336 22.5879 203.649 23.3555C203.978 24.1075 204.143 25.0396 204.143 26.1519V33.7891H200.359V26.4339C200.359 25.9326 200.289 25.5174 200.148 25.1884C200.007 24.8594 199.795 24.6166 199.513 24.46C199.231 24.3033 198.879 24.2328 198.456 24.2485C198.127 24.2485 197.821 24.3033 197.539 24.413C197.257 24.507 197.007 24.6558 196.787 24.8594C196.584 25.0474 196.427 25.2668 196.318 25.5174C196.208 25.7681 196.153 26.0501 196.153 26.3634V33.7891H194.25C193.842 33.7891 193.474 33.7891 193.145 33.7891C192.832 33.7891 192.573 33.7891 192.37 33.7891ZM206.58 33.7891V21.3111H210.364V33.7891H206.58ZM208.484 18.8437C207.763 18.8437 207.199 18.6792 206.792 18.3502C206.4 18.0056 206.205 17.5199 206.205 16.8933C206.205 16.3136 206.408 15.8437 206.815 15.4834C207.223 15.123 207.779 14.9429 208.484 14.9429C209.173 14.9429 209.714 15.1152 210.105 15.4599C210.513 15.7888 210.716 16.2667 210.716 16.8933C210.716 17.4729 210.513 17.9429 210.105 18.3032C209.714 18.6635 209.173 18.8437 208.484 18.8437ZM218.454 34.0241C217.248 34.0241 216.159 33.7421 215.188 33.1781C214.232 32.6141 213.48 31.8465 212.932 30.8752C212.384 29.8882 212.11 28.7838 212.11 27.5618C212.11 26.3086 212.384 25.1963 212.932 24.225C213.48 23.238 214.232 22.4626 215.188 21.8986C216.159 21.3346 217.248 21.0526 218.454 21.0526C219.567 21.0526 220.585 21.2563 221.509 21.6636C222.449 22.0552 223.185 22.5957 223.718 23.285L221.674 25.7759C221.47 25.5096 221.219 25.2668 220.922 25.0474C220.624 24.8281 220.295 24.6558 219.935 24.5305C219.574 24.4051 219.198 24.3425 218.807 24.3425C218.211 24.3425 217.687 24.4835 217.232 24.7655C216.778 25.0318 216.426 25.4078 216.175 25.8934C215.924 26.379 215.799 26.9274 215.799 27.5383C215.799 28.1336 215.924 28.6741 216.175 29.1598C216.441 29.6297 216.802 30.0057 217.256 30.2877C217.71 30.5697 218.219 30.7107 218.783 30.7107C219.191 30.7107 219.567 30.6559 219.911 30.5462C220.256 30.4365 220.569 30.2799 220.851 30.0762C221.149 29.8726 221.423 29.6297 221.674 29.3478L223.718 31.8386C223.185 32.4966 222.441 33.0293 221.486 33.4366C220.53 33.8282 219.52 34.0241 218.454 34.0241Z" fill="#F26522"/>
<path d="M37.8303 30.487C39.5357 27.505 40.5144 24.0494 40.5144 20.3633C40.5144 9.11712 31.4459 1.30542e-07 20.2572 1.30542e-07C9.06975 -0.00125966 0 9.11586 0 20.362C0 26.2516 2.4861 31.5565 6.46836 35.2767C6.57237 29.4741 6.75407 22.9837 7.06357 20.5674C7.64751 16.022 11.8904 14.2722 17.4841 9.51269C19.1369 8.10173 21.7245 7.74143 25.0915 10.1376C28.6653 12.6823 32.2065 14.1563 33.3418 15.3203C34.8292 16.8459 34.15 18.2267 32.7416 18.2267C31.3431 18.2267 28.6415 16.3609 26.7932 15.474C20.7697 12.5664 20.2559 12.3397 17.444 15.5295C14.458 18.9196 12.6849 22.1938 16.597 24.188C19.9489 25.895 23.3761 22.2643 25.5026 19.7145C27.3771 17.4708 29.8357 17.6056 30.689 18.6852C31.5424 19.7737 29.6477 20.4477 28.2982 21.8309C25.6379 24.5584 26.4386 25.2462 24.3623 28.8178C22.6631 31.7417 20.3299 31.5452 18.1721 33.7108C17.3488 34.5322 17.1734 37.5242 17.2222 40.5023C18.2122 40.6573 19.2259 40.7329 20.2559 40.7329C23.935 40.7329 27.3822 39.7376 30.3595 38.0142L37.2438 39.1997C37.2438 39.1997 39.3803 39.4454 38.8553 36.6171C38.621 35.3447 38.1724 32.6034 37.8303 30.487ZM30.2241 11.7891L24.3635 8.56029C25.579 8.69005 26.0539 8.68501 26.9373 8.83996C27.6867 8.97224 30.1114 9.05035 30.6953 10.096C31.2767 11.1328 30.2241 11.7891 30.2241 11.7891Z" fill="#F26522"/>
<path d="M88.1648 22.5181L87.4054 33.0009L87.3791 33.3977C87.2275 34.1485 86.5446 34.6827 85.7576 34.6272L82.3405 34.3816C81.4859 34.3199 80.8544 33.5841 80.9107 32.7287L81.6551 22.314C81.8079 20.2001 80.3556 18.226 78.2668 17.9451C75.9937 17.6352 73.9587 19.3233 73.7983 21.5909L73.0289 32.3231C72.8948 33.0916 72.2044 33.6547 71.4099 33.5967L67.9853 33.3486C67.1946 33.2931 66.5793 32.638 66.5605 31.8507L67.1319 23.7981C67.1294 23.8573 67.1219 23.9165 67.1144 23.9744L67.1495 23.594L68.6557 2.45718C68.7722 1.66477 69.4764 1.08274 70.2847 1.1407L73.7068 1.38887C74.5013 1.44557 75.1015 2.08932 75.1316 2.86787L74.4399 12.5532C75.307 12.1185 76.2819 11.5352 77.2092 11.2946C83.3755 9.67327 88.7675 14.0977 88.1648 22.5181Z" fill="#115934"/>
<path d="M87.4095 33.1783C87.4057 33.2337 87.4019 33.2841 87.3892 33.337C87.3854 33.3508 87.3854 33.3634 87.3828 33.376L87.4095 32.9805C87.412 32.9943 87.412 33.0069 87.412 33.0208C87.4158 33.0724 87.412 33.1279 87.4095 33.1783Z" fill="#115934"/>
<path d="M112.09 21.5757C112.09 21.514 112.086 21.451 112.085 21.3943L112.11 21.7798L112.114 21.8113L112.937 32.9504C112.933 32.9504 112.933 32.9504 112.937 32.9529L112.963 33.3598C112.923 34.0867 112.379 34.6977 111.65 34.796L111.469 34.8086C111.464 34.8099 111.454 34.8111 111.449 34.8099L108.274 35.0492C108.27 35.048 108.27 35.0492 108.27 35.0492L107.968 35.0706C107.242 35.053 106.633 34.5314 106.496 33.8222C106.496 33.8222 106.496 33.8222 106.496 33.8184C106.492 33.802 106.488 33.7831 106.487 33.7642L106.468 33.5261L106.367 32.1429C105.311 34.0691 103.996 35.0606 103.125 35.4309C97.2558 37.9392 92.0919 34.3387 91.4679 25.9132L90.7048 15.4103L90.6797 15.0601C90.7073 14.2979 91.3 13.6529 92.0756 13.5861L92.1195 13.5811L95.3048 13.3443C95.306 13.3392 95.306 13.3392 95.3123 13.3443L95.7233 13.3102H95.7271H95.7333C96.4275 13.3594 97.014 13.8822 97.1368 14.5776C97.1468 14.628 97.1531 14.6809 97.1568 14.7338L97.9325 25.1674C98.0904 27.2801 99.8146 29.0198 101.919 28.9947C104.219 28.9682 105.982 26.9991 105.813 24.7328L105.635 22.3014L105.041 14.3407C105.041 14.3407 105.041 14.3407 105.04 14.3395L105.015 13.9981C105.016 13.9918 105.016 13.9867 105.016 13.983C105.042 13.2195 105.64 12.5758 106.415 12.509L106.455 12.5065L109.65 12.2671L110.055 12.2344H110.061C110.763 12.2759 111.352 12.8013 111.478 13.5005C111.489 13.5559 111.492 13.6101 111.498 13.6617C111.5 13.6869 111.5 13.7146 111.5 13.7411L112.068 21.3565L112.09 21.5757Z" fill="#115934"/>
<path d="M139.498 18.7675C138.837 17.2961 137.861 15.9834 136.707 14.8937C135.537 13.8052 134.172 12.9498 132.682 12.403C131.197 11.8513 129.605 11.6207 128.055 11.7102C125.786 11.8235 123.599 12.6336 121.775 13.9261L121.771 13.9098C121.646 13.2622 121.118 12.7545 120.449 12.6752H120.447C120.388 12.6689 120.341 12.6651 120.286 12.6651L116.758 12.7192C115.993 12.7545 115.378 13.3542 115.305 14.1025C115.305 14.105 115.305 14.1088 115.302 14.1126C115.295 14.1705 115.289 14.226 115.292 14.2852L115.729 43.4809C115.731 43.5413 115.735 43.5968 115.748 43.656C115.748 43.6585 115.748 43.6585 115.745 43.6623C115.847 44.4295 116.507 45.014 117.289 45.0014L120.706 44.9523C121.504 44.9422 122.15 44.3249 122.214 43.5413C122.214 43.5313 122.216 43.5136 122.216 43.5035L122.073 33.725C122.641 34.1055 123.24 34.4393 123.864 34.7203C125.286 35.3602 126.841 35.7394 128.415 35.7886C129.989 35.839 131.612 35.5794 133.11 34.9836C134.613 34.3864 135.982 33.4668 137.121 32.3103C138.26 31.1576 139.168 29.768 139.763 28.2487C140.359 26.7244 140.63 25.0829 140.597 23.4703C140.546 21.8578 140.183 20.2352 139.498 18.7675ZM133.296 23.5824C133.274 24.9733 132.797 26.3086 131.917 27.387C131.029 28.4452 129.78 29.2024 128.324 29.3926C127.589 29.4783 126.836 29.4203 126.126 29.1772C125.413 28.9353 124.737 28.5271 124.187 27.9716C123.632 27.421 123.227 26.7344 122.969 26.0113C122.706 25.2769 122.567 24.5185 122.546 23.7424C122.533 22.9664 122.615 22.1929 122.834 21.4383C123.053 20.6874 123.434 19.9656 123.974 19.3836C124.514 18.7965 125.19 18.3505 125.901 18.0746C126.627 17.7975 127.39 17.6891 128.146 17.7357C129.652 17.8466 131.024 18.5546 131.951 19.6632C132.896 20.7832 133.311 22.1929 133.296 23.5824Z" fill="#115934"/>
<path d="M63.5446 32.8413C63.5321 32.8929 63.5208 32.9547 63.5082 33.0101C63.423 33.3162 63.2652 33.5808 63.0484 33.7886C63.0446 33.7912 63.0421 33.7924 63.0421 33.7924C62.8993 33.897 62.7551 33.9915 62.606 34.0885C62.606 34.0897 62.606 34.0897 62.6035 34.0897C60.6237 35.381 58.2478 36.1268 55.7079 36.1016C48.8297 36.0223 43.315 30.3557 43.3914 23.4407C43.4678 16.5295 49.1042 10.9889 55.9798 11.0632C58.4997 11.091 60.8379 11.8695 62.7815 13.1872C62.784 13.1872 62.784 13.1872 62.7877 13.191C62.9594 13.3082 63.1323 13.4316 63.3015 13.5551C63.3053 13.5614 63.3052 13.5614 63.3078 13.5664C63.3428 13.5992 63.3742 13.6345 63.403 13.6735C63.8829 14.287 63.8804 15.1462 63.408 15.7522L63.091 16.0621L60.7903 18.331L60.5184 18.593C60.5147 18.5968 60.5109 18.5993 60.5059 18.6069C60.0072 18.9836 59.3493 19.044 58.7979 18.7933C58.7027 18.7316 58.6025 18.6711 58.4997 18.6157C58.4997 18.6132 58.4972 18.6132 58.4947 18.6119C57.7216 18.1899 56.8432 17.948 55.9059 17.9392C52.812 17.9039 50.267 20.4071 50.2344 23.5163C50.1956 26.6255 52.6905 29.1879 55.7793 29.2194C56.7053 29.2294 57.5825 29.0115 58.3606 28.6134C58.4797 28.5542 58.6025 28.4899 58.7165 28.4169C58.9897 28.306 59.2954 28.2607 59.6137 28.3148C59.9771 28.3766 60.2941 28.5441 60.536 28.8024C60.546 28.8112 60.5522 28.82 60.5623 28.8276L62.8792 31.2098C62.8792 31.2124 62.8817 31.2124 62.8855 31.2161L63.2652 31.6092C63.2677 31.6105 63.2714 31.6117 63.2714 31.6142C63.4782 31.9178 63.5872 32.2794 63.5659 32.6687C63.5584 32.7203 63.5534 32.7795 63.5446 32.8413Z" fill="#115934"/>
<path d="M155.472 33.2759H154.75V35.4226H154.241V33.2759H153.533V32.8828H155.473V33.2759H155.472Z" fill="#115934"/>
<path d="M157.057 34.7561H157.071L157.721 32.8828H158.38V35.4226H157.872V33.6916L157.862 33.6853L157.24 35.4226H156.894L156.269 33.6815L156.259 33.6828V35.4226H155.754V32.8828H156.419L157.057 34.7561Z" fill="#115934"/>
<path d="M152.354 8.20866C152.354 8.20866 152.348 8.20866 152.346 8.20866C152.297 8.1948 152.245 8.18472 152.196 8.17968L147.008 7.76143C146.234 7.70852 145.548 8.24141 145.387 8.98973C145.387 8.99351 145.387 8.99603 145.381 8.99729C145.368 9.05146 145.355 9.11067 145.349 9.1661L144.723 31.0336C145.433 30.8396 146.19 30.769 146.961 30.8585C147.726 30.9429 148.444 31.1759 149.09 31.5148L153.551 9.63096V9.61333C153.498 8.94312 153.013 8.37117 152.354 8.20866Z" fill="#115934"/>
<path d="M146.721 32.9077C144.515 32.6621 142.529 34.2595 142.29 36.4742C142.039 38.6864 143.627 40.6832 145.831 40.9301C148.035 41.1758 150.024 39.5846 150.268 37.3699C150.511 35.1552 148.926 33.1572 146.721 32.9077Z" fill="#F26522"/>
</svg>
