<svg width="307" height="59" viewBox="0 0 307 59" fill="none" xmlns="http://www.w3.org/2000/svg">
<path d="M223.861 44.3096C222.251 44.3096 220.763 44.0345 219.397 43.4842C218.052 42.934 216.881 42.1697 215.882 41.1915C214.904 40.1928 214.139 39.021 213.589 37.6759C213.039 36.3104 212.764 34.8329 212.764 33.2432C212.764 31.6332 213.039 30.1556 213.589 28.8106C214.139 27.4451 214.904 26.263 215.882 25.2644C216.881 24.2658 218.052 23.4913 219.397 22.9411C220.763 22.3908 222.251 22.1157 223.861 22.1157C225.45 22.1157 226.918 22.3908 228.263 22.9411C229.608 23.4913 230.77 24.2658 231.748 25.2644C232.746 26.263 233.521 27.4451 234.071 28.8106C234.621 30.1556 234.897 31.6332 234.897 33.2432C234.897 34.8329 234.621 36.3002 234.071 37.6453C233.521 38.9904 232.746 40.1623 231.748 41.1609C230.77 42.1595 229.608 42.934 228.263 43.4842C226.918 44.0345 225.45 44.3096 223.861 44.3096ZM223.861 39.3878C224.696 39.3878 225.461 39.235 226.153 38.9293C226.846 38.6236 227.448 38.1956 227.957 37.6453C228.487 37.0951 228.895 36.4429 229.18 35.6888C229.465 34.9348 229.608 34.1196 229.608 33.2432C229.608 32.3465 229.465 31.5211 229.18 30.767C228.895 30.013 228.487 29.3608 227.957 28.8106C227.448 28.2399 226.846 27.8017 226.153 27.496C225.461 27.1903 224.696 27.0375 223.861 27.0375C223.025 27.0375 222.251 27.1903 221.537 27.496C220.844 27.8017 220.233 28.2399 219.703 28.8106C219.194 29.3608 218.796 30.013 218.511 30.767C218.226 31.5211 218.083 32.3465 218.083 33.2432C218.083 34.4253 218.327 35.485 218.817 36.4225C219.326 37.3396 220.009 38.0631 220.865 38.593C221.741 39.1229 222.74 39.3878 223.861 39.3878ZM237.146 44.0039V27.7712H241.823L242.006 31.0727L240.997 31.4396C241.222 30.7059 241.619 30.0435 242.19 29.4525C242.781 28.8411 243.484 28.352 244.299 27.9852C245.114 27.6183 245.97 27.4349 246.867 27.4349C248.09 27.4349 249.119 27.6896 249.954 28.1991C250.79 28.6883 251.412 29.4321 251.819 30.4308C252.247 31.409 252.461 32.6216 252.461 34.0686V44.0039H247.539V34.4355C247.539 33.7833 247.448 33.2432 247.264 32.8152C247.081 32.3873 246.806 32.0714 246.439 31.8676C246.072 31.6638 245.613 31.5721 245.063 31.5924C244.635 31.5924 244.238 31.6638 243.871 31.8064C243.504 31.9287 243.178 32.1223 242.893 32.3873C242.628 32.6318 242.424 32.9171 242.281 33.2432C242.139 33.5693 242.067 33.9361 242.067 34.3437V44.0039H239.591C239.061 44.0039 238.582 44.0039 238.154 44.0039C237.747 44.0039 237.411 44.0039 237.146 44.0039ZM255.357 44.0039V21.382H260.279V44.0039H255.357ZM263.694 44.0039V27.7712H268.616V44.0039H263.694ZM266.17 24.5613C265.233 24.5613 264.499 24.3473 263.969 23.9193C263.46 23.471 263.205 22.8392 263.205 22.024C263.205 21.2699 263.47 20.6585 264 20.1898C264.53 19.721 265.253 19.4867 266.17 19.4867C267.067 19.4867 267.77 19.7108 268.28 20.1592C268.81 20.5872 269.075 21.2088 269.075 22.024C269.075 22.778 268.81 23.3894 268.28 23.8582C267.77 24.3269 267.067 24.5613 266.17 24.5613ZM272.018 44.0039V27.7712H276.695L276.879 31.0727L275.87 31.4396C276.094 30.7059 276.492 30.0435 277.062 29.4525C277.653 28.8411 278.356 28.352 279.172 27.9852C279.987 27.6183 280.843 27.4349 281.74 27.4349C282.962 27.4349 283.992 27.6896 284.827 28.1991C285.663 28.6883 286.284 29.4321 286.692 30.4308C287.12 31.409 287.334 32.6216 287.334 34.0686V44.0039H282.412V34.4355C282.412 33.7833 282.32 33.2432 282.137 32.8152C281.953 32.3873 281.678 32.0714 281.312 31.8676C280.945 31.6638 280.486 31.5721 279.936 31.5924C279.508 31.5924 279.11 31.6638 278.744 31.8064C278.377 31.9287 278.051 32.1223 277.765 32.3873C277.5 32.6318 277.297 32.9171 277.154 33.2432C277.011 33.5693 276.94 33.9361 276.94 34.3437V44.0039H274.464C273.934 44.0039 273.455 44.0039 273.027 44.0039C272.619 44.0039 272.283 44.0039 272.018 44.0039ZM297.964 44.3096C296.171 44.3096 294.602 43.953 293.257 43.2397C291.932 42.5263 290.903 41.5481 290.169 40.3049C289.456 39.0414 289.099 37.6046 289.099 35.9945C289.099 34.731 289.303 33.5795 289.71 32.5401C290.118 31.4803 290.689 30.5734 291.422 29.8194C292.176 29.0653 293.053 28.4845 294.051 28.0769C295.07 27.6489 296.181 27.4349 297.384 27.4349C298.525 27.4349 299.564 27.6387 300.502 28.0463C301.439 28.4539 302.254 29.0245 302.947 29.7582C303.64 30.4919 304.17 31.3581 304.537 32.3567C304.904 33.3553 305.077 34.4456 305.057 35.6277L305.026 36.9728H292.125L291.392 34.1909H301.021L300.502 34.7412V34.1298C300.461 33.6203 300.298 33.1821 300.013 32.8152C299.748 32.428 299.391 32.1223 298.943 31.8981C298.515 31.674 298.026 31.5619 297.475 31.5619C296.66 31.5619 295.967 31.7249 295.396 32.051C294.846 32.3567 294.428 32.805 294.143 33.3961C293.858 33.9871 293.715 34.7208 293.715 35.5971C293.715 36.4735 293.899 37.2479 294.265 37.9204C294.653 38.593 295.203 39.1127 295.916 39.4795C296.65 39.8464 297.516 40.0298 298.515 40.0298C299.187 40.0298 299.799 39.9279 300.349 39.7241C300.899 39.5203 301.49 39.1738 302.122 38.6847L304.415 41.9251C303.783 42.455 303.11 42.9034 302.397 43.2702C301.684 43.6167 300.95 43.8714 300.196 44.0345C299.462 44.2179 298.718 44.3096 297.964 44.3096Z" fill="#F26522"/>
<path d="M49.2148 39.6602C51.4334 35.781 52.7066 31.2857 52.7066 26.4904C52.7066 11.8604 40.909 1.6982e-07 26.3533 1.6982e-07C11.7992 -0.00163868 0 11.8587 0 26.4888C0 34.1504 3.23425 41.0516 8.41492 45.8911C8.55023 38.3426 8.7866 29.8992 9.18925 26.7559C9.94891 20.8429 15.4687 18.5665 22.7457 12.375C24.8959 10.5395 28.2622 10.0707 32.6425 13.1878C37.2917 16.4983 41.8986 18.4158 43.3755 19.9301C45.3105 21.9147 44.427 23.7109 42.5946 23.7109C40.7754 23.7109 37.2607 21.2838 34.8562 20.13C27.02 16.3475 26.3517 16.0525 22.6936 20.2021C18.8089 24.6123 16.5022 28.8716 21.5916 31.4659C25.9523 33.6866 30.4108 28.9634 33.1772 25.6464C35.6159 22.7276 38.8143 22.9029 39.9244 24.3074C41.0346 25.7234 38.5698 26.6002 36.8141 28.3997C33.3532 31.9478 34.3949 32.8426 31.6937 37.4887C29.4832 41.2925 26.4478 41.0368 23.6407 43.854C22.5697 44.9226 22.3414 48.8148 22.405 52.6891C23.6929 52.8906 25.0117 52.989 26.3517 52.989C31.1378 52.989 35.6224 51.6943 39.4957 49.4523L48.4518 50.9945C48.4518 50.9945 51.2313 51.3141 50.5482 47.6348C50.2434 45.9796 49.6598 42.4135 49.2148 39.6602ZM39.3196 15.3364L31.6953 11.136C33.2766 11.3048 33.8944 11.2982 35.0437 11.4998C36.0185 11.6719 39.1729 11.7735 39.9326 13.1338C40.689 14.4825 39.3196 15.3364 39.3196 15.3364Z" fill="#F26522"/>
<path d="M114.699 29.2523L113.712 42.8892L113.677 43.4055C113.48 44.3822 112.592 45.0771 111.568 45.005L107.122 44.6854C106.011 44.6051 105.189 43.648 105.262 42.5352L106.231 28.9869C106.43 26.2369 104.54 23.6688 101.823 23.3033C98.8657 22.9002 96.2183 25.0962 96.0096 28.0462L95.0087 42.0075C94.8343 43.0072 93.936 43.7398 92.9025 43.6644L88.4473 43.3416C87.4186 43.2694 86.6182 42.4172 86.5938 41.393L87.3371 30.9174C87.3338 30.9944 87.3241 31.0715 87.3143 31.1469L87.3599 30.6519L89.3194 3.15527C89.471 2.12444 90.3871 1.36729 91.4386 1.44267L95.8906 1.76553C96.9241 1.83928 97.705 2.67673 97.7441 3.68954L96.8442 16.289C97.9723 15.7236 99.2406 14.9648 100.447 14.6518C108.469 12.5426 115.484 18.2983 114.699 29.2523Z" fill="white"/>
<path d="M113.716 43.1401C113.711 43.2122 113.706 43.2778 113.69 43.3466C113.685 43.3646 113.685 43.381 113.682 43.3974L113.716 42.8828C113.72 42.9008 113.72 42.9172 113.72 42.9353C113.725 43.0024 113.72 43.0746 113.716 43.1401Z" fill="white"/>
<path d="M145.826 28.0661C145.826 27.9858 145.821 27.9039 145.819 27.8302L145.852 28.3316L145.857 28.3726L146.928 42.8633C146.923 42.8633 146.923 42.8633 146.928 42.8666L146.962 43.396C146.91 44.3416 146.202 45.1364 145.254 45.2643L145.019 45.2806C145.012 45.2823 144.999 45.2839 144.993 45.2823L140.862 45.5937C140.857 45.592 140.857 45.5937 140.857 45.5937L140.464 45.6215C139.519 45.5986 138.726 44.9201 138.549 43.9974C138.549 43.9974 138.549 43.9974 138.549 43.9925C138.544 43.9712 138.539 43.9466 138.537 43.922L138.513 43.6123L138.381 41.8128C137.007 44.3186 135.296 45.6084 134.163 46.0902C126.528 49.3532 119.81 44.6694 118.998 33.7087L118.005 20.0456L117.973 19.59C118.009 18.5985 118.78 17.7594 119.789 17.6726L119.846 17.666L123.99 17.3579C123.991 17.3513 123.991 17.3513 123.999 17.3579L124.534 17.3136H124.539H124.547C125.45 17.3776 126.213 18.0577 126.373 18.9623C126.386 19.0279 126.394 19.0967 126.399 19.1655L127.408 32.7385C127.613 35.4869 129.857 37.7501 132.594 37.7173C135.587 37.6829 137.88 35.1214 137.66 32.1731L137.429 29.0101L136.656 18.6542C136.656 18.6542 136.656 18.6542 136.654 18.6526L136.622 18.2085C136.623 18.2003 136.623 18.1937 136.623 18.1888C136.658 17.1956 137.435 16.3582 138.443 16.2713L138.495 16.2681L142.652 15.9567L143.178 15.9141H143.186C144.099 15.9681 144.866 16.6515 145.03 17.5611C145.045 17.6332 145.048 17.7037 145.056 17.7709C145.058 17.8037 145.058 17.8397 145.058 17.8741L145.798 27.781L145.826 28.0661Z" fill="white"/>
<path d="M181.483 24.3693C180.622 22.4551 179.352 20.7474 177.851 19.3298C176.33 17.9139 174.553 16.8011 172.614 16.0898C170.683 15.372 168.612 15.0721 166.596 15.1885C163.644 15.3359 160.799 16.3897 158.425 18.0712L158.421 18.0499C158.258 17.2075 157.571 16.5471 156.701 16.4438H156.697C156.621 16.4356 156.561 16.4307 156.489 16.4307L151.898 16.5012C150.904 16.5471 150.103 17.3272 150.009 18.3006C150.009 18.3039 150.009 18.3088 150.004 18.3137C149.996 18.3891 149.988 18.4612 149.991 18.5383L150.56 56.5186C150.563 56.5973 150.568 56.6694 150.584 56.7464C150.584 56.7497 150.584 56.7497 150.581 56.7546C150.713 57.7527 151.572 58.5131 152.589 58.4967L157.035 58.4328C158.073 58.4197 158.913 57.6167 158.996 56.5973C158.996 56.5842 158.999 56.5613 158.999 56.5481L158.813 43.8274C159.552 44.3223 160.331 44.7566 161.143 45.1221C162.993 45.9546 165.016 46.4479 167.064 46.5118C169.111 46.5774 171.222 46.2398 173.172 45.4646C175.127 44.6878 176.908 43.4914 178.39 41.9869C179.872 40.4874 181.052 38.6797 181.827 36.7033C182.602 34.7203 182.955 32.5849 182.912 30.4871C182.845 28.3894 182.373 26.2786 181.483 24.3693ZM173.413 30.633C173.386 32.4423 172.764 34.1795 171.62 35.5823C170.464 36.959 168.839 37.9439 166.945 38.1914C165.989 38.3028 165.01 38.2274 164.085 37.9111C163.158 37.5965 162.279 37.0655 161.564 36.3427C160.841 35.6266 160.315 34.7334 159.979 33.7927C159.637 32.8372 159.456 31.8507 159.428 30.8411C159.412 29.8316 159.518 28.8253 159.803 27.8437C160.088 26.8669 160.584 25.9278 161.286 25.1707C161.989 24.407 162.868 23.8268 163.794 23.4679C164.737 23.1074 165.73 22.9664 166.713 23.0271C168.673 23.1713 170.458 24.0923 171.664 25.5345C172.893 26.9915 173.433 28.8253 173.413 30.633Z" fill="white"/>
<path d="M82.6663 42.7537C82.65 42.8209 82.6353 42.9012 82.619 42.9733C82.5081 43.3715 82.3027 43.7157 82.0207 43.9861C82.0158 43.9894 82.0126 43.991 82.0126 43.991C81.8267 44.127 81.6393 44.2499 81.4453 44.3761C81.4453 44.3778 81.4453 44.3778 81.442 44.3778C78.8663 46.0576 75.7755 47.0278 72.4712 46.995C63.5232 46.8918 56.3488 39.5202 56.4483 30.5246C56.5477 21.5338 63.8802 14.3261 72.8249 14.4228C76.1032 14.4589 79.1451 15.4717 81.6735 17.1859C81.6768 17.1859 81.6768 17.1859 81.6816 17.1909C81.905 17.3433 82.1299 17.5039 82.35 17.6645C82.3549 17.6727 82.3549 17.6727 82.3582 17.6792C82.4038 17.7218 82.4446 17.7677 82.4821 17.8185C83.1064 18.6167 83.1032 19.7344 82.4886 20.5226L82.0761 20.9258L79.0832 23.8774L78.7294 24.2183C78.7245 24.2232 78.7196 24.2264 78.7131 24.2363C78.0643 24.7263 77.2085 24.805 76.4912 24.4788C76.3673 24.3985 76.2369 24.3199 76.1032 24.2478C76.1032 24.2445 76.1 24.2445 76.0967 24.2428C75.0909 23.6938 73.9481 23.3792 72.7288 23.3677C68.7039 23.3218 65.393 26.5782 65.3506 30.6229C65.3001 34.6676 68.5458 38.001 72.5641 38.042C73.7688 38.0551 74.9099 37.7716 75.9223 37.2537C76.0771 37.1767 76.2369 37.0931 76.3852 36.998C76.7406 36.8538 77.1384 36.7948 77.5524 36.8653C78.0252 36.9456 78.4376 37.1635 78.7522 37.4995C78.7653 37.511 78.7734 37.5224 78.7865 37.5323L81.8006 40.6314C81.8006 40.6346 81.8039 40.6346 81.8088 40.6395L82.3027 41.1509C82.306 41.1525 82.3109 41.1541 82.3109 41.1574C82.5799 41.5524 82.7217 42.0227 82.694 42.5291C82.6842 42.5963 82.6777 42.6734 82.6663 42.7537Z" fill="white"/>
<path d="M202.258 43.2613H201.319V46.0539H200.657V43.2613H199.736V42.75H202.26V43.2613H202.258Z" fill="white"/>
<path d="M204.32 45.187H204.338L205.184 42.75H206.042V46.0539H205.38V43.8021L205.367 43.7939L204.558 46.0539H204.108L203.295 43.789L203.282 43.7907V46.0539H202.625V42.75H203.491L204.32 45.187Z" fill="white"/>
<path d="M198.199 10.6568C198.199 10.6568 198.191 10.6568 198.189 10.6568C198.126 10.6388 198.057 10.6257 197.994 10.6191L191.245 10.075C190.237 10.0062 189.346 10.6994 189.135 11.6729C189.135 11.6778 189.135 11.6811 189.127 11.6827C189.111 11.7532 189.095 11.8302 189.087 11.9023L188.271 40.3495C189.196 40.0971 190.18 40.0054 191.183 40.1217C192.179 40.2315 193.113 40.5347 193.953 40.9756L199.756 12.5071V12.4841C199.688 11.6123 199.057 10.8682 198.199 10.6568Z" fill="white"/>
<path d="M190.874 42.7824C188.005 42.4629 185.421 44.5409 185.11 47.422C184.784 50.2998 186.849 52.8974 189.717 53.2186C192.584 53.5382 195.171 51.4683 195.489 48.5872C195.806 45.7061 193.743 43.1069 190.874 42.7824Z" fill="#F26522"/>
</svg>
