<svg width="137" height="43" viewBox="0 0 137 43" fill="none" xmlns="http://www.w3.org/2000/svg">
<path d="M35.6116 26.3773C36.6391 24.5821 37.1398 22.5336 37.0561 20.4668C36.9724 18.4 36.3078 16.3986 35.1384 14.6924C33.9691 12.9861 32.3425 11.6441 30.4452 10.8203C28.5479 9.99652 26.4568 9.7243 24.4119 10.0349C22.3669 10.3455 20.4509 11.2263 18.8838 12.5764C17.3166 13.9264 16.1618 15.6909 15.5518 17.6674C14.9418 19.6439 14.9013 21.7523 15.435 23.7508C15.9688 25.7492 17.055 27.5567 18.5692 28.9659C18.6229 25.8305 18.7301 22.3176 18.8888 21.018C19.2083 18.5624 21.5158 17.6167 24.5438 15.0431C25.4359 14.2818 26.8492 14.0824 28.6763 15.3756C30.6235 16.7502 32.5364 17.5502 33.1583 18.1764C33.9711 19.0042 33.5872 19.7505 32.8366 19.7505C32.086 19.7505 30.6106 18.7361 29.6199 18.2708C26.3516 16.6966 26.0729 16.5765 24.5374 18.2965C22.9119 20.1237 21.9511 21.8973 24.0849 22.9781C25.912 23.8982 27.7649 21.938 28.925 20.5633C29.9394 19.3495 31.2733 19.431 31.7386 20.0036C32.204 20.5762 31.1789 20.9494 30.4519 21.6978C29.013 23.1647 29.4397 23.5379 28.3181 25.4702C27.3982 27.0443 26.1308 26.9371 24.9577 28.1123C24.5052 28.552 24.4109 30.1647 24.4387 31.7796C24.9862 31.86 25.5388 31.9002 26.0922 31.8997C28.016 31.9029 29.9064 31.3968 31.5714 30.4328L35.3071 31.0761C35.3071 31.0761 36.4673 31.2091 36.1863 29.6757C36.0384 29.0045 35.7982 27.5118 35.6116 26.3773ZM31.477 16.2699L28.2903 14.522C28.9443 14.5885 29.2103 14.5885 29.6906 14.67C30.1045 14.7365 31.4062 14.7901 31.73 15.3498C31.8177 15.5056 31.8403 15.6896 31.7929 15.8619C31.7455 16.0342 31.632 16.1808 31.477 16.2699Z" fill="white"/>
<path d="M40.5518 22.8433C40.5518 22.9012 40.5347 22.9612 40.5304 23.0148L40.5669 22.6438V22.6116L41.4761 11.8779L41.5083 11.4833C41.5825 11.1476 41.7707 10.848 42.0409 10.6353C42.311 10.4226 42.6464 10.3101 42.9902 10.3167L43.1596 10.3338C43.1596 10.3338 43.1767 10.3338 43.181 10.3338L46.2562 10.589C46.2562 10.589 46.2562 10.589 46.267 10.589L46.5543 10.6148C46.8882 10.6758 47.1911 10.8493 47.4128 11.1065C47.6344 11.3636 47.7613 11.6888 47.7724 12.0281C47.7735 12.0466 47.7735 12.0653 47.7724 12.0838L47.7509 12.3112L47.6394 13.6472C48.9476 11.9766 50.3522 11.2303 51.2508 11.0072C57.2554 9.52104 61.643 13.7373 60.9589 21.8632L60.1011 31.9835L60.0711 32.3224C60 32.6772 59.8021 32.994 59.5144 33.2135C59.2266 33.433 58.8688 33.5401 58.5078 33.5148H58.4627L55.3768 33.2553L54.9758 33.221C54.6537 33.1434 54.3663 32.9615 54.1583 32.7035C53.9504 32.4456 53.8337 32.126 53.8263 31.7948C53.8263 31.7476 53.8263 31.694 53.8263 31.6425L54.6841 21.5865C54.8535 19.5492 53.4703 17.6298 51.4502 17.3295C50.9332 17.2526 50.4059 17.2825 49.9008 17.4174C49.3958 17.5522 48.9237 17.7891 48.5138 18.1134C48.1038 18.4378 47.7647 18.8427 47.5173 19.3032C47.27 19.7637 47.1196 20.27 47.0754 20.7909L46.861 23.1371L46.2176 30.8104L46.1897 31.1428C46.1162 31.4964 45.9176 31.8116 45.6304 32.0306C45.3433 32.2496 44.9868 32.3578 44.6264 32.3352H44.59L41.4911 32.0757L41.0944 32.0457C40.7699 31.9706 40.4796 31.7898 40.2692 31.5316C40.0588 31.2734 39.9402 30.9525 39.9321 30.6196C39.9289 30.5696 39.9289 30.5194 39.9321 30.4694L39.945 30.3901L40.5325 23.0577L40.5518 22.8433Z" fill="white"/>
<path d="M10.8946 34.9842C10.7316 37.7193 9.92314 39.6494 8.46917 40.7746C7.0152 41.8998 5.05369 42.3888 2.58465 42.2415L1.37516 42.1686C1.18335 42.1571 0.995687 42.1079 0.82289 42.0239C0.650093 41.9399 0.495548 41.8226 0.368089 41.6788C0.24063 41.535 0.142754 41.3675 0.0800543 41.1859C0.0173545 41.0042 -0.00893936 40.812 0.00267374 40.6202L0.174233 37.7657C0.185715 37.5739 0.23488 37.3862 0.318919 37.2134C0.402957 37.0406 0.520221 36.8861 0.66401 36.7586C0.8078 36.6312 0.975298 36.5333 1.15693 36.4706C1.33856 36.4079 1.53077 36.3816 1.72256 36.3932L1.89412 36.4039C2.63755 36.4468 3.17797 36.3324 3.51537 36.0608C3.84991 35.7863 4.03863 35.3187 4.07723 34.6561L5.50118 10.939C5.51266 10.7472 5.56182 10.5595 5.64586 10.3867C5.7299 10.2139 5.84717 10.0594 5.99096 9.93189C6.13475 9.80442 6.30224 9.70654 6.48387 9.64384C6.6655 9.58113 6.85771 9.55484 7.04951 9.56645L10.9396 9.80021C11.1314 9.8117 11.3191 9.86086 11.4919 9.9449C11.6647 10.0289 11.8192 10.1462 11.9467 10.29C12.0742 10.4338 12.172 10.6013 12.2347 10.783C12.2974 10.9646 12.3237 11.1568 12.3121 11.3486L10.8946 34.9842ZM6.24746 6.13939C5.90225 5.78936 5.63628 5.36924 5.46757 4.90747C5.29885 4.44571 5.23133 3.95307 5.26957 3.46294C5.28779 2.96695 5.41205 2.48063 5.634 2.03671C5.85595 1.59279 6.17043 1.20158 6.55627 0.889421C7.35403 0.233175 8.35051 -0.0599206 9.54571 0.0101361C10.6117 0.0344284 11.6256 0.475604 12.37 1.23899C12.7177 1.59404 12.9851 2.01959 13.1542 2.48687C13.3232 2.95416 13.39 3.45229 13.3501 3.94762C13.3301 4.43866 13.2049 4.91967 12.9829 5.35812C12.7609 5.79656 12.4473 6.18221 12.0634 6.48896C11.2329 7.1575 10.1736 7.47394 9.11252 7.37039C7.91875 7.2989 6.96373 6.88857 6.24746 6.13939Z" fill="white"/>
<path d="M76.261 11.7911C76.7356 12.0102 77.1856 12.2791 77.6035 12.5932C77.7235 12.6889 77.8687 12.7477 78.0215 12.7626C78.1743 12.7774 78.3281 12.7476 78.4643 12.6768C78.6005 12.606 78.7132 12.4972 78.7888 12.3636C78.8644 12.23 78.8996 12.0773 78.8902 11.9241V11.8254C78.879 11.6154 78.9515 11.4095 79.0918 11.2527C79.232 11.096 79.4286 11.0012 79.6386 10.989L84.5709 10.7102C84.7808 10.6985 84.9867 10.7705 85.1435 10.9104C85.3003 11.0503 85.3951 11.2467 85.4073 11.4565L86.561 31.8645C86.6901 33.698 86.3967 35.5367 85.7032 37.2389C85.0161 38.8693 83.858 40.2575 82.3771 41.2257C80.8431 42.2522 78.8973 42.8334 76.5398 42.9692C73.3945 43.1479 70.8025 42.5496 68.7638 41.1742C67.0191 40.0393 65.7657 38.289 65.2533 36.2716C65.2236 36.158 65.2194 36.0391 65.2413 35.9236C65.2631 35.8082 65.3103 35.699 65.3794 35.604C65.4486 35.5089 65.5379 35.4305 65.6411 35.3742C65.7443 35.318 65.8587 35.2854 65.976 35.2787L70.9083 34.9999C71.0619 34.9907 71.2148 35.0264 71.3484 35.1026C71.482 35.1787 71.5907 35.2921 71.661 35.4288C71.961 36.0179 72.439 36.4974 73.0271 36.7992C73.9093 37.2453 74.8992 37.434 75.8836 37.3439C77.2275 37.2682 78.2776 36.8207 79.0338 36.0014C79.7901 35.1822 80.1197 33.9226 80.0225 32.2226L79.971 31.3176C79.9617 31.1658 79.909 31.0199 79.8192 30.8972C79.7294 30.7745 79.6062 30.6802 79.4643 30.6255C79.3224 30.5709 79.1678 30.5581 79.0189 30.5888C78.8699 30.6195 78.733 30.6923 78.6242 30.7986C78.2385 31.1688 77.816 31.4986 77.3633 31.783C76.1969 32.4924 74.8676 32.8898 73.5032 32.9368C71.8211 33.0512 70.1419 32.675 68.6695 31.8538C67.1582 30.996 65.9164 29.7334 65.0839 28.208C64.166 26.5952 63.6456 24.6973 63.5227 22.5141C63.3997 20.3309 63.7035 18.3914 64.4341 16.6958C65.0908 15.0955 66.1829 13.7114 67.5865 12.7004C68.9625 11.7313 70.5867 11.1755 72.2679 11.0984C73.636 10.9907 75.0091 11.2289 76.261 11.7911ZM77.8651 17.8839C77.4148 17.4643 76.8846 17.1398 76.3061 16.9298C75.7276 16.7198 75.1126 16.6286 74.4981 16.6616C73.8835 16.6946 73.2819 16.8512 72.7292 17.122C72.1766 17.3928 71.6842 17.7723 71.2815 18.2377C70.4322 19.2157 70.0534 20.516 70.1449 22.1388C70.2364 23.7615 70.7596 25.024 71.7147 25.9261C72.1625 26.3508 72.6923 26.6798 73.2715 26.8929C73.8507 27.1061 74.4673 27.1989 75.0837 27.1658C75.7 27.1327 76.3031 26.9743 76.8561 26.7003C77.4092 26.4264 77.9006 26.0425 78.3004 25.5723C79.1482 24.5829 79.5257 23.2761 79.4327 21.6519C79.3398 20.0278 78.8173 18.7718 77.8651 17.8839Z" fill="white"/>
<path d="M134.89 30.1066H134.461V31.3698H134.163V30.1066H133.734V29.875H134.88L134.89 30.1066Z" fill="#F26522"/>
<path d="M135.832 30.9738L136.216 29.8736H136.606V31.3748H136.306V30.3476L135.935 31.3663H135.72L135.364 30.3476V31.3684H135.066V29.8672H135.457L135.832 30.9738Z" fill="#F26522"/>
<path d="M133.34 6.30492C133.288 6.29567 133.236 6.28994 133.184 6.28776L128.011 6.21484C127.642 6.21536 127.285 6.34828 127.005 6.58948C126.725 6.83068 126.541 7.16419 126.486 7.52948C126.486 7.52948 126.486 7.52948 126.486 7.54235C126.486 7.59596 126.469 7.65172 126.465 7.70963L127.273 29.325C127.983 29.0829 128.731 28.9752 129.48 29.0076C130.22 29.0417 130.948 29.2141 131.625 29.5159L134.627 7.63028V7.61526C134.579 7.28878 134.428 6.986 134.197 6.75053C133.966 6.51505 133.666 6.35903 133.34 6.30492Z" fill="white"/>
<path d="M129.386 31.055C128.597 31.0189 127.816 31.2176 127.14 31.6259C126.464 32.0342 125.924 32.6339 125.589 33.349C125.253 34.0641 125.138 34.8626 125.256 35.6434C125.375 36.4243 125.722 37.1524 126.255 37.7358C126.787 38.3192 127.48 38.7316 128.247 38.9209C129.014 39.1102 129.819 39.0678 130.562 38.7992C131.305 38.5306 131.951 38.0477 132.419 37.4117C132.888 36.7757 133.157 36.0152 133.193 35.2262C133.239 34.1687 132.865 33.1359 132.152 32.354C131.438 31.5721 130.444 31.105 129.386 31.055Z" fill="white"/>
<path d="M114.367 39.6015C114.082 39.4263 113.824 39.2094 113.603 38.9581L111.888 37.1331C110.665 37.676 109.361 38.0143 108.028 38.1346C103.882 38.585 100.513 37.9237 97.9207 36.1509C95.3287 34.378 93.7447 31.5243 93.1685 27.5896C93.0456 26.7318 92.8933 25.4679 92.7117 23.798C92.5273 22.0909 92.4036 20.8092 92.3407 19.9527C92.0362 16.0567 92.9834 12.9242 95.1822 10.5551C97.381 8.18606 100.511 6.78207 104.573 6.34314C108.632 5.90136 111.997 6.6005 114.669 8.44056C117.341 10.2806 118.947 13.1358 119.486 17.0061C119.729 18.7074 119.897 19.9842 119.99 20.8363C120.08 21.6598 120.188 22.9287 120.314 24.643C120.588 28.2731 119.835 31.2126 118.055 33.4615L121.776 37.7036C121.868 37.8311 121.929 37.9777 121.956 38.1325V38.2204C121.969 38.3328 121.958 38.4467 121.923 38.5543C121.888 38.662 121.831 38.7609 121.755 38.8445C121.605 39.0206 121.393 39.132 121.163 39.1554L115.373 39.7817C115.027 39.8325 114.674 39.7693 114.367 39.6015ZM111.036 29.8908C111.886 28.8171 112.232 27.2765 112.074 25.2692C111.947 23.5535 111.846 22.3433 111.77 21.6384C111.688 20.8749 111.528 19.6718 111.29 18.029C111.012 16.0346 110.343 14.6048 109.282 13.7399C108.221 12.8749 106.881 12.5296 105.261 12.704C103.674 12.8756 102.455 13.4989 101.603 14.5741C100.751 15.6493 100.404 17.1898 100.563 19.1957C100.623 20.0235 100.739 21.2316 100.912 22.8201C101.082 24.3799 101.225 25.5852 101.341 26.4359C101.616 28.4375 102.277 29.8672 103.325 30.725C104.373 31.5829 105.706 31.9296 107.324 31.7652C108.947 31.5907 110.184 30.966 111.036 29.8908Z" fill="#F15F27"/>
</svg>
