<svg width="104" height="33" viewBox="0 0 104 33" fill="none" xmlns="http://www.w3.org/2000/svg">
<path d="M25.3787 21.8483C26.4615 19.9547 27.0829 17.7603 27.0829 15.4195C27.0829 8.27788 21.3251 2.48828 14.2211 2.48828C7.11796 2.48748 1.35938 8.27708 1.35938 15.4187C1.35938 19.1587 2.93785 22.5275 5.46628 24.8899C5.53232 21.2051 5.64768 17.0835 5.8442 15.5491C6.21495 12.6627 8.90886 11.5515 12.4604 8.52908C13.5098 7.63308 15.1528 7.40428 17.2906 8.92588C19.5596 10.5419 21.808 11.4779 22.5288 12.2171C23.4732 13.1859 23.042 14.0627 22.1477 14.0627C21.2598 14.0627 19.5445 12.8779 18.371 12.3147C14.5465 10.4683 14.2203 10.3243 12.435 12.3499C10.5391 14.5027 9.41328 16.5819 11.8972 17.8483C14.0254 18.9323 16.2014 16.6267 17.5515 15.0075C18.7417 13.5827 20.3027 13.6683 20.8445 14.3539C21.3863 15.0451 20.1834 15.4731 19.3265 16.3515C17.6374 18.0835 18.1458 18.5203 16.8275 20.7883C15.7487 22.6451 14.2673 22.5203 12.8972 23.8955C12.3745 24.4171 12.2631 26.3171 12.2942 28.2083C12.9227 28.3067 13.5663 28.3547 14.2203 28.3547C16.5562 28.3547 18.7449 27.7227 20.6353 26.6283L25.0063 27.3811C25.0063 27.3811 26.3628 27.5371 26.0295 25.7411C25.8807 24.9331 25.5959 23.1923 25.3787 21.8483ZM20.5494 9.97468L16.8283 7.92428C17.6 8.00668 17.9016 8.00348 18.4625 8.10188C18.9383 8.18588 20.4777 8.23548 20.8485 8.89948C21.2177 9.55788 20.5494 9.97468 20.5494 9.97468Z" fill="#FBF7F4"/>
<path d="M57.342 16.7691L56.8599 23.4259L56.8432 23.6779C56.7469 24.1547 56.3133 24.4939 55.8137 24.4587L53.644 24.3027C53.1014 24.2635 52.7005 23.7963 52.7363 23.2531L53.2088 16.6395C53.3059 15.2971 52.3838 14.0435 51.0575 13.8651C49.6143 13.6683 48.3222 14.7403 48.2204 16.1803L47.7319 22.9955C47.6468 23.4835 47.2084 23.8411 46.704 23.8043L44.5296 23.6467C44.0276 23.6115 43.6369 23.1955 43.625 22.6955L43.9878 17.5819C43.9862 17.6195 43.9814 17.6571 43.9767 17.6939L43.9989 17.4523L44.9553 4.02993C45.0292 3.52673 45.4764 3.15713 45.9895 3.19393L48.1623 3.35153C48.6667 3.38753 49.0478 3.79633 49.0669 4.29073L48.6278 10.4411C49.1783 10.1651 49.7973 9.79473 50.386 9.64193C54.3012 8.61233 57.7247 11.4219 57.342 16.7691Z" fill="#FBF7F4"/>
<path d="M56.8607 23.5514C56.8583 23.5866 56.8558 23.6186 56.8478 23.6522C56.8454 23.661 56.8454 23.669 56.8438 23.677L56.8607 23.4258C56.8623 23.4346 56.8623 23.4426 56.8623 23.4514C56.8647 23.4842 56.8623 23.5194 56.8607 23.5514Z" fill="#FBF7F4"/>
<path d="M72.5312 16.1781C72.5312 16.1389 72.5288 16.0989 72.528 16.0629L72.5439 16.3077L72.5463 16.3277L73.069 23.4013C73.0666 23.4013 73.0666 23.4013 73.069 23.4029L73.0857 23.6613C73.0603 24.1229 72.715 24.5109 72.2519 24.5733L72.1374 24.5813C72.1342 24.5821 72.1278 24.5829 72.1246 24.5821L70.1086 24.7341C70.1062 24.7333 70.1062 24.7341 70.1062 24.7341L69.9145 24.7477C69.453 24.7365 69.0663 24.4053 68.9796 23.9549C68.9796 23.9549 68.9796 23.9549 68.9796 23.9525C68.9772 23.9421 68.9748 23.9301 68.9741 23.9181L68.9621 23.7669L68.8977 22.8885C68.227 24.1117 67.3924 24.7413 66.8394 24.9765C63.1128 26.5693 59.8342 24.2829 59.4379 18.9325L58.9534 12.2629L58.9375 12.0405C58.955 11.5565 59.3313 11.1469 59.8238 11.1045L59.8517 11.1013L61.8741 10.9509C61.8749 10.9477 61.8749 10.9477 61.8789 10.9509L62.1398 10.9293H62.1422H62.1462C62.5869 10.9605 62.9593 11.2925 63.0372 11.7341C63.0436 11.7661 63.0476 11.7997 63.05 11.8333L63.5425 18.4589C63.6427 19.8005 64.7375 20.9053 66.0733 20.8893C67.534 20.8725 68.6534 19.6221 68.546 18.1829L68.433 16.6389L68.0559 11.5837C68.0559 11.5837 68.0559 11.5837 68.0551 11.5829L68.0392 11.3661C68.04 11.3621 68.04 11.3589 68.04 11.3565C68.0567 10.8717 68.4362 10.4629 68.9279 10.4205L68.9534 10.4189L70.9822 10.2669L71.2391 10.2461H71.2431C71.6887 10.2725 72.0626 10.6061 72.1429 11.0501C72.1501 11.0853 72.1517 11.1197 72.1557 11.1525C72.1565 11.1685 72.1565 11.1861 72.1565 11.2029L72.5177 16.0389L72.5312 16.1781Z" fill="#FBF7F4"/>
<path d="M89.9245 14.4115C89.5045 13.4771 88.8847 12.6435 88.1519 11.9515C87.4096 11.2603 86.5424 10.7171 85.5964 10.3699C84.6537 10.0195 83.6432 9.87307 82.6591 9.92987C81.2182 10.0019 79.8299 10.5163 78.6715 11.3371L78.6691 11.3267C78.5896 10.9155 78.2546 10.5931 77.8298 10.5427H77.8282C77.7908 10.5387 77.7613 10.5363 77.7263 10.5363L75.4859 10.5707C75.0006 10.5931 74.6099 10.9739 74.5638 11.4491C74.5638 11.4507 74.5638 11.4531 74.5614 11.4555C74.5574 11.4923 74.5535 11.5275 74.555 11.5651L74.8327 30.1051C74.8343 30.1435 74.8367 30.1787 74.8447 30.2163C74.8447 30.2179 74.8446 30.2179 74.8431 30.2203C74.9075 30.7075 75.3268 31.0787 75.8232 31.0707L77.9929 31.0395C78.4997 31.0331 78.9094 30.6411 78.95 30.1435C78.95 30.1371 78.9516 30.1259 78.9516 30.1195L78.8609 23.9099C79.2213 24.1515 79.6016 24.3635 79.9978 24.5419C80.9008 24.9483 81.8881 25.1891 82.8874 25.2203C83.8867 25.2523 84.917 25.0875 85.8685 24.7091C86.8225 24.3299 87.6921 23.7459 88.4153 23.0115C89.1385 22.2795 89.7145 21.3971 90.0924 20.4323C90.4711 19.4643 90.643 18.4219 90.6223 17.3979C90.5897 16.3739 90.3589 15.3435 89.9245 14.4115ZM85.9863 17.4691C85.9728 18.3523 85.6696 19.2003 85.1111 19.8851C84.547 20.5571 83.7538 21.0379 82.8293 21.1587C82.3631 21.2131 81.885 21.1763 81.4338 21.0219C80.9811 20.8683 80.5523 20.6091 80.203 20.2563C79.8506 19.9067 79.5936 19.4707 79.4297 19.0115C79.2626 18.5451 79.1743 18.0635 79.1608 17.5707C79.1528 17.0779 79.2046 16.5867 79.3438 16.1075C79.483 15.6307 79.7249 15.1723 80.0678 14.8027C80.4107 14.4299 80.8395 14.1467 81.2914 13.9715C81.7521 13.7955 82.2366 13.7267 82.7164 13.7563C83.6727 13.8267 84.5439 14.2763 85.1326 14.9803C85.7325 15.6915 85.9958 16.5867 85.9863 17.4691Z" fill="#FBF7F4"/>
<path d="M41.7025 23.3418C41.6945 23.3746 41.6873 23.4138 41.6794 23.449C41.6253 23.6434 41.525 23.8114 41.3874 23.9434C41.385 23.945 41.3834 23.9458 41.3834 23.9458C41.2927 24.0122 41.2012 24.0722 41.1065 24.1338C41.1065 24.1346 41.1065 24.1346 41.105 24.1346C39.8479 24.9546 38.3394 25.4282 36.7267 25.4122C32.3597 25.3618 28.8582 21.7634 28.9067 17.3722C28.9553 12.9834 32.5339 9.46499 36.8994 9.51219C38.4993 9.52979 39.9839 10.0242 41.2179 10.861C41.2195 10.861 41.2195 10.861 41.2219 10.8634C41.3309 10.9378 41.4407 11.0162 41.5481 11.0946C41.5505 11.0986 41.5505 11.0986 41.5521 11.1018C41.5744 11.1226 41.5942 11.145 41.6125 11.1698C41.9173 11.5594 41.9157 12.105 41.6157 12.4898L41.4144 12.6866L39.9537 14.1274L39.7811 14.2938C39.7787 14.2962 39.7763 14.2978 39.7731 14.3026C39.4565 14.5418 39.0388 14.5802 38.6887 14.421C38.6282 14.3818 38.5646 14.3434 38.4994 14.3082C38.4994 14.3066 38.4978 14.3066 38.4962 14.3058C38.0053 14.0378 37.4476 13.8842 36.8524 13.8786C34.8881 13.8562 33.2722 15.4458 33.2515 17.4202C33.2269 19.3946 34.8109 21.0218 36.7721 21.0418C37.36 21.0482 37.917 20.9098 38.411 20.657C38.4866 20.6194 38.5646 20.5786 38.637 20.5322C38.8104 20.4618 39.0046 20.433 39.2066 20.4674C39.4374 20.5066 39.6387 20.613 39.7922 20.777C39.7986 20.7826 39.8026 20.7882 39.8089 20.793L41.28 22.3058C41.28 22.3074 41.2816 22.3074 41.284 22.3098L41.525 22.5594C41.5266 22.5602 41.529 22.561 41.529 22.5626C41.6603 22.7554 41.7295 22.985 41.716 23.2322C41.7112 23.265 41.708 23.3026 41.7025 23.3418Z" fill="#FBF7F4"/>
<path d="M100.075 23.6207H99.6163V24.9839H99.2933V23.6207H98.8438V23.3711H100.075V23.6207H100.075Z" fill="#FBF7F4"/>
<path d="M101.077 24.5607H101.086L101.499 23.3711H101.918V24.9839H101.595V23.8847L101.588 23.8807L101.194 24.9839H100.974L100.577 23.8783L100.571 23.8791V24.9839H100.25V23.3711H100.672L101.077 24.5607Z" fill="#FBF7F4"/>
<path d="M98.0874 7.70427C98.0874 7.70427 98.0834 7.70427 98.0826 7.70427C98.0516 7.69547 98.0182 7.68907 97.9872 7.68587L94.6934 7.42027C94.2017 7.38667 93.7665 7.72507 93.6639 8.20027C93.6639 8.20267 93.6639 8.20427 93.6599 8.20507C93.6519 8.23947 93.644 8.27707 93.64 8.31227L93.2422 22.1987C93.6933 22.0755 94.1738 22.0307 94.6631 22.0875C95.1492 22.1411 95.6051 22.2891 96.0149 22.5043L98.8472 8.60747V8.59627C98.8138 8.17067 98.5059 7.80747 98.0874 7.70427Z" fill="#FBF7F4"/>
<path d="M94.5173 23.3869C93.117 23.2309 91.856 24.2453 91.704 25.6517C91.5449 27.0565 92.5529 28.3245 93.9524 28.4813C95.3519 28.6373 96.6145 27.6269 96.7696 26.2205C96.924 24.8141 95.9175 23.5453 94.5173 23.3869Z" fill="#FBF7F4"/>
</svg>
