<svg width="169" height="52" viewBox="0 0 169 52" fill="none" xmlns="http://www.w3.org/2000/svg">
<path d="M41.2175 34.4354C42.9855 31.3607 44 27.7976 44 23.9968C44 12.4007 34.599 3 23 3C11.4023 2.9987 2 12.3994 2 23.9955C2 30.0682 4.57726 35.5382 8.70555 39.3741C8.81337 33.391 9.00173 26.6986 9.32259 24.2072C9.92793 19.5205 14.3264 17.7162 20.1253 12.8086C21.8387 11.3538 24.5212 10.9822 28.0116 13.4529C31.7164 16.0769 35.3875 17.5967 36.5644 18.7969C38.1063 20.37 37.4023 21.7937 35.9422 21.7937C34.4925 21.7937 31.6918 19.8699 29.7757 18.9554C23.5313 15.9574 22.9987 15.7235 20.0837 19.0126C16.9881 22.5081 15.15 25.8842 19.2056 27.9405C22.6804 29.7006 26.2333 25.9569 28.4377 23.3278C30.381 21.0143 32.9297 21.1533 33.8144 22.2665C34.699 23.3888 32.7349 24.0838 31.3358 25.5101C28.578 28.3224 29.4081 29.0316 27.2556 32.7142C25.4941 35.7292 23.0753 35.5265 20.8384 37.7595C19.985 38.6064 19.8031 41.6915 19.8538 44.7623C20.88 44.9221 21.9309 45 22.9987 45C26.8126 45 30.3862 43.9738 33.4727 42.1968L40.6095 43.4191C40.6095 43.4191 42.8244 43.6724 42.2801 40.7562C42.0372 39.4443 41.5721 36.6177 41.2175 34.4354ZM33.3324 15.1559L27.2569 11.8266C28.5169 11.9604 29.0093 11.9552 29.9251 12.115C30.7019 12.2514 33.2155 12.3319 33.8209 13.41C34.4236 14.4791 33.3324 15.1559 33.3324 15.1559Z" fill="#F26522"/>
<path d="M92.9531 25.7041L92.1815 36.3451L92.1547 36.7479C92.0007 37.51 91.3067 38.0523 90.5071 37.996L87.0348 37.7466C86.1664 37.684 85.5246 36.9371 85.5819 36.0688L86.3383 25.4969C86.4936 23.3511 85.0179 21.3472 82.8953 21.062C80.5855 20.7474 78.5176 22.4611 78.3546 24.7629L77.5728 35.6571C77.4366 36.4371 76.735 37.0088 75.9277 36.9499L72.4478 36.698C71.6443 36.6417 71.0191 35.9768 71 35.1775L71.5806 27.0034C71.5781 27.0635 71.5704 27.1236 71.5628 27.1824L71.5985 26.7962L73.129 5.34039C73.2474 4.53602 73.963 3.94521 74.7843 4.00404L78.2617 4.25596C79.069 4.31351 79.6789 4.96698 79.7094 5.75728L79.0066 15.5887C79.8877 15.1476 80.8783 14.5555 81.8206 14.3112C88.0865 12.6654 93.5656 17.1566 92.9531 25.7041Z" fill="#115934"/>
<path d="M92.0271 36.2008C92.0232 36.257 92.0194 36.3082 92.0065 36.3619C92.0026 36.376 92.0026 36.3888 92 36.4015L92.0271 36C92.0297 36.0141 92.0297 36.0269 92.0297 36.0409C92.0335 36.0934 92.0297 36.1496 92.0271 36.2008Z" fill="#115934"/>
<path d="M118.075 25.0406C118.075 24.9775 118.071 24.9131 118.07 24.8552L118.096 25.2492L118.099 25.2814L118.952 36.6674C118.948 36.6674 118.948 36.6674 118.952 36.67L118.979 37.0859C118.938 37.8289 118.375 38.4535 117.619 38.5539L117.433 38.5668C117.427 38.5681 117.417 38.5693 117.412 38.5681L114.124 38.8127C114.12 38.8114 114.12 38.8127 114.12 38.8127L113.807 38.8346C113.055 38.8166 112.424 38.2835 112.283 37.5585C112.283 37.5585 112.283 37.5585 112.283 37.5546C112.279 37.5379 112.275 37.5186 112.274 37.4993L112.254 37.2559L112.149 35.842C111.055 37.8109 109.694 38.8243 108.793 39.2029C102.715 41.7667 97.3685 38.0865 96.7224 29.4742L95.9322 18.7385L95.9062 18.3805C95.9348 17.6015 96.5485 16.9422 97.3516 16.8739L97.397 16.8688L100.695 16.6267C100.697 16.6215 100.697 16.6215 100.703 16.6267L101.129 16.5919H101.132H101.139C101.858 16.6421 102.465 17.1765 102.592 17.8873C102.602 17.9388 102.609 17.9929 102.613 18.047L103.416 28.7119C103.579 30.8714 105.365 32.6497 107.543 32.624C109.925 32.5969 111.751 30.5842 111.576 28.2676L111.392 25.7823L110.777 17.6452C110.777 17.6452 110.777 17.6452 110.775 17.644L110.749 17.295C110.751 17.2886 110.751 17.2834 110.751 17.2795C110.778 16.4992 111.397 15.8412 112.199 15.7729L112.24 15.7703L115.549 15.5257L115.968 15.4922H115.974C116.701 15.5347 117.311 16.0717 117.442 16.7863C117.453 16.843 117.456 16.8984 117.462 16.9512C117.464 16.9769 117.464 17.0053 117.464 17.0323L118.053 24.8165L118.075 25.0406Z" fill="#115934"/>
<path d="M146.432 22.1822C145.747 20.6781 144.736 19.3363 143.542 18.2224C142.331 17.1099 140.917 16.2355 139.374 15.6766C137.837 15.1126 136.189 14.877 134.584 14.9684C132.234 15.0843 129.97 15.9123 128.081 17.2335L128.077 17.2167C127.947 16.5548 127.401 16.0359 126.708 15.9548H126.706C126.645 15.9483 126.597 15.9445 126.539 15.9445L122.886 15.9998C122.094 16.0359 121.457 16.6489 121.382 17.4138C121.382 17.4163 121.382 17.4202 121.378 17.4241C121.372 17.4833 121.365 17.54 121.368 17.6005L121.821 47.4433C121.823 47.5051 121.827 47.5618 121.84 47.6223C121.84 47.6249 121.84 47.6249 121.837 47.6287C121.943 48.4129 122.626 49.0104 123.436 48.9976L126.974 48.9473C127.801 48.937 128.469 48.3061 128.535 47.5051C128.535 47.4948 128.538 47.4768 128.538 47.4665L128.39 37.4712C128.977 37.8601 129.598 38.2014 130.244 38.4885C131.716 39.1427 133.327 39.5303 134.956 39.5805C136.586 39.632 138.266 39.3667 139.818 38.7577C141.373 38.1473 142.792 37.2072 143.971 36.0251C145.15 34.8469 146.09 33.4265 146.706 31.8735C147.324 30.3154 147.604 28.6375 147.57 26.9892C147.517 25.3409 147.141 23.6824 146.432 22.1822ZM140.01 27.1038C139.988 28.5255 139.493 29.8904 138.583 30.9927C137.663 32.0744 136.369 32.8483 134.861 33.0428C134.101 33.1303 133.321 33.0711 132.586 32.8226C131.847 32.5753 131.148 32.1581 130.579 31.5902C130.004 31.0275 129.585 30.3257 129.317 29.5865C129.045 28.8358 128.901 28.0606 128.879 27.2674C128.866 26.4741 128.95 25.6835 129.177 24.9121C129.404 24.1446 129.799 23.4068 130.358 22.8119C130.917 22.2118 131.616 21.7559 132.353 21.4739C133.105 21.1906 133.895 21.0799 134.677 21.1275C136.237 21.2408 137.657 21.9645 138.618 23.0977C139.596 24.2425 140.025 25.6835 140.01 27.1038Z" fill="#115934"/>
<path d="M67.7899 36.574C67.7769 36.6268 67.7652 36.6899 67.7522 36.7466C67.664 37.0595 67.5005 37.3299 67.2761 37.5424C67.2722 37.5449 67.2696 37.5462 67.2696 37.5462C67.1217 37.6531 66.9725 37.7497 66.8181 37.8488C66.8181 37.8501 66.8181 37.8501 66.8155 37.8501C64.7655 39.17 62.3055 39.9324 59.6755 39.9066C52.5537 39.8255 46.8435 34.0333 46.9227 26.9651C47.0018 19.9007 52.8378 14.2373 59.9571 14.3133C62.5663 14.3416 64.9873 15.1374 66.9997 16.4843C67.0023 16.4843 67.0023 16.4843 67.0062 16.4882C67.184 16.608 67.363 16.7342 67.5382 16.8604C67.5421 16.8668 67.5421 16.8668 67.5446 16.8719C67.581 16.9054 67.6134 16.9415 67.6433 16.9814C68.1402 17.6085 68.1376 18.4867 67.6484 19.1061L67.3202 19.4229L64.938 21.7421L64.6565 22.0099C64.6526 22.0138 64.6487 22.0164 64.6435 22.0241C64.1271 22.4091 63.4459 22.4709 62.8751 22.2147C62.7765 22.1516 62.6727 22.0898 62.5663 22.0331C62.5663 22.0305 62.5637 22.0305 62.5611 22.0293C61.7605 21.5979 60.851 21.3506 59.8805 21.3416C56.6771 21.3056 54.0419 23.8642 54.0082 27.0423C53.9679 30.2204 56.5512 32.8396 59.7495 32.8718C60.7083 32.8821 61.6165 32.6593 62.4222 32.2524C62.5455 32.1919 62.6727 32.1262 62.7907 32.0515C63.0736 31.9382 63.3902 31.8919 63.7197 31.9472C64.096 32.0103 64.4242 32.1816 64.6747 32.4456C64.685 32.4546 64.6915 32.4636 64.7019 32.4713L67.1009 34.9064C67.1009 34.909 67.1035 34.909 67.1074 34.9128L67.5005 35.3146C67.5031 35.3159 67.507 35.3172 67.507 35.3198C67.7211 35.6301 67.834 35.9997 67.8119 36.3976C67.8041 36.4504 67.799 36.5109 67.7899 36.574Z" fill="#115934"/>
<path d="M162.992 37.015H162.244V39.2093H161.717V37.015H160.984V36.6133H162.993V37.015H162.992Z" fill="#115934"/>
<path d="M164.631 38.5281H164.645L165.318 36.6133H166.001V39.2093H165.474V37.44L165.464 37.4336L164.82 39.2093H164.462L163.815 37.4297L163.804 37.431V39.2093H163.281V36.6133H163.97L164.631 38.5281Z" fill="#115934"/>
<path d="M159.745 11.3827C159.745 11.3827 159.739 11.3827 159.738 11.3827C159.687 11.3685 159.632 11.3582 159.582 11.3531L154.21 10.9256C153.408 10.8715 152.699 11.4162 152.531 12.1811C152.531 12.185 152.531 12.1875 152.525 12.1888C152.512 12.2442 152.499 12.3047 152.492 12.3614L151.844 34.7136C152.579 34.5152 153.363 34.4431 154.161 34.5346C154.954 34.6208 155.697 34.8591 156.365 35.2055L160.984 12.8365V12.8185C160.93 12.1335 160.428 11.5488 159.745 11.3827Z" fill="#115934"/>
<path d="M153.927 36.6388C151.644 36.3877 149.587 38.0205 149.339 40.2843C149.08 42.5455 150.724 44.5865 153.006 44.8389C155.288 45.09 157.347 43.4637 157.6 41.1999C157.852 38.9361 156.211 36.8937 153.927 36.6388Z" fill="#F26522"/>
</svg>
