<svg width="166" height="52" viewBox="0 0 166 52" fill="none" xmlns="http://www.w3.org/2000/svg">
<path d="M43.0669 31.8982C44.3095 29.7272 44.9149 27.2499 44.8137 24.7505C44.7125 22.2511 43.9087 19.8309 42.4947 17.7675C41.0806 15.7042 39.1135 14.0813 36.8191 13.085C34.5247 12.0888 31.996 11.7596 29.523 12.1352C27.05 12.5108 24.733 13.576 22.8379 15.2086C20.9427 16.8412 19.5462 18.975 18.8085 21.3652C18.0708 23.7554 18.0219 26.3051 18.6673 28.7218C19.3127 31.1386 20.6264 33.3244 22.4575 35.0285C22.5223 31.2368 22.652 26.9887 22.8439 25.4171C23.2303 22.4476 26.0208 21.3039 29.6826 18.1917C30.7614 17.271 32.4704 17.0298 34.68 18.5937C37.0347 20.2561 39.348 21.2235 40.1001 21.9808C41.083 22.9818 40.6187 23.8844 39.7111 23.8844C38.8034 23.8844 37.0192 22.6577 35.821 22.0949C31.8688 20.1913 31.5316 20.046 29.6748 22.126C27.709 24.3356 26.5472 26.4804 29.1276 27.7875C31.3371 28.9001 33.5778 26.5297 34.9808 24.8673C36.2075 23.3994 37.8205 23.4979 38.3833 24.1904C38.946 24.8829 37.7064 25.3341 36.8273 26.2392C35.0871 28.0132 35.6032 28.4644 34.2469 30.8011C33.1343 32.7047 31.6017 32.5751 30.1831 33.9963C29.6359 34.5279 29.5218 36.4782 29.5555 38.4311C30.2175 38.5284 30.8858 38.5769 31.555 38.5763C33.8815 38.5803 36.1676 37.9682 38.181 36.8024L42.6986 37.5805C42.6986 37.5805 44.1016 37.7412 43.7619 35.8869C43.5829 35.0752 43.2925 33.2701 43.0669 31.8982ZM38.0669 19.6752L34.2132 17.5615C35.0041 17.6419 35.3257 17.6419 35.9066 17.7405C36.4071 17.8208 37.9813 17.8857 38.3729 18.5626C38.4789 18.7509 38.5062 18.9735 38.4489 19.1819C38.3916 19.3902 38.2543 19.5675 38.0669 19.6752Z" fill="#125934"/>
<path d="M49.0414 27.6253C49.0414 27.6953 49.0207 27.768 49.0155 27.8328L49.0596 27.3841V27.3452L50.1592 14.3649L50.1981 13.8877C50.2879 13.4818 50.5154 13.1194 50.8421 12.8622C51.1688 12.605 51.5744 12.4689 51.9901 12.4769L52.195 12.4976C52.195 12.4976 52.2157 12.4976 52.2209 12.4976L55.9398 12.8063C55.9398 12.8063 55.9398 12.8063 55.9527 12.8063L56.3002 12.8374C56.704 12.9112 57.0704 13.121 57.3383 13.432C57.6063 13.7429 57.7598 14.1362 57.7733 14.5465C57.7746 14.5689 57.7746 14.5915 57.7733 14.6139L57.7473 14.8888L57.6125 16.5045C59.1944 14.4842 60.8931 13.5817 61.9797 13.312C69.2411 11.5147 74.5471 16.6135 73.7198 26.4401L72.6824 38.6787L72.6461 39.0884C72.5602 39.5176 72.3208 39.9007 71.9729 40.1661C71.6249 40.4315 71.1921 40.561 70.7556 40.5304H70.7011L66.9693 40.2166L66.4843 40.1751C66.0948 40.0813 65.7472 39.8613 65.4958 39.5493C65.2444 39.2374 65.1032 38.851 65.0943 38.4504C65.0943 38.3934 65.0943 38.3285 65.0943 38.2663L66.1316 26.1056C66.3365 23.6418 64.6638 21.3206 62.2209 20.9575C61.5956 20.8646 60.9579 20.9007 60.3472 21.0638C59.7364 21.2268 59.1656 21.5133 58.6698 21.9055C58.1741 22.2978 57.764 22.7874 57.4648 23.3443C57.1657 23.9012 56.9838 24.5135 56.9304 25.1434L56.6711 27.9806L55.8931 37.26L55.8594 37.662C55.7704 38.0896 55.5303 38.4708 55.183 38.7356C54.8358 39.0005 54.4047 39.1312 53.9688 39.104H53.9247L50.1773 38.7902L49.6976 38.7539C49.3052 38.6631 48.9541 38.4443 48.6996 38.1321C48.4452 37.8199 48.3017 37.4319 48.292 37.0292C48.2881 36.9688 48.2881 36.9081 48.292 36.8477L48.3075 36.7517L49.0181 27.8847L49.0414 27.6253Z" fill="#125934"/>
<path d="M13.1749 42.3065C12.9778 45.614 12.0001 47.9481 10.2418 49.3088C8.48349 50.6695 6.11144 51.2608 3.12563 51.0828L1.66298 50.9946C1.43103 50.9807 1.20409 50.9212 0.995122 50.8196C0.786159 50.718 0.599268 50.5761 0.445131 50.4023C0.290995 50.2284 0.172633 50.0258 0.0968099 49.8061C0.0209869 49.5865 -0.0108104 49.354 0.00323336 49.1221L0.2107 45.6702C0.224586 45.4382 0.284041 45.2113 0.385669 45.0023C0.487297 44.7933 0.629104 44.6064 0.802989 44.4523C0.976875 44.2981 1.17943 44.1798 1.39908 44.104C1.61872 44.0281 1.85116 43.9963 2.0831 44.0104L2.29057 44.0233C3.1896 44.0752 3.84312 43.9369 4.25114 43.6084C4.65571 43.2764 4.88392 42.711 4.9306 41.9097L6.65259 13.2285C6.66647 12.9966 6.72593 12.7696 6.82755 12.5607C6.92918 12.3517 7.07099 12.1648 7.24488 12.0107C7.41876 11.8565 7.62132 11.7381 7.84096 11.6623C8.06061 11.5865 8.29305 11.5547 8.52499 11.5687L13.2293 11.8514C13.4613 11.8653 13.6882 11.9248 13.8972 12.0264C14.1061 12.128 14.293 12.2698 14.4472 12.4437C14.6013 12.6176 14.7197 12.8202 14.7955 13.0398C14.8713 13.2595 14.9031 13.4919 14.8891 13.7239L13.1749 42.3065ZM7.55507 7.42437C7.13761 7.00109 6.81597 6.49304 6.61194 5.93462C6.40792 5.3762 6.32626 4.78046 6.37251 4.18774C6.39453 3.58794 6.54481 2.99983 6.81321 2.463C7.08161 1.92616 7.46192 1.45308 7.92852 1.07558C8.89324 0.28198 10.0983 -0.0724622 11.5436 0.0122576C12.8327 0.0416344 14.0589 0.575149 14.9591 1.49832C15.3795 1.92768 15.7029 2.44229 15.9074 3.00738C16.1118 3.57247 16.1926 4.17487 16.1443 4.77386C16.1201 5.36768 15.9687 5.94937 15.7002 6.47958C15.4318 7.0098 15.0525 7.47616 14.5882 7.84711C13.584 8.65558 12.3029 9.03826 11.0198 8.91303C9.57616 8.82658 8.42125 8.33036 7.55507 7.42437Z" fill="#125934"/>
<path d="M92.2218 14.2598C92.7957 14.5247 93.3399 14.8499 93.8452 15.2297C93.9904 15.3455 94.166 15.4166 94.3507 15.4346C94.5355 15.4525 94.7215 15.4165 94.8862 15.3309C95.0509 15.2452 95.1872 15.1136 95.2786 14.9521C95.3701 14.7905 95.4126 14.6059 95.4012 14.4206V14.3013C95.3878 14.0473 95.4755 13.7983 95.6451 13.6087C95.8147 13.4192 96.0524 13.3045 96.3063 13.2898L102.271 12.9527C102.525 12.9385 102.774 13.0256 102.963 13.1948C103.153 13.364 103.268 13.6015 103.282 13.8552L104.678 38.5346C104.834 40.7518 104.479 42.9753 103.64 45.0338C102.809 47.0055 101.409 48.6842 99.618 49.8551C97.7629 51.0965 95.4099 51.7993 92.5589 51.9635C88.7553 52.1797 85.6208 51.4561 83.1554 49.7928C81.0455 48.4204 79.5298 46.3037 78.9101 43.8642C78.8742 43.7267 78.8692 43.5829 78.8956 43.4433C78.922 43.3037 78.979 43.1716 79.0627 43.0567C79.1463 42.9418 79.2544 42.8469 79.3791 42.7789C79.5039 42.7109 79.6422 42.6714 79.7841 42.6634L85.7488 42.3262C85.9345 42.3152 86.1194 42.3583 86.281 42.4504C86.4426 42.5425 86.5739 42.6795 86.6591 42.8449C87.0218 43.5573 87.5998 44.1372 88.311 44.5021C89.3778 45.0416 90.5749 45.2698 91.7654 45.1609C93.3905 45.0693 94.6604 44.5281 95.575 43.5374C96.4896 42.5467 96.8881 41.0234 96.7705 38.9677L96.7083 37.8733C96.6971 37.6897 96.6334 37.5132 96.5248 37.3649C96.4161 37.2165 96.2672 37.1024 96.0956 37.0363C95.924 36.9702 95.737 36.9548 95.5569 36.9919C95.3768 37.029 95.2111 37.1171 95.0797 37.2456C94.6132 37.6933 94.1022 38.0921 93.5548 38.436C92.1442 39.2939 90.5367 39.7744 88.8867 39.8313C86.8526 39.9697 84.822 39.5147 83.0413 38.5216C81.2137 37.4843 79.712 35.9574 78.7052 34.1127C77.5953 32.1624 76.966 29.8672 76.8173 27.2271C76.6686 24.5869 77.036 22.2416 77.9195 20.191C78.7137 18.2558 80.0344 16.582 81.7317 15.3594C83.3957 14.1875 85.3599 13.5153 87.393 13.4221C89.0474 13.2919 90.7079 13.58 92.2218 14.2598ZM94.1616 21.6278C93.6171 21.1204 92.9759 20.728 92.2763 20.474C91.5767 20.22 90.8331 20.1097 90.0899 20.1497C89.3467 20.1896 88.6192 20.379 87.9508 20.7065C87.2825 21.034 86.687 21.4929 86.2 22.0557C85.1731 23.2383 84.7149 24.8108 84.8256 26.7732C84.9362 28.7356 85.569 30.2623 86.7239 31.3533C87.2655 31.8669 87.9061 32.2647 88.6066 32.5225C89.307 32.7802 90.0527 32.8925 90.798 32.8525C91.5433 32.8124 92.2727 32.6209 92.9415 32.2896C93.6103 31.9582 94.2046 31.494 94.6881 30.9254C95.7133 29.7289 96.1697 28.1486 96.0574 26.1845C95.945 24.2204 95.3131 22.7015 94.1616 21.6278Z" fill="#125934"/>
<path d="M163.122 36.409H162.604V37.9366H162.243V36.409H161.725V36.1289H163.109L163.122 36.409Z" fill="#125934"/>
<path d="M164.264 37.4574L164.728 36.1269H165.2V37.9423H164.837V36.7001L164.388 37.932H164.129L163.698 36.7001V37.9346H163.338V36.1191H163.81L164.264 37.4574Z" fill="#125934"/>
<path d="M161.248 7.62455C161.185 7.61337 161.122 7.60644 161.059 7.6038L154.803 7.51562C154.357 7.51625 153.925 7.67698 153.587 7.96867C153.248 8.26036 153.026 8.66368 152.96 9.10542C152.96 9.10542 152.96 9.10542 152.96 9.12098C152.96 9.18582 152.939 9.25325 152.934 9.32327L153.911 35.4628C154.769 35.17 155.674 35.0398 156.58 35.079C157.475 35.1202 158.355 35.3286 159.173 35.6936L162.804 9.22731V9.20916C162.746 8.81433 162.564 8.44819 162.284 8.16343C162.004 7.87867 161.642 7.68999 161.248 7.62455Z" fill="#125934"/>
<path d="M156.465 37.5558C155.511 37.5122 154.566 37.7525 153.748 38.2463C152.931 38.7401 152.278 39.4652 151.873 40.33C151.467 41.1948 151.327 42.1604 151.471 43.1047C151.614 44.049 152.034 44.9295 152.678 45.635C153.322 46.3405 154.16 46.8392 155.088 47.0681C156.015 47.297 156.989 47.2458 157.887 46.9209C158.785 46.5961 159.567 46.0122 160.133 45.2431C160.7 44.474 161.025 43.5542 161.069 42.6001C161.125 41.3213 160.672 40.0723 159.809 39.1268C158.946 38.1813 157.744 37.6164 156.465 37.5558Z" fill="#125934"/>
<path d="M138.303 47.8902C137.958 47.6783 137.647 47.416 137.38 47.1122L135.305 44.9051C133.826 45.5617 132.249 45.9708 130.637 46.1163C125.623 46.6609 121.549 45.8613 118.415 43.7173C115.28 41.5734 113.365 38.1224 112.668 33.3642C112.519 32.3268 112.335 30.7984 112.115 28.779C111.892 26.7146 111.743 25.1646 111.667 24.1289C111.299 19.4174 112.444 15.6293 115.103 12.7643C117.762 9.89943 121.547 8.20158 126.459 7.67078C131.368 7.13653 135.437 7.98199 138.669 10.2072C141.9 12.4324 143.842 15.8851 144.493 20.5655C144.787 22.623 144.991 24.1669 145.103 25.1974C145.212 26.1933 145.342 27.7278 145.494 29.8008C145.826 34.1907 144.916 37.7454 142.764 40.4651L147.263 45.595C147.374 45.7492 147.449 45.9265 147.481 46.1137V46.22C147.497 46.3559 147.483 46.4936 147.441 46.6238C147.399 46.754 147.329 46.8737 147.237 46.9747C147.056 47.1877 146.8 47.3224 146.521 47.3508L139.519 48.1081C139.101 48.1696 138.674 48.0931 138.303 47.8902ZM134.276 36.147C135.303 34.8485 135.721 32.9856 135.531 30.5581C135.377 28.4833 135.254 27.0198 135.163 26.1674C135.064 25.2441 134.87 23.7892 134.582 21.8026C134.246 19.3906 133.437 17.6617 132.154 16.6156C130.871 15.5696 129.251 15.1521 127.292 15.363C125.373 15.5705 123.898 16.3243 122.867 17.6245C121.837 18.9247 121.418 20.7877 121.61 23.2134C121.682 24.2145 121.823 25.6755 122.032 27.5964C122.238 29.4827 122.411 30.9402 122.551 31.9689C122.883 34.3895 123.683 36.1185 124.95 37.1559C126.217 38.1933 127.829 38.6125 129.787 38.4137C131.749 38.2028 133.245 37.4472 134.276 36.147Z" fill="#F15F27"/>
</svg>
