<svg width="151" height="48" viewBox="0 0 151 48" fill="none" xmlns="http://www.w3.org/2000/svg">
<path d="M39.1516 29.5291C40.2798 27.5578 40.8295 25.3085 40.7376 23.039C40.6458 20.7695 39.916 18.5719 38.632 16.6984C37.348 14.8249 35.562 13.3513 33.4787 12.4467C31.3954 11.5421 29.0993 11.2432 26.8538 11.5842C24.6084 11.9253 22.5046 12.8925 20.7838 14.3749C19.063 15.8573 17.795 17.7948 17.1252 19.9651C16.4553 22.1354 16.4109 24.4506 16.997 26.645C17.583 28.8394 18.7758 30.8241 20.4384 32.3714C20.4973 28.9286 20.615 25.0713 20.7893 23.6442C21.1401 20.9479 23.6738 19.9094 26.9987 17.0836C27.9783 16.2476 29.5301 16.0286 31.5363 17.4486C33.6744 18.958 35.7748 19.8364 36.4577 20.524C37.3502 21.433 36.9287 22.2525 36.1045 22.2525C35.2804 22.2525 33.6603 21.1387 32.5724 20.6277C28.9838 18.8992 28.6777 18.7673 26.9917 20.6559C25.2068 22.6623 24.1518 24.6097 26.4948 25.7966C28.5011 26.8068 30.5355 24.6545 31.8095 23.145C32.9233 21.8121 34.3879 21.9016 34.8989 22.5304C35.4099 23.1591 34.2843 23.5689 33.486 24.3907C31.906 26.0015 32.3746 26.4112 31.1431 28.533C30.1329 30.2614 28.7412 30.1437 27.4532 31.4342C26.9563 31.9169 26.8527 33.6878 26.8833 35.461C27.4845 35.5494 28.0913 35.5934 28.6989 35.5929C30.8113 35.5964 32.8871 35.0407 34.7152 33.9822L38.8172 34.6886C38.8172 34.6886 40.0911 34.8346 39.7826 33.1509C39.6201 32.4138 39.3564 30.7748 39.1516 29.5291ZM34.6116 18.4305L31.1125 16.5113C31.8307 16.5843 32.1226 16.5843 32.6501 16.6738C33.1046 16.7468 34.5339 16.8057 34.8895 17.4203C34.9857 17.5913 35.0105 17.7934 34.9585 17.9826C34.9064 18.1718 34.7818 18.3328 34.6116 18.4305Z" fill="black"/>
<path d="M44.5757 25.6477C44.5757 25.7113 44.5569 25.7772 44.5522 25.8361L44.5922 25.4287V25.3934L45.5906 13.6072L45.626 13.1739C45.7075 12.8053 45.9141 12.4763 46.2107 12.2428C46.5073 12.0092 46.8756 11.8856 47.2531 11.8929L47.4391 11.9117C47.4391 11.9117 47.4579 11.9117 47.4626 11.9117L50.8393 12.1919C50.8393 12.1919 50.8394 12.1919 50.8511 12.1919L51.1667 12.2202C51.5333 12.2872 51.8659 12.4778 52.1093 12.7601C52.3526 13.0424 52.4919 13.3995 52.5042 13.7721C52.5053 13.7925 52.5053 13.8129 52.5042 13.8333L52.4806 14.0829L52.3582 15.55C53.7946 13.7156 55.3369 12.8961 56.3235 12.6512C62.9168 11.0192 67.7346 15.6489 66.9835 24.5715L66.0416 35.6842L66.0086 36.0563C65.9306 36.4459 65.7132 36.7938 65.3973 37.0348C65.0813 37.2758 64.6884 37.3934 64.292 37.3656H64.2425L60.8541 37.0806L60.4137 37.043C60.06 36.9578 59.7445 36.7581 59.5162 36.4748C59.2879 36.1915 59.1597 35.8407 59.1516 35.477C59.1516 35.4252 59.1516 35.3663 59.1516 35.3098L60.0935 24.2678C60.2795 22.0306 58.7607 19.923 56.5425 19.5933C55.9748 19.5089 55.3958 19.5417 54.8412 19.6898C54.2867 19.8378 53.7684 20.098 53.3182 20.4541C52.8681 20.8103 52.4957 21.2549 52.2241 21.7605C51.9525 22.2662 51.7873 22.8221 51.7389 23.3941L51.5034 25.9703L50.797 34.3961L50.7664 34.7611C50.6856 35.1493 50.4675 35.4954 50.1522 35.7359C49.8369 35.9764 49.4455 36.0952 49.0497 36.0704H49.0097L45.6071 35.7855L45.1715 35.7525C44.8152 35.6701 44.4964 35.4714 44.2654 35.1879C44.0343 34.9044 43.9041 34.5521 43.8952 34.1865C43.8917 34.1316 43.8917 34.0766 43.8952 34.0217L43.9093 33.9345L44.5545 25.8832L44.5757 25.6477Z" fill="black"/>
<path d="M12.0115 38.9789C11.8325 41.9822 10.9448 44.1016 9.34828 45.3371C7.75177 46.5726 5.59797 47.1095 2.88687 46.9478L1.5588 46.8678C1.34819 46.8551 1.14213 46.8012 0.952391 46.7089C0.762654 46.6166 0.592958 46.4878 0.453004 46.3299C0.313049 46.172 0.205577 45.9881 0.136731 45.7887C0.067884 45.5892 0.0390124 45.3782 0.051764 45.1675L0.240142 42.0332C0.25275 41.8226 0.306735 41.6165 0.399013 41.4268C0.49129 41.237 0.620049 41.0673 0.777936 40.9273C0.935822 40.7874 1.11974 40.6799 1.31918 40.611C1.51862 40.5422 1.72967 40.5133 1.94027 40.5261L2.12865 40.5378C2.94496 40.5849 3.53835 40.4594 3.90883 40.1611C4.27617 39.8596 4.48339 39.3463 4.52577 38.6186L6.08932 12.576C6.10193 12.3654 6.15591 12.1593 6.24819 11.9696C6.34047 11.7798 6.46923 11.6101 6.62712 11.4702C6.785 11.3302 6.96892 11.2227 7.16836 11.1539C7.36779 11.085 7.57884 11.0562 7.78945 11.0689L12.0609 11.3256C12.2716 11.3382 12.4776 11.3922 12.6674 11.4845C12.8571 11.5768 13.0268 11.7055 13.1667 11.8634C13.3067 12.0213 13.4142 12.2052 13.483 12.4047C13.5519 12.6041 13.5807 12.8152 13.568 13.0258L12.0115 38.9789ZM6.90877 7.30582C6.52972 6.92147 6.23767 6.46016 6.05242 5.95312C5.86716 5.44607 5.79302 4.90513 5.83501 4.36694C5.85501 3.82232 5.99146 3.28831 6.23517 2.80087C6.47887 2.31342 6.82419 1.88385 7.24785 1.54108C8.12382 0.820492 9.21799 0.498657 10.5304 0.575583C11.7008 0.602257 12.8142 1.08669 13.6316 1.92493C14.0133 2.3148 14.3069 2.78207 14.4926 3.29517C14.6782 3.80827 14.7516 4.35525 14.7077 4.89914C14.6857 5.43833 14.5482 5.96651 14.3045 6.44794C14.0607 6.92938 13.7164 7.35284 13.2948 7.68967C12.383 8.42376 11.2198 8.77123 10.0547 8.65752C8.7439 8.57903 7.69525 8.12846 6.90877 7.30582Z" fill="black"/>
<path d="M83.7839 13.5105C84.3051 13.7511 84.7992 14.0463 85.258 14.3912C85.3898 14.4963 85.5492 14.5609 85.717 14.5772C85.8847 14.5935 86.0536 14.5608 86.2032 14.483C86.3527 14.4053 86.4765 14.2858 86.5595 14.1391C86.6425 13.9924 86.6812 13.8247 86.6708 13.6565V13.5482C86.6586 13.3175 86.7382 13.0914 86.8922 12.9193C87.0462 12.7472 87.2621 12.6431 87.4926 12.6298L92.9085 12.3236C93.1389 12.3108 93.365 12.3898 93.5372 12.5435C93.7093 12.6971 93.8135 12.9128 93.8269 13.1431L95.0937 35.5521C95.2355 37.5654 94.9132 39.5843 94.1518 41.4534C93.3973 43.2437 92.1256 44.768 90.4996 45.8312C88.8152 46.9584 86.6787 47.5965 84.09 47.7457C80.6364 47.9419 77.7903 47.2849 75.5517 45.7746C73.6359 44.5285 72.2597 42.6065 71.697 40.3914C71.6644 40.2666 71.6599 40.136 71.6838 40.0092C71.7078 39.8825 71.7596 39.7626 71.8355 39.6582C71.9115 39.5539 72.0096 39.4678 72.1229 39.406C72.2362 39.3442 72.3618 39.3084 72.4906 39.3011L77.9065 38.995C78.0751 38.9849 78.243 39.0241 78.3897 39.1077C78.5364 39.1913 78.6557 39.3158 78.733 39.4659C79.0624 40.1127 79.5872 40.6393 80.233 40.9707C81.2016 41.4605 82.2886 41.6678 83.3695 41.5688C84.8451 41.4856 85.9982 40.9942 86.8286 40.0947C87.659 39.1951 88.0209 37.812 87.9141 35.9454L87.8576 34.9516C87.8475 34.785 87.7896 34.6247 87.691 34.49C87.5923 34.3553 87.4571 34.2517 87.3013 34.1917C87.1455 34.1316 86.9757 34.1176 86.8122 34.1513C86.6486 34.185 86.4982 34.265 86.3788 34.3817C85.9553 34.7882 85.4913 35.1504 84.9943 35.4626C83.7135 36.2416 82.2539 36.6779 80.7557 36.7296C78.9087 36.8552 77.065 36.4421 75.4481 35.5403C73.7887 34.5985 72.4251 33.212 71.511 31.5371C70.5032 29.7662 69.9318 27.6821 69.7968 25.2849C69.6617 22.8876 69.9953 20.758 70.7975 18.8961C71.5186 17.1389 72.7178 15.619 74.259 14.5089C75.7699 13.4448 77.5533 12.8345 79.3994 12.7499C80.9016 12.6316 82.4093 12.8932 83.7839 13.5105ZM85.5453 20.2007C85.0509 19.74 84.4686 19.3836 83.8334 19.153C83.1982 18.9224 82.523 18.8223 81.8482 18.8585C81.1734 18.8948 80.5128 19.0668 79.9059 19.3641C79.2991 19.6615 78.7584 20.0782 78.3162 20.5892C77.3837 21.6631 76.9677 23.0909 77.0682 24.8728C77.1687 26.6546 77.7432 28.0409 78.7919 29.0315C79.2836 29.4978 79.8653 29.8591 80.5013 30.0931C81.1374 30.3271 81.8144 30.4291 82.4911 30.3927C83.1679 30.3564 83.8301 30.1825 84.4374 29.8816C85.0447 29.5808 85.5843 29.1593 86.0233 28.6429C86.9542 27.5565 87.3686 26.1216 87.2666 24.3382C87.1645 22.5548 86.5908 21.1756 85.5453 20.2007Z" fill="black"/>
<path d="M148.162 33.6235H147.691V35.0105H147.364V33.6235H146.893V33.3691H148.15L148.162 33.6235Z" fill="black"/>
<path d="M149.202 34.5764L149.623 33.3684H150.052V35.0168H149.722V33.8888L149.315 35.0074H149.08L148.689 33.8888V35.0097H148.361V33.3613H148.79L149.202 34.5764Z" fill="black"/>
<path d="M146.465 7.49149C146.409 7.48133 146.351 7.47504 146.293 7.47264L140.614 7.39258C140.208 7.39314 139.816 7.53909 139.509 7.80395C139.202 8.0688 139 8.43501 138.94 8.83612C138.94 8.83612 138.94 8.83612 138.94 8.85025C138.94 8.90912 138.921 8.97035 138.916 9.03393L139.804 32.7687C140.583 32.5029 141.404 32.3847 142.227 32.4202C143.04 32.4576 143.838 32.6469 144.582 32.9783L147.878 8.9468V8.93031C147.825 8.57181 147.66 8.23935 147.406 7.98079C147.152 7.72223 146.823 7.55091 146.465 7.49149Z" fill="black"/>
<path d="M142.118 34.6628C141.252 34.6232 140.393 34.8413 139.651 35.2897C138.909 35.7381 138.316 36.3965 137.948 37.1818C137.58 37.967 137.453 38.8437 137.583 39.7012C137.713 40.5586 138.095 41.3581 138.679 41.9987C139.264 42.6393 140.025 43.0921 140.867 43.3C141.709 43.5078 142.594 43.4613 143.409 43.1663C144.225 42.8714 144.934 42.3412 145.448 41.6428C145.963 40.9445 146.258 40.1094 146.298 39.243C146.349 38.0819 145.938 36.9477 145.154 36.0892C144.371 35.2307 143.279 34.7177 142.118 34.6628Z" fill="black"/>
<path d="M125.624 44.0529C125.31 43.8605 125.028 43.6223 124.785 43.3464L122.901 41.3424C121.558 41.9386 120.126 42.3101 118.663 42.4422C114.11 42.9367 110.411 42.2106 107.565 40.2639C104.719 38.3172 102.98 35.1836 102.347 30.8632C102.212 29.9213 102.045 28.5335 101.845 26.6998C101.643 24.8253 101.507 23.4179 101.438 22.4775C101.104 18.1995 102.144 14.7598 104.558 12.1584C106.972 9.55708 110.41 8.01542 114.869 7.53346C119.326 7.04835 123.022 7.81604 125.956 9.83653C128.89 11.857 130.652 14.9921 131.244 19.2419C131.511 21.1101 131.696 22.512 131.798 23.4477C131.897 24.352 132.015 25.7453 132.153 27.6276C132.455 31.6136 131.628 34.8414 129.674 37.3109L133.759 41.9688C133.86 42.1088 133.928 42.2699 133.957 42.4398V42.5363C133.971 42.6598 133.959 42.7848 133.921 42.903C133.882 43.0212 133.819 43.1299 133.736 43.2216C133.571 43.415 133.338 43.5373 133.086 43.5631L126.728 44.2507C126.348 44.3066 125.96 44.2371 125.624 44.0529ZM121.967 33.39C122.899 32.211 123.279 30.5194 123.106 28.3152C122.967 26.4313 122.855 25.1024 122.772 24.3284C122.682 23.4901 122.507 22.169 122.244 20.3652C121.94 18.1751 121.205 16.6052 120.04 15.6554C118.876 14.7056 117.404 14.3265 115.625 14.518C113.883 14.7064 112.544 15.3909 111.608 16.5715C110.672 17.7521 110.292 19.4436 110.466 21.6462C110.532 22.5552 110.66 23.8818 110.85 25.626C111.037 27.3388 111.194 28.6622 111.321 29.5963C111.622 31.7942 112.348 33.3641 113.499 34.3061C114.65 35.248 116.114 35.6287 117.891 35.4482C119.672 35.2566 121.031 34.5706 121.967 33.39Z" fill="black"/>
</svg>
