<svg width="102" height="33" viewBox="0 0 102 33" fill="none" xmlns="http://www.w3.org/2000/svg">
<path d="M26.5019 20.1514C27.2666 18.8153 27.6392 17.2906 27.577 15.7524C27.5147 14.2141 27.02 12.7246 26.1498 11.4547C25.2796 10.1848 24.069 9.18603 22.657 8.57291C21.245 7.95978 19.6888 7.75718 18.1669 7.98835C16.645 8.21952 15.2191 8.8751 14.0528 9.87986C12.8865 10.8846 12.0271 12.1979 11.5731 13.6689C11.1192 15.1399 11.089 16.7092 11.4862 18.1965C11.8834 19.6839 12.6919 21.0291 13.8188 22.0779C13.8587 19.7444 13.9385 17.1299 14.0566 16.1626C14.2944 14.3351 16.0116 13.6312 18.2651 11.7158C18.9291 11.1492 19.9808 11.0007 21.3406 11.9632C22.7897 12.9863 24.2133 13.5817 24.6762 14.0478C25.281 14.6639 24.9953 15.2193 24.4368 15.2193C23.8782 15.2193 22.7801 14.4643 22.0428 14.118C19.6105 12.9464 19.4031 12.857 18.2603 14.1371C17.0506 15.497 16.3356 16.817 17.9236 17.6215C19.2834 18.3062 20.6623 16.8474 21.5257 15.8243C22.2806 14.9208 23.2733 14.9815 23.6196 15.4077C23.9659 15.8338 23.2031 16.1116 22.662 16.6686C21.5911 17.7604 21.9087 18.0381 21.074 19.4762C20.3894 20.6478 19.4461 20.568 18.5732 21.4427C18.2364 21.7699 18.1662 22.9702 18.1869 24.1721C18.5944 24.2319 19.0056 24.2618 19.4174 24.2614C20.8492 24.2638 22.2561 23.8872 23.4951 23.1697L26.2753 23.6485C26.2753 23.6485 27.1387 23.7475 26.9297 22.6062C26.8195 22.1067 26.6408 20.9957 26.5019 20.1514ZM23.4249 12.6288L21.0533 11.3279C21.5401 11.3774 21.738 11.3774 22.0955 11.4381C22.4035 11.4875 23.3722 11.5274 23.6132 11.944C23.6785 12.0599 23.6953 12.1969 23.66 12.3252C23.6247 12.4534 23.5402 12.5625 23.4249 12.6288Z" fill="white"/>
<path d="M30.1779 17.5186C30.1779 17.5617 30.1651 17.6063 30.1619 17.6463L30.189 17.3701V17.3462L30.8657 9.35751L30.8897 9.06382C30.9449 8.81397 31.085 8.59096 31.286 8.43267C31.487 8.27438 31.7367 8.19059 31.9925 8.19552L32.1186 8.20829C32.1186 8.20829 32.1313 8.20829 32.1345 8.20829L34.4232 8.39823C34.4232 8.39823 34.4232 8.39823 34.4311 8.39823L34.645 8.41738C34.8935 8.46282 35.1189 8.59195 35.2839 8.78332C35.4488 8.97468 35.5432 9.21674 35.5515 9.46924C35.5523 9.48306 35.5523 9.49691 35.5515 9.51073L35.5355 9.67993L35.4526 10.6743C36.4261 9.43093 37.4715 8.87547 38.1402 8.70948C42.6089 7.60335 45.8742 10.7414 45.3651 16.7891L44.7267 24.3213L44.7044 24.5735C44.6515 24.8376 44.5042 25.0734 44.2901 25.2367C44.0759 25.4001 43.8096 25.4798 43.5409 25.4609H43.5074L41.2108 25.2678L40.9124 25.2423C40.6727 25.1846 40.4588 25.0492 40.304 24.8572C40.1493 24.6652 40.0624 24.4274 40.0569 24.1808C40.0569 24.1457 40.0569 24.1058 40.0569 24.0675L40.6953 16.5832C40.8214 15.0669 39.792 13.6384 38.2886 13.4149C37.9038 13.3577 37.5114 13.3799 37.1355 13.4803C36.7597 13.5806 36.4083 13.7569 36.1033 13.9983C35.7982 14.2397 35.5458 14.5411 35.3617 14.8838C35.1776 15.2266 35.0657 15.6034 35.0328 15.9911L34.8732 17.7372L34.3944 23.4482L34.3737 23.6956C34.3189 23.9588 34.1711 24.1933 33.9574 24.3563C33.7437 24.5194 33.4784 24.5998 33.2102 24.5831H33.1831L30.8769 24.3899L30.5817 24.3676C30.3402 24.3117 30.1241 24.1771 29.9675 23.9849C29.8109 23.7928 29.7226 23.554 29.7166 23.3062C29.7142 23.269 29.7142 23.2316 29.7166 23.1944L29.7262 23.1354L30.1635 17.6782L30.1779 17.5186Z" fill="white"/>
<path d="M8.10793 26.553C7.98664 28.5886 7.38495 30.0251 6.30289 30.8626C5.22082 31.7 3.76104 32.0639 1.92354 31.9543L1.02341 31.9001C0.880667 31.8915 0.741005 31.8549 0.612407 31.7924C0.483809 31.7298 0.368795 31.6425 0.273938 31.5355C0.179081 31.4285 0.10624 31.3038 0.0595776 31.1686C0.0129155 31.0335 -0.00665281 30.8904 0.00198984 30.7476L0.129667 28.6232C0.138212 28.4804 0.174802 28.3407 0.237344 28.2121C0.299887 28.0835 0.387156 27.9685 0.494167 27.8736C0.601177 27.7788 0.725832 27.7059 0.861005 27.6593C0.996178 27.6126 1.13922 27.593 1.28196 27.6017L1.40964 27.6096C1.96291 27.6416 2.36509 27.5564 2.61619 27.3543C2.86516 27.15 3.00561 26.802 3.03434 26.3088L4.09406 8.65709C4.10261 8.51433 4.1392 8.37465 4.20174 8.24604C4.26428 8.11743 4.35155 8.00241 4.45856 7.90754C4.56557 7.81267 4.69023 7.73982 4.8254 7.69316C4.96057 7.64649 5.10361 7.62692 5.24635 7.63556L8.14145 7.80954C8.28419 7.81809 8.42385 7.85468 8.55245 7.91723C8.68105 7.97978 8.79606 8.06706 8.89092 8.17408C8.98578 8.2811 9.05862 8.40577 9.10528 8.54095C9.15194 8.67614 9.17151 8.8192 9.16287 8.96195L8.10793 26.553ZM4.64946 5.08493C4.39255 4.82442 4.19461 4.51174 4.06905 4.16807C3.94349 3.82439 3.89324 3.45774 3.9217 3.09295C3.93525 2.72381 4.02773 2.36186 4.19291 2.03147C4.35809 1.70108 4.59213 1.40992 4.87928 1.17759C5.47298 0.689168 6.21458 0.471028 7.10406 0.523169C7.89736 0.541249 8.65197 0.869598 9.20596 1.43776C9.4647 1.70201 9.6637 2.01873 9.78953 2.36651C9.91536 2.71429 9.96507 3.08503 9.93532 3.45368C9.92045 3.81914 9.82726 4.17714 9.66205 4.50346C9.49684 4.82978 9.26347 5.1168 8.97774 5.3451C8.35972 5.84267 7.57132 6.07819 6.78168 6.00112C5.89325 5.94791 5.18251 5.64252 4.64946 5.08493Z" fill="white"/>
<path d="M56.7557 9.2878C57.1089 9.45086 57.4438 9.65097 57.7548 9.88475C57.8441 9.95599 57.9522 9.99979 58.0659 10.0108C58.1796 10.0219 58.294 9.99971 58.3954 9.947C58.4968 9.89428 58.5807 9.8133 58.6369 9.71386C58.6932 9.61442 58.7194 9.50079 58.7124 9.38676V9.31333C58.7041 9.15702 58.758 9.00378 58.8624 8.88712C58.9668 8.77047 59.1131 8.6999 59.2694 8.69084L62.9401 8.48334C63.0962 8.47462 63.2495 8.52821 63.3662 8.63235C63.4829 8.73648 63.5535 8.88265 63.5625 9.0388L64.4212 24.2276C64.5172 25.5922 64.2988 26.9607 63.7828 28.2276C63.2714 29.441 62.4095 30.4742 61.3074 31.1948C60.1658 31.9588 58.7177 32.3914 56.9632 32.4925C54.6224 32.6255 52.6934 32.1801 51.1762 31.1565C49.8777 30.3119 48.9449 29.0091 48.5636 27.5077C48.5415 27.4231 48.5384 27.3346 48.5546 27.2487C48.5709 27.1628 48.606 27.0815 48.6575 27.0108C48.7089 26.9401 48.7754 26.8817 48.8522 26.8398C48.929 26.7979 49.0141 26.7737 49.1014 26.7687L52.7722 26.5612C52.8864 26.5544 53.0002 26.5809 53.0997 26.6376C53.1991 26.6943 53.28 26.7786 53.3323 26.8804C53.5556 27.3188 53.9113 27.6757 54.349 27.9004C55.0055 28.2323 55.7422 28.3728 56.4748 28.3058C57.475 28.2494 58.2565 27.9163 58.8193 27.3066C59.3821 26.6969 59.6274 25.7594 59.555 24.4942L59.5167 23.8206C59.5098 23.7077 59.4706 23.5991 59.4038 23.5077C59.3369 23.4164 59.2453 23.3462 59.1397 23.3055C59.0341 23.2648 58.919 23.2554 58.8082 23.2782C58.6973 23.301 58.5954 23.3552 58.5145 23.4344C58.2274 23.7099 57.9129 23.9553 57.576 24.167C56.708 24.695 55.7187 24.9907 54.7033 25.0257C53.4514 25.1109 52.2018 24.8308 51.106 24.2197C49.9812 23.5813 49.0571 22.6415 48.4375 21.5062C47.7544 20.3059 47.3671 18.8934 47.2756 17.2685C47.1841 15.6436 47.4102 14.2002 47.9539 12.9382C48.4427 11.7471 49.2555 10.717 50.3 9.96456C51.324 9.24329 52.5328 8.82962 53.784 8.77224C54.8021 8.69212 55.824 8.86941 56.7557 9.2878ZM57.9495 13.8224C57.6144 13.5101 57.2198 13.2686 56.7892 13.1123C56.3587 12.956 55.9011 12.8881 55.4437 12.9127C54.9863 12.9373 54.5386 13.0539 54.1273 13.2554C53.716 13.457 53.3496 13.7394 53.0499 14.0858C52.4179 14.8136 52.1359 15.7814 52.204 16.9892C52.2721 18.1969 52.6615 19.1365 53.3722 19.8079C53.7056 20.124 54.0998 20.3689 54.5309 20.5275C54.9619 20.6861 55.4208 20.7552 55.8795 20.7306C56.3382 20.706 56.787 20.5881 57.1986 20.3842C57.6102 20.1802 57.9759 19.8946 58.2735 19.5446C58.9044 18.8082 59.1853 17.8356 59.1161 16.6268C59.047 15.418 58.6581 14.4832 57.9495 13.8224Z" fill="white"/>
<path d="M100.386 22.9224H100.066V23.8625H99.8446V22.9224H99.5254V22.75H100.378L100.386 22.9224Z" fill="white"/>
<path d="M101.089 23.5697L101.375 22.7509H101.665V23.8682H101.442V23.1036L101.166 23.8618H101.006L100.741 23.1036V23.8634H100.52V22.7461H100.81L101.089 23.5697Z" fill="white"/>
<path d="M99.2339 5.20766C99.1954 5.20078 99.1564 5.19652 99.1174 5.19489L95.2679 5.14062C94.993 5.14101 94.7273 5.23993 94.5192 5.41945C94.311 5.59897 94.174 5.84719 94.1332 6.11906C94.1332 6.11906 94.1332 6.11906 94.1332 6.12864C94.1332 6.16854 94.1204 6.21004 94.1172 6.25313L94.7189 22.3406C95.2468 22.1604 95.8038 22.0803 96.3611 22.1044C96.9121 22.1297 97.4534 22.258 97.9571 22.4827L100.191 6.19408V6.1829C100.156 5.93991 100.044 5.71457 99.8715 5.53931C99.6994 5.36406 99.4761 5.24794 99.2339 5.20766Z" fill="white"/>
<path d="M96.2871 23.6281C95.7 23.6013 95.1181 23.7491 94.615 24.053C94.1119 24.3569 93.7102 24.8032 93.4607 25.3355C93.2112 25.8677 93.1251 26.462 93.2134 27.0431C93.3016 27.6243 93.5601 28.1662 93.9563 28.6004C94.3525 29.0346 94.8686 29.3415 95.4392 29.4824C96.0098 29.6233 96.6094 29.5918 97.1621 29.3918C97.7148 29.1919 98.1959 28.8325 98.5444 28.3592C98.8929 27.8859 99.0932 27.3198 99.12 26.7326C99.1547 25.9456 98.876 25.1769 98.345 24.5949C97.814 24.013 97.074 23.6654 96.2871 23.6281Z" fill="white"/>
<path d="M85.1133 29.989C84.9011 29.8586 84.7096 29.6972 84.5451 29.5102L83.2683 28.1519C82.358 28.5559 81.3875 28.8077 80.3956 28.8973C77.31 29.2325 74.8028 28.7403 72.8738 27.4208C70.9448 26.1014 69.7659 23.9774 69.3371 21.0491C69.2456 20.4106 69.1323 19.4699 68.9971 18.2271C68.8599 16.9566 68.7679 16.0026 68.721 15.3652C68.4944 12.4656 69.1993 10.1341 70.8357 8.37093C72.4721 6.60773 74.8017 5.56279 77.8245 5.23611C80.8451 4.90731 83.3497 5.42765 85.3383 6.79714C87.3269 8.16662 88.5217 10.2916 88.9228 13.1721C89.1037 14.4384 89.2288 15.3886 89.2979 16.0228C89.3649 16.6357 89.4453 17.5801 89.5389 18.856C89.7432 21.5577 89.183 23.7455 87.8583 25.4193L90.6273 28.5764C90.6956 28.6713 90.7415 28.7805 90.7614 28.8957V28.9611C90.7711 29.0448 90.7627 29.1295 90.7368 29.2096C90.7109 29.2898 90.6681 29.3634 90.6114 29.4256C90.4999 29.5567 90.3421 29.6396 90.1709 29.657L85.8618 30.1231C85.6043 30.161 85.3416 30.1139 85.1133 29.989ZM82.6347 22.7617C83.2667 21.9626 83.5242 20.816 83.4072 19.322C83.3125 18.0451 83.2369 17.1444 83.1805 16.6198C83.1199 16.0515 83.0007 15.1561 82.823 13.9335C82.6166 12.4491 82.1187 11.385 81.3292 10.7412C80.5397 10.0974 79.5423 9.84044 78.3368 9.97026C77.1558 10.098 76.2482 10.5619 75.614 11.3621C74.9799 12.1623 74.7219 13.3088 74.84 14.8018C74.8847 15.4179 74.9714 16.317 75.1001 17.4992C75.2268 18.6602 75.3332 19.5572 75.4193 20.1903C75.6236 21.6801 76.1157 22.7442 76.8956 23.3826C77.6755 24.0211 78.6677 24.2791 79.8721 24.1567C81.0797 24.0269 82.0006 23.5619 82.6347 22.7617Z" fill="#F15F27"/>
</svg>
