<svg width="190" height="54" viewBox="0 0 190 54" fill="none" xmlns="http://www.w3.org/2000/svg">
<circle cx="24.5394" cy="24.3284" r="24.2308" fill="white"/>
<path d="M45.5595 36.3692C47.5995 32.8215 48.7701 28.7102 48.7701 24.3247C48.7701 10.9447 37.9228 0.0976564 24.5394 0.0976564C11.1574 0.0961576 0.308594 10.9432 0.308594 24.3232C0.308594 31.3302 3.28236 37.6417 8.04577 42.0678C8.17018 35.1642 8.38752 27.4422 8.75774 24.5675C9.45621 19.1597 14.5314 17.0779 21.2224 11.4153C23.1994 9.73661 26.2945 9.30794 30.322 12.1587C34.5968 15.1863 38.8326 16.94 40.1906 18.3249C41.9697 20.14 41.1574 21.7827 39.4726 21.7827C37.7999 21.7827 34.5683 19.5629 32.3575 18.5077C25.1524 15.0484 24.5379 14.7787 21.1744 18.5737C17.6026 22.607 15.4817 26.5025 20.1612 28.8751C24.1706 30.906 28.2701 26.5864 30.8136 23.5528C33.056 20.8834 35.9967 21.0437 37.0175 22.3282C38.0382 23.6232 35.7719 24.4251 34.1576 26.0708C30.9755 29.3158 31.9333 30.1341 29.4497 34.3833C27.4172 37.8621 24.6263 37.6283 22.0452 40.2047C21.0605 41.182 20.8506 44.7417 20.9091 48.2849C22.0932 48.4693 23.3058 48.5592 24.5379 48.5592C28.9386 48.5592 33.062 47.3751 36.6233 45.3247L44.8581 46.7351C44.8581 46.7351 47.4137 47.0274 46.7856 43.6625C46.5053 42.1487 45.9687 38.8873 45.5595 36.3692ZM36.4614 14.1237L29.4512 10.2822C30.9051 10.4366 31.4731 10.4306 32.5299 10.6149C33.4262 10.7723 36.3265 10.8652 37.025 12.1092C37.7204 13.3428 36.4614 14.1237 36.4614 14.1237Z" fill="#F26522"/>
<path d="M105.256 26.2932L104.366 38.5712L104.335 39.036C104.157 39.9154 103.357 40.5411 102.434 40.4761L98.4274 40.1884C97.4255 40.1161 96.685 39.2544 96.7511 38.2525L97.6238 26.0542C97.803 23.5782 96.1002 21.266 93.6511 20.937C90.9859 20.574 88.6 22.5512 88.4119 25.2072L87.5098 37.7774C87.3526 38.6775 86.5431 39.337 85.6116 39.2691L81.5963 38.9785C80.6692 38.9135 79.9478 38.1463 79.9258 37.224L80.5957 27.7923C80.5928 27.8617 80.584 27.931 80.5752 27.9989L80.6163 27.5533L82.3823 2.7966C82.5189 1.86848 83.3446 1.18678 84.2923 1.25466L88.3046 1.54534C89.2361 1.61174 89.9399 2.36574 89.9751 3.27763L89.1641 14.6216C90.1808 14.1126 91.3239 13.4294 92.4111 13.1476C99.641 11.2485 105.963 16.4306 105.256 26.2932Z" fill="white"/>
<path d="M104.188 38.4035C104.183 38.4685 104.179 38.5275 104.164 38.5895C104.159 38.6057 104.159 38.6204 104.156 38.6352L104.188 38.1719C104.19 38.1881 104.19 38.2029 104.19 38.2191C104.195 38.2796 104.19 38.3445 104.188 38.4035Z" fill="white"/>
<path d="M134.235 25.5291C134.235 25.4563 134.231 25.382 134.229 25.3152L134.259 25.7698L134.264 25.807L135.247 38.9446C135.243 38.9446 135.243 38.9446 135.247 38.9476L135.279 39.4275C135.231 40.2849 134.581 41.0055 133.71 41.1214L133.494 41.1362C133.488 41.1377 133.476 41.1392 133.47 41.1377L129.677 41.42C129.672 41.4185 129.672 41.42 129.672 41.42L129.311 41.4453C128.443 41.4245 127.716 40.8094 127.552 39.9728C127.552 39.9728 127.552 39.9728 127.552 39.9684C127.548 39.9491 127.543 39.9268 127.542 39.9045L127.519 39.6237L127.398 37.9922C126.136 40.2641 124.566 41.4334 123.525 41.8702C116.513 44.8285 110.343 40.582 109.598 30.6448L108.686 18.2575L108.656 17.8444C108.689 16.9455 109.397 16.1848 110.324 16.106L110.376 16.1001L114.182 15.8207C114.183 15.8148 114.183 15.8148 114.191 15.8207L114.682 15.7806H114.686H114.694C115.523 15.8386 116.224 16.4552 116.371 17.2754C116.383 17.3348 116.39 17.3972 116.395 17.4596L117.321 29.7652C117.51 32.2569 119.57 34.3089 122.084 34.2792C124.832 34.2479 126.939 31.9256 126.736 29.2526L126.524 26.385L125.814 16.996C125.814 16.996 125.814 16.996 125.813 16.9945L125.783 16.5919C125.784 16.5844 125.784 16.5785 125.784 16.574C125.816 15.6736 126.53 14.9144 127.455 14.8356L127.503 14.8327L131.321 14.5504L131.804 14.5117H131.812C132.65 14.5608 133.354 15.1803 133.505 16.005C133.518 16.0704 133.521 16.1342 133.529 16.1952C133.53 16.2249 133.53 16.2576 133.53 16.2888L134.21 25.2706L134.235 25.5291Z" fill="white"/>
<path d="M166.96 22.2324C166.17 20.497 165.004 18.9488 163.625 17.6635C162.228 16.3798 160.596 15.3709 158.816 14.726C157.042 14.0752 155.141 13.8033 153.289 13.9088C150.578 14.0426 147.965 14.9979 145.786 16.5224L145.781 16.5031C145.631 15.7394 145.001 15.1406 144.202 15.047H144.199C144.128 15.0395 144.073 15.0351 144.007 15.0351L139.791 15.099C138.878 15.1406 138.143 15.8478 138.056 16.7304C138.056 16.7334 138.056 16.7378 138.052 16.7423C138.044 16.8107 138.037 16.876 138.04 16.9459L138.562 51.3799C138.565 51.4512 138.57 51.5166 138.585 51.5864C138.585 51.5894 138.585 51.5894 138.582 51.5938C138.703 52.4987 139.492 53.1881 140.426 53.1733L144.509 53.1153C145.462 53.1034 146.233 52.3754 146.31 51.4512C146.31 51.4393 146.313 51.4185 146.313 51.4066L146.142 39.8736C146.82 40.3224 147.536 40.7161 148.281 41.0475C149.98 41.8022 151.838 42.2495 153.719 42.3074C155.599 42.3669 157.538 42.0608 159.328 41.358C161.123 40.6537 162.76 39.5691 164.12 38.2051C165.481 36.8455 166.565 35.2067 167.276 33.4148C167.989 31.6169 168.312 29.6809 168.273 27.779C168.212 25.8772 167.778 23.9634 166.96 22.2324ZM159.55 27.9113C159.524 29.5516 158.954 31.1266 157.903 32.3985C156.842 33.6465 155.349 34.5395 153.609 34.7639C152.732 34.8649 151.832 34.7966 150.983 34.5098C150.132 34.2245 149.325 33.7431 148.668 33.0879C148.004 32.4386 147.521 31.6288 147.212 30.7759C146.898 29.9097 146.732 29.0152 146.706 28.1C146.691 27.1847 146.789 26.2724 147.051 25.3824C147.313 24.4968 147.768 23.6455 148.413 22.959C149.058 22.2666 149.865 21.7406 150.716 21.4152C151.582 21.0883 152.494 20.9606 153.397 21.0155C155.196 21.1463 156.836 21.9813 157.943 23.2889C159.072 24.6098 159.568 26.2724 159.55 27.9113Z" fill="white"/>
<path d="M76.223 38.8387C76.208 38.8996 76.1945 38.9724 76.1796 39.0378C76.0778 39.3989 75.8891 39.7109 75.6301 39.956C75.6257 39.959 75.6227 39.9605 75.6227 39.9605C75.452 40.0838 75.2798 40.1953 75.1017 40.3097C75.1017 40.3111 75.1017 40.3111 75.0987 40.3111C72.7333 41.8341 69.8948 42.7137 66.8603 42.684C58.6428 42.5904 52.0541 35.9072 52.1455 27.7515C52.2368 19.6002 58.9706 13.0656 67.1851 13.1532C70.1957 13.1859 72.9893 14.1041 75.3113 15.6583C75.3143 15.6583 75.3143 15.6583 75.3188 15.6628C75.5239 15.801 75.7305 15.9466 75.9326 16.0922C75.937 16.0996 75.937 16.0996 75.94 16.1056C75.982 16.1442 76.0194 16.1858 76.0538 16.2318C76.6272 16.9554 76.6242 17.9688 76.0598 18.6835L75.681 19.049L72.9324 21.7249L72.6075 22.034C72.6031 22.0385 72.5986 22.0414 72.5926 22.0503C71.9967 22.4946 71.2108 22.5659 70.5521 22.2702C70.4383 22.1974 70.3185 22.1261 70.1957 22.0607C70.1957 22.0578 70.1928 22.0578 70.1898 22.0563C69.2661 21.5585 68.2166 21.2733 67.0968 21.2629C63.4005 21.2213 60.3599 24.1736 60.321 27.8406C60.2746 31.5076 63.2553 34.5298 66.9456 34.5669C68.0519 34.5788 69.0999 34.3218 70.0296 33.8523C70.1718 33.7824 70.3185 33.7066 70.4547 33.6205C70.7811 33.4897 71.1464 33.4362 71.5267 33.5001C71.9608 33.5729 72.3396 33.7705 72.6285 34.0751C72.6405 34.0855 72.648 34.0959 72.6599 34.1049L75.428 36.9145C75.428 36.9175 75.431 36.9175 75.4355 36.922L75.8891 37.3856C75.8921 37.387 75.8966 37.3885 75.8966 37.3915C76.1436 37.7496 76.2739 38.176 76.2484 38.6351C76.2395 38.6961 76.2335 38.7659 76.223 38.8387Z" fill="white"/>
<path d="M186.062 39.3464H185.2V41.8782H184.592V39.3464H183.746V38.8828H186.064V39.3464H186.062Z" fill="white"/>
<path d="M187.951 41.0922H187.968L188.745 38.8828H189.532V41.8782H188.925V39.8367L188.913 39.8293L188.17 41.8782H187.757L187.01 39.8248L186.998 39.8263V41.8782H186.395V38.8828H187.189L187.951 41.0922Z" fill="white"/>
<path d="M182.316 9.77002C182.316 9.77002 182.309 9.77002 182.307 9.77002C182.249 9.75367 182.186 9.74179 182.128 9.73584L175.93 9.24255C175.005 9.18015 174.186 9.80865 173.993 10.6912C173.993 10.6957 173.993 10.6987 173.985 10.7001C173.97 10.764 173.955 10.8339 173.948 10.8992L173.199 36.6902C174.048 36.4614 174.952 36.3782 175.873 36.4837C176.788 36.5832 177.646 36.8581 178.417 37.2578L183.746 11.4475V11.4267C183.683 10.6363 183.104 9.96169 182.316 9.77002Z" fill="white"/>
<path d="M175.61 38.9122C172.975 38.6225 170.602 40.5065 170.316 43.1186C170.017 45.7277 171.914 48.0827 174.547 48.374C177.18 48.6637 179.556 46.7871 179.848 44.175C180.139 41.5629 178.245 39.2064 175.61 38.9122Z" fill="#F26522"/>
</svg>
