<svg width="24" height="27" viewBox="0 0 24 27" fill="none" xmlns="http://www.w3.org/2000/svg">
<path d="M22 2.89844H19V1.89844C19 1.63322 18.8946 1.37887 18.7071 1.19133C18.5196 1.00379 18.2652 0.898438 18 0.898438C17.7348 0.898438 17.4804 1.00379 17.2929 1.19133C17.1054 1.37887 17 1.63322 17 1.89844V2.89844H7V1.89844C7 1.63322 6.89464 1.37887 6.70711 1.19133C6.51957 1.00379 6.26522 0.898438 6 0.898438C5.73478 0.898438 5.48043 1.00379 5.29289 1.19133C5.10536 1.37887 5 1.63322 5 1.89844V2.89844H2C1.46957 2.89844 0.960859 3.10915 0.585786 3.48422C0.210714 3.8593 0 4.368 0 4.89844V24.8984C0 25.4289 0.210714 25.9376 0.585786 26.3127C0.960859 26.6877 1.46957 26.8984 2 26.8984H22C22.5304 26.8984 23.0391 26.6877 23.4142 26.3127C23.7893 25.9376 24 25.4289 24 24.8984V4.89844C24 4.368 23.7893 3.8593 23.4142 3.48422C23.0391 3.10915 22.5304 2.89844 22 2.89844ZM5 4.89844V5.89844C5 6.16365 5.10536 6.41801 5.29289 6.60554C5.48043 6.79308 5.73478 6.89844 6 6.89844C6.26522 6.89844 6.51957 6.79308 6.70711 6.60554C6.89464 6.41801 7 6.16365 7 5.89844V4.89844H17V5.89844C17 6.16365 17.1054 6.41801 17.2929 6.60554C17.4804 6.79308 17.7348 6.89844 18 6.89844C18.2652 6.89844 18.5196 6.79308 18.7071 6.60554C18.8946 6.41801 19 6.16365 19 5.89844V4.89844H22V8.89844H2V4.89844H5ZM22 24.8984H2V10.8984H22V24.8984ZM10 13.8984V21.8984C10 22.1637 9.89464 22.418 9.70711 22.6055C9.51957 22.7931 9.26522 22.8984 9 22.8984C8.73478 22.8984 8.48043 22.7931 8.29289 22.6055C8.10536 22.418 8 22.1637 8 21.8984V15.5159L7.4475 15.7934C7.21013 15.9121 6.93534 15.9317 6.68357 15.8477C6.4318 15.7638 6.22368 15.5833 6.105 15.3459C5.98632 15.1086 5.96679 14.8338 6.05071 14.582C6.13463 14.3302 6.31513 14.1221 6.5525 14.0034L8.5525 13.0034C8.70502 12.9271 8.87451 12.8911 9.04489 12.8987C9.21526 12.9064 9.38084 12.9575 9.5259 13.0472C9.67096 13.1369 9.79066 13.2622 9.87364 13.4112C9.95663 13.5602 10.0001 13.7279 10 13.8984ZM17.395 17.7047L15 20.8984H17C17.2652 20.8984 17.5196 21.0038 17.7071 21.1913C17.8946 21.3789 18 21.6332 18 21.8984C18 22.1637 17.8946 22.418 17.7071 22.6055C17.5196 22.7931 17.2652 22.8984 17 22.8984H13C12.8143 22.8984 12.6322 22.8467 12.4743 22.7491C12.3163 22.6515 12.1886 22.5118 12.1056 22.3457C12.0225 22.1795 11.9874 21.9936 12.004 21.8086C12.0207 21.6237 12.0886 21.447 12.2 21.2984L15.7975 16.5022C15.8793 16.3933 15.938 16.2687 15.97 16.1363C16.002 16.0039 16.0066 15.8663 15.9835 15.732C15.9604 15.5977 15.9101 15.4696 15.8357 15.3555C15.7612 15.2413 15.6643 15.1436 15.5508 15.0683C15.4372 14.993 15.3095 14.9416 15.1754 14.9175C15.0413 14.8933 14.9037 14.8968 14.771 14.9277C14.6383 14.9586 14.5134 15.0163 14.4038 15.0972C14.2942 15.1782 14.2023 15.2807 14.1338 15.3984C14.07 15.5158 13.9834 15.6192 13.8791 15.7025C13.7748 15.7859 13.6548 15.8475 13.5263 15.8837C13.3977 15.92 13.2633 15.9301 13.1308 15.9135C12.9983 15.8969 12.8704 15.854 12.7548 15.7872C12.6391 15.7204 12.5381 15.6311 12.4575 15.5246C12.3769 15.4181 12.3185 15.2966 12.2857 15.1671C12.2528 15.0377 12.2462 14.903 12.2663 14.771C12.2864 14.6389 12.3327 14.5123 12.4025 14.3984C12.7328 13.8268 13.2425 13.3801 13.8525 13.1276C14.4625 12.875 15.1388 12.8308 15.7765 13.0017C16.4142 13.1726 16.9778 13.5491 17.3798 14.0728C17.7818 14.5965 17.9998 15.2382 18 15.8984C18.0021 16.5506 17.7895 17.1854 17.395 17.7047Z" fill="black"/>
</svg>
