<svg width="251" height="78" viewBox="0 0 251 78" fill="none" xmlns="http://www.w3.org/2000/svg">
<path d="M61.4711 51.377C64.0864 46.8287 65.5872 41.5578 65.5872 35.9353C65.5872 18.7814 51.6804 4.875 34.5221 4.875C17.3658 4.87308 3.45703 18.7795 3.45703 35.9334C3.45703 44.9167 7.26955 53.0085 13.3765 58.6829C13.536 49.8321 13.8146 39.9322 14.2893 36.2466C15.1847 29.3135 21.6914 26.6445 30.2696 19.3848C32.8042 17.2326 36.7724 16.6831 41.9358 20.3379C47.4163 24.2195 52.8468 26.4677 54.5878 28.2432C56.8688 30.5703 55.8272 32.6763 53.6673 32.6763C51.5228 32.6763 47.3798 29.8305 44.5453 28.4777C35.3081 24.0427 34.5202 23.6968 30.2081 28.5622C25.6288 33.7332 22.9097 38.7273 28.909 41.7692C34.0494 44.3729 39.3051 38.8349 42.5661 34.9457C45.4408 31.5234 49.2111 31.729 50.5197 33.3758C51.8283 35.036 48.9228 36.064 46.8532 38.1739C42.7736 42.3341 44.0015 43.3833 40.8174 48.831C38.2117 53.2909 34.6336 52.9912 31.3245 56.2943C30.062 57.5472 29.793 62.1109 29.8679 66.6535C31.386 66.8899 32.9406 67.0052 34.5202 67.0052C40.1621 67.0052 45.4485 65.4871 50.0143 62.8584L60.5718 64.6666C60.5718 64.6666 63.8481 65.0413 63.043 60.7274C62.6836 58.7866 61.9957 54.6053 61.4711 51.377ZM49.8068 22.8571L40.8193 17.9321C42.6833 18.13 43.4116 18.1223 44.7663 18.3587C45.9155 18.5604 49.6338 18.6796 50.5293 20.2745C51.4209 21.8559 49.8068 22.8571 49.8068 22.8571Z" fill="#F26522"/>
<path d="M138.002 38.4621L136.861 54.2032L136.821 54.7991C136.593 55.9265 135.567 56.7286 134.384 56.6454L129.247 56.2765C127.963 56.1838 127.013 55.0791 127.098 53.7946L128.217 38.1557C128.447 34.9814 126.264 32.017 123.124 31.5952C119.707 31.1298 116.648 33.6647 116.407 37.0698L115.25 53.1854C115.049 54.3394 114.011 55.185 112.817 55.098L107.669 54.7253C106.48 54.6421 105.556 53.6584 105.527 52.476L106.386 40.3841C106.382 40.473 106.371 40.5619 106.36 40.649L106.413 40.0777L108.677 8.33829C108.852 7.1484 109.91 6.27442 111.125 6.36144L116.269 6.73411C117.464 6.81924 118.366 7.78591 118.411 8.955L117.371 23.4986C118.675 22.8459 120.14 21.9701 121.534 21.6087C130.803 19.1741 138.908 25.8178 138.002 38.4621Z" fill="white"/>
<path d="M136.634 53.9884C136.628 54.0716 136.622 54.1473 136.603 54.2268C136.598 54.2476 136.598 54.2665 136.594 54.2854L136.634 53.6914C136.638 53.7122 136.638 53.7311 136.638 53.7519C136.643 53.8295 136.638 53.9127 136.634 53.9884Z" fill="white"/>
<path d="M175.161 37.4803C175.161 37.387 175.155 37.2918 175.153 37.206L175.192 37.7889L175.197 37.8366L176.458 54.6797C176.453 54.6797 176.453 54.6797 176.458 54.6835L176.499 55.2988C176.437 56.398 175.604 57.3218 174.487 57.4704L174.211 57.4895C174.203 57.4914 174.188 57.4933 174.18 57.4914L169.317 57.8533C169.311 57.8514 169.311 57.8533 169.311 57.8533L168.848 57.8857C167.735 57.859 166.802 57.0704 166.593 55.9979C166.593 55.9979 166.593 55.9979 166.593 55.9922C166.587 55.9674 166.581 55.9389 166.58 55.9103L166.551 55.5503L166.395 53.4587C164.777 56.3713 162.764 57.8705 161.43 58.4305C152.44 62.2232 144.53 56.7789 143.574 44.0389L142.406 28.1577L142.367 27.6282C142.409 26.4757 143.317 25.5004 144.505 25.3994L144.573 25.3918L149.451 25.0337C149.453 25.0261 149.453 25.0261 149.463 25.0337L150.093 24.9823H150.098H150.108C151.171 25.0565 152.069 25.8471 152.258 26.8986C152.273 26.9748 152.282 27.0548 152.288 27.1348L153.476 42.9112C153.718 46.1058 156.359 48.7364 159.582 48.6983C163.106 48.6583 165.806 45.681 165.547 42.254L165.274 38.5776L164.365 26.5405C164.365 26.5405 164.365 26.5405 164.363 26.5386L164.324 26.0223C164.326 26.0128 164.326 26.0052 164.326 25.9995C164.367 24.8451 165.282 23.8717 166.468 23.7707L166.53 23.7669L171.424 23.405L172.044 23.3555H172.053C173.128 23.4183 174.03 24.2127 174.224 25.2699C174.242 25.3537 174.245 25.4356 174.255 25.5137C174.257 25.5518 174.257 25.5937 174.257 25.6337L175.128 37.1489L175.161 37.4803Z" fill="white"/>
<path d="M217.114 33.2504C216.1 31.0255 214.605 29.0406 212.837 27.3928C211.047 25.747 208.955 24.4536 206.673 23.6268C204.398 22.7925 201.961 22.4439 199.586 22.5791C196.11 22.7506 192.761 23.9754 189.967 25.9299L189.961 25.9051C189.769 24.926 188.961 24.1583 187.936 24.0383H187.932C187.842 24.0288 187.771 24.023 187.686 24.023L182.282 24.105C181.111 24.1583 180.168 25.065 180.057 26.1965C180.057 26.2004 180.057 26.2061 180.051 26.2118C180.042 26.2994 180.032 26.3832 180.036 26.4728L180.706 70.6189C180.71 70.7104 180.715 70.7942 180.735 70.8837C180.735 70.8875 180.735 70.8875 180.731 70.8933C180.886 72.0533 181.898 72.9372 183.095 72.9182L188.329 72.8439C189.552 72.8286 190.541 71.8952 190.638 70.7104C190.638 70.6951 190.642 70.6685 190.642 70.6532L190.423 55.8674C191.293 56.4426 192.21 56.9474 193.166 57.3722C195.345 58.3399 197.727 58.9133 200.137 58.9876C202.548 59.0638 205.033 58.6714 207.329 57.7704C209.63 56.8674 211.728 55.4769 213.473 53.7281C215.217 51.9852 216.607 49.884 217.519 47.5867C218.432 45.2818 218.847 42.7997 218.797 40.3614C218.718 37.9231 218.162 35.4696 217.114 33.2504ZM207.613 40.531C207.58 42.634 206.849 44.6532 205.502 46.2838C204.141 47.8839 202.227 49.0287 199.997 49.3164C198.872 49.4459 197.719 49.3583 196.631 48.9906C195.538 48.6249 194.504 48.0077 193.661 47.1677C192.811 46.3352 192.191 45.297 191.796 44.2036C191.393 43.0931 191.18 41.9463 191.147 40.7729C191.128 39.5995 191.253 38.4298 191.588 37.2888C191.924 36.1535 192.508 35.062 193.335 34.1819C194.162 33.2942 195.197 32.6199 196.287 32.2027C197.398 31.7836 198.567 31.6198 199.725 31.6903C202.032 31.8579 204.133 32.9285 205.554 34.6048C207.001 36.2983 207.636 38.4299 207.613 40.531Z" fill="white"/>
<path d="M100.784 54.5406C100.765 54.6187 100.747 54.712 100.728 54.7959C100.598 55.2587 100.356 55.6588 100.024 55.9731C100.018 55.9769 100.014 55.9788 100.014 55.9788C99.7954 56.1369 99.5747 56.2798 99.3463 56.4265C99.3463 56.4284 99.3463 56.4284 99.3425 56.4284C96.3099 58.3809 92.6709 59.5086 88.7804 59.4705C78.2452 59.3505 69.7982 50.7822 69.9153 40.3262C70.0323 29.8759 78.6655 21.4981 89.1969 21.6105C93.0566 21.6524 96.6381 22.8296 99.615 24.8222C99.6188 24.8222 99.6188 24.8222 99.6246 24.8279C99.8876 25.005 100.152 25.1917 100.412 25.3784C100.417 25.3879 100.417 25.3879 100.421 25.3955C100.475 25.4451 100.523 25.4984 100.567 25.5575C101.302 26.4851 101.298 27.7843 100.575 28.7006L100.089 29.1692L96.5652 32.5999L96.1487 32.9961C96.1429 33.0018 96.1372 33.0056 96.1295 33.0171C95.3656 33.5866 94.358 33.6781 93.5134 33.299C93.3676 33.2057 93.214 33.1142 93.0567 33.0304C93.0567 33.0266 93.0528 33.0266 93.049 33.0247C91.8647 32.3865 90.5193 32.0208 89.0836 32.0075C84.3448 31.9541 80.4466 35.7392 80.3967 40.4405C80.3372 45.1418 84.1586 49.0164 88.8898 49.064C90.3082 49.0792 91.6517 48.7497 92.8436 48.1477C93.0259 48.0582 93.214 47.9611 93.3887 47.8506C93.8071 47.6829 94.2754 47.6144 94.7629 47.6963C95.3195 47.7896 95.8051 48.043 96.1756 48.4335C96.1909 48.4468 96.2005 48.4601 96.2159 48.4716L99.7647 52.0737C99.7647 52.0776 99.7686 52.0776 99.7743 52.0833L100.356 52.6776C100.36 52.6795 100.365 52.6814 100.365 52.6852C100.682 53.1443 100.849 53.691 100.817 54.2796C100.805 54.3577 100.797 54.4473 100.784 54.5406Z" fill="white"/>
<path d="M241.606 55.192H240.5V58.4379H239.721V55.192H238.637V54.5977H241.608V55.192H241.606Z" fill="white"/>
<path d="M244.031 57.4302H244.052L245.049 54.5977H246.058V58.4379H245.279V55.8206L245.263 55.8111L244.311 58.4379H243.782L242.824 55.8054L242.809 55.8073V58.4379H242.035V54.5977H243.054L244.031 57.4302Z" fill="white"/>
<path d="M236.802 17.2755C236.802 17.2755 236.792 17.2755 236.79 17.2755C236.716 17.2545 236.635 17.2393 236.56 17.2317L228.614 16.5992C227.428 16.5192 226.378 17.325 226.131 18.4565C226.131 18.4622 226.131 18.466 226.121 18.4679C226.102 18.5498 226.083 18.6394 226.073 18.7232L225.113 51.7885C226.202 51.4952 227.361 51.3885 228.541 51.5238C229.714 51.6514 230.814 52.0038 231.802 52.5162L238.635 19.4261V19.3994C238.554 18.386 237.812 17.5212 236.802 17.2755Z" fill="white"/>
<path d="M228.202 54.6354C224.824 54.2639 221.781 56.6793 221.415 60.0281C221.031 63.3732 223.463 66.3924 226.839 66.7658C230.215 67.1372 233.261 64.7314 233.635 61.3825C234.008 58.0337 231.58 55.0125 228.202 54.6354Z" fill="#F26522"/>
</svg>
