<svg width="28" height="27" viewBox="0 0 28 27" fill="none" xmlns="http://www.w3.org/2000/svg">
<path d="M6.84401 12.5664C7.91867 12.5664 8.888 11.9717 9.552 11.1264C10.5858 9.80477 11.8854 8.71464 13.3667 7.92641C14.3307 7.41441 15.1667 6.65174 15.5707 5.63974C15.8544 4.93072 16.0001 4.17407 16 3.41041V2.56641C16 2.30119 16.1054 2.04684 16.2929 1.8593C16.4804 1.67176 16.7348 1.56641 17 1.56641C17.7957 1.56641 18.5587 1.88248 19.1213 2.44509C19.6839 3.0077 20 3.77076 20 4.56641C20 6.10241 19.6533 7.55707 19.036 8.85707C18.6813 9.60107 19.1787 10.5664 20.0027 10.5664M20.0027 10.5664H24.1707C25.5387 10.5664 26.764 11.4917 26.9093 12.8531C26.9698 13.4157 27 13.9869 27 14.5664C27.0055 18.2149 25.7587 21.7547 23.468 24.5944C22.9507 25.2371 22.152 25.5664 21.328 25.5664H15.9733C15.3285 25.5668 14.6879 25.4633 14.076 25.2597L9.92401 23.8731C9.31215 23.6696 8.67149 23.566 8.02667 23.5664H5.872C5.98312 23.8393 6.10312 24.1069 6.232 24.3691C6.49467 24.9024 6.12801 25.5664 5.53467 25.5664H4.32401C3.13867 25.5664 2.04 24.8757 1.69467 23.7424C1.23286 22.2267 0.998753 20.6509 1 19.0664C1 16.9957 1.39334 15.0184 2.10801 13.2024C2.51601 12.1704 3.55601 11.5664 4.66667 11.5664H6.07067C6.70001 11.5664 7.06401 12.3077 6.73734 12.8464C5.59865 14.7211 4.99804 16.873 5.00134 19.0664C5.00016 20.6085 5.29623 22.1364 5.87334 23.5664M20.0027 10.5664H17" stroke="black" stroke-width="2" stroke-linecap="round" stroke-linejoin="round"/>
</svg>
