<svg width="19" height="21" viewBox="0 0 19 21" fill="none" xmlns="http://www.w3.org/2000/svg">
<path d="M17.1743 2.23438H14.9243V1.48438C14.9243 1.28546 14.8453 1.0947 14.7046 0.954045C14.564 0.813393 14.3732 0.734375 14.1743 0.734375C13.9754 0.734375 13.7846 0.813393 13.644 0.954045C13.5033 1.0947 13.4243 1.28546 13.4243 1.48438V2.23438H5.92432V1.48438C5.92432 1.28546 5.8453 1.0947 5.70465 0.954045C5.56399 0.813393 5.37323 0.734375 5.17432 0.734375C4.9754 0.734375 4.78464 0.813393 4.64399 0.954045C4.50333 1.0947 4.42432 1.28546 4.42432 1.48438V2.23438H2.17432C1.77649 2.23438 1.39496 2.39241 1.11366 2.67371C0.832352 2.95502 0.674316 3.33655 0.674316 3.73438V18.7344C0.674316 19.1322 0.832352 19.5137 1.11366 19.795C1.39496 20.0763 1.77649 20.2344 2.17432 20.2344H17.1743C17.5721 20.2344 17.9537 20.0763 18.235 19.795C18.5163 19.5137 18.6743 19.1322 18.6743 18.7344V3.73438C18.6743 3.33655 18.5163 2.95502 18.235 2.67371C17.9537 2.39241 17.5721 2.23438 17.1743 2.23438ZM17.1743 6.73438H2.17432V3.73438H4.42432V4.48438C4.42432 4.68329 4.50333 4.87405 4.64399 5.0147C4.78464 5.15536 4.9754 5.23438 5.17432 5.23438C5.37323 5.23438 5.56399 5.15536 5.70465 5.0147C5.8453 4.87405 5.92432 4.68329 5.92432 4.48438V3.73438H13.4243V4.48438C13.4243 4.68329 13.5033 4.87405 13.644 5.0147C13.7846 5.15536 13.9754 5.23438 14.1743 5.23438C14.3732 5.23438 14.564 5.15536 14.7046 5.0147C14.8453 4.87405 14.9243 4.68329 14.9243 4.48438V3.73438H17.1743V6.73438Z" fill="white"/>
</svg>
