<svg width="28" height="27" viewBox="0 0 28 27" fill="none" xmlns="http://www.w3.org/2000/svg">
<path d="M21.156 14.2305C20.0813 14.2305 19.112 14.8251 18.448 15.6705C17.4142 16.9921 16.1146 18.0822 14.6333 18.8705C13.6693 19.3825 12.8333 20.1451 12.4293 21.1571C12.1456 21.8662 11.9999 22.6228 12 23.3865L12 24.2305C12 24.4957 11.8946 24.75 11.7071 24.9376C11.5196 25.1251 11.2652 25.2305 11 25.2305C10.2043 25.2305 9.44128 24.9144 8.87867 24.3518C8.31607 23.7892 7.99999 23.0261 7.99999 22.2305C7.99999 20.6945 8.34666 19.2398 8.96399 17.9398C9.31866 17.1958 8.82133 16.2305 7.99733 16.2305M7.99733 16.2305L3.82933 16.2305C2.46133 16.2305 1.236 15.3051 1.09066 13.9438C1.03022 13.3811 0.999995 12.81 0.999995 12.2305C0.994483 8.582 2.24126 5.04216 4.532 2.20247C5.04933 1.5598 5.848 1.23047 6.672 1.23047L12.0267 1.23047C12.6715 1.23007 13.3121 1.33362 13.924 1.53713L18.076 2.9238C18.6879 3.12731 19.3285 3.23086 19.9733 3.23047L22.128 3.23047C22.0169 2.95758 21.8969 2.69002 21.768 2.4278C21.5053 1.89447 21.872 1.23047 22.4653 1.23047L23.676 1.23047C24.8613 1.23047 25.96 1.92113 26.3053 3.05447C26.7671 4.57014 27.0012 6.146 27 7.73047C27 9.80113 26.6067 11.7785 25.892 13.5945C25.484 14.6265 24.444 15.2305 23.3333 15.2305L21.9293 15.2305C21.3 15.2305 20.936 14.4891 21.2627 13.9505C22.4013 12.0758 23.002 9.92385 22.9987 7.73047C22.9998 6.18837 22.7038 4.6605 22.1267 3.23047M7.99733 16.2305L11 16.2305" stroke="black" stroke-width="2" stroke-linecap="round" stroke-linejoin="round"/>
</svg>
