<svg width="365" height="71" viewBox="0 0 365 71" fill="none" xmlns="http://www.w3.org/2000/svg">
<g clip-path="url(#clip0_358_103906)">
<path d="M63.7789 32.0346C63.7771 26.6615 62.4169 21.3762 59.8251 16.6718C57.2333 11.9674 53.4943 7.99707 48.9568 5.13101C44.4192 2.26495 39.231 0.596535 33.8758 0.281356C28.5207 -0.0338235 23.1731 1.0145 18.3316 3.32856C13.4902 5.64262 9.31272 9.14705 6.18869 13.515C3.06467 17.883 1.09587 22.9723 0.465906 28.3083C-0.164058 33.6443 0.565328 39.0532 2.58605 44.0305C4.60676 49.0079 7.85299 53.3916 12.022 56.773V31.2244C12.022 26.1456 30.3719 14.3877 32.1354 13.9153C33.8989 13.4429 41.4646 18.5217 43.4711 19.5609C45.4776 20.6002 54.2267 26.034 53.0605 27.5771C51.8943 29.1202 48.816 27.9178 46.4694 26.8642C44.1228 25.8107 32.8328 19.6755 32.0125 20.0419C31.1922 20.4084 24.8669 25.573 22.9605 30.4085C21.054 35.2439 24.9355 39.7673 30.2318 39.1833C35.5281 38.5992 40.9016 30.7005 43.0938 29.3549C46.2207 27.4711 48.3416 31.359 48.3416 31.359C39.2238 35.8365 40.1127 46.5324 35.0622 48.6681C30.0117 50.8038 27.1906 54.0876 27.1906 56.0801V63.4951C34.1611 64.5642 41.2884 63.2768 47.4469 59.8363L61.7952 63.2717L59.1885 48.4934C62.1934 43.5312 63.7812 37.8383 63.7789 32.0346ZM47.7728 18.7507C47.5645 18.9937 47.2731 19.1499 46.9558 19.1886C46.6384 19.2272 46.3181 19.1456 46.0578 18.9597L38.6979 14.8114C40.4471 14.6167 45.5576 13.9525 47.7099 15.7161C49.0104 16.7868 48.4273 17.972 47.7642 18.7507H47.7728Z" fill="#F2662B"/>
<path d="M215.444 18.5495L209.402 49.1397L203.525 48.4984L204.183 17.3242L215.444 18.5495Z" fill="#145A35"/>
<path d="M205.264 63.2142C208.249 63.2142 210.669 60.7904 210.669 57.8005C210.669 54.8105 208.249 52.3867 205.264 52.3867C202.279 52.3867 199.859 54.8105 199.859 57.8005C199.859 60.7904 202.279 63.2142 205.264 63.2142Z" fill="#F2662B"/>
<path d="M83.7462 57.799C79.2511 57.799 75.4983 56.3323 72.4876 53.3987C69.4769 50.4652 67.9707 46.8227 67.9688 42.471C67.9688 38.1194 69.475 34.4769 72.4876 31.5433C75.5002 28.6098 79.253 27.144 83.7462 27.1459C86.5076 27.1098 89.2327 27.7798 91.6635 29.0927C93.9726 30.3361 95.9048 32.1795 97.257 34.4291L89.9857 38.8581C89.379 37.7653 88.4906 36.8557 87.4133 36.2242C86.3034 35.5675 85.0352 35.2279 83.7462 35.2422C82.7919 35.2123 81.8417 35.3814 80.9561 35.7387C80.0704 36.096 79.2686 36.6337 78.6014 37.3178C77.2893 38.7118 76.5586 40.5552 76.5586 42.471C76.5586 44.3869 77.2893 46.2303 78.6014 47.6243C79.2685 48.3085 80.0703 48.8463 80.956 49.2037C81.8417 49.561 82.7918 49.73 83.7462 49.6999C85.0339 49.7146 86.3012 49.376 87.4104 48.7208C88.4878 48.0892 89.3762 47.1796 89.9828 46.0869L97.2542 50.4872C95.9089 52.7497 93.9756 54.604 91.6606 55.8523C89.2306 57.1646 86.5067 57.8347 83.7462 57.799Z" fill="#145A35"/>
<path d="M117.83 27.5257C121.185 27.6746 123.843 28.8064 125.802 30.9211C127.76 33.0358 128.667 35.7728 128.523 39.1319L127.762 57.0623L119.413 56.6872L120.045 41.5911C120.121 39.82 119.671 38.379 118.693 37.2682C117.716 36.1573 116.382 35.5666 114.692 35.496C112.881 35.4159 111.395 35.893 110.233 36.9275C109.07 37.9619 108.448 39.3791 108.366 41.1789L107.672 57.0508L99.3086 56.6872L101.112 15.3984L109.47 15.7735L108.806 30.9211C111.265 28.5029 114.272 27.3711 117.83 27.5257Z" fill="#145A35"/>
<path d="M183.044 30.0156C187.074 30.0156 190.432 31.4767 193.117 34.3987C195.802 37.3208 197.144 40.9681 197.144 45.3407C197.144 49.7114 195.802 53.3588 193.117 56.2828C190.432 59.2067 187.074 60.6687 183.044 60.6687C179.521 60.6687 176.585 59.4634 174.235 57.0529V70.6689H165.869V30.7142H174.235V33.6286C176.585 31.218 179.521 30.0137 183.044 30.0156ZM176.276 50.4968C177.649 51.8266 179.485 52.5699 181.395 52.5699C183.305 52.5699 185.141 51.8266 186.514 50.4968C187.824 49.1016 188.553 47.2586 188.553 45.3436C188.553 43.4286 187.824 41.5857 186.514 40.1904C185.141 38.8607 183.305 38.1174 181.395 38.1174C179.485 38.1174 177.649 38.8607 176.276 40.1904C174.966 41.5857 174.237 43.4286 174.237 45.3436C174.237 47.2586 174.966 49.1016 176.276 50.4968Z" fill="#145A35"/>
<path d="M150.974 27.5685L151.726 43.9443C151.802 45.5838 151.369 46.9265 150.428 47.9724C149.487 49.0184 148.196 49.5776 146.555 49.6501C144.916 49.7284 143.576 49.2903 142.533 48.336C141.491 47.3817 140.932 46.0839 140.856 44.4425L140.104 28.0581L131.764 28.4532L132.567 45.9741C132.738 49.7074 134.139 52.6495 136.768 54.8005C139.395 56.9505 142.085 57.9296 146.241 57.7407C148.281 57.6462 151.331 56.252 152.423 55.1898L152.614 57.4801L160.718 57.0994L160.146 44.7001L159.98 41.09L159.331 27.1992L150.974 27.5685Z" fill="#145A35"/>
<path d="M244.412 27.7516C242.063 26.484 239.437 25.8203 236.77 25.8203C234.102 25.8203 231.476 26.484 229.127 27.7516C226.883 28.9959 225.023 30.8339 223.75 33.065C222.623 35.0919 221.966 37.3468 221.827 39.6627C221.688 41.9785 222.07 44.2961 222.947 46.4437C223.663 48.2114 224.73 49.8146 226.085 51.1555C227.439 52.4965 229.052 53.5471 230.825 54.2434C234.637 55.7669 238.887 55.7669 242.698 54.2434C244.477 53.5338 246.098 52.4802 247.47 51.1428C248.817 49.8014 249.884 48.2037 250.606 46.4437C251.378 44.591 251.77 42.6015 251.757 40.5939C251.789 37.954 251.113 35.354 249.8 33.065C248.522 30.8341 246.659 28.9964 244.412 27.7516ZM244.385 47.1759V43.8956C244.378 43.0718 244.046 42.2843 243.461 41.7053C242.876 41.1263 242.085 40.8029 241.263 40.8058H240.419C239.602 40.81 238.82 41.1368 238.242 41.7153C237.664 42.2937 237.337 43.0772 237.332 43.8956V50.601C237.139 50.601 236.949 50.6279 236.754 50.6279C236.558 50.6279 236.29 50.6118 236.063 50.5984V43.8929C236.063 42.7155 236.488 41.3449 237.608 40.8031H236.261C235.444 40.808 234.662 41.1351 234.085 41.7135C233.507 42.2919 233.181 43.075 233.176 43.8929V49.9949C232.81 49.8602 232.452 49.7035 232.105 49.5255V43.8929C232.105 42.7155 232.531 41.3449 233.65 40.8031H232.271C231.454 40.808 230.672 41.1351 230.095 41.7135C229.518 42.2919 229.191 43.075 229.186 43.8929V47.1813C227.633 45.3708 226.848 43.1741 226.848 40.5912C226.848 37.7302 227.794 35.3484 229.684 33.4459C231.575 31.5433 233.932 30.5903 236.756 30.5867C239.593 30.5867 241.963 31.5398 243.866 33.4459C245.769 35.352 246.72 37.7338 246.72 40.5912C246.72 43.1741 245.936 45.3654 244.385 47.1759Z" fill="#F2662B"/>
<path d="M279.461 54.8822V41.6028C279.461 39.0994 278.698 37.086 277.172 35.5626C275.646 34.0391 273.632 33.2773 271.131 33.2773C268.128 33.2773 265.761 34.3556 264.029 36.512V33.7843H259.389V54.8822H264.029V43.2014C264.029 41.5563 264.54 40.2358 265.561 39.2398C266.582 38.2438 267.927 37.7467 269.596 37.7485C271.183 37.7485 272.455 38.2411 273.41 39.2264C274.365 40.2116 274.842 41.5107 274.842 43.1236V54.8876L279.461 54.8822Z" fill="#F2662B"/>
<path d="M292.535 25.0703H287.895V54.8773H292.535V25.0703Z" fill="#F2662B"/>
<path d="M305.947 33.7812H301.307V54.8792H305.947V33.7812Z" fill="#F2662B"/>
<path d="M303.625 24.3371C303.237 24.3271 302.852 24.3954 302.491 24.5377C302.13 24.6801 301.802 24.8938 301.526 25.1659C300.983 25.7268 300.68 26.4771 300.68 27.258C300.68 28.0389 300.983 28.7892 301.526 29.3501C301.799 29.6274 302.127 29.8457 302.488 29.9914C302.849 30.1372 303.236 30.2074 303.625 30.1977C304.016 30.2087 304.405 30.1402 304.77 29.9964C305.134 29.8526 305.465 29.6364 305.743 29.3608C306.287 28.7988 306.592 28.0465 306.592 27.2634C306.592 26.4803 306.287 25.7279 305.743 25.1659C305.463 24.8926 305.132 24.6784 304.768 24.536C304.404 24.3936 304.015 24.326 303.625 24.3371Z" fill="#F2662B"/>
<path d="M326.463 33.2773C323.462 33.2773 321.095 34.3556 319.361 36.512V33.7843H314.721V54.8822H319.361V43.2014C319.361 41.5563 319.872 40.2358 320.893 39.2398C321.914 38.2438 323.259 37.7449 324.928 37.7432C326.514 37.7432 327.785 38.2358 328.742 39.221C329.698 40.2063 330.176 41.5053 330.174 43.1182V54.8822H334.804V41.6028C334.804 39.0994 334.041 37.086 332.515 35.5626C330.988 34.0391 328.971 33.2773 326.463 33.2773Z" fill="#F2662B"/>
<path d="M353.068 33.2781C351.09 33.2551 349.14 33.7497 347.41 34.7131C345.737 35.6384 344.348 37.0046 343.394 38.6639C342.42 40.3627 341.919 42.2921 341.942 44.2509C341.942 47.4194 343.048 50.0667 345.26 52.1928C347.472 54.3188 350.246 55.3837 353.583 55.3872C355.459 55.4028 357.315 55.0025 359.018 54.2151C360.645 53.4837 362.074 52.3748 363.188 50.9804L360.063 48.2983C359.355 49.1933 358.446 49.9075 357.409 50.3823C356.261 50.9353 355.001 51.2179 353.727 51.2084C352.155 51.2517 350.613 50.7726 349.341 49.8459C348.135 48.9544 347.286 47.6608 346.947 46.1981H364.018C364.099 45.5954 364.139 44.9878 364.138 44.3796C364.138 41.1986 363.085 38.5539 360.979 36.4458C358.872 34.3376 356.235 33.2817 353.068 33.2781ZM346.893 42.3975C347.224 40.9923 348.008 39.7355 349.124 38.8222C350.226 37.9268 351.609 37.4517 353.028 37.4811C354.459 37.4518 355.855 37.9264 356.973 38.8222C358.096 39.7257 358.875 40.9876 359.182 42.3975H346.893Z" fill="#F2662B"/>
<path d="M236.564 35.8203C236.246 35.8203 235.935 35.9147 235.671 36.0915C235.407 36.2684 235.201 36.5197 235.079 36.8138C234.958 37.1078 234.926 37.4314 234.988 37.7436C235.05 38.0557 235.203 38.3425 235.428 38.5676C235.652 38.7926 235.939 38.9459 236.25 39.008C236.562 39.0701 236.885 39.0382 237.179 38.9164C237.472 38.7946 237.723 38.5883 237.9 38.3237C238.076 38.059 238.17 37.7479 238.17 37.4296C238.17 37.0028 238.001 36.5935 237.7 36.2917C237.398 35.9899 236.99 35.8203 236.564 35.8203Z" fill="#F2662B"/>
<path d="M240.859 35.8203C240.541 35.8203 240.23 35.9147 239.966 36.0915C239.702 36.2684 239.496 36.5197 239.374 36.8138C239.253 37.1078 239.221 37.4314 239.283 37.7436C239.345 38.0557 239.498 38.3425 239.723 38.5676C239.947 38.7926 240.234 38.9459 240.545 39.008C240.857 39.0701 241.18 39.0382 241.473 38.9164C241.767 38.7946 242.018 38.5883 242.195 38.3237C242.371 38.059 242.465 37.7479 242.465 37.4296C242.465 37.0028 242.296 36.5935 241.995 36.2917C241.693 35.9899 241.285 35.8203 240.859 35.8203Z" fill="#F2662B"/>
<path d="M290.108 67.3238C287.753 67.2851 285.461 66.5579 283.514 65.2317C281.567 63.9055 280.049 62.0382 279.147 59.8594H275.42C276.411 62.9936 278.359 65.7372 280.99 67.703C283.621 69.6688 286.802 70.7577 290.084 70.816H290.215C293.521 70.7921 296.734 69.7185 299.393 67.7498C302.051 65.781 304.018 63.0184 305.01 59.8594H301.282C300.386 62.0857 298.84 63.9893 296.846 65.3212C294.853 66.653 292.504 67.351 290.108 67.3238Z" fill="#F2662B"/>
</g>
<defs>
<clipPath id="clip0_358_103906">
<rect width="364.139" height="71" fill="white"/>
</clipPath>
</defs>
</svg>
