<svg width="280" height="54" viewBox="0 0 280 54" fill="none" xmlns="http://www.w3.org/2000/svg">
<path d="M200.329 31.2969C199.383 31.2969 198.508 31.1352 197.706 30.8117C196.915 30.4882 196.226 30.039 195.639 29.4639C195.064 28.8769 194.615 28.188 194.291 27.3973C193.968 26.5946 193.806 25.726 193.806 24.7916C193.806 23.8451 193.968 22.9765 194.291 22.1858C194.615 21.3831 195.064 20.6883 195.639 20.1012C196.226 19.5142 196.915 19.0589 197.706 18.7355C198.508 18.412 199.383 18.2503 200.329 18.2503C201.264 18.2503 202.126 18.412 202.917 18.7355C203.708 19.0589 204.391 19.5142 204.966 20.1012C205.553 20.6883 206.008 21.3831 206.331 22.1858C206.655 22.9765 206.817 23.8451 206.817 24.7916C206.817 25.726 206.655 26.5886 206.331 27.3793C206.008 28.17 205.553 28.8589 204.966 29.4459C204.391 30.033 203.708 30.4882 202.917 30.8117C202.126 31.1352 201.264 31.2969 200.329 31.2969ZM200.329 28.4036C200.82 28.4036 201.27 28.3138 201.677 28.1341C202.084 27.9544 202.438 27.7028 202.737 27.3793C203.049 27.0558 203.288 26.6725 203.456 26.2292C203.624 25.7859 203.708 25.3067 203.708 24.7916C203.708 24.2644 203.624 23.7792 203.456 23.3359C203.288 22.8927 203.049 22.5093 202.737 22.1858C202.438 21.8504 202.084 21.5928 201.677 21.4131C201.27 21.2334 200.82 21.1435 200.329 21.1435C199.838 21.1435 199.383 21.2334 198.963 21.4131C198.556 21.5928 198.197 21.8504 197.885 22.1858C197.586 22.5093 197.352 22.8927 197.184 23.3359C197.017 23.7792 196.933 24.2644 196.933 24.7916C196.933 25.4864 197.077 26.1094 197.364 26.6605C197.664 27.1996 198.065 27.6249 198.568 27.9364C199.083 28.2479 199.67 28.4036 200.329 28.4036ZM208.139 31.1172V21.5748H210.888L210.996 23.5156L210.403 23.7313C210.535 23.3 210.768 22.9106 211.104 22.5632C211.451 22.2038 211.865 21.9163 212.344 21.7006C212.823 21.485 213.326 21.3771 213.853 21.3771C214.572 21.3771 215.177 21.5269 215.668 21.8264C216.16 22.1139 216.525 22.5512 216.765 23.1383C217.016 23.7133 217.142 24.4261 217.142 25.2768V31.1172H214.249V25.4924C214.249 25.109 214.195 24.7916 214.087 24.54C213.979 24.2884 213.817 24.1027 213.602 23.9829C213.386 23.8631 213.117 23.8092 212.793 23.8211C212.542 23.8211 212.308 23.8631 212.092 23.9469C211.877 24.0188 211.685 24.1326 211.517 24.2884C211.361 24.4321 211.242 24.5999 211.158 24.7916C211.074 24.9832 211.032 25.1989 211.032 25.4385V31.1172H209.576C209.265 31.1172 208.983 31.1172 208.732 31.1172C208.492 31.1172 208.294 31.1172 208.139 31.1172ZM218.845 31.1172V17.819H221.738V31.1172H218.845ZM223.745 31.1172V21.5748H226.639V31.1172H223.745ZM225.201 19.6879C224.65 19.6879 224.219 19.5621 223.907 19.3105C223.608 19.047 223.458 18.6756 223.458 18.1964C223.458 17.7531 223.614 17.3937 223.925 17.1181C224.237 16.8426 224.662 16.7048 225.201 16.7048C225.728 16.7048 226.141 16.8366 226.441 17.1002C226.752 17.3517 226.908 17.7171 226.908 18.1964C226.908 18.6396 226.752 18.999 226.441 19.2746C226.141 19.5501 225.728 19.6879 225.201 19.6879ZM228.638 31.1172V21.5748H231.388L231.496 23.5156L230.903 23.7313C231.035 23.3 231.268 22.9106 231.604 22.5632C231.951 22.2038 232.364 21.9163 232.844 21.7006C233.323 21.485 233.826 21.3771 234.353 21.3771C235.072 21.3771 235.677 21.5269 236.168 21.8264C236.659 22.1139 237.025 22.5512 237.264 23.1383C237.516 23.7133 237.642 24.4261 237.642 25.2768V31.1172H234.748V25.4924C234.748 25.109 234.695 24.7916 234.587 24.54C234.479 24.2884 234.317 24.1027 234.102 23.9829C233.886 23.8631 233.616 23.8092 233.293 23.8211C233.041 23.8211 232.808 23.8631 232.592 23.9469C232.376 24.0188 232.185 24.1326 232.017 24.2884C231.861 24.4321 231.741 24.5999 231.658 24.7916C231.574 24.9832 231.532 25.1989 231.532 25.4385V31.1172H230.076C229.765 31.1172 229.483 31.1172 229.232 31.1172C228.992 31.1172 228.794 31.1172 228.638 31.1172ZM243.891 31.2969C242.837 31.2969 241.914 31.0872 241.123 30.6679C240.345 30.2486 239.74 29.6736 239.308 28.9427C238.889 28.2 238.679 27.3554 238.679 26.4089C238.679 25.6661 238.799 24.9892 239.039 24.3782C239.278 23.7552 239.614 23.2221 240.045 22.7788C240.488 22.3356 241.004 21.9941 241.591 21.7545C242.19 21.5029 242.843 21.3771 243.549 21.3771C244.22 21.3771 244.831 21.4969 245.382 21.7366C245.934 21.9762 246.413 22.3116 246.82 22.7429C247.227 23.1742 247.539 23.6834 247.755 24.2704C247.97 24.8574 248.072 25.4984 248.06 26.1933L248.042 26.984H240.458L240.027 25.3486H245.688L245.382 25.6721V25.3127C245.358 25.0132 245.263 24.7556 245.095 24.54C244.939 24.3123 244.729 24.1326 244.466 24.0008C244.214 23.8691 243.927 23.8032 243.603 23.8032C243.124 23.8032 242.717 23.899 242.381 24.0907C242.058 24.2704 241.812 24.534 241.645 24.8814C241.477 25.2288 241.393 25.6601 241.393 26.1753C241.393 26.6904 241.501 27.1457 241.716 27.541C241.944 27.9364 242.268 28.2419 242.687 28.4575C243.118 28.6732 243.627 28.781 244.214 28.781C244.61 28.781 244.969 28.7211 245.293 28.6013C245.616 28.4815 245.963 28.2778 246.335 27.9903L247.683 29.8952C247.311 30.2067 246.916 30.4702 246.497 30.6859C246.077 30.8896 245.646 31.0393 245.203 31.1352C244.771 31.243 244.334 31.2969 243.891 31.2969Z" fill="#F26522"/>
<path d="M44.9277 36.543C46.9531 33.0016 48.1153 28.8976 48.1153 24.5199C48.1153 11.1636 37.3455 0.335938 24.0577 0.335938C10.7713 0.334441 0 11.1621 0 24.5184C0 31.5129 2.95252 37.8132 7.68191 42.2314C7.80542 35.3401 8.02121 27.6319 8.38879 24.7622C9.08227 19.3641 14.1212 17.2859 20.7644 11.6334C22.7273 9.95774 25.8003 9.52984 29.799 12.3755C34.0433 15.3978 38.2488 17.1483 39.5971 18.5307C41.3635 20.3426 40.557 21.9824 38.8843 21.9824C37.2235 21.9824 34.015 19.7666 31.8199 18.7133C24.6663 15.2601 24.0562 14.9908 20.7167 18.7791C17.1704 22.8053 15.0647 26.6938 19.7107 29.0622C23.6916 31.0895 27.7617 26.7776 30.2871 23.7493C32.5134 21.0847 35.4332 21.2448 36.4466 22.527C37.4601 23.8197 35.21 24.6201 33.6072 26.2629C30.4479 29.5021 31.3988 30.319 28.9329 34.5606C26.9149 38.0332 24.144 37.7998 21.5814 40.3717C20.6036 41.3472 20.3953 44.9005 20.4533 48.4375C21.629 48.6215 22.8329 48.7113 24.0562 48.7113C28.4254 48.7113 32.5194 47.5293 36.0553 45.4826L44.2312 46.8904C44.2312 46.8904 46.7686 47.1822 46.145 43.8233C45.8667 42.3122 45.334 39.0565 44.9277 36.543ZM35.8945 14.337L28.9344 10.5023C30.3779 10.6564 30.9419 10.6505 31.9911 10.8345C32.881 10.9916 35.7606 11.0843 36.4541 12.3262C37.1446 13.5575 35.8945 14.337 35.8945 14.337Z" fill="#F26522"/>
<path d="M104.709 27.0337L103.807 39.4832L103.776 39.9545C103.596 40.8462 102.785 41.4806 101.85 41.4148L97.7922 41.123C96.7773 41.0497 96.0273 40.176 96.0942 39.1601L96.9782 26.7913C97.1597 24.2808 95.435 21.9363 92.9542 21.6026C90.2547 21.2346 87.8379 23.2394 87.6474 25.9325L86.7337 38.6783C86.5744 39.591 85.7545 40.2597 84.811 40.1909L80.7438 39.8962C79.8048 39.8303 79.0741 39.0523 79.0518 38.1172L79.7304 28.5538C79.7274 28.6241 79.7185 28.6944 79.7095 28.7632L79.7512 28.3114L81.54 3.20883C81.6784 2.26775 82.5147 1.57652 83.4746 1.64535L87.5388 1.94009C88.4823 2.00742 89.1951 2.77196 89.2308 3.69658L88.4093 15.1991C89.4392 14.6829 90.5969 13.9902 91.6982 13.7044C99.0214 11.7788 105.425 17.0334 104.709 27.0337Z" fill="#115934"/>
<path d="M103.812 39.7193C103.807 39.7851 103.803 39.8449 103.788 39.9078C103.783 39.9242 103.783 39.9392 103.78 39.9542L103.812 39.4844C103.815 39.5008 103.815 39.5158 103.815 39.5323C103.819 39.5936 103.815 39.6594 103.812 39.7193Z" fill="#115934"/>
<path d="M133.122 25.969C133.122 25.8957 133.118 25.8209 133.116 25.7536L133.146 26.2114L133.15 26.2488L134.128 39.4779C134.124 39.4779 134.124 39.4778 134.128 39.4808L134.159 39.9641C134.112 40.8274 133.466 41.553 132.6 41.6697L132.385 41.6847C132.38 41.6862 132.368 41.6877 132.362 41.6862L128.591 41.9705C128.586 41.969 128.586 41.9705 128.586 41.9705L128.228 41.9959C127.364 41.9749 126.641 41.3555 126.479 40.5132C126.479 40.5132 126.479 40.5132 126.479 40.5087C126.474 40.4893 126.47 40.4668 126.469 40.4444L126.446 40.1616L126.326 38.5188C125.071 40.8064 123.51 41.9839 122.476 42.4238C115.505 45.4026 109.372 41.1266 108.631 31.1203L107.725 18.6468L107.695 18.2309C107.728 17.3257 108.432 16.5597 109.353 16.4804L109.405 16.4744L113.188 16.1931C113.19 16.1871 113.19 16.1871 113.197 16.1931L113.685 16.1527H113.69H113.697C114.522 16.2111 115.218 16.832 115.364 17.6579C115.376 17.7177 115.383 17.7805 115.388 17.8434L116.309 30.2346C116.496 32.7436 118.544 34.8098 121.043 34.7799C123.775 34.7485 125.869 32.41 125.668 29.7184L125.457 26.8308L124.751 17.3766C124.751 17.3766 124.751 17.3766 124.75 17.3751L124.72 16.9696C124.721 16.9621 124.721 16.9562 124.721 16.9517C124.753 16.045 125.463 15.2805 126.382 15.2012L126.43 15.1982L130.225 14.9139L130.705 14.875H130.713C131.546 14.9244 132.246 15.5483 132.396 16.3786C132.409 16.4445 132.412 16.5088 132.42 16.5701C132.421 16.6001 132.421 16.633 132.421 16.6644L133.097 25.7087L133.122 25.969Z" fill="#115934"/>
<path d="M165.674 22.5834C164.888 20.8359 163.729 19.2769 162.358 17.9828C160.97 16.6901 159.348 15.6742 157.578 15.0248C155.815 14.3695 153.925 14.0957 152.084 14.202C149.389 14.3366 146.792 15.2986 144.625 16.8337L144.621 16.8142C144.472 16.0452 143.845 15.4423 143.051 15.348H143.048C142.978 15.3405 142.923 15.336 142.857 15.336L138.667 15.4004C137.759 15.4423 137.028 16.1544 136.942 17.0432C136.942 17.0462 136.942 17.0506 136.937 17.0551C136.93 17.124 136.923 17.1898 136.925 17.2601L137.445 51.9336C137.448 52.0054 137.452 52.0713 137.467 52.1416C137.467 52.1446 137.467 52.1446 137.464 52.1491C137.585 53.0602 138.369 53.7544 139.298 53.7395L143.356 53.6811C144.304 53.6692 145.07 52.936 145.146 52.0054C145.146 51.9935 145.149 51.9725 145.149 51.9605L144.979 40.3473C145.654 40.7992 146.365 41.1957 147.106 41.5293C148.795 42.2894 150.642 42.7397 152.511 42.7981C154.38 42.8579 156.307 42.5497 158.087 41.842C159.871 41.1328 161.498 40.0406 162.851 38.6672C164.204 37.2982 165.281 35.6479 165.988 33.8435C166.696 32.0332 167.018 30.0837 166.979 28.1686C166.918 26.2535 166.486 24.3265 165.674 22.5834ZM158.307 28.3018C158.282 29.9535 157.715 31.5395 156.67 32.8202C155.615 34.0769 154.132 34.9761 152.402 35.2021C151.53 35.3038 150.636 35.235 149.792 34.9462C148.945 34.6589 148.143 34.1742 147.49 33.5144C146.831 32.8606 146.35 32.0452 146.043 31.1864C145.731 30.3141 145.566 29.4134 145.54 28.4918C145.526 27.5701 145.622 26.6515 145.883 25.7553C146.143 24.8636 146.596 24.0063 147.237 23.3151C147.878 22.6179 148.68 22.0882 149.526 21.7606C150.387 21.4314 151.294 21.3027 152.191 21.3581C153.98 21.4897 155.609 22.3306 156.711 23.6472C157.833 24.9773 158.325 26.6515 158.307 28.3018Z" fill="#115934"/>
<path d="M75.4654 39.365C75.4505 39.4263 75.4371 39.4997 75.4222 39.5655C75.321 39.929 75.1335 40.2432 74.876 40.4901C74.8716 40.4931 74.8686 40.4946 74.8686 40.4946C74.699 40.6188 74.5278 40.731 74.3507 40.8462C74.3507 40.8477 74.3507 40.8477 74.3477 40.8477C71.9964 42.3813 69.1749 43.267 66.1584 43.2371C57.9898 43.1428 51.4404 36.4131 51.5312 28.2007C51.622 19.9927 58.3157 13.4126 66.4813 13.5009C69.474 13.5338 72.2509 14.4584 74.5591 16.0234C74.562 16.0234 74.562 16.0234 74.5665 16.0279C74.7704 16.167 74.9758 16.3137 75.1767 16.4603C75.1811 16.4678 75.1811 16.4678 75.1841 16.4737C75.2258 16.5126 75.263 16.5545 75.2972 16.6009C75.8672 17.3296 75.8642 18.3499 75.3031 19.0696L74.9266 19.4376L72.1944 22.1322L71.8714 22.4434C71.867 22.4479 71.8625 22.4509 71.8566 22.4599C71.2643 22.9072 70.483 22.9791 69.8282 22.6813C69.7151 22.608 69.596 22.5362 69.474 22.4704C69.474 22.4674 69.471 22.4674 69.4681 22.4659C68.5499 21.9647 67.5067 21.6774 66.3935 21.6669C62.7192 21.625 59.6968 24.5979 59.6581 28.2904C59.6119 31.9829 62.5749 35.0261 66.2432 35.0635C67.343 35.0755 68.3847 34.8167 69.3088 34.3439C69.4502 34.2736 69.596 34.1973 69.7315 34.1105C70.0559 33.9788 70.419 33.925 70.797 33.9893C71.2286 34.0626 71.6051 34.2616 71.8923 34.5683C71.9042 34.5788 71.9116 34.5893 71.9235 34.5982L74.6751 37.4275C74.6751 37.4305 74.6781 37.4305 74.6826 37.4349L75.1335 37.9018C75.1365 37.9032 75.1409 37.9047 75.1409 37.9077C75.3865 38.2683 75.516 38.6977 75.4907 39.16C75.4817 39.2214 75.4758 39.2917 75.4654 39.365Z" fill="#115934"/>
<path d="M184.638 39.8262H183.781V42.3756H183.177V39.8262H182.336V39.3594H184.64V39.8262H184.638Z" fill="#115934"/>
<path d="M186.52 41.5842H186.537L187.309 39.3594H188.092V42.3756H187.488V40.3199L187.476 40.3124L186.738 42.3756H186.327L185.584 40.3079L185.572 40.3094V42.3756H184.973V39.3594H185.763L186.52 41.5842Z" fill="#115934"/>
<path d="M180.934 10.0667C180.934 10.0667 180.927 10.0667 180.925 10.0667C180.867 10.0502 180.805 10.0383 180.747 10.0323L174.586 9.53555C173.666 9.47271 172.852 10.1056 172.66 10.9943C172.66 10.9988 172.66 11.0018 172.652 11.0033C172.637 11.0676 172.623 11.1379 172.615 11.2038L171.871 37.1741C172.715 36.9437 173.614 36.8599 174.529 36.9661C175.438 37.0664 176.291 37.3432 177.057 37.7456L182.355 11.7559V11.7349C182.293 10.9389 181.717 10.2597 180.934 10.0667Z" fill="#115934"/>
<path d="M174.247 39.389C171.628 39.0972 169.269 40.9944 168.985 43.6246C168.687 46.2519 170.573 48.6233 173.191 48.9165C175.808 49.2083 178.17 47.3186 178.46 44.6884C178.749 42.0581 176.866 39.6852 174.247 39.389Z" fill="#F26522"/>
</svg>
