<svg fill="none" xmlns="http://www.w3.org/2000/svg">
<mask id="path-1-outside-1_1_4" maskUnits="userSpaceOnUse" x="-4" y="-4" width="80" height="78" fill="black">
<rect fill="white" x="-4" y="-4" width="80" height="78"/>
<path d="M26.6375 70C25.9708 70 25.3708 69.7667 24.8375 69.3C24.3708 68.8333 24.1375 68.2333 24.1375 67.5V19.9L10.4375 30.4C9.8375 30.8667 9.20417 31.0333 8.5375 30.9C7.9375 30.7667 7.40417 30.4 6.9375 29.8L1.0375 22.1C0.6375 21.5 0.470833 20.8667 0.5375 20.2C0.670833 19.4667 1.07083 18.9 1.7375 18.5L24.7375 0.699998C25.1375 0.433331 25.5042 0.266664 25.8375 0.199999C26.2375 0.066663 26.6708 -4.76837e-06 27.1375 -4.76837e-06H39.6375C40.3042 -4.76837e-06 40.8708 0.23333 41.3375 0.699998C41.8708 1.16666 42.1375 1.76666 42.1375 2.5V67.5C42.1375 68.2333 41.8708 68.8333 41.3375 69.3C40.8708 69.7667 40.3042 70 39.6375 70H26.6375ZM56.5445 70C55.8112 70 55.2112 69.7667 54.7445 69.3C54.2779 68.8333 54.0445 68.2333 54.0445 67.5V54.8C54.0445 54.1333 54.2779 53.5667 54.7445 53.1C55.2112 52.5667 55.8112 52.3 56.5445 52.3H69.1445C69.8779 52.3 70.4779 52.5667 70.9445 53.1C71.4779 53.5667 71.7445 54.1333 71.7445 54.8V67.5C71.7445 68.2333 71.4779 68.8333 70.9445 69.3C70.4779 69.7667 69.8779 70 69.1445 70H56.5445Z"/>
</mask>
<path d="M24.8375 69.3L22.0091 72.1284L22.1033 72.2226L22.2035 72.3103L24.8375 69.3ZM24.1375 19.9H28.1375V11.7946L21.7043 16.7252L24.1375 19.9ZM10.4375 30.4L8.00426 27.2252L7.99297 27.2339L7.98174 27.2426L10.4375 30.4ZM8.5375 30.9L7.66979 34.8047L7.71132 34.814L7.75303 34.8223L8.5375 30.9ZM6.9375 29.8L3.76241 32.2329L3.77121 32.2443L3.78009 32.2558L6.9375 29.8ZM1.0375 22.1L-2.2907 24.3188L-2.21767 24.4283L-2.13759 24.5329L1.0375 22.1ZM0.5375 20.2L-3.39798 19.4845L-3.42668 19.6423L-3.44265 19.802L0.5375 20.2ZM1.7375 18.5L3.79549 21.93L3.99845 21.8082L4.18564 21.6633L1.7375 18.5ZM24.7375 0.699998L22.5187 -2.6282L22.4011 -2.54981L22.2894 -2.46333L24.7375 0.699998ZM25.8375 0.199999L26.622 4.12232L26.8662 4.07348L27.1024 3.99472L25.8375 0.199999ZM41.3375 0.699998L38.5091 3.52842L38.6033 3.6226L38.7035 3.71031L41.3375 0.699998ZM41.3375 69.3L38.7035 66.2897L38.6033 66.3774L38.5091 66.4716L41.3375 69.3ZM26.6375 66C26.7822 66 26.9586 66.0275 27.1373 66.097C27.3123 66.165 27.4234 66.2476 27.4715 66.2897L22.2035 72.3103C23.416 73.3713 24.9376 74 26.6375 74V66ZM27.6659 66.4716C27.8147 66.6203 27.951 66.8201 28.0405 67.0502C28.1268 67.2721 28.1375 67.4391 28.1375 67.5H20.1375C20.1375 69.165 20.7056 70.8249 22.0091 72.1284L27.6659 66.4716ZM28.1375 67.5V19.9H20.1375V67.5H28.1375ZM21.7043 16.7252L8.00426 27.2252L12.8707 33.5748L26.5707 23.0748L21.7043 16.7252ZM7.98174 27.2426C8.04027 27.1971 8.21172 27.0811 8.49453 27.0067C8.78943 26.9291 9.08166 26.9296 9.32197 26.9777L7.75303 34.8223C9.70217 35.2121 11.497 34.6434 12.8933 33.5574L7.98174 27.2426ZM9.40521 26.9952C9.63231 27.0457 9.82023 27.1371 9.95361 27.2288C10.0785 27.3147 10.1189 27.3751 10.0949 27.3442L3.78009 32.2558C4.67869 33.4111 5.96172 34.4252 7.66979 34.8047L9.40521 26.9952ZM10.1126 27.3671L4.21259 19.6671L-2.13759 24.5329L3.76241 32.2329L10.1126 27.3671ZM4.3657 19.8812C4.38617 19.9119 4.44088 20.0054 4.4808 20.157C4.52174 20.3126 4.53069 20.4676 4.51765 20.598L-3.44265 19.802C-3.60874 21.4629 -3.16227 23.0114 -2.2907 24.3188L4.3657 19.8812ZM4.47298 20.9155C4.44343 21.0781 4.36559 21.3048 4.20537 21.5317C4.04787 21.7549 3.8814 21.8784 3.79549 21.93L-0.320494 15.07C-1.92606 16.0334 -3.04878 17.5638 -3.39798 19.4845L4.47298 20.9155ZM4.18564 21.6633L27.1856 3.86332L22.2894 -2.46333L-0.710638 15.3367L4.18564 21.6633ZM26.9563 4.02819C27.0104 3.99217 27.0136 3.99561 26.9677 4.01646C26.9221 4.0372 26.8044 4.08583 26.622 4.12232L25.0531 -3.72233C24.0421 -3.52013 23.1868 -3.07361 22.5187 -2.6282L26.9563 4.02819ZM27.1024 3.99472C27.0801 4.00217 27.0682 4.00387 27.0707 4.00348C27.0737 4.00302 27.0948 4 27.1375 4V-4C26.2865 -4 25.4215 -3.87772 24.5726 -3.59473L27.1024 3.99472ZM27.1375 4H39.6375V-4H27.1375V4ZM39.6375 4C39.4946 4 39.2803 3.97284 39.0395 3.87371C38.7979 3.77424 38.6201 3.6395 38.5091 3.52842L44.1659 -2.12842C42.9406 -3.35376 41.3529 -4 39.6375 -4V4ZM38.7035 3.71031C38.5684 3.59212 38.403 3.39626 38.2823 3.12455C38.1631 2.85635 38.1375 2.62736 38.1375 2.5H46.1375C46.1375 0.659049 45.4068 -1.05442 43.9715 -2.31031L38.7035 3.71031ZM38.1375 2.5V67.5H46.1375V2.5H38.1375ZM38.1375 67.5C38.1375 67.3726 38.1631 67.1436 38.2823 66.8754C38.403 66.6037 38.5684 66.4079 38.7035 66.2897L43.9715 72.3103C45.4068 71.0544 46.1375 69.341 46.1375 67.5H38.1375ZM38.5091 66.4716C38.6202 66.3605 38.7979 66.2258 39.0395 66.1263C39.2803 66.0272 39.4946 66 39.6375 66V74C41.3529 74 42.9406 73.3538 44.1659 72.1284L38.5091 66.4716ZM39.6375 66H26.6375V74H39.6375V66ZM54.7445 69.3L57.573 66.4716L57.573 66.4716L54.7445 69.3ZM54.7445 53.1L57.573 55.9284L57.6671 55.8342L57.7548 55.734L54.7445 53.1ZM70.9445 53.1L67.9342 55.734L68.1098 55.9347L68.3105 56.1103L70.9445 53.1ZM70.9445 69.3L68.3105 66.2897L68.2103 66.3774L68.1161 66.4716L70.9445 69.3ZM56.5445 66C56.6055 66 56.7724 66.0107 56.9943 66.097C57.2244 66.1865 57.4242 66.3228 57.573 66.4716L51.9161 72.1284C53.2196 73.4319 54.8795 74 56.5445 74V66ZM57.573 66.4716C57.7217 66.6203 57.8581 66.8201 57.9475 67.0502C58.0339 67.2721 58.0445 67.4391 58.0445 67.5H50.0445C50.0445 69.165 50.6126 70.8249 51.9161 72.1284L57.573 66.4716ZM58.0445 67.5V54.8H50.0445V67.5H58.0445ZM58.0445 54.8C58.0445 54.9429 58.0174 55.1572 57.9182 55.398C57.8188 55.6396 57.684 55.8173 57.573 55.9284L51.9161 50.2716C50.6908 51.4969 50.0445 53.0846 50.0445 54.8H58.0445ZM57.7548 55.734C57.6366 55.8691 57.4408 56.0345 57.1691 56.1552C56.9009 56.2744 56.6719 56.3 56.5445 56.3V48.3C54.7036 48.3 52.9901 49.0307 51.7342 50.466L57.7548 55.734ZM56.5445 56.3H69.1445V48.3H56.5445V56.3ZM69.1445 56.3C69.0172 56.3 68.7882 56.2744 68.52 56.1552C68.2483 56.0345 68.0524 55.8691 67.9342 55.734L73.9548 50.466C72.6989 49.0307 70.9855 48.3 69.1445 48.3V56.3ZM68.3105 56.1103C68.2167 56.0282 68.0557 55.8555 67.9253 55.5782C67.7919 55.2947 67.7445 55.0167 67.7445 54.8H75.7445C75.7445 52.9 74.9179 51.2616 73.5786 50.0897L68.3105 56.1103ZM67.7445 54.8V67.5H75.7445V54.8H67.7445ZM67.7445 67.5C67.7445 67.3726 67.7701 67.1436 67.8893 66.8754C68.01 66.6037 68.1754 66.4079 68.3105 66.2897L73.5785 72.3103C75.0138 71.0544 75.7445 69.341 75.7445 67.5H67.7445ZM68.1161 66.4716C68.2648 66.3228 68.4646 66.1865 68.6947 66.097C68.9167 66.0107 69.0836 66 69.1445 66V74C70.8095 74 72.4695 73.4319 73.773 72.1284L68.1161 66.4716ZM69.1445 66H56.5445V74H69.1445V66Z" fill="#F26522" mask="url(#path-1-outside-1_1_4)"/>
</svg>
