<svg width="213" height="301" viewBox="0 0 213 301" fill="none" xmlns="http://www.w3.org/2000/svg">
<path fill-rule="evenodd" clip-rule="evenodd" d="M174.926 192.599C177.024 195.792 178.676 199.235 180.494 202.58C191.05 222.01 201.565 241.459 212.096 260.901C212.341 261.353 212.637 261.786 212.815 262.264C213.34 263.664 212.58 264.632 211.093 264.383C209.791 264.167 208.514 263.804 207.225 263.508C193.479 260.351 179.733 257.191 165.987 254.033C165.77 253.986 165.544 253.973 165.34 253.897C164.156 253.454 163.599 253.944 163.306 255.096C163.074 256.016 162.66 256.891 162.335 257.789C157.474 271.184 152.619 284.58 147.749 297.973C147.411 298.899 147.344 300.143 146.001 300.229C144.667 300.315 144.419 299.09 143.948 298.23C136.731 285.092 129.53 271.948 122.332 258.804C122.087 258.359 121.902 257.878 121.689 257.417C120.412 249.81 120.396 242.178 122.039 234.661C124.576 223.057 131.226 214.903 142.391 210.158C151.492 206.291 160.578 202.236 168.788 196.568C170.001 195.731 171.115 194.78 172.277 193.885C173.051 193.29 173.719 192.351 174.926 192.599Z" fill="#F26522"/>
<path fill-rule="evenodd" clip-rule="evenodd" d="M175.422 193.378C172.513 195.583 169.243 197.194 166.085 199.071C161.227 201.961 156.214 204.533 151.04 206.802C150.773 206.92 150.502 207.034 150.238 207.162C146.603 208.906 142.986 210.688 139.329 212.387C131.615 215.971 126.856 222.104 124.026 229.933C122.294 234.726 121.527 239.678 121.527 244.761C121.527 246.524 121.514 248.284 121.53 250.047C121.546 251.581 121.546 254.236 121.692 257.421C118.732 252.09 115.755 246.772 112.82 241.429C106.946 230.738 101.124 220.016 95.209 209.351C94.3049 207.719 94.1044 206.363 95.0053 204.641C96.4442 201.882 98.071 199.285 100.207 197.025C112.199 184.361 126.295 174.947 142.913 169.444C146.832 168.146 150.856 167.293 154.934 166.707C158.436 166.205 161.361 167.576 163.023 170.507C167.149 177.786 171.707 185.876 175.426 193.378H175.422Z" fill="#C5521C"/>
<path fill-rule="evenodd" clip-rule="evenodd" d="M49.4244 253.04C45.8876 253.832 42.5927 254.558 39.3074 255.312C27.4204 258.037 15.5398 260.786 3.64638 263.479C2.65951 263.702 1.47526 264.523 0.60936 263.281C-0.157852 262.18 0.83857 261.331 1.29699 260.487C17.2747 230.956 33.2652 201.434 49.2907 171.928C50.0165 170.594 50.8952 169.238 52.0157 168.246C53.8972 166.575 56.1702 165.983 58.7774 166.412C73.2175 168.799 86.1296 174.713 97.8479 183.322C103.301 187.325 108.462 191.701 113.055 196.704C115.21 199.05 116.917 201.679 118.314 204.543C119.005 205.959 118.9 207.124 118.152 208.474C112.96 217.862 107.825 227.28 102.671 236.691C91.5861 256.926 80.5013 277.161 69.4165 297.396C69.2032 297.781 69.0663 298.239 68.7671 298.542C68.3341 298.981 67.777 299.617 67.2931 299.598C66.8283 299.579 66.3317 298.882 65.9624 298.398C65.7078 298.064 65.6441 297.584 65.4945 297.17C60.506 283.427 55.5207 269.685 50.5291 255.942C50.2075 255.054 49.8542 254.179 49.4149 253.04H49.4244Z" fill="#F26522"/>
<path fill-rule="evenodd" clip-rule="evenodd" d="M104.316 208.926C46.7557 208.833 -0.152433 161.903 0.000372273 104.371C0.153178 46.4343 46.6952 -0.222734 104.866 -0.00313423C163.382 0.219648 209.077 47.5419 208.949 104.702C208.819 162.364 161.908 209.018 104.316 208.926Z" fill="#ECAE2B"/>
<path fill-rule="evenodd" clip-rule="evenodd" d="M19.1364 104.54C19.0759 58.6499 55.8989 18.985 104.956 19.0901C153.443 19.1951 190.409 58.5321 190.336 104.785C190.263 151.48 152.571 190.499 104.275 190.244C56.3096 189.99 18.9868 151.073 19.1332 104.54H19.1364Z" fill="#C48A10"/>
<path d="M160.434 85.9087C160.619 81.0455 160.84 77.6869 161.097 75.8329C161.339 74.15 162.266 73.3086 163.878 73.3086C164.719 73.3086 165.397 73.5796 165.91 74.1215C166.424 74.6634 166.68 75.3266 166.68 76.111C166.68 78.1789 166.516 81.2594 166.188 85.3525C165.874 89.4456 165.718 92.5261 165.718 94.594C165.718 99.6426 165.882 103.023 166.21 104.734C166.252 104.962 166.274 105.169 166.274 105.354C166.274 106.139 165.989 106.788 165.418 107.301C164.848 107.8 164.184 108.05 163.429 108.05C162.373 108.05 161.589 107.579 161.075 106.638C160.106 107.223 159.1 107.658 158.059 107.943C157.018 108.242 155.941 108.392 154.829 108.392C151.634 108.392 148.982 107.372 146.871 105.333C144.717 103.251 143.641 100.598 143.641 97.375C143.641 93.5386 144.725 90.4439 146.892 88.0907C149.06 85.7233 151.891 84.5396 155.385 84.5396C156.455 84.5396 157.41 84.6537 158.252 84.8819C159.093 85.1101 159.82 85.4523 160.434 85.9087ZM160.006 92.6473C159.535 91.7488 158.922 91.0785 158.166 90.6364C157.41 90.1943 156.512 89.9733 155.471 89.9733C153.36 89.9733 151.777 90.5865 150.722 91.813C149.666 93.0252 149.138 94.8507 149.138 97.2894C149.138 98.8297 149.709 100.149 150.85 101.247C151.991 102.345 153.317 102.894 154.829 102.894C155.927 102.894 156.761 102.766 157.332 102.509C157.717 102.338 158.373 101.882 159.3 101.14C159.542 100.94 159.778 100.719 160.006 100.477C159.977 99.7924 159.977 97.1825 160.006 92.6473Z" fill="#FFD478"/>
<path d="M139.334 104.264C139.334 106.974 138.35 108.329 136.382 108.329C135.526 108.329 134.82 108.058 134.264 107.516C133.708 106.974 133.43 106.275 133.43 105.419V75.8338C133.43 75.0067 133.729 74.3292 134.328 73.8016C134.899 73.3167 135.605 73.0742 136.446 73.0742C137.287 73.0742 137.979 73.3309 138.521 73.8443C139.063 74.3435 139.334 75.0067 139.334 75.8338V104.264Z" fill="#FFD478"/>
<path d="M129.63 91.9791C129.502 94.1612 128.511 95.2522 126.657 95.2522C124.86 95.2522 123.961 94.3252 123.961 92.4712L123.854 90.3105C120.645 90.8239 118.349 92.4712 116.966 95.2522L116.987 106.013C116.987 106.825 116.709 107.496 116.153 108.023C115.597 108.565 114.891 108.836 114.035 108.836C113.151 108.836 112.466 108.551 111.981 107.981C111.525 107.467 111.297 106.811 111.297 106.013V92.0005C111.297 91.5584 111.311 90.9024 111.34 90.0324C111.368 89.1482 111.382 88.485 111.382 88.0429C111.382 87.2443 111.618 86.5811 112.088 86.0534C112.573 85.5115 113.258 85.2405 114.142 85.2405C115.725 85.2405 116.666 86.0534 116.966 87.6793C119.49 85.7967 122.293 84.8555 125.373 84.8555C128.225 84.8555 129.652 86.7523 129.652 90.5458C129.652 91.2732 129.644 91.7509 129.63 91.9791Z" fill="#FFD478"/>
<path d="M97.4508 108.677C94.8124 108.677 92.5448 107.771 90.648 105.96C88.5658 103.977 87.4748 101.332 87.375 98.0231C87.2751 94.8713 88.1379 92.0618 89.9634 89.5945C92.1312 86.6852 95.1475 85.2305 99.0124 85.2305C101.865 85.2305 104.132 86.3714 105.815 88.6532C107.327 90.7069 108.083 93.2526 108.083 96.2903C108.083 99.599 107.199 102.423 105.43 104.762C103.448 107.372 100.788 108.677 97.4508 108.677ZM98.7343 90.8781C96.9801 90.8638 95.5968 91.6624 94.5842 93.274C93.7285 94.6289 93.3006 96.2119 93.3006 98.0231C93.3006 99.7345 93.7855 101.047 94.7553 101.959C95.5254 102.687 96.4239 103.05 97.4508 103.05C98.6915 103.05 99.7683 102.63 100.681 101.788C101.722 100.804 102.278 99.4707 102.35 97.7878C102.535 93.1956 101.33 90.8923 98.7343 90.8781Z" fill="#FFD478"/>
<path d="M88.015 79.9601C87.7726 80.5448 87.4874 81.265 87.1593 82.1207C86.9169 82.9479 86.5247 84.1744 85.9828 85.8002C85.1698 87.8966 83.8792 90.9486 82.1107 94.9561C80.2995 99.0349 79.0017 102.08 78.2173 104.091C77.6326 105.588 77.0835 106.786 76.5701 107.685C75.8998 108.868 74.8801 109.46 73.511 109.46C72.6981 109.46 71.9636 109.239 71.3076 108.797C70.5375 108.284 70.1239 107.606 70.0668 106.765C69.4108 105.125 68.9972 103.784 68.8261 102.743C68.1986 99.691 67.3286 95.1059 66.2162 88.9876C65.2892 91.8542 64.2909 94.4284 63.2213 96.7103C61.624 100.133 60.5757 102.821 60.0766 104.775C60.2049 105.089 60.2691 105.424 60.2691 105.781C60.2691 106.665 59.8769 107.385 59.0925 107.941C58.408 108.412 57.6521 108.647 56.825 108.647C55.7839 108.647 54.921 108.383 54.2365 107.856C53.4949 107.271 53.1098 106.472 53.0813 105.46L52.4181 102.957C51.9475 100.732 51.1774 97.4091 50.1077 92.988C49.1665 89.608 47.5906 84.7947 45.38 78.5482C45.2517 78.1916 45.1875 77.8351 45.1875 77.4785C45.1875 76.6229 45.5155 75.9454 46.1715 75.4463C46.7563 74.9899 47.4622 74.7617 48.2894 74.7617C49.3733 74.7617 50.2361 75.2181 50.8779 76.1308C51.2344 76.63 51.6409 77.5356 52.0972 78.8477C53.4949 82.8694 55.0708 88.7309 56.825 96.4322C57.9659 93.6512 59.1282 90.371 60.3119 86.5917C61.2674 83.5112 62.0447 81.322 62.6437 80.0242C64.0698 76.9152 65.5245 75.3607 67.0077 75.3607C68.4054 75.3607 69.4251 76.1237 70.0668 77.6497C70.3806 78.377 70.6872 79.6962 70.9867 81.6073C71.0723 82.192 71.2577 83.6253 71.5429 85.9071C71.8424 88.3601 72.7409 92.824 74.2383 99.2988C75.7501 95.7619 77.7823 90.6634 80.3352 84.0032C80.492 83.6039 80.8628 82.2918 81.4476 80.067C81.8612 78.4697 82.3817 77.2076 83.0092 76.2806C83.6938 75.2823 84.6065 74.7831 85.7474 74.7831C86.6174 74.7831 87.3376 75.0541 87.9081 75.596C88.4785 76.1237 88.7638 76.8083 88.7638 77.6497C88.7638 77.9492 88.5142 78.7193 88.015 79.9601Z" fill="#FFD478"/>
<path fill-rule="evenodd" clip-rule="evenodd" d="M104.745 16.6165C152.038 16.5942 192.28 54.3368 192.322 104.081C192.363 153.927 152.057 191.752 104.684 191.708C57.5438 191.663 17.34 154.051 17.219 104.345C17.0981 54.8205 57.0981 16.6324 104.748 16.6133L104.745 16.6165ZM90.0628 178.443C92.8005 178.182 98.0278 177.937 103.169 177.141C117.893 174.859 131.578 169.671 143.924 161.311C166.736 145.862 181.562 125.128 185.363 97.3529C185.926 93.2314 186.48 89.0399 185.455 84.8612C183.5 76.8919 180.489 69.3491 176.344 62.2646C161.302 36.5523 133.415 20.9544 104.267 21.2854C93.1635 21.4127 82.5148 23.5036 72.3309 27.8574C34.537 44.0156 14.3062 84.788 24.4518 124.669C29.6918 145.254 41.4005 161.422 59.0114 173.29C60.202 174.092 61.6027 174.687 62.9907 175.085C71.0225 177.396 79.2486 178.341 90.0596 178.446L90.0628 178.443Z" fill="#AF7A0A"/>
<path d="M140.035 136.175C139.722 136.175 139.351 136.168 138.919 136.153C138.503 136.123 138.138 136.108 137.826 136.108C137.216 136.108 136.509 136.168 135.706 136.287C135.974 142.297 136.107 146.224 136.107 148.069C136.107 148.262 136.115 148.627 136.13 149.162C136.145 149.683 136.152 150.107 136.152 150.434C136.152 153.856 135.074 155.567 132.916 155.567C132.098 155.567 131.392 155.314 130.797 154.808C130.142 154.272 129.815 153.603 129.815 152.799C129.815 152.264 129.837 151.461 129.882 150.39C129.926 149.318 129.949 148.515 129.949 147.98C129.949 146.179 129.815 142.327 129.547 136.421C128.625 136.376 127.226 136.257 125.352 136.064C123.492 135.855 122.562 134.888 122.562 133.163C122.562 132.33 122.845 131.623 123.41 131.043C123.976 130.463 124.705 130.172 125.597 130.172C126.148 130.172 127.412 130.262 129.391 130.44C129.376 129.964 129.339 129.176 129.279 128.075C129.22 127.123 129.19 126.386 129.19 125.866C129.19 125.033 129.495 124.341 130.105 123.79C130.715 123.24 131.451 122.965 132.314 122.965C134.516 122.965 135.617 124.817 135.617 128.521L135.572 130.351C136.494 130.217 137.246 130.15 137.826 130.15C139.536 130.15 140.704 130.262 141.329 130.485C142.519 130.901 143.114 131.809 143.114 133.207C143.114 134.055 142.824 134.762 142.244 135.327C141.664 135.892 140.927 136.175 140.035 136.175Z" fill="#FFD478"/>
<path d="M117.731 137.8C116.259 137.8 115.374 137.182 115.076 135.948C114.481 135.843 113.871 135.791 113.246 135.791C109.661 135.791 107.868 136.282 107.868 137.264C107.868 137.844 108.947 138.625 111.104 139.607C114.05 140.961 116.043 142.017 117.084 142.776C119.241 144.338 120.32 146.101 120.32 148.064C120.32 150.623 119.13 152.564 116.75 153.888C114.831 154.945 112.473 155.473 109.676 155.473C107.697 155.473 105.89 155.168 104.253 154.558C102.022 153.725 100.906 152.498 100.906 150.876C100.906 149.388 101.791 148.645 103.562 148.645C104.246 148.645 105.235 148.86 106.53 149.292C107.824 149.723 108.821 149.939 109.52 149.939C112.54 149.939 114.057 149.329 114.072 148.109C114.072 147.35 113.023 146.51 110.926 145.587C107.861 144.234 105.897 143.259 105.034 142.664C102.937 141.191 101.888 139.399 101.888 137.286C101.888 134.296 103.472 132.28 106.641 131.239C108.501 130.629 111.327 130.324 115.121 130.324C116.608 130.324 117.709 130.518 118.423 130.904C119.405 131.425 119.896 132.385 119.896 133.783C119.896 136.461 119.174 137.8 117.731 137.8Z" fill="#FFD478"/>
<path fill-rule="evenodd" clip-rule="evenodd" d="M82.6482 129.905C82.3135 130.115 82.1118 130.234 81.9185 130.366C80.1042 131.601 78.2857 132.835 76.3025 133.787C75.5168 134.163 74.6889 134.488 73.8461 134.705C72.713 134.995 71.6707 134.702 70.7984 133.894C69.6832 132.863 69.7381 131.254 70.9515 130.349C71.6929 129.796 72.468 129.283 73.2526 128.791C76.2898 126.886 79.3059 124.953 82.172 122.794C83.0485 122.134 83.9166 121.464 84.7751 120.781C85.3306 120.339 85.9505 120.099 86.657 120.073C87.2663 120.05 87.8757 119.997 88.4839 120.016C90.2338 120.07 91.4504 121.251 91.5866 122.998C91.6035 123.216 91.6003 123.436 91.6003 123.655C91.6003 132.575 91.5982 141.495 91.6003 150.415C91.6003 151.273 91.538 152.119 91.2476 152.935C90.7344 154.373 89.6994 155.138 88.1904 155.267C87.6074 155.317 87.0224 155.361 86.4384 155.358C84.0475 155.341 82.6578 153.965 82.6514 151.578C82.6398 146.583 82.6493 141.586 82.6493 136.589C82.6493 134.689 82.6493 132.787 82.6504 130.887C82.6504 130.62 82.6504 130.353 82.6504 129.907L82.6482 129.905Z" fill="#FFD478"/>
<path fill-rule="evenodd" clip-rule="evenodd" d="M87.9219 42.2986C89.2678 43.0113 90.2365 44.1209 91.3255 45.2339C91.2133 44.6404 91.1647 44.1672 91.0269 43.7379C90.9517 43.503 90.7434 43.3133 90.5663 43.1548C89.0803 41.8219 88.4577 39.958 88.4079 37.7365C88.4068 37.6706 88.4496 37.6035 88.5017 37.4473C89.3558 38.2954 89.9252 39.3714 90.5189 40.4439C90.5837 39.7196 90.6392 39.0613 90.1983 38.4249C89.5317 37.4635 89.0595 36.3504 88.9773 35.0338C88.9426 34.4807 88.9935 34.0584 89.2586 33.4811C89.8257 34.3326 90.1844 35.3045 90.6381 36.3759C90.7075 35.9409 90.7584 35.6296 90.8071 35.3184C90.8557 35.0014 90.8128 34.741 90.6647 34.4391C90.0363 33.1606 89.9333 31.7849 90.3071 30.3583C90.3383 30.2391 90.4066 30.1362 90.4969 29.9429C90.9957 30.7239 91.0813 31.653 91.3741 32.5358C91.6461 31.8844 91.8185 31.3221 91.6125 30.5886C91.3487 29.6491 91.4725 28.6691 91.7144 27.7261C91.7456 27.6035 91.8012 27.4889 91.8567 27.3779C91.8741 27.3432 91.925 27.3351 91.9875 27.298C92.3775 27.8916 92.293 28.6749 92.4828 29.4223C92.7641 29 92.9191 28.5997 93.0002 28.1264C93.2559 26.6212 94.1343 25.9351 95.2326 25.566C95.3044 25.5417 95.39 25.5833 95.53 25.603C95.3101 26.4939 94.9572 27.2217 94.4468 27.8245C94.1876 28.1299 93.9005 28.4018 93.6089 28.6575C93.1147 29.0914 93.0742 29.1446 92.8474 30.0656C93.5684 29.9406 94.2801 29.6294 95.0382 30.0459C94.3137 31.2076 93.3346 31.5778 92.2097 31.7189C92.0963 32.1401 91.9782 32.574 91.8255 33.1386C92.6275 32.876 93.3311 32.4895 94.095 32.6665C93.9526 33.6731 92.9955 34.5513 91.4505 35.0916C91.4146 35.3057 91.3649 35.5336 91.3417 35.765C91.3082 36.1005 91.2954 36.4384 91.2677 36.863C91.7086 36.5471 92.0789 36.2347 92.4805 36.0068C92.874 35.7835 93.2814 35.5417 93.7443 35.64C93.661 36.6605 92.5638 38.0871 91.2248 38.9282C91.2248 39.2279 91.2121 39.5415 91.2283 39.8527C91.2457 40.1848 91.2897 40.5145 91.3359 40.9935C92.0558 39.8423 92.8115 38.9792 93.8728 38.617C94.0116 39.9117 93.3798 41.3047 91.6936 43.4776C91.8197 44.0341 91.9539 44.6253 92.0789 45.1749C92.5963 44.3835 93.0765 43.5956 93.6043 42.8632C93.8624 42.5046 94.2095 42.2477 94.5278 41.9341C94.875 42.8621 94.3415 45.8946 93.0129 48.0697C93.2999 48.698 93.5973 49.3459 93.8948 49.995C93.941 49.9973 93.9873 49.9985 94.0336 50.0008C94.1968 48.3254 94.7477 46.9127 95.7823 45.6447C96.1828 48.094 96.2198 50.3479 95.3449 52.5855C95.7708 53.2034 96.2024 53.8293 96.633 54.4553C96.6746 54.4437 96.7163 54.4333 96.7579 54.4217C96.6364 52.5809 96.6098 50.7644 97.5252 49.1654C98.3053 50.0309 98.9291 53.289 99.0529 57.0423C100.376 58.1611 101.784 59.1365 103.329 59.7902C103.706 59.9499 104.076 60.1408 104.44 60.3409C104.645 60.4543 104.826 60.6799 104.699 60.9542C104.632 61.0999 104.386 61.1879 104.223 61.1798C103.976 61.1682 103.727 61.0687 103.488 60.9761C101.908 60.3629 100.458 59.4177 99.1061 58.2364C98.8087 57.976 98.5448 57.8892 98.178 57.9992C96.2834 58.5649 94.5139 58.1438 92.8543 56.8838C92.0315 56.259 91.3811 55.4318 90.7874 54.4148C91.1994 54.1799 91.5755 54.2713 91.9343 54.3164C93.2351 54.4807 94.5012 54.8533 95.743 55.3623C95.9316 55.4399 96.1261 55.4954 96.3783 55.4318C95.9386 54.807 95.508 54.1706 95.0521 53.5655C94.9711 53.4591 94.7824 53.4406 94.6447 53.444C92.3521 53.5169 90.7422 52.0938 89.5305 49.8053C89.3454 49.4558 89.188 49.0821 89.0398 48.7061C88.982 48.5592 88.9854 48.3752 88.938 48.0501C89.762 48.4273 90.5004 48.7096 91.1982 49.1018C91.8764 49.4824 92.5129 49.9776 93.2744 50.4937C92.9353 49.7277 92.6657 49.0601 92.3451 48.4307C92.2606 48.2641 92.0303 48.1935 91.8556 48.1207C89.799 47.2506 88.6926 45.2895 87.9844 42.8725C87.9508 42.7579 87.9566 42.626 87.9219 42.2986Z" fill="#FFCD65"/>
<path fill-rule="evenodd" clip-rule="evenodd" d="M121.68 30.0622C121.496 29.4027 121.248 28.9145 120.784 28.55C119.91 27.8628 119.257 26.9198 118.958 25.543C119.164 25.5707 119.33 25.5557 119.476 25.6193C120.506 26.0636 121.294 26.7948 121.519 28.2434C121.579 28.631 121.771 28.9874 121.957 29.515C122.129 28.6391 122.264 27.9519 122.398 27.2634C122.453 27.253 122.507 27.2426 122.563 27.2322C122.646 27.4428 122.758 27.6441 122.808 27.8662C123.018 28.7895 123.111 29.7441 122.844 30.6558C122.643 31.3442 122.849 31.8521 123.093 32.4827C123.365 31.5953 123.612 30.7888 123.859 29.9824C123.906 29.9847 123.953 29.987 124 29.9893C124.073 30.1617 124.176 30.3237 124.215 30.5077C124.519 31.9458 124.412 33.3123 123.744 34.5815C123.673 34.7192 123.633 34.9193 123.645 35.0825C123.671 35.4423 123.74 35.7975 123.813 36.3089C124.292 35.2954 124.715 34.3998 125.166 33.4465C125.502 33.8318 125.493 34.2355 125.502 34.6093C125.528 35.6101 125.286 36.5253 124.868 37.3699C124.692 37.7274 124.53 38.1161 124.294 38.4031C123.792 39.0151 123.89 39.7556 123.912 40.5065C124.538 39.434 125.085 38.292 126.01 37.4115C126.051 37.6823 126.106 37.8535 126.095 38.0166C125.977 39.714 125.509 41.2296 124.564 42.485C124.449 42.6366 124.315 42.7685 124.182 42.8969C123.953 43.1179 123.626 43.2706 123.506 43.5599C123.328 43.9856 123.293 44.5063 123.241 45.0373C124.267 44.0632 125.243 43.0184 126.543 42.2536C126.494 42.6447 126.499 42.8761 126.435 43.0762C125.699 45.418 124.59 47.3224 122.565 48.1196C122.262 48.2388 122.071 48.4494 121.933 48.8103C121.725 49.353 121.468 49.8655 121.177 50.51C121.919 50.0009 122.56 49.4988 123.242 49.1123C123.943 48.7143 124.686 48.4285 125.516 48.0456C125.478 48.3649 125.492 48.5789 125.426 48.7421C124.47 51.1058 123.096 52.8483 120.921 53.3458C120.573 53.4256 120.209 53.3828 119.856 53.4337C119.682 53.4592 119.466 53.5066 119.355 53.6489C118.904 54.2321 118.488 54.8545 118.075 55.5268C119.88 54.9263 121.661 54.195 123.638 54.2864C123.562 54.5121 123.537 54.6937 123.455 54.814C121.669 57.4173 119.459 58.6576 116.687 58.0733C116.542 58.0432 116.385 58.049 116.253 57.9796C115.912 57.8014 115.659 57.9773 115.386 58.2156C114.032 59.3923 112.586 60.3445 111.005 60.9566C110.745 61.0572 110.476 61.1267 110.207 61.181C110.014 61.2204 109.773 61.188 109.758 60.9034C109.749 60.724 109.886 60.4579 110.019 60.3573C110.284 60.1548 110.586 60.0171 110.883 59.891C112.501 59.206 114.241 58.1046 115.436 56.9857C115.442 55.6448 115.493 54.2899 115.75 52.9571C116.001 51.6566 116.261 50.3642 116.799 49.1748C117.109 49.2257 117.173 49.5323 117.268 49.773C117.621 50.6581 117.766 51.6091 117.788 52.5891C117.8 53.1885 117.79 53.7878 117.79 54.4565C118.26 53.922 118.667 53.3076 119.035 52.6597C119.099 52.5475 119.011 52.2652 118.951 52.0835C118.284 50.09 118.31 48.0432 118.641 45.9734C118.651 45.9051 118.694 45.8449 118.722 45.7801C119.49 46.4339 119.966 47.5631 120.526 50.1108C120.865 49.3761 121.165 48.727 121.476 48.0502C120.406 46.2638 119.822 44.2865 119.804 41.91C120.975 42.7048 121.755 43.7889 122.297 45.2896C122.567 44.6879 122.676 44.1337 122.721 43.5749C122.735 43.406 122.565 43.1734 122.434 43.0346C121.563 42.1032 120.945 40.9716 120.651 39.5798C120.59 39.2882 120.577 38.9816 120.527 38.5627C121.648 38.9839 122.412 39.795 123.145 40.9936C123.231 40.1814 123.28 39.5543 123.242 38.8879C122.047 38.2561 121.24 37.1489 120.591 35.5892C121.655 35.6251 122.416 36.1828 123.244 36.9418C123.174 36.2244 123.118 35.6656 123.06 35.0767C121.905 34.7238 120.908 34.1048 120.261 32.6967C121.121 32.4619 121.821 32.8471 122.636 33.119C122.511 32.603 122.411 32.19 122.299 31.726C121.217 31.5733 120.198 31.2308 119.438 30.0368C120.205 29.6052 120.929 29.9315 121.676 30.0634L121.68 30.0622Z" fill="#FFCD65"/>
</svg>
