<svg width="85" height="73" viewBox="0 0 85 73" fill="none" xmlns="http://www.w3.org/2000/svg">
<mask id="path-1-outside-1_22_58746" maskUnits="userSpaceOnUse" x="-4" y="-3.89453" width="93" height="80" fill="black">
<rect fill="white" x="-4" y="-3.89453" width="93" height="80"/>
<path d="M2.97148 72.1055C2.23815 72.1055 1.60482 71.8721 1.07148 71.4055C0.604818 70.9388 0.371484 70.3388 0.371484 69.6055V62.5055C0.371484 62.0388 0.504818 61.3388 0.771485 60.4055C1.03815 59.4055 1.73815 58.4721 2.87148 57.6055L13.2715 47.4055C18.6048 43.3388 22.9715 39.9055 26.3715 37.1055C29.8382 34.2388 32.4048 31.7055 34.0715 29.5055C35.7382 27.3055 36.5715 25.2388 36.5715 23.3055C36.5715 21.0388 35.9715 19.1721 34.7715 17.7055C33.6382 16.1721 31.6382 15.4055 28.7715 15.4055C26.8382 15.4055 25.2048 15.8388 23.8715 16.7055C22.6048 17.5055 21.6382 18.5721 20.9715 19.9055C20.3048 21.2388 19.8382 22.6055 19.5715 24.0055C19.3048 24.8721 18.8382 25.4721 18.1715 25.8055C17.5715 26.1388 16.9048 26.3055 16.1715 26.3055H3.67148C3.07148 26.3055 2.57148 26.1055 2.17148 25.7055C1.77148 25.3055 1.57148 24.8055 1.57148 24.2055C1.63815 21.0055 2.30482 18.0055 3.57149 15.2055C4.90482 12.4055 6.73815 9.9388 9.07148 7.80547C11.4715 5.60546 14.3048 3.90546 17.5715 2.70547C20.9048 1.50547 24.6382 0.905468 28.7715 0.905468C34.4382 0.905468 39.2382 1.80547 43.1715 3.60546C47.1715 5.40546 50.2048 7.9388 52.2715 11.2055C54.3382 14.4055 55.3715 18.1721 55.3715 22.5055C55.3715 25.7721 54.6382 28.8388 53.1715 31.7055C51.7715 34.5055 49.7382 37.2055 47.0715 39.8055C44.4715 42.3388 41.3715 44.9721 37.7715 47.7055L28.5715 57.0055H54.2715C55.0048 57.0055 55.6048 57.2388 56.0715 57.7055C56.6048 58.1721 56.8715 58.7721 56.8715 59.5055V69.6055C56.8715 70.3388 56.6048 70.9388 56.0715 71.4055C55.6048 71.8721 55.0048 72.1055 54.2715 72.1055H2.97148ZM69.2105 72.1055C68.4772 72.1055 67.8772 71.8721 67.4105 71.4055C66.9439 70.9388 66.7105 70.3388 66.7105 69.6055V56.9055C66.7105 56.2388 66.9439 55.6721 67.4105 55.2055C67.8772 54.6721 68.4772 54.4055 69.2105 54.4055H81.8105C82.5439 54.4055 83.1439 54.6721 83.6105 55.2055C84.1439 55.6721 84.4105 56.2388 84.4105 56.9055V69.6055C84.4105 70.3388 84.1439 70.9388 83.6105 71.4055C83.1439 71.8721 82.5439 72.1055 81.8105 72.1055H69.2105Z"/>
</mask>
<path d="M1.07148 71.4055L-1.75694 74.2339L-1.66277 74.3281L-1.56253 74.4158L1.07148 71.4055ZM0.771484 60.4055L4.61758 61.5044L4.6273 61.4703L4.63642 61.4361L0.771484 60.4055ZM2.87148 57.6055L5.30129 60.7829L5.49669 60.6335L5.67232 60.4612L2.87148 57.6055ZM13.2715 47.4055L10.8461 44.2247L10.6483 44.3755L10.4706 44.5497L13.2715 47.4055ZM26.3715 37.1055L28.9143 40.1932L28.9205 40.188L26.3715 37.1055ZM34.0715 29.5055L30.8831 27.09V27.09L34.0715 29.5055ZM34.7715 17.7055L31.5548 20.083L31.6133 20.1622L31.6757 20.2384L34.7715 17.7055ZM23.8715 16.7055L26.0075 20.0874L26.0295 20.0735L26.0514 20.0592L23.8715 16.7055ZM20.9715 19.9055L24.5492 21.6943L24.5492 21.6943L20.9715 19.9055ZM19.5715 24.0055L23.3946 25.1818L23.4595 24.9708L23.5008 24.7539L19.5715 24.0055ZM18.1715 25.8055L16.3826 22.2278L16.3049 22.2666L16.2289 22.3088L18.1715 25.8055ZM2.17148 25.7055L-0.656945 28.5339L-0.656938 28.5339L2.17148 25.7055ZM1.57148 24.2055L-2.42765 24.1222L-2.42852 24.1638V24.2055H1.57148ZM3.57149 15.2055L-0.039957 13.4857L-0.0567999 13.5211L-0.0729465 13.5568L3.57149 15.2055ZM9.07148 7.80547L11.7706 10.7576L11.7744 10.7541L9.07148 7.80547ZM17.5715 2.70547L16.2166 -1.05808L16.2044 -1.05369L16.1922 -1.04921L17.5715 2.70547ZM43.1715 3.60546L41.507 7.2427L41.5185 7.24796L41.53 7.25315L43.1715 3.60546ZM52.2715 11.2055L48.8912 13.344L48.9012 13.3598L48.9113 13.3756L52.2715 11.2055ZM53.1715 31.7055L49.6105 29.8836L49.6021 29.9001L49.5938 29.9166L53.1715 31.7055ZM47.0715 39.8055L49.8629 42.6704L49.8639 42.6695L47.0715 39.8055ZM37.7715 47.7055L35.3526 44.5197L35.127 44.691L34.9278 44.8924L37.7715 47.7055ZM28.5715 57.0055L25.7278 54.1924L18.988 61.0055H28.5715V57.0055ZM56.0715 57.7055L53.2431 60.5339L53.3372 60.6281L53.4375 60.7158L56.0715 57.7055ZM56.0715 71.4055L53.4375 68.3952L53.3372 68.4829L53.2431 68.577L56.0715 71.4055ZM2.97148 68.1055C3.03581 68.1055 3.16638 68.1171 3.32931 68.1771C3.4943 68.2379 3.62268 68.3227 3.7055 68.3952L-1.56253 74.4158C-0.272723 75.5444 1.30617 76.1055 2.97148 76.1055V68.1055ZM3.89991 68.577C4.04866 68.7258 4.18501 68.9256 4.2745 69.1557C4.3608 69.3776 4.37148 69.5445 4.37148 69.6055H-3.62852C-3.62852 71.2705 -3.06042 72.9304 -1.75694 74.2339L3.89991 68.577ZM4.37148 69.6055V62.5055H-3.62852V69.6055H4.37148ZM4.37148 62.5055C4.37148 62.6177 4.35938 62.5966 4.40084 62.3789C4.43865 62.1804 4.50634 61.8937 4.61758 61.5044L-3.07461 59.3066C-3.35809 60.2988 -3.62852 61.4493 -3.62852 62.5055H4.37148ZM4.63642 61.4361C4.60277 61.5623 4.60862 61.3126 5.30129 60.7829L0.441682 54.428C-1.13232 55.6317 -2.52647 57.2486 -3.09346 59.3748L4.63642 61.4361ZM5.67232 60.4612L16.0723 50.2612L10.4706 44.5497L0.0706496 54.7497L5.67232 60.4612ZM15.6969 50.5863C21.0517 46.5032 25.4614 43.0368 28.9143 40.1932L23.8287 34.0177C20.4816 36.7742 16.1579 40.1744 10.8461 44.2247L15.6969 50.5863ZM28.9205 40.188C32.4964 37.2311 35.3271 34.4721 37.2599 31.9209L30.8831 27.09C29.4825 28.9388 27.1799 31.2465 23.8224 34.0229L28.9205 40.188ZM37.2599 31.9209C39.2347 29.3141 40.5715 26.4141 40.5715 23.3055H32.5715C32.5715 24.0635 32.2416 25.2969 30.8831 27.09L37.2599 31.9209ZM40.5715 23.3055C40.5715 20.3039 39.7612 17.4872 37.8673 15.1725L31.6757 20.2384C32.1818 20.857 32.5715 21.7737 32.5715 23.3055H40.5715ZM37.9882 15.3279C35.7783 12.338 32.2438 11.4055 28.7715 11.4055V19.4055C31.0325 19.4055 31.498 20.0062 31.5548 20.083L37.9882 15.3279ZM28.7715 11.4055C26.2326 11.4055 23.8017 11.9801 21.6915 13.3517L26.0514 20.0592C26.6079 19.6975 27.4437 19.4055 28.7715 19.4055V11.4055ZM21.7355 13.3235C19.8552 14.5111 18.3884 16.1273 17.3938 18.1166L24.5492 21.6943C24.8879 21.017 25.3544 20.4999 26.0075 20.0874L21.7355 13.3235ZM17.3938 18.1166C16.5702 19.7638 15.9807 21.4794 15.6421 23.257L23.5008 24.7539C23.6956 23.7315 24.0394 22.7138 24.5492 21.6943L17.3938 18.1166ZM15.7484 22.8291C15.7307 22.8864 15.7485 22.7983 15.8641 22.6497C15.9899 22.4879 16.1709 22.3336 16.3826 22.2278L19.9603 29.3832C21.8109 28.4579 22.8812 26.8504 23.3946 25.1818L15.7484 22.8291ZM16.2289 22.3088C16.2306 22.3079 16.2347 22.3058 16.2403 22.3036C16.246 22.3014 16.2501 22.3002 16.2513 22.2999C16.2525 22.2996 16.2479 22.3009 16.2361 22.3023C16.2242 22.3037 16.2031 22.3055 16.1715 22.3055V30.3055C17.5366 30.3055 18.8792 29.9881 20.1141 29.3021L16.2289 22.3088ZM16.1715 22.3055H3.67148V30.3055H16.1715V22.3055ZM3.67148 22.3055C3.82235 22.3055 4.05854 22.3322 4.33204 22.4416C4.61022 22.5528 4.83654 22.7137 4.99991 22.877L-0.656938 28.5339C0.542244 29.7331 2.08204 30.3055 3.67148 30.3055V22.3055ZM4.99991 22.877C5.16328 23.0404 5.32412 23.2667 5.43539 23.5449C5.5448 23.8184 5.57148 24.0546 5.57148 24.2055H-2.42852C-2.42852 25.7949 -1.85612 27.3347 -0.656945 28.5339L4.99991 22.877ZM5.57062 24.2888C5.6265 21.6063 6.18127 19.1412 7.21592 16.8541L-0.0729465 13.5568C-1.57164 16.8697 -2.3502 20.4046 -2.42765 24.1222L5.57062 24.2888ZM7.18293 16.9252C8.29008 14.6002 9.8104 12.5497 11.7706 10.7576L6.37241 4.85335C3.6659 7.32787 1.51955 10.2108 -0.039957 13.4857L7.18293 16.9252ZM11.7744 10.7541C13.764 8.93024 16.1395 7.49285 18.9508 6.46015L16.1922 -1.04921C12.4701 0.318082 9.17894 2.28069 6.36858 4.85685L11.7744 10.7541ZM18.9264 6.46902C21.7594 5.44914 25.0246 4.90547 28.7715 4.90547V-3.09453C24.2517 -3.09453 20.0503 -2.43821 16.2166 -1.05808L18.9264 6.46902ZM28.7715 4.90547C34.034 4.90547 38.2314 5.74369 41.507 7.2427L44.836 -0.03177C40.2449 -2.13276 34.8423 -3.09453 28.7715 -3.09453V4.90547ZM41.53 7.25315C44.9144 8.77611 47.2984 10.8264 48.8912 13.344L55.6518 9.0669C53.1113 5.05121 49.4286 2.03482 44.8129 -0.0422235L41.53 7.25315ZM48.9113 13.3756C50.5049 15.8431 51.3715 18.8331 51.3715 22.5055H59.3715C59.3715 17.5111 58.1714 12.9678 55.6316 9.03536L48.9113 13.3756ZM51.3715 22.5055C51.3715 25.1482 50.7843 27.5893 49.6105 29.8836L56.7325 33.5274C58.492 30.0883 59.3715 26.3961 59.3715 22.5055H51.3715ZM49.5938 29.9166C48.4275 32.2492 46.6848 34.5959 44.2791 36.9415L49.8639 42.6695C52.7915 39.8151 55.1155 36.7617 56.7492 33.4943L49.5938 29.9166ZM44.28 36.9405C41.8219 39.3357 38.8522 41.8626 35.3526 44.5197L40.1903 50.8913C43.8908 48.0816 47.1211 45.3419 49.8629 42.6704L44.28 36.9405ZM34.9278 44.8924L25.7278 54.1924L31.4152 59.8186L40.6152 50.5186L34.9278 44.8924ZM28.5715 61.0055H54.2715V53.0055H28.5715V61.0055ZM54.2715 61.0055C54.2106 61.0055 54.0436 60.9948 53.8217 60.9085C53.5916 60.819 53.3918 60.6826 53.2431 60.5339L58.8999 54.877C57.5964 53.5736 55.9365 53.0055 54.2715 53.0055V61.0055ZM53.4375 60.7158C53.3024 60.5976 53.137 60.4017 53.0162 60.13C52.897 59.8618 52.8715 59.6328 52.8715 59.5055H60.8715C60.8715 57.6645 60.1408 55.9511 58.7055 54.6952L53.4375 60.7158ZM52.8715 59.5055V69.6055H60.8715V59.5055H52.8715ZM52.8715 69.6055C52.8715 69.4781 52.897 69.2491 53.0162 68.9809C53.137 68.7092 53.3024 68.5134 53.4375 68.3952L58.7055 74.4158C60.1408 73.1599 60.8715 71.4464 60.8715 69.6055H52.8715ZM53.2431 68.577C53.3918 68.4283 53.5916 68.2919 53.8217 68.2025C54.0436 68.1161 54.2106 68.1055 54.2715 68.1055V76.1055C55.9365 76.1055 57.5964 75.5374 58.8999 74.2339L53.2431 68.577ZM54.2715 68.1055H2.97148V76.1055H54.2715V68.1055ZM67.4105 71.4055L70.239 68.577L67.4105 71.4055ZM67.4105 55.2055L70.239 58.0339L70.3332 57.9397L70.4209 57.8395L67.4105 55.2055ZM83.6105 55.2055L80.6002 57.8395L80.7758 58.0402L80.9765 58.2158L83.6105 55.2055ZM83.6105 71.4055L80.9765 68.3952L80.8763 68.4829L80.7821 68.577L83.6105 71.4055ZM69.2105 68.1055C69.2715 68.1055 69.4384 68.1161 69.6603 68.2025C69.8905 68.2919 70.0902 68.4283 70.239 68.577L64.5821 74.2339C65.8856 75.5374 67.5455 76.1055 69.2105 76.1055V68.1055ZM70.239 68.577C70.3877 68.7258 70.5241 68.9256 70.6136 69.1557C70.6999 69.3776 70.7105 69.5445 70.7105 69.6055H62.7105C62.7105 71.2705 63.2786 72.9304 64.5821 74.2339L70.239 68.577ZM70.7105 69.6055V56.9055H62.7105V69.6055H70.7105ZM70.7105 56.9055C70.7105 57.0484 70.6834 57.2627 70.5843 57.5035C70.4848 57.745 70.3501 57.9228 70.239 58.0339L64.5821 52.377C63.3568 53.6024 62.7105 55.19 62.7105 56.9055H70.7105ZM70.4209 57.8395C70.3027 57.9746 70.1068 58.14 69.8351 58.2607C69.5669 58.3799 69.3379 58.4055 69.2105 58.4055V50.4055C67.3696 50.4055 65.6561 51.1362 64.4002 52.5714L70.4209 57.8395ZM69.2105 58.4055H81.8105V50.4055H69.2105V58.4055ZM81.8105 58.4055C81.6832 58.4055 81.4542 58.3799 81.186 58.2607C80.9143 58.14 80.7184 57.9746 80.6002 57.8395L86.6208 52.5714C85.365 51.1362 83.6515 50.4055 81.8105 50.4055V58.4055ZM80.9765 58.2158C80.8827 58.1337 80.7217 57.9609 80.5913 57.6837C80.4579 57.4002 80.4105 57.1222 80.4105 56.9055H88.4105C88.4105 55.0054 87.5839 53.3671 86.2446 52.1952L80.9765 58.2158ZM80.4105 56.9055V69.6055H88.4105V56.9055H80.4105ZM80.4105 69.6055C80.4105 69.4781 80.4361 69.2491 80.5553 68.9809C80.6761 68.7092 80.8415 68.5134 80.9765 68.3952L86.2446 74.4158C87.6799 73.1599 88.4105 71.4464 88.4105 69.6055H80.4105ZM80.7821 68.577C80.9309 68.4283 81.1306 68.2919 81.3608 68.2025C81.5827 68.1161 81.7496 68.1055 81.8105 68.1055V76.1055C83.4756 76.1055 85.1355 75.5374 86.439 74.2339L80.7821 68.577ZM81.8105 68.1055H69.2105V76.1055H81.8105V68.1055Z" fill="#F26522" mask="url(#path-1-outside-1_22_58746)"/>
</svg>
