<svg width="206" height="194" viewBox="0 0 206 194" fill="none" xmlns="http://www.w3.org/2000/svg">
<path d="M95.6101 138.963C105.296 139.306 114.13 136.597 123.035 133.07C130.459 130.127 137.969 127.901 145.638 125.686C149.482 124.576 153.46 123.46 157.043 121.648C159.619 120.34 162.217 118.716 165.207 118.725C172.977 118.763 179.348 118.832 184.335 111.992C191.08 102.726 187.27 88.4163 185.084 78.2662C181.281 60.4316 177.35 42.6244 172.591 25.0159C171.972 22.7392 175.576 22.1715 176.19 24.4268C181.403 43.7452 185.664 63.3108 189.755 82.9129C191.945 93.3966 193.242 105.855 186.547 115.044C183.473 119.246 178.296 121.844 173.257 122.584C169.144 123.171 165.561 121.638 161.498 123.397C157.128 125.288 153.113 127.17 148.511 128.597C139.157 131.484 129.995 134.33 120.846 137.864C112.583 141.054 104.136 142.966 95.2422 142.677C92.884 142.6 93.2441 138.955 95.6024 139.032L95.6101 138.963Z" fill="#F26522"/>
<path d="M83.5982 177.322C84.2939 171.798 85.7328 166.518 87.4581 161.221C89.5333 154.846 88.8656 147.74 91.9247 141.69C92.2257 140.801 93.1416 140.494 93.9488 140.723C93.9488 140.723 93.9702 140.719 93.9961 140.735C94.1636 140.789 94.3098 140.847 94.4392 140.931C94.5168 140.981 94.5686 141.015 94.6462 141.065C94.7284 141.137 94.8106 141.208 94.876 141.306C94.9369 141.382 95.0023 141.48 95.0464 141.582C95.0905 141.684 95.1391 141.808 95.1664 141.936C95.1846 142.021 95.2073 142.128 95.2088 142.239C95.2269 142.324 95.2406 142.388 95.2588 142.473C94.8238 149.324 94.5169 156.147 93.4863 162.924C92.6934 168.201 91.4974 175.771 86.5659 178.897C85.3265 179.674 83.4015 179.014 83.615 177.296L83.5982 177.322Z" fill="#F26522"/>
<path d="M53.0874 144.152C52.6382 142.463 55.2505 141.326 56.2013 142.752C61.4297 150.536 66.9958 157.289 73.8495 163.7C75.2437 165.009 76.6379 166.317 77.9727 167.661C79.5085 169.006 80.9849 170.386 82.3759 171.785C82.7184 172.136 82.8475 172.532 82.8136 172.896C84.6426 175.093 86.2978 177.417 87.6694 179.979C88.3704 181.279 86.8209 182.903 85.487 182.295C78.5629 179.111 74.4 172.348 70.25 166.275C70.2105 166.194 70.1542 166.139 70.0979 166.084C70.0979 166.084 70.0674 166.046 70.0461 166.05C63.6477 159.787 55.4824 153.187 53.092 144.173L53.0874 144.152Z" fill="#F26522"/>
<path d="M9.21311 50.9539C12.0396 41.4076 19.6844 35.3168 28.69 31.9468C43.4093 26.3993 58.9792 24.8412 74.4022 22.4892C86.3709 20.673 98.5013 20.1383 110.379 17.8954C119.342 16.2073 128.229 14.2677 137.281 13.2073C151.638 11.5062 171.977 11.4962 176.065 28.8907C176.617 31.271 172.902 31.8401 172.359 29.5025C167.779 10.4286 139.09 16.5684 125.474 19.0258C117.723 20.4333 110 22.3924 102.156 23.262C86.1441 25.0482 70.1398 26.7659 54.2335 29.4663C41.2346 31.6806 24.0577 34.3842 15.996 46.0505C10.1648 54.4756 11.0702 66.1478 12.6633 75.7108C14.3261 85.7049 17.6101 95.3533 20.6505 105.009C24.409 116.987 25.4274 134.524 36.4754 142.405C42.2604 146.524 50.5154 142.667 56.6986 141.75C58.5133 141.475 59.5083 144.363 57.6415 144.917C47.899 147.864 38.2316 150.327 30.397 142.14C21.8075 133.132 20.5582 117.965 17.0214 106.608C11.5622 89.0599 3.73599 69.4068 9.20857 50.9326L9.21311 50.9539Z" fill="#F26522"/>
<path d="M32.8659 62.9052C35.824 57.3231 45.8792 57.0971 51.3279 56.292C63.1351 54.5549 74.5203 51.2574 86.4687 49.8693C98.789 48.4465 111.074 46.9643 123.267 44.6319C129.998 43.3529 136.805 42.7488 143.515 41.4743C149.344 40.3649 153.903 37.4749 160.028 38.0645C160.872 38.1522 161.685 38.8264 161.786 39.7193C161.814 39.9585 161.796 40.1855 161.803 40.4292C162.222 43.7524 162.031 46.9377 161.676 50.2921C161.447 52.4598 158.078 52.6651 157.802 50.4268C157.483 47.573 157.983 44.7902 157.917 41.9717C153.118 42.0583 148.791 44.2523 144.138 45.4451C138.215 46.9535 131.905 46.9608 125.906 48.2178C114.44 50.6179 102.804 52.0063 91.194 53.4115C85.0857 54.1565 78.9591 54.8161 72.8886 55.8429C67.4839 56.7501 62.3053 58.6126 56.931 59.5579C49.3199 60.8909 41.9945 61.4716 34.9663 64.9107C33.814 65.4686 32.1928 64.1416 32.8446 62.9098L32.8659 62.9052Z" fill="#F26522"/>
<path d="M31.6051 63.1256C33.9877 61.7477 35.3948 62.3844 37.0548 64.4169C37.9891 65.5559 36.7212 67.4543 35.3141 66.8176C33.9802 66.21 34.821 66.3875 35.2713 68.4995C35.5488 69.8008 35.8217 71.0808 36.0947 72.3608C56.5906 70.2653 76.9603 66.3232 97.3004 63.0788C117.619 59.8389 137.276 53.2833 157.732 50.7947C160.21 50.4894 160.844 54.3018 158.367 54.6071C137.919 57.1384 118.222 63.502 97.9364 67.0024C77.0276 70.6134 55.9129 74.5136 34.7924 76.6085C33.6345 76.7216 32.6936 76.0747 32.448 74.9227C31.7656 71.7227 31.0833 68.5227 30.4009 65.3228C30.1962 64.3628 30.8064 63.5636 31.5838 63.1302L31.6051 63.1256Z" fill="#F26522"/>
<path d="M42.2316 86.6492C52.2308 83.0227 63.4569 83.3722 73.9558 82.717C86.0408 81.9689 98.0597 78.7146 110.103 77.351C121.184 76.0808 132.704 75.6095 143.652 73.6095C150.903 72.2639 159.131 65.2459 166.641 67.1014C167.44 67.2881 167.858 68.2026 167.842 68.9643L167.937 69.4123C167.937 69.4123 168.012 69.5525 168.034 69.6592C168.489 71.7925 168.944 73.9258 169.399 76.0591C169.408 76.1018 169.396 76.149 169.41 76.213C169.473 76.5117 169.541 76.8317 169.605 77.1304C169.855 78.3037 169.073 79.0281 168.147 79.181C167.22 79.334 166.192 78.9063 165.942 77.733C165.897 77.5197 165.856 77.3277 165.81 77.1143C164.487 74.9878 164.024 72.923 164.011 70.5616C160.486 70.555 156.19 73.523 153.145 74.6184C148.959 76.1133 145.01 77.4682 140.581 78.0336C130.009 79.3956 119.329 80.2457 108.726 81.4584C97.9262 82.6907 87.3691 85.1649 76.5999 86.4354C67.2233 87.5427 57.9424 87.4252 48.7146 89.1253C49.1816 89.8509 48.207 90.9286 47.2885 90.7006C46.0183 90.3916 44.1731 90.629 42.7748 90.3472C41.0978 90.0134 40.2092 87.415 42.1767 86.7055L42.2316 86.6492Z" fill="#F26522"/>
<path d="M39.176 90.2486C39.0307 89.2536 39.7007 88.1072 40.7946 88.0077C41.7773 87.9097 42.4188 87.8844 43.3952 87.9661C45.0099 88.1125 45.1343 90.1601 43.8554 90.8566C43.7198 90.9525 43.575 91.0057 43.4348 91.0802C46.0285 97.9095 56.3635 95.1257 62.2022 94.3714C67.567 93.6958 73.0302 93.6906 78.4164 93.0104C84.6527 92.2382 90.8726 91.1795 97.0953 90.3433C120.884 87.1663 144.323 81.6109 168.163 78.7798C170.513 78.5018 171.106 82.1222 168.761 82.4215C155.126 84.0578 141.671 86.7484 128.206 89.2852C113.925 91.9735 99.5645 93.7645 85.1959 95.9362C74.6915 97.5071 63.886 98.6068 53.2804 99.2848C46.569 99.7123 40.2152 97.6324 39.176 90.2486Z" fill="#F26522"/>
<path d="M82.2674 112.463C82.4264 111.85 83.0972 111.439 83.6732 111.316C92.886 109.441 102.172 108.955 111.492 107.793C119.68 106.76 126.654 101.393 134.891 100.484C135.98 100.363 137.078 101.222 136.926 102.392C136.799 103.467 136.598 104.514 136.534 105.575C136.821 106.919 137.112 108.285 137.399 109.629C137.84 111.698 135.01 112.234 134.087 110.625C133.185 109.01 132.981 107.426 133.033 105.787C132.965 105.467 132.901 105.168 132.833 104.848C132.797 104.677 132.812 104.54 132.827 104.403C125.702 105.922 119.237 109.911 112.055 111.375C107.562 112.266 102.745 112.268 98.1859 112.749C95.5073 113.053 92.8424 113.42 90.1866 113.83C88.8502 114.048 87.5398 114.283 86.2126 114.544C84.4117 116.244 84.5776 117.859 86.7059 119.368C87.7251 119.44 87.9232 120.892 87.03 121.306C85.5668 121.975 84.5977 122.137 83.0061 121.785C82.2338 121.615 81.4878 121.149 81.3912 120.278C81.0953 117.531 81.5654 115.133 82.246 112.468L82.2674 112.463Z" fill="#F26522"/>
<path d="M85.425 118.092C86.919 117.149 88.6495 117.316 90.368 117.217C93.9164 117.018 97.4725 116.75 101.001 116.354C111.955 115.112 122.7 111.951 133.717 110.694C136.024 110.425 136.625 113.977 134.297 114.25C123.592 115.507 113.218 118.21 102.599 119.872C99.1233 120.413 95.5917 120.586 92.0951 120.818C90.2485 120.945 87.5955 121.577 85.8474 120.701C84.9475 120.246 84.3427 118.769 85.4463 118.088L85.425 118.092Z" fill="#F26522"/>
<path d="M95.8388 141.282C98.9861 138.469 104.057 137.879 108.022 137.123C115.029 135.784 121.728 134.356 128.496 131.998C136.074 129.357 143.555 126.892 151.222 124.565C159.183 122.154 167.517 120.867 175.527 118.58C177.693 117.962 178.224 121.395 176.101 122.003C161.251 126.308 146.348 129.218 131.789 134.575C125.981 136.728 120.088 138.587 113.976 139.734C109.473 140.582 103.525 140.825 99.3759 143.226C99.385 143.269 99.3896 143.29 99.3941 143.311C99.5317 144.375 98.4189 145.014 97.5389 144.443C97.5725 144.391 97.6319 144.356 97.6868 144.3C95.7665 145.022 94.2774 142.641 95.8343 141.26L95.8388 141.282Z" fill="#F26522"/>
</svg>
