<svg width="86" height="72" viewBox="0 0 86 72" fill="none" xmlns="http://www.w3.org/2000/svg">
<mask id="path-1-outside-1_22_58750" maskUnits="userSpaceOnUse" x="-4.5" y="-3.89453" width="95" height="79" fill="black">
<rect fill="white" x="-4.5" y="-3.89453" width="95" height="79"/>
<path d="M29.332 71.1055C24.132 71.1055 19.6987 70.5055 16.032 69.3055C12.3654 68.0388 9.36537 66.4388 7.03203 64.5055C4.6987 62.5055 2.96536 60.4055 1.83203 58.2055C0.698698 55.9388 0.098698 53.7721 0.0320314 51.7055C0.0320314 51.1055 0.232031 50.6055 0.632032 50.2055C1.0987 49.8055 1.63203 49.6055 2.23203 49.6055H15.232C16.032 49.6055 16.6654 49.7721 17.132 50.1055C17.5987 50.3721 18.032 50.8388 18.432 51.5055C18.9654 52.7721 19.732 53.8055 20.732 54.6055C21.7987 55.4055 23.0654 55.9721 24.532 56.3055C25.9987 56.5721 27.5987 56.7055 29.332 56.7055C32.732 56.7055 35.3654 55.9388 37.232 54.4055C39.1654 52.8055 40.132 50.6388 40.132 47.9055C40.132 45.0388 39.232 43.0055 37.432 41.8055C35.632 40.5388 33.0654 39.9055 29.732 39.9055H18.632C17.8987 39.9055 17.2987 39.6721 16.832 39.2055C16.3654 38.7388 16.132 38.1388 16.132 37.4055V31.8055C16.132 31.0055 16.2987 30.3055 16.632 29.7055C16.9654 29.1055 17.332 28.6721 17.732 28.4055L34.132 14.5055H6.33203C5.66536 14.5055 5.06536 14.2721 4.53203 13.8055C4.06536 13.3388 3.83203 12.7388 3.83203 12.0055V2.60547C3.83203 1.87213 4.06536 1.27213 4.53203 0.805467C5.06536 0.338798 5.66536 0.105464 6.33203 0.105464H52.332C53.0654 0.105464 53.6654 0.338798 54.132 0.805467C54.6654 1.27213 54.932 1.87213 54.932 2.60547V11.1055C54.932 11.8388 54.7654 12.5055 54.432 13.1055C54.0987 13.6388 53.732 14.0721 53.332 14.4055L38.132 28.5055L38.832 28.7055C42.632 29.1721 46.032 30.2055 49.032 31.8055C52.032 33.3388 54.3987 35.5055 56.132 38.3055C57.8654 41.1055 58.732 44.6721 58.732 49.0055C58.732 53.5388 57.432 57.4721 54.832 60.8055C52.2987 64.0721 48.832 66.6055 44.432 68.4055C40.032 70.2055 34.9987 71.1055 29.332 71.1055ZM70.65 70.1055C69.9167 70.1055 69.3167 69.8721 68.85 69.4055C68.3833 68.9388 68.15 68.3388 68.15 67.6055V54.9055C68.15 54.2388 68.3833 53.6721 68.85 53.2055C69.3167 52.6721 69.9167 52.4055 70.65 52.4055H83.25C83.9833 52.4055 84.5833 52.6721 85.05 53.2055C85.5833 53.6721 85.85 54.2388 85.85 54.9055V67.6055C85.85 68.3388 85.5833 68.9388 85.05 69.4055C84.5833 69.8721 83.9833 70.1055 83.25 70.1055H70.65Z"/>
</mask>
<path d="M16.032 69.3055L14.726 73.0862L14.7568 73.0969L14.7879 73.1071L16.032 69.3055ZM7.03203 64.5055L4.42887 67.5425L4.45423 67.5642L4.47996 67.5856L7.03203 64.5055ZM1.83203 58.2055L-1.74568 59.9943L-1.7349 60.0159L-1.72387 60.0373L1.83203 58.2055ZM0.0320313 51.7055H-3.96797V51.77L-3.96589 51.8344L0.0320313 51.7055ZM0.632031 50.2055L-1.97113 47.1684L-2.08777 47.2684L-2.1964 47.377L0.632031 50.2055ZM17.132 50.1055L14.8071 53.3604L14.9718 53.478L15.1475 53.5784L17.132 50.1055ZM18.432 51.5055L22.1186 49.9532L22.0083 49.6912L21.862 49.4475L18.432 51.5055ZM20.732 54.6055L18.2333 57.7289L18.282 57.768L18.332 57.8055L20.732 54.6055ZM24.532 56.3055L23.6455 60.206L23.7306 60.2253L23.8165 60.2409L24.532 56.3055ZM37.232 54.4055L39.771 57.4964L39.7767 57.4917L39.7823 57.487L37.232 54.4055ZM37.432 41.8055L35.1301 45.0767L35.1713 45.1057L35.2132 45.1337L37.432 41.8055ZM16.832 39.2055L14.0036 42.0339L14.0036 42.0339L16.832 39.2055ZM16.632 29.7055L20.1287 31.648L20.1287 31.648L16.632 29.7055ZM17.732 28.4055L19.9508 31.7337L20.1425 31.6059L20.3183 31.4569L17.732 28.4055ZM34.132 14.5055L36.7183 17.5569L45.038 10.5055H34.132V14.5055ZM4.53203 13.8055L1.7036 16.6339L1.79778 16.7281L1.89802 16.8158L4.53203 13.8055ZM4.53203 0.805467L1.89801 -2.20483L1.79778 -2.11714L1.70361 -2.02297L4.53203 0.805467ZM54.132 0.805467L51.3036 3.63388L51.3978 3.72807L51.498 3.81578L54.132 0.805467ZM54.432 13.1055L57.824 15.2255L57.8786 15.1381L57.9287 15.048L54.432 13.1055ZM53.332 14.4055L50.7713 11.3326L50.6896 11.4006L50.6117 11.4729L53.332 14.4055ZM38.132 28.5055L35.4117 25.5729L30.2068 30.4012L37.0332 32.3516L38.132 28.5055ZM38.832 28.7055L37.7332 32.5516L38.034 32.6375L38.3445 32.6756L38.832 28.7055ZM49.032 31.8055L47.1497 35.3349L47.1805 35.3513L47.2116 35.3672L49.032 31.8055ZM56.132 38.3055L59.5331 36.2001L59.5331 36.2L56.132 38.3055ZM54.832 60.8055L51.678 58.3453L51.6712 58.3542L54.832 60.8055ZM44.432 68.4055L42.9175 64.7033H42.9175L44.432 68.4055ZM29.332 67.1055C24.4176 67.1055 20.429 66.5357 17.2762 65.5039L14.7879 73.1071C18.9684 74.4752 23.8464 75.1055 29.332 75.1055V67.1055ZM17.3381 65.5247C14.0041 64.373 11.4601 62.9798 9.5841 61.4254L4.47996 67.5856C7.27059 69.8978 10.7266 71.7046 14.726 73.0862L17.3381 65.5247ZM9.6352 61.4684C7.60256 59.7262 6.23486 58.0177 5.38793 56.3736L-1.72387 60.0373C-0.304126 62.7933 1.79483 65.2848 4.42887 67.5425L9.6352 61.4684ZM5.40974 56.4166C4.47768 54.5525 4.07429 52.951 4.02995 51.5765L-3.96589 51.8344C-3.87689 54.5933 -3.08029 57.3251 -1.74568 59.9943L5.40974 56.4166ZM4.03203 51.7055C4.03203 51.8563 4.00534 52.0925 3.89594 52.366C3.78467 52.6442 3.62382 52.8705 3.46046 53.0339L-2.1964 47.377C-3.39558 48.5762 -3.96797 50.116 -3.96797 51.7055H4.03203ZM3.2352 53.2425C3.14161 53.3227 2.99118 53.424 2.78652 53.5008C2.58047 53.5781 2.3858 53.6055 2.23203 53.6055V45.6055C0.651991 45.6055 -0.798856 46.1636 -1.97113 47.1684L3.2352 53.2425ZM2.23203 53.6055H15.232V45.6055H2.23203V53.6055ZM15.232 53.6055C15.3613 53.6055 15.3684 53.6196 15.2891 53.5988C15.2023 53.5759 15.0205 53.5128 14.8071 53.3604L19.457 46.8505C18.0912 45.875 16.5458 45.6055 15.232 45.6055V53.6055ZM15.1475 53.5784C14.9711 53.4776 14.8854 53.3876 14.8759 53.3773C14.8703 53.3713 14.8801 53.3812 14.9032 53.4125C14.9262 53.4438 14.9597 53.4928 15.0021 53.5634L21.862 49.4475C21.2568 48.4388 20.3855 47.3576 19.1166 46.6325L15.1475 53.5784ZM14.7455 53.0577C15.5181 54.8926 16.6747 56.4821 18.2333 57.7289L23.2308 51.482C22.7894 51.1288 22.4126 50.6516 22.1186 49.9532L14.7455 53.0577ZM18.332 57.8055C19.9026 58.9834 21.701 59.7641 23.6455 60.206L25.4185 52.4049C24.4297 52.1802 23.6948 51.8275 23.132 51.4055L18.332 57.8055ZM23.8165 60.2409C25.5537 60.5568 27.3964 60.7055 29.332 60.7055V52.7055C27.801 52.7055 26.4437 52.5875 25.2476 52.37L23.8165 60.2409ZM29.332 60.7055C33.2864 60.7055 36.9463 59.8166 39.771 57.4964L34.6931 51.3146C33.7844 52.061 32.1776 52.7055 29.332 52.7055V60.7055ZM39.7823 57.487C42.7231 55.0533 44.132 51.7098 44.132 47.9055H36.132C36.132 49.5678 35.6077 50.5576 34.6818 51.3239L39.7823 57.487ZM44.132 47.9055C44.132 44.1843 42.913 40.652 39.6508 38.4773L35.2132 45.1337C35.5511 45.3589 36.132 45.8933 36.132 47.9055H44.132ZM39.734 38.5342C36.9946 36.6065 33.4909 35.9055 29.732 35.9055V43.9055C32.6398 43.9055 34.2695 44.4711 35.1301 45.0767L39.734 38.5342ZM29.732 35.9055H18.632V43.9055H29.732V35.9055ZM18.632 35.9055C18.693 35.9055 18.8599 35.9161 19.0818 36.0024C19.3119 36.0919 19.5117 36.2283 19.6605 36.377L14.0036 42.0339C15.3071 43.3374 16.967 43.9055 18.632 43.9055V35.9055ZM19.6605 36.377C19.8092 36.5258 19.9456 36.7256 20.0351 36.9557C20.1214 37.1776 20.132 37.3445 20.132 37.4055H12.132C12.132 39.0705 12.7001 40.7304 14.0036 42.0339L19.6605 36.377ZM20.132 37.4055V31.8055H12.132V37.4055H20.132ZM20.132 31.8055C20.132 31.6832 20.1447 31.6218 20.1483 31.607C20.1511 31.5949 20.1477 31.6138 20.1287 31.648L13.1354 27.7629C12.421 29.0489 12.132 30.439 12.132 31.8055H20.132ZM20.1287 31.648C20.1941 31.5302 20.226 31.496 20.2106 31.5142C20.1943 31.5335 20.1129 31.6257 19.9508 31.7337L15.5132 25.0773C14.4053 25.8159 13.6545 26.8286 13.1354 27.7629L20.1287 31.648ZM20.3183 31.4569L36.7183 17.5569L31.5458 11.454L15.1458 25.354L20.3183 31.4569ZM34.132 10.5055H6.33203V18.5055H34.132V10.5055ZM6.33203 10.5055C6.4767 10.5055 6.65316 10.533 6.83181 10.6024C7.00682 10.6705 7.11789 10.753 7.16605 10.7952L1.89802 16.8158C3.11056 17.8767 4.63209 18.5055 6.33203 18.5055V10.5055ZM7.36046 10.977C7.50921 11.1258 7.64555 11.3255 7.73505 11.5557C7.82135 11.7776 7.83203 11.9445 7.83203 12.0055H-0.167969C-0.167969 13.6705 0.400126 15.3304 1.7036 16.6339L7.36046 10.977ZM7.83203 12.0055V2.60547H-0.167969V12.0055H7.83203ZM7.83203 2.60547C7.83203 2.66639 7.82135 2.83334 7.73505 3.05525C7.64555 3.28538 7.5092 3.48515 7.36045 3.6339L1.70361 -2.02297C0.400122 -0.719485 -0.167969 0.940464 -0.167969 2.60547H7.83203ZM7.16606 3.81577C7.1179 3.8579 7.00683 3.94042 6.83182 4.00848C6.65317 4.07796 6.4767 4.10546 6.33203 4.10546V-3.89454C4.63208 -3.89454 3.11055 -3.26581 1.89801 -2.20483L7.16606 3.81577ZM6.33203 4.10546H52.332V-3.89454H6.33203V4.10546ZM52.332 4.10546C52.2711 4.10546 52.1042 4.09478 51.8822 4.00848C51.6521 3.91898 51.4523 3.78263 51.3036 3.63388L56.9605 -2.02295C55.657 -3.32644 53.997 -3.89454 52.332 -3.89454V4.10546ZM51.498 3.81578C51.3629 3.69759 51.1975 3.50173 51.0768 3.23002C50.9576 2.96182 50.932 2.73283 50.932 2.60547H58.932C58.932 0.764512 58.2014 -0.94896 56.766 -2.20485L51.498 3.81578ZM50.932 2.60547V11.1055H58.932V2.60547H50.932ZM50.932 11.1055C50.932 11.1371 50.9303 11.1582 50.9288 11.1701C50.9274 11.1819 50.9262 11.1865 50.9265 11.1853C50.9268 11.1841 50.9279 11.18 50.9302 11.1743C50.9324 11.1686 50.9345 11.1646 50.9354 11.1629L57.9287 15.048C58.6147 13.8132 58.932 12.4706 58.932 11.1055H50.932ZM51.04 10.9855C50.8863 11.2314 50.7859 11.3204 50.7713 11.3326L55.8928 17.4784C56.6782 16.8238 57.3111 16.0462 57.824 15.2255L51.04 10.9855ZM50.6117 11.4729L35.4117 25.5729L40.8524 31.438L56.0524 17.338L50.6117 11.4729ZM37.0332 32.3516L37.7332 32.5516L39.9309 24.8594L39.2309 24.6594L37.0332 32.3516ZM38.3445 32.6756C41.7175 33.0899 44.6348 33.9936 47.1497 35.3349L50.9144 28.2761C47.4293 26.4173 43.5465 25.2544 39.3196 24.7353L38.3445 32.6756ZM47.2116 35.3672C49.5775 36.5765 51.391 38.2463 52.731 40.4109L59.5331 36.2C57.4064 32.7646 54.4866 30.1011 50.8525 28.2437L47.2116 35.3672ZM52.731 40.4109C53.9673 42.4081 54.732 45.1863 54.732 49.0055H62.732C62.732 44.1579 61.7634 39.8029 59.5331 36.2001L52.731 40.4109ZM54.732 49.0055C54.732 52.7163 53.6889 55.7673 51.678 58.3453L57.986 63.2656C61.1752 59.1769 62.732 54.3613 62.732 49.0055H54.732ZM51.6712 58.3542C49.6284 60.9882 46.7673 63.1284 42.9175 64.7033L45.9466 72.1077C50.8968 70.0826 54.969 67.1561 57.9929 63.2568L51.6712 58.3542ZM42.9175 64.7033C39.0811 66.2727 34.577 67.1055 29.332 67.1055V75.1055C35.4204 75.1055 40.983 74.1382 45.9466 72.1077L42.9175 64.7033ZM68.85 69.4055L71.6784 66.577L68.85 69.4055ZM68.85 53.2055L71.6784 56.0339L71.7726 55.9397L71.8603 55.8395L68.85 53.2055ZM85.05 53.2055L82.0397 55.8395L82.2153 56.0402L82.416 56.2158L85.05 53.2055ZM85.05 69.4055L82.416 66.3952L82.3158 66.4829L82.2216 66.577L85.05 69.4055ZM70.65 66.1055C70.7109 66.1055 70.8779 66.1161 71.0998 66.2025C71.3299 66.2919 71.5297 66.4283 71.6784 66.577L66.0216 72.2339C67.3251 73.5374 68.985 74.1055 70.65 74.1055V66.1055ZM71.6784 66.577C71.8272 66.7258 71.9635 66.9256 72.053 67.1557C72.1393 67.3776 72.15 67.5445 72.15 67.6055H64.15C64.15 69.2705 64.7181 70.9304 66.0216 72.2339L71.6784 66.577ZM72.15 67.6055V54.9055H64.15V67.6055H72.15ZM72.15 54.9055C72.15 55.0484 72.1228 55.2627 72.0237 55.5035C71.9242 55.745 71.7895 55.9228 71.6784 56.0339L66.0216 50.377C64.7962 51.6024 64.15 53.19 64.15 54.9055H72.15ZM71.8603 55.8395C71.7421 55.9746 71.5463 56.14 71.2746 56.2607C71.0064 56.3799 70.7774 56.4055 70.65 56.4055V48.4055C68.8091 48.4055 67.0956 49.1362 65.8397 50.5714L71.8603 55.8395ZM70.65 56.4055H83.25V48.4055H70.65V56.4055ZM83.25 56.4055C83.1226 56.4055 82.8936 56.3799 82.6255 56.2607C82.3537 56.14 82.1579 55.9746 82.0397 55.8395L88.0603 50.5714C86.8044 49.1362 85.091 48.4055 83.25 48.4055V56.4055ZM82.416 56.2158C82.3222 56.1337 82.1612 55.9609 82.0307 55.6837C81.8973 55.4002 81.85 55.1222 81.85 54.9055H89.85C89.85 53.0054 89.0234 51.3671 87.684 50.1952L82.416 56.2158ZM81.85 54.9055V67.6055H89.85V54.9055H81.85ZM81.85 67.6055C81.85 67.4781 81.8756 67.2491 81.9948 66.9809C82.1155 66.7092 82.2809 66.5134 82.416 66.3952L87.684 72.4158C89.1193 71.1599 89.85 69.4464 89.85 67.6055H81.85ZM82.2216 66.577C82.3703 66.4283 82.5701 66.2919 82.8002 66.2025C83.0221 66.1161 83.1891 66.1055 83.25 66.1055V74.1055C84.915 74.1055 86.575 73.5374 87.8784 72.2339L82.2216 66.577ZM83.25 66.1055H70.65V74.1055H83.25V66.1055Z" fill="#F26522" mask="url(#path-1-outside-1_22_58750)"/>
</svg>
