<svg width="89" height="71" viewBox="0 0 89 71" fill="none" xmlns="http://www.w3.org/2000/svg">
<mask id="path-1-outside-1_22_58754" maskUnits="userSpaceOnUse" x="-4" y="-3.89453" width="97" height="78" fill="black">
<rect fill="white" x="-4" y="-3.89453" width="97" height="78"/>
<path d="M36.9508 70.1055C36.2841 70.1055 35.6841 69.8721 35.1508 69.4055C34.6841 68.9388 34.4508 68.3388 34.4508 67.6055V56.3055H3.35078C2.68411 56.3055 2.08411 56.0721 1.55078 55.6055C1.08411 55.1388 0.850781 54.5388 0.850781 53.8055V44.3055C0.850781 43.7055 0.950781 43.1721 1.15078 42.7055C1.41745 42.1721 1.68411 41.6721 1.95078 41.2055L31.0508 1.80547C31.9174 0.672131 33.1508 0.105464 34.7508 0.105464H49.2508C49.9841 0.105464 50.5841 0.338798 51.0508 0.805467C51.5841 1.27213 51.8508 1.87213 51.8508 2.60547V41.4055H60.6508C61.4508 41.4055 62.0841 41.6721 62.5508 42.2055C63.0174 42.6721 63.2508 43.2388 63.2508 43.9055V53.8055C63.2508 54.5388 62.9841 55.1388 62.4508 55.6055C61.9841 56.0721 61.4175 56.3055 60.7508 56.3055H51.8508V67.6055C51.8508 68.3388 51.5841 68.9388 51.0508 69.4055C50.5841 69.8721 49.9841 70.1055 49.2508 70.1055H36.9508ZM18.0508 42.1055H34.8508V18.5055L18.0508 42.1055ZM73.4313 70.1055C72.6979 70.1055 72.0979 69.8721 71.6313 69.4055C71.1646 68.9388 70.9313 68.3388 70.9313 67.6055V54.9055C70.9313 54.2388 71.1646 53.6721 71.6313 53.2055C72.0979 52.6721 72.6979 52.4055 73.4313 52.4055H86.0313C86.7646 52.4055 87.3646 52.6721 87.8313 53.2055C88.3646 53.6721 88.6313 54.2388 88.6313 54.9055V67.6055C88.6313 68.3388 88.3646 68.9388 87.8313 69.4055C87.3646 69.8721 86.7646 70.1055 86.0313 70.1055H73.4313Z"/>
</mask>
<path d="M35.1508 69.4055L32.3224 72.2339L32.4165 72.3281L32.5168 72.4158L35.1508 69.4055ZM34.4508 56.3055H38.4508V52.3055H34.4508V56.3055ZM1.55078 55.6055L-1.27765 58.4339L-1.18347 58.5281L-1.08324 58.6158L1.55078 55.6055ZM1.15078 42.7055L-2.42693 40.9166L-2.47949 41.0217L-2.5258 41.1298L1.15078 42.7055ZM1.95078 41.2055L-1.26677 38.8291L-1.40596 39.0175L-1.52219 39.2209L1.95078 41.2055ZM31.0508 1.80547L27.8734 -0.624334L27.8531 -0.59781L27.8332 -0.57095L31.0508 1.80547ZM51.0508 0.805467L48.2224 3.63389L48.3165 3.72807L48.4168 3.81578L51.0508 0.805467ZM51.8508 41.4055H47.8508V45.4055H51.8508V41.4055ZM62.5508 42.2055L59.5405 44.8395L59.6282 44.9397L59.7224 45.0339L62.5508 42.2055ZM62.4508 55.6055L59.8168 52.5952L59.7165 52.6829L59.6224 52.777L62.4508 55.6055ZM51.8508 56.3055V52.3055H47.8508V56.3055H51.8508ZM51.0508 69.4055L48.4168 66.3952L48.3165 66.4829L48.2224 66.577L51.0508 69.4055ZM18.0508 42.1055L14.7921 39.7857L10.2933 46.1055H18.0508V42.1055ZM34.8508 42.1055V46.1055H38.8508V42.1055H34.8508ZM34.8508 18.5055H38.8508V5.98905L31.5921 16.1857L34.8508 18.5055ZM36.9508 66.1055C37.0955 66.1055 37.2719 66.133 37.4506 66.2025C37.6256 66.2705 37.7366 66.353 37.7848 66.3952L32.5168 72.4158C33.7293 73.4768 35.2508 74.1055 36.9508 74.1055V66.1055ZM37.9792 66.577C38.128 66.7258 38.2643 66.9256 38.3538 67.1557C38.4401 67.3776 38.4508 67.5445 38.4508 67.6055H30.4508C30.4508 69.2705 31.0189 70.9304 32.3224 72.2339L37.9792 66.577ZM38.4508 67.6055V56.3055H30.4508V67.6055H38.4508ZM34.4508 52.3055H3.35078V60.3055H34.4508V52.3055ZM3.35078 52.3055C3.49545 52.3055 3.67191 52.333 3.85057 52.4025C4.02558 52.4705 4.13664 52.553 4.1848 52.5952L-1.08324 58.6158C0.129305 59.6768 1.65084 60.3055 3.35078 60.3055V52.3055ZM4.37921 52.777C4.52795 52.9258 4.6643 53.1255 4.7538 53.3557C4.8401 53.5776 4.85078 53.7445 4.85078 53.8055H-3.14922C-3.14922 55.4705 -2.58113 57.1304 -1.27765 58.4339L4.37921 52.777ZM4.85078 53.8055V44.3055H-3.14922V53.8055H4.85078ZM4.85078 44.3055C4.85078 44.2271 4.85734 44.1923 4.85727 44.1926C4.85721 44.1929 4.85556 44.2016 4.85084 44.2174C4.84608 44.2332 4.8386 44.2549 4.82736 44.2811L-2.5258 41.1298C-2.97433 42.1764 -3.14922 43.2607 -3.14922 44.3055H4.85078ZM4.72849 44.4943C4.96558 44.0201 5.19751 43.5859 5.42375 43.19L-1.52219 39.2209C-1.82928 39.7583 -2.13069 40.3241 -2.42693 40.9166L4.72849 44.4943ZM5.16833 43.5819L34.2683 4.18188L27.8332 -0.57095L-1.26677 38.8291L5.16833 43.5819ZM34.2282 4.23527C34.2631 4.18962 34.2836 4.17292 34.2863 4.17069C34.2884 4.16905 34.2891 4.16825 34.2958 4.16517C34.3032 4.16176 34.4253 4.10546 34.7508 4.10546V-3.89454C32.0779 -3.89454 29.5961 -2.87715 27.8734 -0.624334L34.2282 4.23527ZM34.7508 4.10546H49.2508V-3.89454H34.7508V4.10546ZM49.2508 4.10546C49.1899 4.10546 49.0229 4.09478 48.801 4.00848C48.5709 3.91899 48.3711 3.78264 48.2224 3.63389L53.8792 -2.02296C52.5757 -3.32644 50.9158 -3.89454 49.2508 -3.89454V4.10546ZM48.4168 3.81578C48.2817 3.69759 48.1163 3.50173 47.9955 3.23002C47.8763 2.96182 47.8508 2.73283 47.8508 2.60547H55.8508C55.8508 0.764512 55.1201 -0.94896 53.6848 -2.20485L48.4168 3.81578ZM47.8508 2.60547V41.4055H55.8508V2.60547H47.8508ZM51.8508 45.4055H60.6508V37.4055H51.8508V45.4055ZM60.6508 45.4055C60.6042 45.4055 60.4221 45.3967 60.1736 45.292C59.9128 45.1822 59.6941 45.015 59.5405 44.8395L65.5611 39.5714C64.2322 38.0527 62.4386 37.4055 60.6508 37.4055V45.4055ZM59.7224 45.0339C59.6113 44.9228 59.4765 44.745 59.3771 44.5035C59.2779 44.2627 59.2508 44.0484 59.2508 43.9055H67.2508C67.2508 42.19 66.6045 40.6024 65.3792 39.377L59.7224 45.0339ZM59.2508 43.9055V53.8055H67.2508V43.9055H59.2508ZM59.2508 53.8055C59.2508 53.6781 59.2763 53.4491 59.3955 53.1809C59.5163 52.9092 59.6817 52.7134 59.8168 52.5952L65.0848 58.6158C66.5201 57.3599 67.2508 55.6464 67.2508 53.8055H59.2508ZM59.6224 52.777C59.7334 52.666 59.9112 52.5312 60.1528 52.4318C60.3935 52.3326 60.6079 52.3055 60.7508 52.3055V60.3055C62.4662 60.3055 64.0539 59.6592 65.2792 58.4339L59.6224 52.777ZM60.7508 52.3055H51.8508V60.3055H60.7508V52.3055ZM47.8508 56.3055V67.6055H55.8508V56.3055H47.8508ZM47.8508 67.6055C47.8508 67.4781 47.8763 67.2491 47.9955 66.9809C48.1163 66.7092 48.2817 66.5133 48.4168 66.3952L53.6848 72.4158C55.1201 71.1599 55.8508 69.4464 55.8508 67.6055H47.8508ZM48.2224 66.577C48.3711 66.4283 48.5709 66.2919 48.801 66.2025C49.0229 66.1161 49.1899 66.1055 49.2508 66.1055V74.1055C50.9158 74.1055 52.5757 73.5374 53.8792 72.2339L48.2224 66.577ZM49.2508 66.1055H36.9508V74.1055H49.2508V66.1055ZM18.0508 46.1055H34.8508V38.1055H18.0508V46.1055ZM38.8508 42.1055V18.5055H30.8508V42.1055H38.8508ZM31.5921 16.1857L14.7921 39.7857L21.3094 44.4252L38.1094 20.8252L31.5921 16.1857ZM71.6312 69.4055L74.4597 66.577L71.6312 69.4055ZM71.6312 53.2055L74.4597 56.0339L74.5539 55.9397L74.6416 55.8395L71.6312 53.2055ZM87.8313 53.2055L84.8209 55.8395L84.9965 56.0402L85.1972 56.2158L87.8313 53.2055ZM87.8313 69.4055L85.1972 66.3952L85.097 66.4829L85.0028 66.577L87.8313 69.4055ZM73.4313 66.1055C73.4922 66.1055 73.6591 66.1161 73.881 66.2025C74.1112 66.2919 74.3109 66.4283 74.4597 66.577L68.8028 72.2339C70.1063 73.5374 71.7662 74.1055 73.4313 74.1055V66.1055ZM74.4597 66.577C74.6084 66.7258 74.7448 66.9256 74.8343 67.1557C74.9206 67.3776 74.9313 67.5445 74.9313 67.6055H66.9313C66.9313 69.2705 67.4993 70.9304 68.8028 72.2339L74.4597 66.577ZM74.9313 67.6055V54.9055H66.9313V67.6055H74.9313ZM74.9313 54.9055C74.9313 55.0484 74.9041 55.2627 74.805 55.5035C74.7055 55.745 74.5708 55.9228 74.4597 56.0339L68.8028 50.377C67.5775 51.6024 66.9313 53.19 66.9313 54.9055H74.9313ZM74.6416 55.8395C74.5234 55.9746 74.3275 56.14 74.0558 56.2607C73.7876 56.3799 73.5586 56.4055 73.4313 56.4055V48.4055C71.5903 48.4055 69.8768 49.1362 68.6209 50.5714L74.6416 55.8395ZM73.4313 56.4055H86.0312V48.4055H73.4313V56.4055ZM86.0312 56.4055C85.9039 56.4055 85.6749 56.3799 85.4067 56.2607C85.135 56.14 84.9391 55.9746 84.8209 55.8395L90.8416 50.5714C89.5857 49.1362 87.8722 48.4055 86.0312 48.4055V56.4055ZM85.1972 56.2158C85.1034 56.1337 84.9425 55.9609 84.812 55.6837C84.6786 55.4002 84.6312 55.1222 84.6312 54.9055H92.6312C92.6312 53.0054 91.8046 51.3671 90.4653 50.1952L85.1972 56.2158ZM84.6312 54.9055V67.6055H92.6312V54.9055H84.6312ZM84.6312 67.6055C84.6312 67.4781 84.6568 67.2491 84.776 66.9809C84.8968 66.7092 85.0622 66.5134 85.1972 66.3952L90.4653 72.4158C91.9006 71.1599 92.6312 69.4464 92.6312 67.6055H84.6312ZM85.0028 66.577C85.1516 66.4283 85.3513 66.2919 85.5815 66.2025C85.8034 66.1161 85.9703 66.1055 86.0312 66.1055V74.1055C87.6963 74.1055 89.3562 73.5374 90.6597 72.2339L85.0028 66.577ZM86.0312 66.1055H73.4313V74.1055H86.0312V66.1055Z" fill="#F26522" mask="url(#path-1-outside-1_22_58754)"/>
</svg>
