<svg width="284" height="278" viewBox="0 0 284 278" fill="none" xmlns="http://www.w3.org/2000/svg">
<path d="M143.396 37.7198C157.525 33.7313 172.609 35.214 186.179 40.5686C200.271 46.1316 212.362 55.6522 222.704 66.5749C233.161 77.6207 242.429 90.1948 249.476 103.688C256.48 117.102 261.016 132.192 259.699 147.448C258.487 161.484 252.014 174.385 243.345 185.292C234.294 196.681 223.025 206.335 211.422 215.032C198.231 224.919 183.837 234.041 168.045 239.094C154.286 243.496 139.885 245.09 125.52 243.392C112.408 241.844 99.6932 237.678 88.0743 231.439C76.2605 225.094 65.6861 216.563 57.2955 206.072C48.4673 195.032 42.3865 182.122 38.9698 168.443C35.6245 155.043 34.9544 140.784 37.0786 127.136C39.2345 113.287 44.3671 100.123 52.1417 88.4681C59.6553 77.2046 69.5904 67.4452 80.8792 59.9847C92.3929 52.3772 105.338 47.0374 118.932 44.5891C132.592 42.1285 146.825 42.77 160.307 45.9708C167.287 47.6286 174.117 49.8743 180.693 52.7438C183.836 54.1149 186.921 55.6243 189.938 57.2574C190.657 57.6459 191.372 58.0421 192.082 58.4461C192.461 58.661 192.84 58.8778 193.215 59.0978C193.267 59.1284 194.704 59.9753 193.78 59.4309C194.211 59.6849 194.643 59.9364 195.074 60.1905C196.572 61.0783 198.049 62.0048 199.506 62.9609C211.293 70.6889 221.735 80.4827 230.148 91.7955C238.587 103.14 244.97 115.98 248.469 129.694C251.896 143.129 252.421 157.366 249.306 170.921C246.135 184.72 239.48 197.532 230.512 208.453C221.944 218.884 211.373 227.645 199.673 234.353C198.165 235.217 196.639 236.058 195.099 236.863C194.389 237.233 193.677 237.594 192.96 237.949C192.65 238.103 192.341 238.287 192.017 238.408C191.972 238.43 191.928 238.451 191.882 238.473C192.281 238.237 192.237 238.258 191.75 238.535C191.439 238.708 191.129 238.858 190.806 239.003C187.886 240.303 184.904 241.462 181.881 242.5C175.695 244.625 169.314 246.244 162.869 247.352C156.595 248.431 150.238 248.984 143.874 249.035C143.474 249.04 143.073 249.04 142.671 249.04C142.43 249.039 142.186 249.038 141.945 249.037C142.145 249.039 140.817 249.014 141.344 249.028C141.893 249.044 140.74 249.018 140.47 249.018C140.27 249.016 140.07 249.015 139.87 249.012C139.419 249.007 138.966 249.002 138.516 248.998C136.962 248.982 135.407 248.935 133.855 248.859C130.654 248.701 127.46 248.414 124.28 247.998C111.559 246.33 98.8348 242.677 87.424 236.762C75.3994 230.53 64.8672 222.123 55.7025 212.181C46.6615 202.374 39.4086 190.969 34.1858 178.704C32.9166 175.724 31.7677 172.693 30.7434 169.621C30.2226 168.062 29.7354 166.491 29.2802 164.912C29.068 164.172 28.8598 163.431 28.6611 162.684C28.5538 162.288 28.4506 161.89 28.3499 161.493C28.2245 161.01 28.2385 160.401 27.9702 160.003C27.9075 159.754 27.9193 159.802 28.0048 160.153C28.1751 160.853 28.096 160.555 27.7715 159.256C26.2328 152.922 25.1927 146.464 24.7131 139.962C24.2134 133.171 24.2246 126.277 25.0169 119.51C25.3998 116.251 25.9306 113.008 26.6139 109.798C26.6889 109.446 26.7633 109.093 26.8436 108.744C26.855 108.693 26.8669 108.644 26.8764 108.594C27.2388 107.277 27.3176 106.976 27.1177 107.687C27.1727 108.288 27.0651 107.837 27.131 107.544C27.3111 106.742 27.5121 105.944 27.7222 105.148C28.2319 103.224 28.7651 101.307 29.3628 99.41C33.5456 86.1282 40.4459 73.3541 49.7308 62.9391C59.745 51.7073 72.5698 43.5025 87.0473 39.3207C102.318 34.9073 118.476 34.4388 134.177 36.4978C148.59 38.3877 162.9 42.3039 176.226 48.1236C189.222 53.7991 201.503 61.4551 211.825 71.218C222.823 81.6205 231.512 94.3021 236.815 108.514C242.041 122.521 243.946 137.931 241.215 152.694C238.899 165.199 233.57 176.998 226.132 187.282C218.656 197.617 209.115 206.456 198.698 213.764C188.092 221.205 176.455 227.4 164.315 231.936C149.436 237.496 133.302 241.632 117.313 239.747C110.666 238.964 104.356 237.157 98.2229 234.519C95.1355 233.19 92.175 231.176 89.548 229.084C86.8418 226.928 84.3852 224.431 82.2396 221.717C80.9894 220.135 81.3492 217.469 83.036 216.328C84.8085 215.129 87.085 215.431 88.4255 217.124C88.9124 217.74 89.4159 218.338 89.9392 218.921C90.1819 219.192 90.432 219.459 90.6802 219.727C91.1848 220.268 90.7023 219.751 90.6079 219.656C90.7923 219.838 90.9753 220.022 91.1618 220.203C92.318 221.321 93.5413 222.37 94.8212 223.344C96.1074 224.326 97.4546 225.194 98.8198 226.057C99.313 226.369 98.2148 225.718 98.7243 226.004C98.8611 226.08 98.9964 226.158 99.1317 226.236C99.4962 226.44 99.862 226.641 100.231 226.837C100.415 226.934 100.604 227.027 100.787 227.127C100.875 227.176 102.386 228.01 101.328 227.456C101.699 227.651 102.071 227.844 102.448 228.031C105.375 229.488 108.426 230.606 111.552 231.541C111.676 231.577 112.213 231.725 111.572 231.55C111.777 231.604 111.981 231.659 112.187 231.71C112.545 231.801 112.904 231.889 113.265 231.974C114.089 232.168 114.915 232.322 115.749 232.462C117.356 232.731 118.974 232.929 120.598 233.06C128.049 233.66 135.938 232.781 143.55 231.101C147.247 230.287 150.751 229.297 154.557 228.078C157.795 227.04 161.003 225.906 164.177 224.688C170.011 222.448 175.715 219.868 181.239 216.95C181.865 216.618 182.489 216.283 183.11 215.944C183.223 215.884 184.223 215.328 183.701 215.621C184.055 215.422 184.408 215.223 184.76 215.022C186.124 214.245 187.474 213.443 188.812 212.621C191.478 210.982 194.083 209.241 196.623 207.414C199.148 205.599 201.608 203.695 203.994 201.7C205.179 200.709 206.345 199.695 207.491 198.659C208.042 198.16 208.59 197.654 209.134 197.144C209.387 196.907 209.637 196.668 209.89 196.428C210.033 196.292 210.176 196.153 210.319 196.017C211.002 195.358 210.069 196.266 210.458 195.881C214.776 191.611 218.758 186.997 222.247 182.02C223.109 180.79 223.94 179.54 224.741 178.266C225.127 177.652 225.502 177.032 225.875 176.411C226.065 176.094 225.851 176.455 225.823 176.502C225.921 176.335 226.018 176.168 226.113 176C226.329 175.623 226.543 175.243 226.753 174.863C228.203 172.245 229.511 169.547 230.661 166.783C231.238 165.397 231.776 163.995 232.271 162.579C232.495 161.938 232.709 161.292 232.902 160.64C233.012 160.268 233.129 159.896 233.239 159.521C233.293 159.334 233.348 159.147 233.401 158.96C233.419 158.895 233.625 158.16 233.532 158.502C233.447 158.811 233.574 158.344 233.579 158.324C233.628 158.133 233.677 157.946 233.726 157.756C233.824 157.376 233.917 156.998 234.007 156.616C234.19 155.852 234.36 155.085 234.518 154.317C234.831 152.797 235.096 151.269 235.31 149.731C235.568 147.897 235.755 146.053 235.872 144.203C235.98 142.505 236.027 140.855 236.011 139.49C235.974 135.918 235.682 132.347 235.159 128.811C234.104 121.698 232.29 115.416 229.427 108.625C228.726 106.96 227.974 105.315 227.177 103.695C226.791 102.909 226.394 102.129 225.985 101.354C225.767 100.941 225.545 100.53 225.323 100.118C225.32 100.11 225.041 99.6061 225.207 99.9037C225.382 100.218 224.952 99.4538 224.916 99.3882C223.125 96.2447 221.154 93.2026 219.018 90.2796C216.886 87.362 214.6 84.5534 212.166 81.8831C211.583 81.2449 210.993 80.6156 210.393 79.9932C210.319 79.9167 209.832 79.4159 210.158 79.7501C210.459 80.0567 210.073 79.6639 210.037 79.6287C209.686 79.2777 209.336 78.9267 208.981 78.5794C207.761 77.3858 206.513 76.2201 205.24 75.0856C200.144 70.5522 194.62 66.5105 188.802 62.9548C188.473 62.7539 188.142 62.5536 187.812 62.3573C187.624 62.2443 187.433 62.1319 187.244 62.0189C186.739 61.7167 187.761 62.3135 187.25 62.0217C186.484 61.5837 185.72 61.1451 184.948 60.7174C183.45 59.8904 181.937 59.0937 180.408 58.3254C177.343 56.7865 174.219 55.3687 171.048 54.0664C167.869 52.7617 164.645 51.5595 161.379 50.4948C159.796 49.9785 158.21 49.4805 156.613 49.0118C155.815 48.7784 155.013 48.5502 154.212 48.3286C154.108 48.2997 153.432 48.1158 153.886 48.2374C154.34 48.3591 153.663 48.1778 153.56 48.1509C153.078 48.0241 152.595 47.8979 152.113 47.7757C145.162 46.0056 138.088 44.6872 130.955 43.9111C127.187 43.5006 123.4 43.2451 119.61 43.1599C119.12 43.1483 118.633 43.1448 118.144 43.1352C117.697 43.1268 118.157 43.1338 118.233 43.1337C117.989 43.1319 117.744 43.1327 117.501 43.133C116.528 43.1365 115.55 43.1391 114.576 43.173C112.693 43.2376 110.81 43.3371 108.932 43.487C105.196 43.7858 101.473 44.2759 97.7938 44.9858C96.9076 45.1575 96.0243 45.3392 95.1435 45.5374C94.7335 45.629 94.3221 45.7231 93.9138 45.8206C93.6803 45.8767 93.4468 45.9328 93.2138 45.9909C92.9242 46.0631 92.44 46.1911 92.997 46.0444C91.2037 46.5196 89.4232 47.0388 87.6616 47.6242C84.1424 48.794 80.7023 50.2014 77.3842 51.8604C76.5793 52.2627 75.7816 52.6825 74.9907 53.1111C74.8515 53.1857 74.3016 53.5083 74.9847 53.1128C74.8283 53.2032 74.6714 53.2916 74.515 53.382C74.0453 53.6513 73.5778 53.9286 73.1156 54.2087C71.6197 55.1151 70.157 56.0771 68.7331 57.091C66.0208 59.0233 63.4431 61.145 61.0177 63.427C60.746 63.6829 60.4542 63.9294 60.2014 64.2059C60.993 63.3408 60.0405 64.3714 59.8702 64.5417C59.2658 65.1513 58.6709 65.7711 58.0874 66.4007C56.9546 67.6198 55.8591 68.878 54.802 70.1643C52.7162 72.7071 50.7803 75.3718 48.9961 78.1341C48.5755 78.7864 47.8518 79.593 47.6138 80.3297C47.6132 80.3277 48.0527 79.5744 47.8101 80.0303C47.7083 80.2201 47.5941 80.4048 47.4871 80.5917C47.2459 81.0146 47.0067 81.437 46.7733 81.8642C45.9891 83.285 45.2417 84.7277 44.5312 86.1859C43.0583 89.2084 41.7418 92.3075 40.5828 95.4635C40.0019 97.0408 39.4607 98.635 38.9567 100.238C38.7124 101.013 38.4799 101.792 38.2545 102.573C38.136 102.984 38.0436 103.419 37.9015 103.824C37.9393 103.714 38.1831 102.763 37.9703 103.572C37.9181 103.776 37.8633 103.979 37.811 104.182C36.2192 110.34 35.1815 116.637 34.713 122.981C34.5962 124.564 34.4845 126.15 34.4092 127.734C34.3732 128.502 34.3433 129.268 34.3245 130.035C34.3137 130.444 34.3055 130.854 34.2993 131.264C34.2975 131.417 34.2942 131.572 34.2923 131.724C34.2836 132.488 34.3647 131.946 34.2921 131.527C34.4146 132.249 34.2979 133.099 34.3115 133.835C34.3275 134.655 34.3521 135.475 34.3852 136.294C34.4498 137.882 34.5473 139.471 34.6781 141.055C35.2014 147.398 36.2537 153.695 37.7858 159.871C37.8342 160.069 37.8891 160.268 37.9354 160.468C37.9395 160.482 37.6861 159.515 37.8235 160.025C37.9308 160.421 38.0321 160.82 38.1419 161.218C38.3565 162.012 38.5816 162.805 38.8122 163.594C39.2616 165.123 39.741 166.644 40.2506 168.156C41.2685 171.176 42.4076 174.157 43.6625 177.087C44.9167 180.016 46.2867 182.894 47.7695 185.711C47.9369 186.03 48.1057 186.346 48.2765 186.662C48.8289 187.68 47.9651 186.113 48.3701 186.837C48.7163 187.454 49.0313 188.075 49.3675 188.695C49.4875 188.917 49.8198 189.41 49.2435 188.474C49.3522 188.649 49.4461 188.833 49.5475 189.012C50.359 190.442 51.2028 191.856 52.0739 193.251C55.415 198.598 59.1863 203.674 63.3662 208.397C64.4165 209.584 65.4971 210.742 66.5935 211.886C67.1176 212.434 66.556 211.868 66.4834 211.774C66.6004 211.925 66.7888 212.075 66.9214 212.204C67.1775 212.454 67.4377 212.703 67.6958 212.952C68.2865 213.521 68.8853 214.08 69.4891 214.634C71.8345 216.781 74.2755 218.822 76.8052 220.749C79.3203 222.663 81.9215 224.461 84.6026 226.136C85.2395 226.533 85.882 226.919 86.5252 227.308C86.7009 227.413 87.1884 227.721 86.3873 227.228C86.5585 227.333 86.7339 227.43 86.9074 227.528C87.2555 227.728 87.603 227.925 87.9519 228.12C89.3039 228.877 90.6735 229.604 92.0584 230.3C97.5971 233.086 103.299 235.479 109.213 237.347C109.926 237.572 110.642 237.79 111.36 238.001C111.695 238.1 112.031 238.197 112.366 238.292C112.546 238.342 113.863 238.705 113.039 238.483C114.537 238.885 116.044 239.258 117.557 239.599C120.583 240.283 123.637 240.844 126.709 241.285C129.781 241.726 132.869 242.045 135.965 242.244C137.513 242.343 139.064 242.426 140.614 242.448C140.764 242.45 140.915 242.453 141.065 242.453C141.584 242.454 140.602 242.46 141.12 242.448C141.471 242.439 141.82 242.439 142.17 242.434C142.972 242.423 143.772 242.404 144.574 242.376C150.778 242.168 156.973 241.484 163.076 240.339C164.602 240.053 166.122 239.737 167.633 239.391C168.364 239.224 169.095 239.047 169.822 238.867C170.463 238.709 169.966 238.832 169.837 238.865C170.031 238.816 170.225 238.764 170.417 238.714C170.804 238.611 171.189 238.51 171.575 238.403C174.564 237.585 177.519 236.649 180.432 235.592C186.231 233.489 191.944 230.993 197.376 228.062C197.728 227.872 198.077 227.681 198.425 227.488C197.908 227.775 198.702 227.328 198.854 227.243C199.55 226.846 200.241 226.442 200.926 226.028C202.253 225.231 203.55 224.373 204.83 223.5C207.461 221.706 210.006 219.789 212.459 217.762C213.76 216.686 215.034 215.578 216.28 214.437C216.883 213.885 217.478 213.323 218.068 212.757C218.225 212.606 218.383 212.454 218.539 212.301C218.488 212.35 218.254 212.58 218.52 212.317C218.868 211.972 219.215 211.625 219.56 211.274C221.929 208.863 224.181 206.333 226.299 203.699C228.412 201.07 230.392 198.332 232.221 195.496C232.632 194.858 233.037 194.212 233.433 193.564C233.659 193.194 233.884 192.821 234.105 192.447C234.032 192.57 233.847 192.897 234.173 192.328C234.282 192.14 234.388 191.951 234.496 191.762C235.353 190.253 236.166 188.72 236.933 187.163C238.415 184.151 239.725 181.054 240.843 177.888C241.382 176.355 241.878 174.807 242.324 173.244C242.575 172.365 242.587 172.322 242.827 171.352C243.05 170.455 243.257 169.556 243.447 168.653C244.121 165.449 244.65 162.17 244.859 158.9C245.082 155.396 245.114 152.932 244.923 149.452C244.741 146.144 244.362 142.847 243.801 139.581C243.52 137.943 243.192 136.314 242.82 134.693C242.724 134.273 242.625 133.854 242.523 133.439C242.485 133.282 242.446 133.124 242.408 132.968C242.277 132.437 242.519 133.394 242.383 132.865C242.166 132.033 241.939 131.204 241.7 130.378C239.832 123.925 237.288 117.662 234.198 111.7C233.82 110.973 233.441 110.248 233.049 109.527C232.945 109.336 232.839 109.142 232.734 108.951C232.717 108.921 232.455 108.447 232.643 108.782C232.848 109.149 232.512 108.552 232.467 108.472C232.332 108.235 232.196 107.996 232.061 107.759C231.214 106.29 230.331 104.839 229.418 103.408C227.586 100.541 225.626 97.7563 223.548 95.0642C221.468 92.3681 219.27 89.7646 216.961 87.2622C216.403 86.656 215.839 86.0582 215.269 85.4641C215.155 85.345 215.041 85.2279 214.927 85.1088C215.338 85.5205 214.521 84.6867 214.927 85.1088C214.578 84.7618 214.231 84.4096 213.882 84.0626C212.716 82.9103 211.524 81.7806 210.308 80.6796C205.309 76.1464 199.904 72.0622 194.213 68.4372C193.525 67.9986 192.831 67.5662 192.134 67.141C191.762 66.9133 191.388 66.6907 191.013 66.4661C190.872 66.3828 190.733 66.299 190.592 66.2157C189.654 65.6535 191.287 66.6091 190.337 66.0675C188.918 65.259 187.491 64.4614 186.045 63.7019C183.058 62.132 180.006 60.6849 176.896 59.3713C173.792 58.0606 170.634 56.8783 167.43 55.8394C165.829 55.3197 164.215 54.8535 162.597 54.3885C162.037 54.228 163.175 54.5398 162.613 54.3905C162.456 54.3488 162.298 54.3071 162.141 54.2654C161.721 54.1558 161.302 54.0481 160.881 53.9431C160.039 53.733 159.199 53.5335 158.352 53.3443C151.819 51.8752 145.14 51.0015 138.445 50.7901C138.068 50.7787 137.689 50.7679 137.312 50.7611C137.096 50.7558 136.88 50.7526 136.664 50.7494C136.553 50.7486 135.867 50.7412 136.344 50.7456C136.784 50.7498 136.244 50.746 136.185 50.7455C135.969 50.7469 135.754 50.7456 135.537 50.749C135.05 50.752 134.564 50.7611 134.079 50.7702C132.401 50.8084 130.725 50.8897 129.052 51.0134C125.769 51.2581 122.499 51.677 119.263 52.2731C117.663 52.5669 116.069 52.9066 114.487 53.2843C114.129 53.3695 113.773 53.4587 113.417 53.5478C114.247 53.3401 112.996 53.662 112.837 53.7055C112.027 53.9246 111.218 54.1543 110.414 54.3935C107.296 55.3247 104.227 56.4172 101.22 57.6595C98.2097 58.9024 95.2627 60.2965 92.3904 61.8298C92.0668 62.003 91.7417 62.1787 91.4212 62.3552C91.3218 62.4097 90.736 62.7362 91.1588 62.4999C91.5492 62.2794 91.0898 62.5392 91.0356 62.5699C90.3047 62.9879 89.5769 63.4093 88.8566 63.8415C87.4139 64.7066 85.9928 65.609 84.5946 66.546C81.9295 68.3325 79.3501 70.2441 76.8674 72.2734C75.6052 73.306 74.3682 74.366 73.1576 75.4576C72.5712 75.9861 71.9931 76.5208 71.4188 77.061C71.1133 77.3504 70.8109 77.6433 70.5074 77.9321C70.1873 78.2388 70.6294 77.8125 70.6598 77.7821C70.4742 77.9677 70.2861 78.1519 70.1006 78.3375C65.4957 82.9417 61.3406 87.9942 57.7369 93.4182C56.8366 94.7746 55.9777 96.1538 55.1436 97.552C55.5717 96.8345 54.9674 97.8608 54.8547 98.0581C54.6727 98.3772 54.4933 98.6977 54.3145 99.0203C53.9069 99.7558 53.5115 100.496 53.1239 101.241C51.6142 104.151 50.248 107.129 49.0551 110.182C48.4481 111.737 47.8828 113.307 47.361 114.894C47.1099 115.66 46.8684 116.431 46.6362 117.203C46.5291 117.563 46.4219 117.924 46.3174 118.286C46.2571 118.492 46.2014 118.699 46.1417 118.907C45.9549 119.557 46.1931 118.693 46.0889 119.094C45.2463 122.324 44.547 125.585 44.0323 128.883C43.519 132.18 43.1738 135.502 43.0004 138.833C42.9582 139.64 42.9246 140.446 42.9021 141.253C42.8907 141.63 42.8839 142.007 42.8765 142.383C42.8733 142.598 42.8701 142.814 42.8683 143.027C42.8608 143.622 42.8638 142.232 42.8668 143.264C42.8729 144.936 42.9089 146.605 42.9965 148.273C43.1667 151.554 43.5378 154.831 44.0449 158.076C44.3119 159.779 44.6233 161.478 44.9749 163.166C45.1303 163.904 45.2918 164.642 45.4633 165.376C45.5617 165.795 45.6607 166.216 45.7651 166.633C45.8163 166.842 45.8681 167.053 45.9213 167.261C45.8318 166.911 45.8727 167.069 45.9397 167.325C47.6624 173.772 49.9802 180.061 52.8999 186.065C53.2533 186.791 53.6142 187.512 53.9846 188.228C54.1586 188.563 54.332 188.895 54.51 189.228C54.6122 189.418 54.7124 189.608 54.816 189.796C54.8063 189.777 55.2584 190.604 55.0597 190.244C54.8599 189.881 55.1875 190.47 55.2317 190.549C55.3373 190.736 55.4456 190.924 55.5512 191.111C55.7381 191.437 55.9289 191.762 56.1198 192.087C56.5578 192.827 57.0073 193.562 57.4663 194.292C59.2466 197.118 61.1775 199.848 63.2574 202.461C64.2447 203.702 65.266 204.917 66.3157 206.103C66.8235 206.678 67.3396 207.244 67.8626 207.804C68.1417 208.104 68.4217 208.399 68.7043 208.695C68.8098 208.806 68.9174 208.917 69.0229 209.027C69.3087 209.327 68.6618 208.669 69.1363 209.142C71.3766 211.384 73.7061 213.529 76.1514 215.548C78.5935 217.562 81.1378 219.457 83.7654 221.225C85.0802 222.109 86.4161 222.961 87.7713 223.782C88.0784 223.967 88.3843 224.148 88.6929 224.331C88.1151 223.989 89.1422 224.589 89.2615 224.656C89.9726 225.062 90.6894 225.458 91.4105 225.846C96.9915 228.847 102.929 231.236 108.985 233.084C109.67 233.294 110.357 233.496 111.047 233.691C111.175 233.728 112.327 234.038 111.691 233.871C112.135 233.989 112.58 234.104 113.027 234.217C114.564 234.603 116.112 234.954 117.665 235.266C120.772 235.892 123.908 236.369 127.059 236.694C128.585 236.851 130.113 236.973 131.643 237.057C132.409 237.1 133.173 237.133 133.94 237.156C134.349 237.169 134.756 237.18 135.166 237.186C135.408 237.191 136.598 237.195 135.968 237.197C139.086 237.18 142.194 237.051 145.297 236.74C152.719 236.001 159.431 234.463 166.327 232.125C181.614 226.947 195.346 219.348 208.273 209.78C214.159 205.422 219.885 200.82 225.317 195.907C230.129 191.556 234.604 187.006 238.847 181.759C247.148 171.494 253.238 159.708 254.416 146.369C255.696 131.897 251.091 117.599 244.479 104.897C241.073 98.3537 237.029 92.1621 232.638 86.2396C228.247 80.3212 223.555 74.613 218.462 69.2822C208.668 59.0292 197.075 50.1843 183.765 45.0633C171.567 40.3679 157.874 38.5818 145.107 41.9865C143.91 42.306 142.616 41.9499 142.119 40.6991C141.696 39.6352 142.203 38.0508 143.406 37.7104L143.396 37.7198Z" fill="#F26522"/>
<path d="M170.177 105.119C174.812 106.279 178.019 109.859 178.998 114.507C179.944 119 177.799 123.617 174.156 126.268C170.487 128.937 165.414 129.751 161.22 127.854C157.04 125.964 154.076 122.129 153.09 117.684C151.124 108.831 159.85 100.145 168.697 101.721C173.201 102.524 176.817 105.583 178.838 109.617C180.823 113.582 180.511 118.223 178.199 121.946C173.927 128.831 163.304 130.977 157.704 124.526C152.477 118.507 155.305 106.976 163.275 104.943C167.817 103.784 172.71 105.771 175.416 109.574C178.248 113.554 178.126 118.77 175.237 122.682C172.372 126.564 167.351 128.33 162.742 126.875C158.168 125.431 154.767 120.572 155.382 115.755C155.953 111.281 160.155 107.461 164.678 107.39C169.898 107.308 173.446 111.637 173.278 116.683C173.125 121.28 169.029 125.114 164.361 124.262C159.563 123.385 155.477 118.113 157.663 113.278C158.664 111.061 161.106 110.639 163.239 110.153C164.547 109.856 165.835 109.752 167.17 109.708C168.901 109.652 170.45 110.521 170.898 112.278C171.344 114.032 170.416 115.533 168.863 116.324C166.935 117.304 164.998 117.983 162.941 118.636C163.694 117.895 164.448 117.153 165.201 116.412C164.96 117.004 165.418 115.475 165.197 116.504C165.074 117.076 165.018 115.631 165.201 116.46C165.289 116.858 165.051 116.002 165.069 116.014C165.036 115.991 165.239 116.418 165.229 116.437C165.264 116.366 164.66 115.61 165.069 116.148C165.16 116.27 165.26 116.4 165.342 116.528C165.686 117.061 165.213 116.335 165.092 116.305C165.162 116.321 165.416 116.594 165.449 116.619C165.528 116.683 165.672 116.752 165.734 116.832C166.014 117.188 165.013 116.553 165.454 116.682C165.561 116.715 166.195 116.95 166.208 117.002C166.177 116.894 165.288 116.876 165.938 116.908C165.993 116.912 166.366 116.92 166.391 116.952C166.353 116.902 165.574 116.935 166.121 116.91C166.335 116.901 166.77 116.707 165.876 116.972C166.49 116.789 165.216 117.374 165.962 116.932C166.015 116.899 166.165 116.724 166.221 116.723C165.956 116.73 165.673 117.318 165.983 116.922C166.298 116.514 165.797 117.007 165.852 117.2C165.837 117.146 166.001 116.856 166.03 116.797C166.305 116.245 165.914 116.978 165.981 117.061C165.968 117.045 166.067 116.602 166.064 116.621C166.077 116.523 166.066 116.372 166.1 116.285C166.251 115.896 166.197 116.943 166.11 116.527C166.058 116.277 166.051 115.986 166.027 115.73C165.975 115.183 165.937 115.975 166.1 115.959C166.094 115.961 165.965 115.559 165.952 115.526C165.963 115.558 165.767 115.11 165.771 115.107C165.729 115.152 166.291 115.87 165.898 115.338C165.774 115.171 165.209 114.626 165.681 114.983C166.25 115.417 165.35 114.828 165.348 114.744C165.35 114.835 166.224 115.129 165.607 114.9C165.566 114.884 165.173 114.697 165.16 114.718C165.102 114.811 165.948 114.841 165.363 114.777C165.204 114.76 165.034 114.734 164.878 114.71C164.285 114.619 165.57 114.62 164.72 114.742C163.915 114.858 165.129 114.519 164.551 114.758C164.369 114.834 163.734 114.96 163.634 115.149C163.7 115.024 164.216 114.748 163.817 115.075C163.687 115.182 163.54 115.269 163.41 115.374C163.316 115.449 163.222 115.558 163.122 115.619C162.732 115.857 163.484 115.064 163.288 115.47C163.236 115.576 162.692 116.101 162.747 116.165C162.773 116.197 163.158 115.292 162.863 115.971C162.798 116.122 162.733 116.282 162.66 116.429C162.335 117.073 162.69 116.223 162.68 116.234C162.627 116.284 162.59 116.699 162.587 116.728C162.57 116.85 162.58 116.999 162.549 117.118C162.443 117.526 162.396 116.644 162.562 117.019C162.667 117.258 162.776 118.047 162.554 117.332C162.664 117.684 162.798 118.017 162.947 118.354C163.208 118.952 162.967 118.362 162.892 118.259C163 118.409 163.095 118.568 163.205 118.716C163.315 118.865 163.436 119.006 163.553 119.151C163.618 119.232 163.949 119.519 163.599 119.211C163.21 118.869 163.985 119.515 164.102 119.603C164.251 119.716 164.408 119.815 164.562 119.922C164.184 119.655 164.177 119.716 164.587 119.911C164.884 120.052 165.186 120.16 165.495 120.269C164.83 120.032 165.521 120.247 165.826 120.294C165.939 120.311 166.532 120.38 166.048 120.334C165.619 120.294 166.031 120.337 166.13 120.326C166.307 120.308 166.484 120.298 166.662 120.273C166.766 120.259 167.511 120.11 167.007 120.229C166.59 120.326 167.415 120.079 167.583 120.011C167.748 119.944 167.91 119.865 168.073 119.792C168.158 119.755 168.518 119.52 168.145 119.761C167.74 120.023 168.533 119.481 168.648 119.396C168.792 119.287 168.924 119.164 169.069 119.058C169.601 118.664 168.849 119.401 169.076 119.066C169.25 118.81 169.499 118.594 169.688 118.346C169.808 118.188 170.233 117.439 170.039 117.853C169.82 118.322 170.22 117.43 170.273 117.297C170.34 117.131 170.391 116.962 170.455 116.796C170.295 117.209 170.384 117.185 170.447 116.768C170.492 116.458 170.539 116.151 170.557 115.836C170.519 116.528 170.507 115.789 170.473 115.506C170.458 115.386 170.305 114.829 170.439 115.275C170.567 115.698 170.422 115.251 170.398 115.189C170.327 115.02 170.271 114.848 170.2 114.681C170.155 114.579 169.783 113.915 170.054 114.354C170.281 114.723 169.787 113.984 169.679 113.841C169.561 113.686 168.943 113.039 169.289 113.358C169.675 113.714 168.92 113.058 168.805 112.967C168.66 112.855 168.504 112.754 168.36 112.641C167.832 112.22 168.765 112.766 168.376 112.635C168.078 112.534 167.798 112.347 167.503 112.232C167.334 112.165 167.152 112.12 166.986 112.048C167.03 112.068 167.633 112.157 167.243 112.12C166.935 112.091 166.61 112.017 166.302 111.971C165.678 111.876 166.284 111.956 166.428 111.95C166.199 111.961 165.973 111.974 165.744 112.002C165.606 112.02 165.471 112.048 165.335 112.066C164.656 112.152 165.571 112.063 165.576 111.999C165.574 112.036 164.93 112.243 164.828 112.28C164.013 112.579 165.278 111.928 164.784 112.28C164.515 112.47 164.255 112.699 163.983 112.878C163.668 113.086 164.286 112.572 164.295 112.557C164.24 112.66 164.073 112.79 163.99 112.885C163.792 113.111 163.608 113.349 163.436 113.595C163.373 113.685 163.32 113.796 163.248 113.879C162.939 114.246 163.571 113.151 163.41 113.605C163.31 113.89 163.135 114.157 163.02 114.44C162.917 114.691 162.834 114.949 162.744 115.202C162.521 115.831 162.845 114.985 162.81 114.94C162.827 114.962 162.71 115.414 162.712 115.398C162.66 115.667 162.619 115.939 162.59 116.21C162.569 116.414 162.555 117.351 162.534 116.784C162.511 116.168 162.558 117.096 162.571 117.24C162.599 117.551 162.658 117.853 162.698 118.161C162.779 118.784 162.419 117.407 162.714 118.239C162.816 118.526 162.912 118.816 163.038 119.094C163.099 119.233 163.177 119.367 163.234 119.507C163.383 119.861 163.061 119.159 163.04 119.157C163.122 119.17 163.495 119.82 163.561 119.904C163.628 119.988 163.727 120.075 163.781 120.166C164.014 120.568 163.169 119.695 163.565 119.948C163.819 120.109 164.058 120.351 164.296 120.539C165.008 121.097 163.777 120.332 164.35 120.584C164.636 120.709 164.91 120.847 165.205 120.952C165.309 120.989 165.432 121.012 165.533 121.061C165.948 121.259 164.823 120.976 165.28 120.988C165.578 120.996 165.89 121.102 166.19 121.133C166.342 121.148 166.499 121.145 166.649 121.169C167.031 121.229 166.3 121.132 166.293 121.173C166.292 121.171 167.165 121.119 167.222 121.113C167.495 121.083 167.763 121.032 168.031 120.985C168.83 120.85 167.508 121.189 168.275 120.92C168.841 120.721 169.383 120.498 169.926 120.242C170.494 119.975 169.313 120.663 170.044 120.163C170.307 119.983 170.574 119.809 170.829 119.614C171.051 119.444 171.257 119.262 171.473 119.083C172.009 118.638 171.279 119.225 171.304 119.257C171.304 119.257 171.654 118.881 171.627 118.91C171.811 118.703 171.984 118.489 172.148 118.266C172.218 118.17 172.286 118.074 172.352 117.978C172.419 117.88 172.482 117.782 172.545 117.681C172.648 117.513 172.628 117.549 172.484 117.788C172.228 117.87 172.36 118.051 172.52 117.68C172.567 117.571 172.622 117.468 172.669 117.359C172.701 117.287 173.05 116.523 172.998 116.477C172.98 116.46 172.821 117.366 172.938 116.676C172.958 116.558 172.986 116.441 173.004 116.325C173.071 115.935 173.092 115.549 173.12 115.155C173.071 115.831 173.104 115.166 173.071 114.846C173.039 114.531 172.977 114.224 172.929 113.912C172.899 113.716 172.721 113.338 172.959 114.001C172.913 113.873 172.884 113.74 172.837 113.615C172.695 113.232 172.56 112.852 172.388 112.48C172.332 112.362 172.252 112.24 172.209 112.115C172.052 111.665 172.565 112.567 172.257 112.203C172.056 111.966 171.913 111.664 171.728 111.411C171.539 111.155 171.335 110.912 171.133 110.668C171.05 110.568 170.631 110.161 170.998 110.509C171.404 110.894 170.757 110.305 170.737 110.287C170.499 110.079 170.249 109.882 169.994 109.694C169.728 109.499 169.139 109.165 169.786 109.513C169.146 109.167 168.492 108.899 167.8 108.674C168.456 108.887 167.807 108.698 167.487 108.649C167.171 108.6 166.856 108.582 166.538 108.556C167.224 108.609 166.51 108.564 166.22 108.591C165.812 108.628 165.423 108.717 165.021 108.776C165.671 108.683 165.03 108.778 164.72 108.886C164.422 108.989 164.128 109.106 163.84 109.237C163.676 109.309 163.517 109.403 163.35 109.473C163.387 109.458 163.87 109.137 163.548 109.361C163.211 109.595 162.859 109.796 162.53 110.044C162.279 110.235 162.053 110.469 161.798 110.653C161.478 110.886 161.953 110.498 161.979 110.469C161.86 110.605 161.729 110.732 161.61 110.868C161.4 111.106 161.202 111.352 161.015 111.607C160.907 111.753 160.808 111.903 160.706 112.052C160.558 112.263 160.409 112.766 160.697 112.052C160.46 112.641 160.172 113.188 159.978 113.797C160.195 113.123 159.992 113.808 159.947 114.105C159.914 114.317 159.865 115.544 159.846 114.692C159.862 115.33 159.952 115.94 160.058 116.567C159.942 115.884 160.061 116.577 160.16 116.861C160.292 117.247 160.446 117.624 160.62 117.99C160.698 118.155 160.783 118.315 160.866 118.476C160.841 118.428 160.514 117.969 160.758 118.259C160.957 118.497 161.107 118.795 161.294 119.047C161.51 119.339 161.772 119.598 161.987 119.888C161.97 119.865 161.482 119.428 161.793 119.694C161.965 119.84 162.121 120.006 162.293 120.152C162.532 120.359 162.783 120.552 163.04 120.737C163.187 120.84 163.349 120.928 163.489 121.04C163.826 121.308 163.239 120.894 163.243 120.9C163.601 121.331 164.722 121.563 165.238 121.719C164.544 121.51 165.236 121.696 165.542 121.742C165.867 121.793 166.191 121.804 166.515 121.837C165.72 121.757 166.783 121.808 167.006 121.783C167.378 121.741 167.743 121.676 168.11 121.599C167.434 121.74 168.197 121.556 168.447 121.467C168.756 121.355 169.052 121.22 169.353 121.092C169.935 120.843 169.427 121.076 169.307 121.143C169.469 121.05 169.628 120.951 169.783 120.85C170.094 120.648 170.395 120.427 170.681 120.191C170.824 120.074 170.958 119.944 171.1 119.825C171.056 119.862 170.707 120.296 170.928 119.983C171.109 119.723 171.357 119.498 171.551 119.24C171.662 119.091 171.759 118.938 171.868 118.789C172.009 118.592 172.051 118.27 171.823 118.867C171.954 118.528 172.121 118.18 172.269 117.849C172.339 117.692 172.422 117.222 172.274 117.919C172.302 117.788 172.338 117.658 172.357 117.527C172.403 117.216 172.443 116.912 172.473 116.599C172.533 115.992 172.472 116.537 172.48 116.662C172.468 116.484 172.463 116.307 172.446 116.127C172.411 115.771 172.348 115.42 172.278 115.071C172.408 115.713 172.237 114.981 172.149 114.743C172.041 114.449 171.912 114.165 171.782 113.878C171.533 113.32 171.751 113.818 171.819 113.926C171.724 113.776 171.631 113.624 171.53 113.475C171.328 113.182 171.099 112.913 170.876 112.634C170.737 112.459 170.433 112.309 170.941 112.696C170.836 112.615 170.75 112.512 170.644 112.431C170.399 112.243 170.16 112.054 169.908 111.876C169.401 111.518 169.876 111.87 169.985 111.919C169.823 111.846 169.669 111.763 169.506 111.694C169.177 111.554 168.84 111.447 168.496 111.352C166.939 110.924 166.257 108.899 166.632 107.507C167.015 106.088 168.608 104.733 170.182 105.126L170.177 105.119Z" fill="#F26522"/>
<path d="M95.8802 120.678C105.256 119.057 114.599 128.79 110.95 138.045C109.316 142.186 105.472 145.105 101.213 146.087C97.005 147.057 92.2076 145.192 89.8849 141.52C87.6413 137.972 87.191 133.329 88.897 129.454C90.8604 124.993 95.5304 122.273 100.413 123.271C101.628 123.52 102.799 123.887 103.885 124.485C104.532 124.842 105.198 125.227 105.784 125.684C105.98 125.836 106.165 125.996 106.347 126.162C106.641 126.432 106.923 126.718 107.191 127.014C106.627 126.434 106.763 126.575 107.601 127.433C109.235 129.226 110.238 131.656 110.458 134.067C110.912 138.994 108.505 144.285 104.262 146.941C100.25 149.452 94.9787 150.171 90.6079 148.091C86.3348 146.056 83.3138 141.629 83.0918 136.866C82.8527 131.725 85.2772 126.995 90.1382 124.942C94.1976 123.226 99.5212 123.77 102.888 126.733C106.61 130.007 107.656 135.413 105.651 139.933C103.725 144.275 99.064 147.396 94.2273 146.287C89.6529 145.237 85.9346 141.398 85.3329 136.681C84.6368 131.233 88.7571 126.703 93.9726 125.848C99.2106 124.988 104.164 128.729 104.68 134.018C105.152 138.857 101.903 144.142 96.6782 144.336C91.241 144.539 85.4855 139.552 86.8212 133.765C87.467 130.969 89.3514 128.707 92.0623 127.678C94.3068 126.824 97.0297 126.722 99.2433 127.728C101.866 128.919 103.436 131.086 104.028 133.857C104.503 136.074 102.65 138.276 100.623 138.792C98.4835 139.339 96.0663 138.243 95.2667 136.098C95.236 136.014 95.1218 135.812 95.1076 135.71C95.1111 135.722 95.7497 136.776 95.3703 136.24C94.9766 135.684 96.3661 137.079 95.6148 136.517C95.1726 136.186 96.7277 137.023 96.2063 136.847C96.1151 136.816 96.0265 136.757 95.9376 136.72C94.9076 136.299 96.9973 136.896 96.0672 136.733C95.8293 136.69 95.5871 136.655 95.3492 136.613C94.7011 136.495 95.898 136.612 95.9507 136.599C95.8312 136.629 95.6596 136.613 95.5309 136.626C95.3916 136.64 95.2544 136.668 95.1163 136.686C94.5472 136.76 95.4283 136.911 95.6985 136.537C95.6676 136.58 95.4613 136.618 95.4074 136.642C94.6807 136.961 95.7528 136.469 95.8482 136.355C95.7786 136.438 95.5924 136.515 95.5137 136.581C95.0504 136.979 95.9109 136.339 95.9783 136.09C95.9463 136.205 95.2629 137.137 95.8265 136.196C96.2623 135.468 96.0022 135.9 95.9276 136.117C95.7922 136.508 96.0769 135.495 96.0884 135.52C96.0792 135.503 96.0582 135.967 96.0367 136.006C96.1757 135.764 95.8774 134.875 96.0581 135.641C96.1844 136.18 95.6546 134.711 95.9239 135.196C95.9735 135.286 96.0192 135.438 96.046 135.538C96.2223 136.176 95.9202 135.251 95.8043 135.165C95.8901 135.229 96.0064 135.476 96.0813 135.578C96.1513 135.671 96.3704 135.875 96.3957 135.963C96.3813 135.913 95.6535 135.343 96.0096 135.555C96.1461 135.638 96.2752 135.77 96.4008 135.875C97.0372 136.407 96.3688 135.711 96.1453 135.749C96.2178 135.737 97.3227 136.184 96.5416 135.95C95.8986 135.759 96.4304 135.925 96.6106 135.926C97.1322 135.928 95.7694 136.095 96.2645 135.945C96.3627 135.916 96.5272 135.915 96.6298 135.909C97.3468 135.866 96.3286 135.896 96.3167 135.99C96.3115 136.033 96.7168 135.789 96.7661 135.794C96.444 135.761 96.0511 136.396 96.5137 135.875C96.8154 135.535 96.1393 136.326 96.1547 136.258C96.1616 136.221 96.39 135.958 96.4387 135.901C96.8617 135.409 96.23 136.15 96.2361 136.254C96.2317 136.186 96.4103 135.87 96.4237 135.834C96.4666 135.726 96.5145 135.469 96.5757 135.395C96.55 135.426 96.4244 136.237 96.4355 135.852C96.4399 135.701 96.4799 135.538 96.5061 135.387C96.5927 134.856 96.2834 135.08 96.5361 135.613C96.4434 135.418 96.4802 135.017 96.4582 134.789C96.4412 134.631 96.363 134.078 96.4616 134.725C96.5565 135.336 96.4984 134.853 96.4154 134.677C96.3663 134.574 96.3204 134.459 96.2813 134.353C96.0503 133.729 96.3853 134.64 96.4722 134.678C96.4249 134.657 96.213 134.312 96.2044 134.297C95.833 133.713 96.8213 134.715 96.4282 134.502C96.3436 134.457 96.2263 134.343 96.1571 134.276C95.6767 133.819 96.3573 134.475 96.4877 134.437C96.4676 134.443 96.0866 134.257 96.0227 134.223C95.5559 133.973 95.9186 134.481 96.3471 134.28C96.238 134.331 95.5724 134.174 95.4664 134.153C94.9768 134.05 96.2494 134 95.7784 134.159C95.6143 134.215 95.3045 134.217 95.138 134.234C94.4663 134.298 95.9541 133.894 95.0621 134.264C94.9303 134.32 94.3747 134.652 94.2251 134.63C94.6547 134.698 94.9374 134.155 94.5201 134.494C94.3867 134.603 94.2369 134.694 94.1014 134.805C93.9654 134.913 93.842 135.035 93.7092 135.147C93.2035 135.579 93.9801 134.972 93.9737 134.889C93.9743 134.906 93.6935 135.236 93.6457 135.289C93.1722 135.802 93.8177 135.11 93.7987 134.967C93.8085 135.032 93.4728 135.844 93.4053 135.896C93.46 135.852 93.5346 135.06 93.543 135.438C93.5465 135.587 93.4977 135.757 93.4755 135.907C93.4609 136 93.4898 136.176 93.4506 136.259C93.6854 135.768 93.4112 135.493 93.5021 136.151C93.5171 136.264 93.5633 136.387 93.5652 136.499C93.5788 136.986 93.2704 135.744 93.4949 136.179C93.6169 136.415 93.7064 136.704 93.8066 136.955C94.0574 137.58 93.7244 136.714 93.6407 136.68C93.6926 136.702 93.8941 137.071 93.9053 137.088C94.0273 137.263 94.4804 137.648 94.5087 137.852C94.4582 137.502 93.8654 137.266 94.2741 137.609C94.3997 137.714 94.5164 137.826 94.642 137.931C94.8603 138.11 95.1252 138.246 95.3306 138.433C95.7043 138.775 94.5662 138.083 95.0427 138.261C95.1909 138.316 95.3331 138.404 95.4796 138.468C95.5886 138.515 95.7058 138.553 95.8133 138.602C96.5003 138.924 95.2198 138.523 95.6316 138.574C95.9331 138.611 96.2788 138.651 96.576 138.711C96.9675 138.79 96.1957 138.664 96.1771 138.713C96.18 138.708 96.5972 138.679 96.6597 138.67C96.639 138.674 97.1322 138.615 97.1407 138.584C97.165 138.51 96.2215 138.943 96.9318 138.605C97.0464 138.55 97.1719 138.504 97.2908 138.457C98.0832 138.147 97.202 138.51 97.2057 138.516C97.2588 138.572 97.9837 137.861 98.0087 137.88C97.9416 137.827 97.3572 138.65 97.8048 138.047C97.8818 137.944 97.9711 137.847 98.0487 137.747C98.1534 137.612 98.2375 137.451 98.3512 137.326C98.6572 136.993 98.0984 137.648 98.1684 137.664C98.2435 137.684 98.6225 136.705 98.6649 136.595C98.7266 136.432 98.7697 136.257 98.8366 136.097C99.029 135.64 98.7854 136.789 98.7732 136.3C98.7678 136.008 98.8852 135.684 98.9136 135.389C98.923 135.293 98.9851 134.919 98.9478 134.865C98.9441 134.859 99.0261 135.819 98.9285 135.07C98.9036 134.877 98.9348 134.131 98.7868 134.038C98.7469 134.013 99.1353 134.959 98.8139 134.254C98.7444 134.103 98.6746 133.927 98.6178 133.774C98.5744 133.661 98.3445 133.291 98.6258 133.757C98.9312 134.262 98.6177 133.759 98.5294 133.648C98.4261 133.515 98.2918 133.38 98.2089 133.234C98.0148 132.89 98.453 133.518 98.5238 133.53C98.3455 133.499 97.8117 132.931 97.6568 132.815C96.888 132.23 98.2531 133.048 97.6227 132.794C97.3136 132.67 97.0055 132.542 96.6984 132.417C96.0531 132.157 97.5193 132.54 96.6273 132.411C96.2493 132.357 95.8767 132.314 95.4961 132.273C94.9255 132.213 95.635 132.455 95.7967 132.27C95.7738 132.296 95.2777 132.299 95.2883 132.298C94.9915 132.323 94.7007 132.376 94.4044 132.417C93.4935 132.548 95.0057 132.175 94.3382 132.421C93.9792 132.554 93.6277 132.683 93.276 132.834C92.3613 133.224 93.8057 132.426 93.2476 132.849C92.9787 133.054 92.7095 133.25 92.4438 133.459C91.8516 133.922 93.0767 132.722 92.4704 133.469C92.2174 133.782 91.9732 134.089 91.7342 134.413C91.2935 135.011 92.0885 133.583 91.7343 134.474C91.6042 134.8 91.4914 135.141 91.3561 135.464C91.1854 135.875 91.4987 135.076 91.4652 135.057C91.4678 135.058 91.3731 135.515 91.3617 135.582C91.2959 135.98 91.2882 136.377 91.2422 136.777C91.1919 137.23 91.2773 136.385 91.2464 136.398C91.2269 136.406 91.2741 136.866 91.279 136.936C91.3106 137.296 91.3783 137.645 91.4325 138.001C91.5392 138.676 91.1547 137.267 91.4917 138.177C91.6333 138.557 91.7887 138.925 91.9458 139.299C92.1828 139.86 91.8281 139.131 91.8341 139.114C91.8201 139.148 92.0299 139.418 92.0543 139.45C92.2451 139.699 92.4353 139.946 92.6296 140.192C93.1194 140.818 92.4666 139.987 92.4532 140.024C92.4443 140.046 92.8011 140.336 92.8553 140.382C92.9975 140.499 93.1427 140.612 93.2906 140.719C93.4028 140.8 94.0972 141.208 93.5441 140.907C93.0375 140.631 93.9097 141.069 94.0834 141.145C94.3629 141.265 94.8163 141.521 95.1261 141.519C95.1281 141.518 94.3903 141.367 94.8308 141.428C95.0139 141.453 95.1948 141.501 95.3771 141.532C95.4932 141.55 96.6256 141.662 96.6253 141.653C96.6229 141.63 95.9028 141.685 96.3421 141.65C96.5289 141.635 96.7152 141.634 96.902 141.62C97.2287 141.593 97.554 141.554 97.8766 141.499C98.0608 141.467 98.2442 141.426 98.4267 141.389C98.3035 141.413 97.6609 141.632 98.2969 141.413C98.6521 141.289 99.0057 141.175 99.3514 141.026C99.5236 140.952 99.6903 140.868 99.8613 140.791C100.528 140.491 99.8078 140.854 99.7419 140.866C100.007 140.821 100.337 140.483 100.556 140.32C100.706 140.208 100.85 140.092 100.994 139.973C101.096 139.888 101.535 139.468 101.159 139.843C100.796 140.206 101.157 139.835 101.214 139.769C101.411 139.534 101.605 139.312 101.783 139.061C101.872 138.938 101.948 138.803 102.037 138.682C102.364 138.239 101.77 139.271 101.985 138.764C102.123 138.438 102.298 138.13 102.428 137.799C102.518 137.574 102.772 136.448 102.627 137.302C102.695 136.905 102.787 136.514 102.832 136.112C102.855 135.91 102.863 135.713 102.88 135.513C102.867 135.651 102.928 136.28 102.874 135.59C102.846 135.242 102.819 134.894 102.762 134.548C102.741 134.424 102.588 133.806 102.723 134.294C102.851 134.755 102.707 134.267 102.68 134.196C102.609 134.008 102.546 133.818 102.467 133.634C102.445 133.58 102.009 132.809 102.312 133.277C102.602 133.726 102.24 133.2 102.166 133.093C102.053 132.933 101.935 132.778 101.809 132.625C101.785 132.597 101.51 132.309 101.518 132.292C101.432 132.486 102.12 132.779 101.61 132.432C101.481 132.346 100.68 131.868 100.652 131.741C100.663 131.794 101.345 132.085 100.929 131.918C100.703 131.827 100.487 131.704 100.261 131.612C100.242 131.605 99.7778 131.386 99.7088 131.411C99.7329 131.404 100.672 131.599 99.8745 131.459C99.5408 131.4 99.1978 131.377 98.8682 131.317C98.3282 131.22 99.5963 131.245 99.0527 131.31C98.91 131.327 98.7641 131.325 98.6209 131.34C98.6249 131.339 98.077 131.381 98.0467 131.427C98.5621 131.279 98.6715 131.252 98.3764 131.343C98.2822 131.37 98.1891 131.401 98.0997 131.438C97.8622 131.525 97.5858 131.72 97.3386 131.773C98.0543 131.62 98.0552 131.32 97.7127 131.564C97.5935 131.648 97.4681 131.725 97.3501 131.813C97.2341 131.901 97.125 131.997 97.0096 132.087C96.6723 132.349 96.9538 132.452 97.3509 131.748C97.2159 131.989 96.9627 132.196 96.8024 132.424C96.7252 132.533 96.6503 132.696 96.5618 132.788C96.6067 132.741 97.0655 131.782 96.8139 132.388C96.7132 132.628 96.5965 132.856 96.5036 133.1C96.4642 133.205 96.4319 133.312 96.3899 133.415C96.1469 134.021 96.4861 133.077 96.4878 133.007C96.4809 133.324 96.3411 133.691 96.3019 134.009C96.2723 134.239 96.3099 134.582 96.2344 134.803C96.443 134.198 96.2067 133.98 96.2372 134.411C96.2485 134.564 96.2507 134.716 96.264 134.868C96.2858 135.133 96.3201 135.397 96.3651 135.66C96.3904 135.809 96.4304 135.956 96.4538 136.105C96.5327 136.593 96.1394 135.175 96.3982 135.828C96.4941 136.072 96.5726 136.323 96.6786 136.564C96.7395 136.7 96.8138 136.831 96.8707 136.969C97.0686 137.439 96.3338 136.224 96.6712 136.598C96.8401 136.787 96.9624 137.031 97.1217 137.231C97.1963 137.325 97.3497 137.459 97.4112 137.567C97.28 137.329 96.6167 136.885 97.188 137.303C97.3807 137.445 97.67 137.599 97.8223 137.775C97.3478 137.225 97.0442 137.377 97.4639 137.554C97.6124 137.618 97.7532 137.692 97.9031 137.754C98.0608 137.819 98.9928 138.155 98.2795 137.908C97.6626 137.694 98.1416 137.874 98.3297 137.894C98.5243 137.914 98.7154 137.953 98.9115 137.97C99.043 137.982 99.2645 137.96 99.3792 137.997C99.3531 137.989 98.5132 138.065 98.8977 137.983C99.1596 137.927 99.4528 137.943 99.719 137.91C99.9978 137.876 100.381 137.72 100.65 137.745C100.557 137.737 99.7025 138.049 100.319 137.814C100.507 137.743 100.699 137.686 100.884 137.613C101.146 137.512 101.398 137.385 101.655 137.275C102.078 137.09 101.67 137.038 101.379 137.438C101.435 137.362 101.731 137.222 101.791 137.181C102.029 137.026 102.259 136.86 102.48 136.686C102.608 136.587 102.73 136.48 102.855 136.379C103.277 136.037 102.908 136.012 102.714 136.539C102.867 136.126 103.495 135.601 103.773 135.23C104.172 134.697 103.618 135.425 103.621 135.511C103.619 135.442 103.798 135.173 103.84 135.083C103.978 134.794 104.081 134.495 104.198 134.199C104.454 133.555 104.087 134.424 104.138 134.457C104.132 134.455 104.221 134.045 104.232 133.983C104.278 133.699 104.272 133.405 104.319 133.121C104.398 132.642 104.426 133.706 104.305 133.242C104.261 133.07 104.276 132.873 104.253 132.695C104.235 132.559 104.21 132.425 104.191 132.289C104.075 131.463 104.46 132.919 104.143 132.145C104.022 131.851 103.908 131.554 103.785 131.262C103.732 131.136 103.662 131.019 103.606 130.894C103.919 131.59 103.776 131.175 103.654 131.006C103.44 130.707 103.246 130.401 103.013 130.111C102.898 129.967 102.774 129.831 102.657 129.688C102.366 129.338 102.553 129.612 102.758 129.781C102.219 129.334 101.675 128.911 101.122 128.483C100.712 128.165 101.697 128.77 101.231 128.537C101.064 128.454 100.903 128.362 100.734 128.28C100.399 128.118 100.058 127.972 99.7065 127.845C99.5322 127.782 99.3499 127.737 99.1785 127.669C98.731 127.493 99.7345 127.701 99.2585 127.698C98.9501 127.698 98.6133 127.575 98.3012 127.539C98.0613 127.512 97.0552 127.583 97.8165 127.491C97.4475 127.536 97.0778 127.549 96.707 127.603C94.8947 127.875 92.9563 126.406 92.8104 124.557C92.6549 122.592 93.9261 120.993 95.8558 120.661L95.8802 120.678Z" fill="#F26522"/>
<path d="M187.073 154.074C184.298 169.453 174.218 182.618 160.618 190.103C147.253 197.46 130.685 197.781 116.672 192.032C112.717 190.41 108.886 188.29 105.487 185.694C103.603 184.255 101.8 182.691 100.239 180.901C99.5752 180.138 98.9308 179.359 98.3491 178.534C97.9979 178.036 97.669 177.54 97.3707 177.007C96.8873 176.139 96.7217 175.311 96.4767 174.336C95.7374 171.409 99.6014 168.604 102.191 169.997C103.161 170.518 104.039 171.03 104.834 171.789C105.488 172.414 106.146 173.037 106.819 173.64C108.06 174.758 109.281 175.906 110.562 176.977C111.847 178.052 113.198 179.04 114.572 179.999C115.277 180.491 115.998 180.964 116.73 181.418C116.902 181.525 117.076 181.627 117.248 181.734C117.803 182.078 116.345 181.22 116.915 181.543C117.315 181.769 117.714 181.995 118.117 182.214C121.116 183.83 124.281 185.137 127.548 186.099C127.742 186.156 127.938 186.209 128.132 186.268C128.718 186.44 127.302 186.057 127.897 186.205C128.293 186.304 128.689 186.406 129.085 186.5C129.927 186.697 130.774 186.873 131.627 187.026C133.325 187.329 135.04 187.543 136.762 187.661C137.021 187.678 139.093 187.941 139.187 187.762C139.182 187.774 138.189 187.77 139.044 187.762C139.247 187.76 139.451 187.758 139.654 187.754C140.112 187.746 140.567 187.731 141.023 187.702C142.695 187.596 144.361 187.39 146.009 187.091C146.861 186.935 147.705 186.743 148.55 186.549C149.108 186.421 147.909 186.73 148.46 186.57C148.659 186.513 148.857 186.463 149.055 186.406C149.501 186.278 149.945 186.147 150.386 186.005C152.049 185.476 153.68 184.845 155.269 184.125C156.016 183.787 156.753 183.428 157.482 183.05C157.702 182.937 158.745 182.36 157.961 182.804C158.364 182.576 158.764 182.344 159.161 182.106C160.616 181.231 162.014 180.272 163.36 179.237C164.747 178.171 166.066 177.025 167.341 175.826C167.473 175.701 167.865 175.291 167.278 175.892C167.422 175.744 167.569 175.6 167.714 175.454C168.003 175.16 168.287 174.864 168.57 174.562C169.168 173.924 169.749 173.269 170.311 172.597C171.569 171.102 172.735 169.53 173.805 167.895C174.059 167.508 174.305 167.118 174.548 166.723C174.655 166.546 174.759 166.371 174.865 166.196C174.366 167.007 174.909 166.114 174.975 165.995C175.427 165.188 175.856 164.368 176.258 163.537C177.109 161.782 177.85 159.975 178.472 158.125C178.62 157.688 178.758 157.246 178.892 156.804C178.95 156.607 179.009 156.41 179.065 156.214C179.162 155.876 179.225 155.596 179.1 156.1C179.347 155.1 179.577 154.099 179.768 153.087C180.124 151.192 181.889 149.562 183.917 149.927C185.814 150.266 187.445 152.049 187.079 154.075L187.073 154.074Z" fill="#F26522"/>
</svg>
