<svg width="35" height="33" viewBox="0 0 35 33" fill="none" xmlns="http://www.w3.org/2000/svg">
<path d="M0.0136719 32.3721V0.882812H17.5078V7.88044H35.0019V32.3721H0.0136719ZM3.51249 28.8733H7.01131V25.3745H3.51249V28.8733ZM3.51249 21.8757H7.01131V18.3769H3.51249V21.8757ZM3.51249 14.8781H7.01131V11.3792H3.51249V14.8781ZM3.51249 7.88044H7.01131V4.38162H3.51249V7.88044ZM10.5101 28.8733H14.0089V25.3745H10.5101V28.8733ZM10.5101 21.8757H14.0089V18.3769H10.5101V21.8757ZM10.5101 14.8781H14.0089V11.3792H10.5101V14.8781ZM10.5101 7.88044H14.0089V4.38162H10.5101V7.88044ZM17.5078 28.8733H31.503V11.3792H17.5078V14.8781H21.0066V18.3769H17.5078V21.8757H21.0066V25.3745H17.5078V28.8733ZM24.5054 18.3769V14.8781H28.0042V18.3769H24.5054ZM24.5054 25.3745V21.8757H28.0042V25.3745H24.5054Z" fill="#115934"/>
</svg>
