<svg width="28" height="190" viewBox="0 0 28 190" fill="none" xmlns="http://www.w3.org/2000/svg">
<path d="M13.1428 32.779C11.1161 32.779 9.37742 32.4483 7.92675 31.787C6.49742 31.1257 5.37742 30.155 4.56675 28.875C3.77742 27.595 3.34008 26.0057 3.25475 24.107C3.23342 23.2323 3.22275 22.2937 3.22275 21.291C3.22275 20.2883 3.23342 19.3283 3.25475 18.411C3.34008 16.555 3.78808 14.987 4.59875 13.707C5.40942 12.4057 6.54008 11.4243 7.99075 10.763C9.44142 10.0803 11.1588 9.73898 13.1428 9.73898C14.5508 9.73898 15.8521 9.92032 17.0468 10.283C18.2414 10.6243 19.2868 11.1363 20.1828 11.819C21.0788 12.4803 21.7721 13.291 22.2628 14.251C22.7748 15.1897 23.0414 16.2563 23.0628 17.451C23.0841 17.643 23.0201 17.803 22.8708 17.931C22.7428 18.059 22.5828 18.123 22.3908 18.123H18.0708C17.7934 18.123 17.5801 18.0697 17.4308 17.963C17.2814 17.835 17.1534 17.611 17.0468 17.291C16.7481 16.1603 16.2574 15.3923 15.5748 14.987C14.9134 14.5603 14.0921 14.347 13.1108 14.347C11.9374 14.347 11.0094 14.6776 10.3268 15.339C9.64408 15.979 9.27075 17.0563 9.20675 18.571C9.14275 20.3203 9.14275 22.1123 9.20675 23.947C9.27075 25.4617 9.64408 26.5497 10.3268 27.211C11.0094 27.851 11.9374 28.171 13.1108 28.171C14.0921 28.171 14.9241 27.9577 15.6068 27.531C16.2894 27.1043 16.7694 26.3363 17.0468 25.227C17.1321 24.907 17.2494 24.6937 17.3988 24.587C17.5694 24.459 17.7934 24.395 18.0708 24.395H22.3908C22.5828 24.395 22.7428 24.459 22.8708 24.587C23.0201 24.715 23.0841 24.875 23.0628 25.067C23.0414 26.2617 22.7748 27.339 22.2628 28.299C21.7721 29.2377 21.0788 30.0483 20.1828 30.731C19.2868 31.3923 18.2414 31.9043 17.0468 32.267C15.8521 32.6083 14.5508 32.779 13.1428 32.779Z" fill="black"/>
<path d="M2.71856 60.5588C2.48746 60.5181 2.31134 60.4112 2.19021 60.2382C2.06907 60.0652 2.02888 59.8632 2.06963 59.6321L5.68151 39.1481C5.72226 38.917 5.82913 38.7409 6.00213 38.6197C6.17513 38.4986 6.37718 38.4584 6.60828 38.4991L10.6736 39.216C10.9047 39.2567 11.0808 39.3636 11.2019 39.5366C11.323 39.7096 11.3632 39.9116 11.3225 40.1427L9.98332 47.7376L17.7672 49.1101L19.1064 41.5152C19.1472 41.2841 19.254 41.108 19.427 40.9869C19.6 40.8658 19.8021 40.8256 20.0332 40.8663L24.0985 41.5831C24.3296 41.6239 24.5057 41.7308 24.6268 41.9038C24.7479 42.0767 24.7881 42.2788 24.7474 42.5099L21.1355 62.9939C21.0948 63.225 20.9879 63.4011 20.8149 63.5223C20.6419 63.6434 20.4398 63.6836 20.2087 63.6428L16.1435 62.926C15.9124 62.8853 15.7362 62.7784 15.6151 62.6054C15.494 62.4324 15.4538 62.2303 15.4945 61.9992L16.8782 54.1523L9.09424 52.7798L7.71061 60.6267C7.66986 60.8578 7.56299 61.0339 7.38999 61.1551C7.21699 61.2762 7.01495 61.3164 6.78384 61.2757L2.71856 60.5588Z" fill="black"/>
<path d="M13.4545 92.779C11.4918 92.779 9.78517 92.459 8.3345 91.819C6.88383 91.179 5.75317 90.219 4.9425 88.939C4.13183 87.6377 3.68383 86.0163 3.5985 84.075C3.57717 83.1577 3.5665 82.2403 3.5665 81.323C3.5665 80.4057 3.57717 79.4777 3.5985 78.539C3.68383 76.619 4.13183 75.0083 4.9425 73.707C5.7745 72.3843 6.91583 71.3923 8.3665 70.731C9.81717 70.0697 11.5132 69.739 13.4545 69.739C15.3745 69.739 17.0598 70.0697 18.5105 70.731C19.9825 71.3923 21.1345 72.3843 21.9665 73.707C22.7985 75.0083 23.2465 76.619 23.3105 78.539C23.3532 79.4777 23.3745 80.4057 23.3745 81.323C23.3745 82.2403 23.3532 83.1577 23.3105 84.075C23.2252 86.0163 22.7772 87.6377 21.9665 88.939C21.1558 90.219 20.0252 91.179 18.5745 91.819C17.1238 92.459 15.4172 92.779 13.4545 92.779ZM13.4545 88.171C14.5852 88.171 15.5025 87.8297 16.2065 87.147C16.9318 86.4643 17.3158 85.3763 17.3585 83.883C17.4012 82.9443 17.4225 82.059 17.4225 81.227C17.4225 80.395 17.4012 79.531 17.3585 78.635C17.3158 77.6323 17.1238 76.8217 16.7825 76.203C16.4625 75.563 16.0145 75.0936 15.4385 74.795C14.8625 74.4963 14.2012 74.347 13.4545 74.347C12.7292 74.347 12.0785 74.4963 11.5025 74.795C10.9265 75.0936 10.4678 75.563 10.1265 76.203C9.78517 76.8217 9.59317 77.6323 9.5505 78.635C9.52917 79.531 9.5185 80.395 9.5185 81.227C9.5185 82.059 9.52917 82.9443 9.5505 83.883C9.6145 85.3763 9.9985 86.4643 10.7025 87.147C11.4065 87.8297 12.3238 88.171 13.4545 88.171Z" fill="black"/>
<path d="M15.7321 122.611C13.7993 122.952 12.0629 122.933 10.5232 122.555C8.98342 122.176 7.70323 121.427 6.68261 120.307C5.65828 119.167 4.93555 117.648 4.5144 115.751C4.3341 114.851 4.1643 113.949 4.00501 113.046C3.84572 112.143 3.69508 111.227 3.55309 110.299C3.30372 108.393 3.46522 106.729 4.0376 105.307C4.62728 103.86 5.57902 102.685 6.89281 101.781C8.20659 100.878 9.81941 100.258 11.7312 99.921C13.6221 99.5876 15.3392 99.6206 16.8827 100.02C18.4472 100.416 19.7539 101.193 20.803 102.351C21.8483 103.488 22.5692 104.996 22.9656 106.876C23.1706 107.793 23.3528 108.703 23.5121 109.606C23.6714 110.51 23.8097 111.417 23.9269 112.328C24.18 114.254 24.0204 115.929 23.448 117.351C22.8719 118.753 21.9251 119.894 20.6076 120.777C19.2901 121.659 17.665 122.27 15.7321 122.611ZM14.9319 118.073C16.0454 117.877 16.8895 117.381 17.4643 116.587C18.0601 115.788 18.2493 114.65 18.032 113.172C17.911 112.24 17.7783 111.365 17.6338 110.545C17.4894 109.726 17.3183 108.879 17.1207 108.004C16.9046 107.024 16.5747 106.259 16.1312 105.709C15.7049 105.134 15.1822 104.75 14.5631 104.556C13.944 104.362 13.2667 104.329 12.5314 104.459C11.8171 104.585 11.2023 104.845 10.6869 105.239C10.1715 105.633 9.80128 106.175 9.57627 106.865C9.34755 107.533 9.29924 108.365 9.43133 109.36C9.56591 110.246 9.70544 111.099 9.84992 111.918C9.99439 112.737 10.1586 113.607 10.3426 114.528C10.665 115.988 11.2321 116.992 12.0439 117.542C12.8558 118.092 13.8184 118.269 14.9319 118.073Z" fill="black"/>
<path d="M13.4494 152.779C11.3161 152.779 9.54542 152.48 8.13742 151.883C6.72942 151.264 5.66276 150.464 4.93742 149.483C4.21209 148.502 3.82809 147.456 3.78542 146.347C3.78542 146.176 3.84942 146.027 3.97742 145.899C4.12676 145.75 4.29742 145.675 4.48942 145.675H8.52142C8.82009 145.675 9.04409 145.728 9.19342 145.835C9.36409 145.942 9.51342 146.08 9.64142 146.251C9.81209 146.571 10.0468 146.88 10.3454 147.179C10.6654 147.478 11.0708 147.723 11.5614 147.915C12.0734 148.086 12.7028 148.171 13.4494 148.171C14.6868 148.171 15.6148 147.979 16.2334 147.595C16.8734 147.211 17.1934 146.688 17.1934 146.027C17.1934 145.558 17.0228 145.174 16.6814 144.875C16.3401 144.555 15.7854 144.278 15.0174 144.043C14.2708 143.787 13.2681 143.531 12.0094 143.275C10.3881 142.934 9.00142 142.496 7.84942 141.963C6.71876 141.408 5.85476 140.694 5.25742 139.819C4.66009 138.923 4.36142 137.814 4.36142 136.491C4.36142 135.19 4.72409 134.027 5.44942 133.003C6.19609 131.979 7.23076 131.179 8.55342 130.603C9.87609 130.027 11.4441 129.739 13.2574 129.739C14.7294 129.739 16.0201 129.931 17.1294 130.315C18.2601 130.699 19.2094 131.211 19.9774 131.851C20.7454 132.491 21.3214 133.174 21.7054 133.899C22.1108 134.603 22.3241 135.296 22.3454 135.979C22.3454 136.15 22.2814 136.31 22.1534 136.459C22.0254 136.587 21.8654 136.651 21.6734 136.651H17.4494C17.2148 136.651 17.0121 136.608 16.8414 136.523C16.6708 136.438 16.5214 136.299 16.3934 136.107C16.2654 135.638 15.9241 135.232 15.3694 134.891C14.8361 134.528 14.1321 134.347 13.2574 134.347C12.3188 134.347 11.5828 134.518 11.0494 134.859C10.5374 135.179 10.2814 135.68 10.2814 136.363C10.2814 136.79 10.4201 137.163 10.6974 137.483C10.9961 137.803 11.4761 138.08 12.1374 138.315C12.8201 138.55 13.7481 138.795 14.9214 139.051C16.8628 139.414 18.4308 139.872 19.6254 140.427C20.8201 140.96 21.6948 141.664 22.2494 142.539C22.8041 143.392 23.0814 144.47 23.0814 145.771C23.0814 147.222 22.6654 148.48 21.8334 149.547C21.0228 150.592 19.8921 151.392 18.4414 151.947C16.9908 152.502 15.3268 152.779 13.4494 152.779Z" fill="black"/>
<path d="M4.14999 181.621C3.91889 181.58 3.74277 181.474 3.62164 181.301C3.50051 181.128 3.46031 180.926 3.50106 180.694L7.11295 160.21C7.1537 159.979 7.26057 159.803 7.43356 159.682C7.60656 159.561 7.80861 159.521 8.03971 159.561L22.7567 162.156C22.9878 162.197 23.1639 162.304 23.285 162.477C23.4062 162.65 23.4464 162.852 23.4056 163.083L22.8833 166.046C22.8425 166.277 22.7356 166.453 22.5627 166.574C22.3897 166.695 22.1876 166.735 21.9565 166.694L11.9036 164.922L11.1534 169.176L20.513 170.827C20.7441 170.867 20.9184 170.985 21.0358 171.179C21.157 171.352 21.1972 171.554 21.1564 171.785L20.673 174.527C20.6359 174.737 20.5291 174.913 20.3524 175.055C20.1794 175.176 19.9773 175.216 19.7462 175.175L10.3866 173.525L9.61421 177.906L19.9192 179.723C20.1503 179.763 20.3265 179.87 20.4476 180.043C20.5687 180.216 20.6089 180.418 20.5682 180.649L20.0458 183.612C20.0051 183.843 19.8982 184.019 19.7252 184.14C19.5522 184.261 19.3502 184.301 19.1191 184.261L4.14999 181.621Z" fill="black"/>
</svg>
