<svg width="176" height="52" viewBox="0 0 176 52" fill="none" xmlns="http://www.w3.org/2000/svg">
<path d="M13.5483 38.7291C11.2683 38.7291 9.31229 38.3571 7.68029 37.6131C6.07229 36.8691 4.81229 35.7771 3.90029 34.3371C3.01229 32.8971 2.52029 31.1091 2.42429 28.9731C2.40029 27.9891 2.38829 26.9331 2.38829 25.8051C2.38829 24.6771 2.40029 23.5971 2.42429 22.5651C2.52029 20.4771 3.02429 18.7131 3.93629 17.2731C4.84829 15.8091 6.12029 14.7051 7.75229 13.9611C9.38429 13.1931 11.3163 12.8091 13.5483 12.8091C15.1323 12.8091 16.5963 13.0131 17.9403 13.4211C19.2843 13.8051 20.4603 14.3811 21.4683 15.1491C22.4763 15.8931 23.2563 16.8051 23.8083 17.8851C24.3843 18.9411 24.6843 20.1411 24.7083 21.4851C24.7323 21.7011 24.6603 21.8811 24.4923 22.0251C24.3483 22.1691 24.1683 22.2411 23.9523 22.2411H19.0923C18.7803 22.2411 18.5403 22.1811 18.3723 22.0611C18.2043 21.9171 18.0603 21.6651 17.9403 21.3051C17.6043 20.0331 17.0523 19.1691 16.2843 18.7131C15.5403 18.2331 14.6163 17.9931 13.5123 17.9931C12.1923 17.9931 11.1483 18.3651 10.3803 19.1091C9.61229 19.8291 9.19229 21.0411 9.12029 22.7451C9.04829 24.7131 9.04829 26.7291 9.12029 28.7931C9.19229 30.4971 9.61229 31.7211 10.3803 32.4651C11.1483 33.1851 12.1923 33.5451 13.5123 33.5451C14.6163 33.5451 15.5523 33.3051 16.3203 32.8251C17.0883 32.3451 17.6283 31.4811 17.9403 30.2331C18.0363 29.8731 18.1683 29.6331 18.3363 29.5131C18.5283 29.3691 18.7803 29.2971 19.0923 29.2971H23.9523C24.1683 29.2971 24.3483 29.3691 24.4923 29.5131C24.6603 29.6571 24.7323 29.8371 24.7083 30.0531C24.6843 31.3971 24.3843 32.6091 23.8083 33.6891C23.2563 34.7451 22.4763 35.6571 21.4683 36.4251C20.4603 37.1691 19.2843 37.7451 17.9403 38.1531C16.5963 38.5371 15.1323 38.7291 13.5483 38.7291Z" fill="black"/>
<path d="M31.6994 36.4314C31.4394 36.3855 31.2412 36.2653 31.105 36.0707C30.9687 35.876 30.9235 35.6487 30.9693 35.3887L35.0327 12.3442C35.0785 12.0843 35.1988 11.8861 35.3934 11.7498C35.588 11.6136 35.8153 11.5684 36.0753 11.6142L40.6487 12.4206C40.9087 12.4665 41.1069 12.5867 41.2431 12.7813C41.3794 12.9759 41.4246 13.2032 41.3788 13.4632L39.8722 22.0074L48.6291 23.5515L50.1357 15.0073C50.1815 14.7473 50.3018 14.5492 50.4964 14.4129C50.691 14.2766 50.9183 14.2314 51.1783 14.2773L55.7518 15.0837C56.0117 15.1295 56.2099 15.2498 56.3461 15.4444C56.4824 15.639 56.5276 15.8663 56.4818 16.1263L52.4184 39.1708C52.3726 39.4308 52.2524 39.6289 52.0577 39.7652C51.8631 39.9015 51.6358 39.9467 51.3758 39.9008L46.8024 39.0944C46.5424 39.0486 46.3442 38.9284 46.208 38.7337C46.0717 38.5391 46.0265 38.3118 46.0723 38.0518L47.6289 29.224L38.872 27.6799L37.3154 36.5077C37.2696 36.7677 37.1493 36.9659 36.9547 37.1021C36.7601 37.2384 36.5328 37.2836 36.2728 37.2378L31.6994 36.4314Z" fill="black"/>
<path d="M74.0875 38.7291C71.8795 38.7291 69.9595 38.3691 68.3275 37.6491C66.6955 36.9291 65.4235 35.8491 64.5115 34.4091C63.5995 32.9451 63.0955 31.1211 62.9995 28.9371C62.9755 27.9051 62.9635 26.8731 62.9635 25.8411C62.9635 24.8091 62.9755 23.7651 62.9995 22.7091C63.0955 20.5491 63.5995 18.7371 64.5115 17.2731C65.4475 15.7851 66.7315 14.6691 68.3635 13.9251C69.9955 13.1811 71.9035 12.8091 74.0875 12.8091C76.2475 12.8091 78.1435 13.1811 79.7755 13.9251C81.4315 14.6691 82.7275 15.7851 83.6635 17.2731C84.5995 18.7371 85.1035 20.5491 85.1755 22.7091C85.2235 23.7651 85.2475 24.8091 85.2475 25.8411C85.2475 26.8731 85.2235 27.9051 85.1755 28.9371C85.0795 31.1211 84.5755 32.9451 83.6635 34.4091C82.7515 35.8491 81.4795 36.9291 79.8475 37.6491C78.2155 38.3691 76.2955 38.7291 74.0875 38.7291ZM74.0875 33.5451C75.3595 33.5451 76.3915 33.1611 77.1835 32.3931C77.9995 31.6251 78.4315 30.4011 78.4795 28.7211C78.5275 27.6651 78.5515 26.6691 78.5515 25.7331C78.5515 24.7971 78.5275 23.8251 78.4795 22.8171C78.4315 21.6891 78.2155 20.7771 77.8315 20.0811C77.4715 19.3611 76.9675 18.8331 76.3195 18.4971C75.6715 18.1611 74.9275 17.9931 74.0875 17.9931C73.2715 17.9931 72.5395 18.1611 71.8915 18.4971C71.2435 18.8331 70.7275 19.3611 70.3435 20.0811C69.9595 20.7771 69.7435 21.6891 69.6955 22.8171C69.6715 23.8251 69.6595 24.7971 69.6595 25.7331C69.6595 26.6691 69.6715 27.6651 69.6955 28.7211C69.7675 30.4011 70.1995 31.6251 70.9915 32.3931C71.7835 33.1611 72.8155 33.5451 74.0875 33.5451Z" fill="black"/>
<path d="M106.204 38.9191C104.029 39.3025 102.076 39.2813 100.344 38.8557C98.6115 38.43 97.1713 37.5873 96.0231 36.3275C94.8708 35.0441 94.0577 33.3354 93.5839 31.2012C93.3811 30.1891 93.19 29.1748 93.0108 28.1585C92.8316 27.1422 92.6622 26.112 92.5024 25.0678C92.2219 22.924 92.4036 21.052 93.0475 19.4519C93.7109 17.8239 94.7816 16.5019 96.2596 15.4858C97.7376 14.4698 99.552 13.7721 101.703 13.3928C103.83 13.0178 105.762 13.0549 107.498 13.5042C109.258 13.9493 110.728 14.8233 111.909 16.1262C113.085 17.4054 113.896 19.1023 114.342 21.217C114.572 22.2486 114.777 23.2726 114.956 24.2889C115.135 25.3053 115.291 26.3257 115.423 27.3504C115.708 29.5179 115.528 31.4017 114.884 33.0018C114.236 34.5783 113.171 35.8628 111.689 36.8552C110.207 37.8477 108.378 38.5356 106.204 38.9191ZM105.304 33.8138C106.556 33.5929 107.506 33.0356 108.153 32.1417C108.823 31.2437 109.036 29.9632 108.791 28.3004C108.655 27.2521 108.506 26.2671 108.343 25.3453C108.181 24.4235 107.988 23.4705 107.766 22.4861C107.523 21.3836 107.152 20.523 106.653 19.9042C106.173 19.2577 105.585 18.8252 104.889 18.6068C104.192 18.3885 103.43 18.3522 102.603 18.4981C101.799 18.6398 101.108 18.9323 100.528 19.3758C99.9481 19.8192 99.5316 20.4288 99.2785 21.2045C99.0212 21.9566 98.9668 22.8923 99.1154 24.0115C99.2668 25.0083 99.4238 25.9676 99.5863 26.8894C99.7489 27.8112 99.9337 28.79 100.141 29.8258C100.503 31.4677 101.141 32.5981 102.055 33.2169C102.968 33.8357 104.051 34.0347 105.304 33.8138Z" fill="black"/>
<path d="M132.852 38.7291C130.452 38.7291 128.46 38.3931 126.876 37.7211C125.292 37.0251 124.092 36.1251 123.276 35.0211C122.46 33.9171 122.028 32.7411 121.98 31.4931C121.98 31.3011 122.052 31.1331 122.196 30.9891C122.364 30.8211 122.556 30.7371 122.772 30.7371H127.308C127.644 30.7371 127.896 30.7971 128.064 30.9171C128.256 31.0371 128.424 31.1931 128.568 31.3851C128.76 31.7451 129.024 32.0931 129.36 32.4291C129.72 32.7651 130.176 33.0411 130.728 33.2571C131.304 33.4491 132.012 33.5451 132.852 33.5451C134.244 33.5451 135.288 33.3291 135.984 32.8971C136.704 32.4651 137.064 31.8771 137.064 31.1331C137.064 30.6051 136.872 30.1731 136.488 29.8371C136.104 29.4771 135.48 29.1651 134.616 28.9011C133.776 28.6131 132.648 28.3251 131.232 28.0371C129.408 27.6531 127.848 27.1611 126.552 26.5611C125.28 25.9371 124.308 25.1331 123.636 24.1491C122.964 23.1411 122.628 21.8931 122.628 20.4051C122.628 18.9411 123.036 17.6331 123.852 16.4811C124.692 15.3291 125.856 14.4291 127.344 13.7811C128.832 13.1331 130.596 12.8091 132.636 12.8091C134.292 12.8091 135.744 13.0251 136.992 13.4571C138.264 13.8891 139.332 14.4651 140.196 15.1851C141.06 15.9051 141.708 16.6731 142.14 17.4891C142.596 18.2811 142.836 19.0611 142.86 19.8291C142.86 20.0211 142.788 20.2011 142.644 20.3691C142.5 20.5131 142.32 20.5851 142.104 20.5851H137.352C137.088 20.5851 136.86 20.5371 136.668 20.4411C136.476 20.3451 136.308 20.1891 136.164 19.9731C136.02 19.4451 135.636 18.9891 135.012 18.6051C134.412 18.1971 133.62 17.9931 132.636 17.9931C131.58 17.9931 130.752 18.1851 130.152 18.5691C129.576 18.9291 129.288 19.4931 129.288 20.2611C129.288 20.7411 129.444 21.1611 129.756 21.5211C130.092 21.8811 130.632 22.1931 131.376 22.4571C132.144 22.7211 133.188 22.9971 134.508 23.2851C136.692 23.6931 138.456 24.2091 139.8 24.8331C141.144 25.4331 142.128 26.2251 142.752 27.2091C143.376 28.1691 143.688 29.3811 143.688 30.8451C143.688 32.4771 143.22 33.8931 142.284 35.0931C141.372 36.2691 140.1 37.1691 138.468 37.7931C136.836 38.4171 134.964 38.7291 132.852 38.7291Z" fill="black"/>
<path d="M150.135 36.4168C149.875 36.3709 149.677 36.2507 149.541 36.0561C149.405 35.8615 149.359 35.6342 149.405 35.3742L153.469 12.3297C153.514 12.0697 153.635 11.8715 153.829 11.7353C154.024 11.599 154.251 11.5538 154.511 11.5996L171.068 14.519C171.328 14.5648 171.526 14.6851 171.662 14.8797C171.798 15.0743 171.844 15.3016 171.798 15.5616L171.21 18.8942C171.164 19.1542 171.044 19.3523 170.849 19.4886C170.655 19.6249 170.428 19.6701 170.168 19.6242L158.858 17.6301L158.014 22.4162L168.544 24.2729C168.804 24.3187 169 24.4508 169.132 24.669C169.268 24.8636 169.313 25.0909 169.267 25.3509L168.724 28.4354C168.682 28.6717 168.562 28.8698 168.363 29.0297C168.168 29.166 167.941 29.2112 167.681 29.1654L157.151 27.3087L156.282 32.2367L167.876 34.2809C168.136 34.3268 168.334 34.447 168.47 34.6416C168.606 34.8362 168.651 35.0635 168.606 35.3235L168.018 38.6561C167.972 38.9161 167.852 39.1142 167.657 39.2505C167.463 39.3868 167.235 39.432 166.975 39.3862L150.135 36.4168Z" fill="black"/>
</svg>
