<svg width="228" height="97" viewBox="0 0 228 97" fill="none" xmlns="http://www.w3.org/2000/svg">
<path d="M112.99 46.6454L111.328 69.4626L111.271 70.3264C110.939 71.9607 109.444 73.1234 107.722 73.0027L100.245 72.468C98.3744 72.3337 96.9924 70.7323 97.1158 68.8703L98.7446 46.2011C99.0792 41.5998 95.901 37.3029 91.3299 36.6914C86.3557 36.0169 81.9024 39.6913 81.5514 44.6272L79.8678 67.9874C79.5744 69.6601 78.0635 70.8858 76.325 70.7597L68.8307 70.2195C67.1004 70.0988 65.754 68.6729 65.7129 66.9591L66.9633 49.4314C66.9578 49.5602 66.9414 49.6891 66.9249 49.8153L67.0017 48.9871L70.2977 2.97965C70.5528 1.25485 72.0938 -0.012014 73.8625 0.114124L81.3513 0.654324C83.0898 0.77772 84.4033 2.17895 84.4691 3.87359L82.9554 24.9551C84.853 24.0091 86.9864 22.7395 89.0155 22.2157C102.51 18.6866 114.309 28.317 112.99 46.6454Z" fill="#115934"/>
<path d="M111.333 69.8949C111.325 70.0155 111.316 70.1251 111.289 70.2401C111.281 70.2703 111.281 70.2976 111.275 70.325L111.333 69.4648C111.338 69.495 111.338 69.5224 111.338 69.5525C111.347 69.6648 111.338 69.7854 111.333 69.8949Z" fill="#115934"/>
<path d="M165.076 43.9462C165.076 43.8118 165.067 43.6747 165.065 43.5513L165.12 44.3904L165.128 44.459L166.929 68.7049C166.921 68.7049 166.921 68.7049 166.929 68.7104L166.987 69.5961C166.899 71.1783 165.709 72.5082 164.113 72.7221L163.718 72.7495C163.707 72.7523 163.685 72.755 163.674 72.7523L156.726 73.2733C156.718 73.2705 156.718 73.2733 156.718 73.2733L156.057 73.3199C154.466 73.2815 153.134 72.1463 152.835 70.6025C152.835 70.6025 152.835 70.6025 152.835 70.5942C152.827 70.5586 152.818 70.5174 152.816 70.4763L152.775 69.9581L152.552 66.9472C150.241 71.1399 147.364 73.298 145.459 74.1042C132.614 79.5637 121.314 71.7267 119.948 53.3874L118.278 30.5262L118.224 29.7639C118.284 28.1049 119.581 26.7009 121.278 26.5556L121.374 26.5446L128.345 26.0291C128.348 26.0181 128.348 26.0181 128.361 26.0291L129.261 25.9551H129.269H129.283C130.802 26.062 132.085 27.2 132.354 28.7136C132.376 28.8233 132.39 28.9385 132.398 29.0537L134.095 51.764C134.441 56.3626 138.214 60.1494 142.818 60.0946C147.852 60.037 151.711 55.7511 151.34 50.818L150.951 45.5257L149.651 28.1981C149.651 28.1981 149.651 28.1981 149.648 28.1954L149.594 27.4523C149.596 27.4386 149.596 27.4276 149.596 27.4194C149.654 25.7576 150.962 24.3564 152.657 24.2111L152.744 24.2056L159.737 23.6846L160.622 23.6133H160.636C162.172 23.7038 163.461 24.8472 163.738 26.3691C163.762 26.4898 163.768 26.6077 163.781 26.7201C163.784 26.775 163.784 26.8353 163.784 26.8929L165.029 43.4691L165.076 43.9462Z" fill="#115934"/>
<path d="M225.285 38.5468C223.837 35.344 221.701 32.4867 219.176 30.1147C216.617 27.7455 213.628 25.8836 210.368 24.6935C207.119 23.4925 203.636 22.9906 200.244 23.1853C195.278 23.4321 190.493 25.1953 186.501 28.0088L186.492 27.9731C186.218 26.5636 185.064 25.4586 183.599 25.2858H183.594C183.465 25.2721 183.364 25.2639 183.243 25.2639L175.521 25.3818C173.848 25.4586 172.502 26.7638 172.343 28.3926C172.343 28.3981 172.343 28.4064 172.335 28.4146C172.321 28.5407 172.307 28.6614 172.313 28.7903L173.27 92.3392C173.275 92.4708 173.283 92.5915 173.311 92.7203C173.311 92.7258 173.311 92.7258 173.305 92.734C173.528 94.404 174.973 95.6764 176.684 95.6489L184.162 95.542C185.908 95.5201 187.32 94.1764 187.46 92.4708C187.46 92.4489 187.466 92.4105 187.466 92.3885L187.153 71.1041C188.395 71.9322 189.706 72.6589 191.072 73.2704C194.184 74.6634 197.587 75.4888 201.031 75.5957C204.475 75.7054 208.026 75.1405 211.306 73.8435C214.594 72.5437 217.591 70.542 220.083 68.0247C222.576 65.5156 224.561 62.4911 225.864 59.1841C227.169 55.8661 227.761 52.2931 227.69 48.7831C227.578 45.2732 226.782 41.7414 225.285 38.5468ZM211.712 49.0272C211.665 52.0545 210.62 54.9612 208.695 57.3084C206.751 59.6118 204.017 61.2598 200.831 61.6739C199.224 61.8604 197.576 61.7342 196.021 61.205C194.461 60.6785 192.983 59.7901 191.779 58.5808C190.564 57.3825 189.679 55.888 189.114 54.314C188.538 52.7154 188.234 51.0646 188.187 49.3754C188.16 47.6863 188.338 46.0026 188.818 44.3601C189.298 42.7258 190.131 41.1545 191.313 39.8877C192.495 38.6098 193.973 37.6391 195.53 37.0386C197.118 36.4353 198.788 36.1995 200.442 36.301C203.738 36.5423 206.74 38.0833 208.769 40.4964C210.837 42.9342 211.745 46.0026 211.712 49.0272Z" fill="#115934"/>
<path d="M59.1034 69.1861C59.076 69.2985 59.0513 69.4329 59.0239 69.5535C58.8374 70.2199 58.4919 70.7957 58.0175 71.2482C58.0093 71.2537 58.0038 71.2564 58.0038 71.2564C57.6912 71.484 57.3759 71.6897 57.0496 71.9008C57.0496 71.9035 57.0496 71.9035 57.0441 71.9035C52.7115 74.7142 47.5124 76.3376 41.9541 76.2827C26.9026 76.11 14.8344 63.7759 15.0017 48.7243C15.169 33.681 27.5031 21.6211 42.5492 21.7829C48.0636 21.8432 53.1804 23.5378 57.4335 26.4061C57.4389 26.4061 57.4389 26.4061 57.4472 26.4143C57.8228 26.6693 58.2013 26.9381 58.5714 27.2068C58.5797 27.2205 58.5797 27.2205 58.5852 27.2315C58.6619 27.3028 58.7305 27.3796 58.7936 27.4646C59.8438 28.8 59.8383 30.6701 58.8045 31.9891L58.1108 32.6636L53.0762 37.6022L52.4812 38.1726C52.4729 38.1808 52.4647 38.1863 52.4537 38.2027C51.3624 39.0226 49.9228 39.1543 48.7162 38.6086C48.5078 38.4742 48.2885 38.3426 48.0636 38.2219C48.0636 38.2165 48.0581 38.2165 48.0526 38.2137C46.3607 37.2951 44.4385 36.7686 42.3874 36.7494C35.6171 36.6726 30.0478 42.1213 29.9765 48.8888C29.8915 55.6564 35.3511 61.2339 42.1104 61.3025C44.1369 61.3244 46.0564 60.85 47.7592 59.9835C48.0197 59.8546 48.2885 59.7148 48.538 59.5557C49.1358 59.3144 49.8049 59.2157 50.5014 59.3336C51.2966 59.468 51.9903 59.8327 52.5196 60.3948C52.5415 60.414 52.5552 60.4332 52.5771 60.4497L57.6473 65.635C57.6473 65.6405 57.6528 65.6405 57.6611 65.6487L58.4919 66.5043C58.4974 66.507 58.5056 66.5098 58.5056 66.5153C58.9581 67.1761 59.1966 67.9631 59.15 68.8104C59.1336 68.9229 59.1226 69.0517 59.1034 69.1861Z" fill="#115934"/>
</svg>
