<svg width="294" height="296" viewBox="0 0 294 296" fill="none" xmlns="http://www.w3.org/2000/svg">
<path d="M146.883 102.828C129.807 105.938 111.419 118.359 102.99 133.679C98.4039 142.009 99.0019 151.416 99.7354 160.541C100.132 165.402 100.003 170.937 102.536 175.248C103.981 177.686 106.055 179.837 107.783 182.071C109.681 184.526 111.115 187.284 113.066 189.738C119.678 198.074 129.052 205.811 140.056 206.864C146.513 207.49 153.085 206.484 159.395 208.34C164.925 209.963 167.904 215.053 170.987 219.511C172.087 221.116 174.677 219.563 173.577 217.959C171.203 214.478 168.96 210.849 165.643 208.19C162.084 205.322 157.421 204.435 152.981 204.108C146.724 203.61 140.742 204.401 134.624 202.416C128.121 200.298 122.61 195.605 118.07 190.676C113.903 186.148 110.82 180.669 107.003 175.821C102.769 170.44 103.281 162.946 102.751 156.431C101.85 145.54 104.011 136.398 111.107 127.97C122.985 113.904 144.516 101.541 163.23 107.147C175.083 110.697 184.677 121.559 190.114 132.229C195.912 143.568 198.365 159.037 194.518 171.31C192.718 177.093 189.826 182.209 189.49 188.379C189.216 192.869 190.945 197.194 192.985 201.221C192.79 201.587 192.722 202.043 192.975 202.56C193.604 203.921 194.229 204.5 195.458 205.276C196.949 206.198 198.407 204.34 197.684 202.951C194.488 196.827 191.929 191.302 193.443 184.261C194.777 178.05 198.174 172.609 199.165 166.295C200.852 155.499 198.676 143.019 194.262 133.132C186.132 114.942 167.896 99.0613 146.896 102.9L146.883 102.828Z" fill="#F26522"/>
<path d="M195.555 201.41C194.869 201.204 194.42 202.021 194.715 202.568C197.443 207.872 191.714 211.17 187.704 213.775C185.26 215.354 182.697 216.762 180.112 218.129C179.038 218.708 177.952 219.267 176.856 219.805C175.274 220.606 174.743 221.755 174.887 219.062C174.986 217.256 172.218 217.362 172.077 219.138C171.934 221.203 172.789 222.546 174.51 223.555C175.506 224.142 176.925 223.037 177.787 222.599C181.968 220.555 186.073 218.368 189.983 215.869C193.367 213.704 204.631 204.128 195.513 201.38L195.555 201.41Z" fill="#F26522"/>
<path d="M202.574 213.898C202.264 213.516 201.517 213.344 201.058 213.512C193.699 216.406 188.53 224.188 180.684 225.984C178.782 226.434 179.643 229.292 181.535 228.873C185.965 227.872 189.963 224.566 193.572 221.993C195.619 220.55 197.644 219.066 199.735 217.704C200.33 217.305 202.896 215.66 202.561 215.815C203.11 215.571 203.362 215.069 203.067 214.522C202.936 214.279 202.755 214.088 202.594 213.887L202.574 213.898Z" fill="#F26522"/>
<path d="M205.276 219.016C204.736 217.528 204.339 216.016 203.707 214.552C203.275 213.556 202.065 213.057 201.206 213.939C194.891 220.324 186.444 224.013 178.265 227.376C177.411 227.732 176.984 228.589 177.454 229.461L180.906 235.865C181.352 236.645 182.157 236.682 182.743 236.314C183.34 235.966 183.719 235.212 183.293 234.422C182.397 232.76 181.501 231.098 180.605 229.436C188.094 226.394 195.58 222.96 201.616 217.563C202.092 218.98 202.548 220.408 203.177 221.769C203.597 222.693 204.892 222.623 205.524 222.047C206.565 221.067 206.635 219.984 205.465 219.123C205.381 219.064 205.298 219.056 205.225 219.017L205.276 219.016Z" fill="#F26522"/>
<path d="M204.452 222.916C201.851 221.101 197.379 224.061 195.151 225.314C191.486 227.394 188.209 230.049 184.575 232.139C182.915 233.086 184.435 235.615 186.095 234.667C189.74 232.598 193.07 229.993 196.693 227.883C198.565 226.795 200.71 225.535 202.921 225.415C203.785 225.368 204.858 225.417 205.093 224.349C205.228 223.727 204.935 223.231 204.43 222.876L204.452 222.916Z" fill="#F26522"/>
<path d="M198.299 231.158C197.25 231.2 196.318 231.363 195.362 231.773C194.345 232.216 193.655 233.216 193.043 234.069C192.114 235.355 193.946 236.668 195.102 236.046C195.284 235.947 195.476 235.818 195.625 235.659C195.707 235.615 195.789 235.623 195.87 235.579C196.944 235 197.998 234.432 199.072 233.853C200.39 233.143 199.698 231.084 198.289 231.137L198.299 231.158Z" fill="#F26522"/>
<path d="M129.056 123.508C124.907 123.914 122.183 126.14 119.802 129.438C117.421 132.735 116.164 137.1 115.534 141.075C114.708 146.385 113.99 151.846 114.268 157.215C114.322 158.285 114.516 159.566 114.827 160.968C115.026 165.124 115.73 169.243 117.376 172.88C119.874 178.387 124.355 181.072 130.359 180.033C137.379 178.838 138.16 173.736 134.231 168.582C132.17 165.875 129.807 163.722 128.209 160.66C125.298 155.115 127.177 149.865 129.748 144.687C132.211 139.698 138.089 133.182 135.689 127.178C134.731 124.818 131.531 123.247 129.076 123.498L129.056 123.508ZM132.376 132.338C131.476 135.569 129.457 138.567 127.763 141.441C124.346 147.233 122.193 153.284 124.334 159.924C126.132 165.493 131.443 168.359 133.499 173.58C134.012 174.873 133.369 175.717 132.284 176.275C132.344 175.223 131.38 174.016 130.2 174.495C126.14 176.134 123.153 171.467 121.321 168.505C119.36 165.351 118.287 161.954 117.838 158.403C117.825 155.952 117.956 153.527 118.122 151.215C118.513 145.825 119.261 139.642 121.707 134.767C122.007 134.16 121.867 133.608 121.545 133.206C122.393 131.624 123.409 130.161 124.617 128.909C126.475 127.018 129.848 126.142 132.105 127.855C133.434 128.865 132.75 131.09 132.398 132.378L132.376 132.338Z" fill="#F26522"/>
<path d="M207.448 228.476C204.94 226.637 199.449 230.328 197.279 231.446C193.375 233.471 188.871 235.742 185.68 238.848C184.29 240.199 186.455 242.275 187.857 240.944C191.078 237.848 195.771 235.684 199.706 233.668C201.755 232.616 203.906 231.561 206.169 231.1C206.987 230.921 207.87 230.811 208.089 229.908C208.256 229.295 207.922 228.822 207.448 228.476Z" fill="#F26522"/>
<path d="M204.665 234.654C204.513 234.081 203.78 233.692 203.214 234.049C200.335 235.889 198.397 238.215 194.897 238.951C192.923 239.413 193.836 242.321 195.771 241.932C196.283 241.813 196.774 241.705 197.285 241.586C196.812 241.92 196.338 242.254 195.978 242.605C194.598 243.976 196.752 246.032 198.123 244.692C200.872 241.981 206.109 240.78 206.841 236.41C207.051 235.198 205.665 234.036 204.644 234.665L204.665 234.654Z" fill="#F26522"/>
<path d="M244.942 104.875C238.664 105.748 232.865 106.781 227.209 109.777C219.921 113.627 213.973 119.527 206.458 123.054C204.6 123.925 206.259 126.614 208.087 125.786C215.106 122.552 220.924 117.429 227.465 113.406C231.407 110.967 235.567 109.562 240.155 108.999C242.361 108.725 244.156 108.464 245.905 107.05C246.759 106.355 246.019 104.739 244.942 104.875Z" fill="#F26522"/>
<path d="M191.531 40.8933C182.466 54.9857 180.911 73.4521 177.706 89.4865C177.306 91.5591 180.492 92.3265 180.912 90.2431C182.663 81.5054 184.009 72.6976 186.134 64.072C187.207 59.7538 188.571 55.5399 190.31 51.4381C191.664 48.2237 193.271 44.8985 193.555 41.3977C193.664 40.2406 192.053 40.115 191.542 40.9136L191.531 40.8933Z" fill="#F26522"/>
<path d="M97.1744 60.177C96.2774 59.1435 95.491 58.0243 94.7249 56.894C94.4222 56.4295 94.1507 55.9743 93.8885 55.4879C93.2019 54.2625 93.7836 54.4197 93.2364 54.7147C93.885 54.3651 93.9313 53.1894 93.2014 52.9027C91.7104 52.3202 90.0873 52.8027 90.1365 54.7378C90.225 57.6194 93.1063 60.5389 94.8286 62.6184C102.918 72.4342 107.793 85.2641 112.906 96.7887C113.791 98.7702 116.663 97.0132 115.789 95.0519C111.738 85.9361 107.627 76.853 102.715 68.1757C101.059 65.2495 99.343 62.696 97.1854 60.1973L97.1744 60.177Z" fill="#F26522"/>
<path d="M78.9097 139.935C72.26 138.419 64.6197 139.529 57.8162 139.378C50.0756 139.234 42.3364 138.802 34.6034 138.236C32.4561 138.086 32.5791 141.42 34.7061 141.581C42.4298 142.178 50.1783 142.579 57.9205 142.774C64.632 142.949 72.4915 143.944 78.9854 142.065C80.0269 141.765 79.9888 140.19 78.9409 139.945L78.9097 139.935Z" fill="#F26522"/>
<path d="M105.524 193.636C102.778 193.782 101.004 195.052 98.8603 196.704C94.9242 199.689 90.788 201.526 86.2308 203.407C78.0721 206.758 69.8229 209.844 61.7625 213.378C59.8012 214.252 61.5457 217.052 63.4774 216.22C71.2837 212.797 79.2787 209.822 87.1849 206.633C90.4714 205.306 93.9155 204.077 96.9711 202.274C100.169 200.393 103.097 197.821 106.144 195.708C107.021 195.104 106.707 193.6 105.535 193.656L105.524 193.636Z" fill="#F26522"/>
</svg>
