<svg width="27" height="21" viewBox="0 0 27 21" fill="none" xmlns="http://www.w3.org/2000/svg">
<path d="M25.7676 0.636719H1.76758C1.50236 0.636719 1.24801 0.742076 1.06047 0.929612C0.872935 1.11715 0.767578 1.3715 0.767578 1.63672V18.6367C0.767578 19.1672 0.978292 19.6759 1.35336 20.0509C1.72844 20.426 2.23715 20.6367 2.76758 20.6367H24.7676C25.298 20.6367 25.8067 20.426 26.1818 20.0509C26.5569 19.6759 26.7676 19.1672 26.7676 18.6367V1.63672C26.7676 1.3715 26.6622 1.11715 26.4747 0.929612C26.2871 0.742076 26.0328 0.636719 25.7676 0.636719ZM10.1063 10.6367L2.76758 17.363V3.91047L10.1063 10.6367ZM11.5863 11.993L13.0863 13.3742C13.2708 13.5436 13.5121 13.6375 13.7626 13.6375C14.013 13.6375 14.2543 13.5436 14.4388 13.3742L15.9388 11.993L23.1888 18.6367H4.33883L11.5863 11.993ZM17.4288 10.6367L24.7676 3.90922V17.3642L17.4288 10.6367Z" fill="white"/>
</svg>
