<svg width="32" height="85" viewBox="0 0 32 85" fill="none" xmlns="http://www.w3.org/2000/svg">
<path d="M10.112 16.766H30.688V20.062H10.112V16.766ZM13.952 9.79001H29.344V13.022H13.952V9.79001ZM18.88 5.95001H22.688V18.014H18.88V5.95001ZM13.472 6.78201L17.12 7.55001C16.192 10.846 14.528 14.11 12.8 16.158C12.064 15.582 10.528 14.558 9.632 14.11C11.392 12.35 12.736 9.56601 13.472 6.78201ZM21.344 18.718H25.12V25.694C25.12 26.59 25.184 26.686 25.728 26.686C25.92 26.686 26.784 26.686 27.04 26.686C27.584 26.686 27.712 26.302 27.808 23.358C28.512 23.998 30.112 24.574 31.136 24.83C30.784 29.118 29.824 30.238 27.456 30.238C26.848 30.238 25.632 30.238 25.056 30.238C21.984 30.238 21.344 29.086 21.344 25.726V18.718ZM15.584 18.59H19.424C18.944 23.806 17.696 27.998 11.776 30.462C11.36 29.47 10.304 28.03 9.472 27.294C14.432 25.502 15.2 22.43 15.584 18.59ZM1.376 8.86201L4.32 6.71801C6.112 8.15801 8.32 10.27 9.344 11.774L6.176 14.206C5.28 12.638 3.168 10.43 1.376 8.86201ZM8.672 18.142V30.302H4.992V21.694H1.44V18.142H8.672ZM8.32 28.862C9.312 28.862 10.112 29.694 11.744 30.654C13.76 31.902 16.512 32.062 19.84 32.062C23.04 32.062 28 31.806 31.104 31.358C30.688 32.382 30.08 34.27 30.048 35.294C27.68 35.454 22.88 35.646 19.744 35.646C15.936 35.646 13.408 35.23 11.264 34.014C9.952 33.214 8.928 32.286 8.224 32.286C7.04 32.286 5.28 34.174 3.552 36.158L1.024 32.83C3.456 30.59 6.272 28.862 8.32 28.862Z" fill="black"/>
<path d="M0.8 63.95C3.552 63.342 7.584 62.254 11.488 61.198L11.968 64.654C8.416 65.71 4.64 66.798 1.632 67.63L0.8 63.95ZM1.248 53.806H12V57.326H1.248V53.806ZM4.864 47.822H8.608V73.742C8.608 75.534 8.288 76.526 7.296 77.134C6.272 77.742 4.832 77.838 2.72 77.838C2.592 76.846 2.144 75.278 1.696 74.222C2.784 74.286 3.968 74.286 4.352 74.254C4.736 74.254 4.864 74.126 4.864 73.71V47.822ZM12.8 49.07H26.688V52.462H12.8V49.07ZM25.984 49.07H26.624L27.232 48.942L29.536 50.158C26.528 56.718 19.936 61.038 13.024 63.214C12.64 62.286 11.744 60.878 11.04 60.142C17.472 58.51 23.712 54.606 25.984 49.614V49.07ZM17.28 50.766C19.84 55.278 25.056 58.67 31.552 60.046C30.784 60.814 29.728 62.286 29.216 63.246C22.528 61.422 17.376 57.422 14.336 51.79L17.28 50.766ZM13.184 64.174H28.736V67.534H13.184V64.174ZM11.584 69.742H30.784V73.166H11.584V69.742ZM19.136 61.678H23.008V77.87H19.136V61.678Z" fill="black"/>
</svg>
