<svg width="119" height="58" viewBox="0 0 119 58" fill="none" xmlns="http://www.w3.org/2000/svg">
<path d="M17.96 21.0423H56.54V27.2223H17.96V21.0423ZM25.16 7.96234H54.02V14.0223H25.16V7.96234ZM34.4 0.762341H41.54V23.3823H34.4V0.762341ZM24.26 2.32234L31.1 3.76234C29.36 9.94234 26.24 16.0623 23 19.9023C21.62 18.8223 18.74 16.9023 17.06 16.0623C20.36 12.7623 22.88 7.54234 24.26 2.32234ZM39.02 24.7023H46.1V37.7823C46.1 39.4623 46.22 39.6423 47.24 39.6423C47.6 39.6423 49.22 39.6423 49.7 39.6423C50.72 39.6423 50.96 38.9223 51.14 33.4023C52.46 34.6023 55.46 35.6823 57.38 36.1623C56.72 44.2023 54.92 46.3023 50.48 46.3023C49.34 46.3023 47.06 46.3023 45.98 46.3023C40.22 46.3023 39.02 44.1423 39.02 37.8423V24.7023ZM28.22 24.4623H35.42C34.52 34.2423 32.18 42.1023 21.08 46.7223C20.3 44.8623 18.32 42.1623 16.76 40.7823C26.06 37.4223 27.5 31.6623 28.22 24.4623ZM1.58 6.22234L7.1 2.20234C10.46 4.90234 14.6 8.86234 16.52 11.6823L10.58 16.2423C8.9 13.3023 4.94 9.16234 1.58 6.22234ZM15.26 23.6223V46.4223H8.36V30.2823H1.7V23.6223H15.26ZM14.6 43.7223C16.46 43.7223 17.96 45.2823 21.02 47.0823C24.8 49.4223 29.96 49.7223 36.2 49.7223C42.2 49.7223 51.5 49.2423 57.32 48.4023C56.54 50.3223 55.4 53.8623 55.34 55.7823C50.9 56.0823 41.9 56.4423 36.02 56.4423C28.88 56.4423 24.14 55.6623 20.12 53.3823C17.66 51.8823 15.74 50.1423 14.42 50.1423C12.2 50.1423 8.9 53.6823 5.66 57.4023L0.92 51.1623C5.48 46.9623 10.76 43.7223 14.6 43.7223ZM60.5 30.7623C65.66 29.6223 73.22 27.5823 80.54 25.6023L81.44 32.0823C74.78 34.0623 67.7 36.1023 62.06 37.6623L60.5 30.7623ZM61.34 11.7423H81.5V18.3423H61.34V11.7423ZM68.12 0.522341H75.14V49.1223C75.14 52.4823 74.54 54.3423 72.68 55.4823C70.76 56.6223 68.06 56.8023 64.1 56.8023C63.86 54.9423 63.02 52.0023 62.18 50.0223C64.22 50.1423 66.44 50.1423 67.16 50.0823C67.88 50.0823 68.12 49.8423 68.12 49.0623V0.522341ZM83 2.86234H109.04V9.22234H83V2.86234ZM107.72 2.86234H108.92L110.06 2.62234L114.38 4.90234C108.74 17.2023 96.38 25.3023 83.42 29.3823C82.7 27.6423 81.02 25.0023 79.7 23.6223C91.76 20.5623 103.46 13.2423 107.72 3.88234V2.86234ZM91.4 6.04234C96.2 14.5023 105.98 20.8623 118.16 23.4423C116.72 24.8823 114.74 27.6423 113.78 29.4423C101.24 26.0223 91.58 18.5223 85.88 7.96234L91.4 6.04234ZM83.72 31.1823H112.88V37.4823H83.72V31.1823ZM80.72 41.6223H116.72V48.0423H80.72V41.6223ZM94.88 26.5023H102.14V56.8623H94.88V26.5023Z" fill="black"/>
</svg>
