<svg width="626" height="114" viewBox="0 0 626 114" fill="none" xmlns="http://www.w3.org/2000/svg">
<path d="M7.96971 83.9453C7.38005 83.9453 6.89761 83.7577 6.52237 83.3825C6.14714 83.0072 5.95952 82.5248 5.95952 81.9351L5.95952 29.6701C5.95952 29.0804 6.14714 28.598 6.52237 28.2227C6.89761 27.8475 7.38005 27.6599 7.96971 27.6599H30.4839C34.9331 27.6599 38.7927 28.3567 42.0626 29.7505C45.3861 31.0906 47.9592 33.1276 49.7817 35.8615C51.6579 38.5953 52.596 42.0529 52.596 46.2341C52.596 50.3617 51.6579 53.7656 49.7817 56.4459C47.9592 59.1261 45.3861 61.1095 42.0626 62.396C38.7927 63.6826 34.9331 64.3258 30.4839 64.3258H20.9154L20.9154 81.9351C20.9154 82.5248 20.7009 83.0072 20.2721 83.3825C19.8969 83.7577 19.4144 83.9453 18.8248 83.9453H7.96971ZM20.6741 53.2295H30.0818C32.3869 53.2295 34.2094 52.6399 35.5496 51.4606C36.9433 50.2813 37.6402 48.4855 37.6402 46.0733C37.6402 44.0363 37.0505 42.3209 35.8712 40.9272C34.6919 39.5334 32.7621 38.8366 30.0818 38.8366H20.6741V53.2295Z" fill="black"/>
<path d="M58.986 80.8644C58.4053 80.762 57.9627 80.4935 57.6583 80.0588C57.354 79.6241 57.253 79.1164 57.3554 78.5357L66.4311 27.0647C66.5335 26.484 66.802 26.0414 67.2367 25.7371C67.6714 25.4327 68.1791 25.3317 68.7598 25.4341L105.74 31.9546C106.32 32.057 106.763 32.3256 107.067 32.7603C107.372 33.195 107.473 33.7027 107.37 34.2834L106.058 41.7269C105.955 42.3076 105.687 42.7501 105.252 43.0545C104.818 43.3589 104.31 43.4598 103.729 43.3575L78.4687 38.9034L76.5838 49.5935L100.102 53.7404C100.683 53.8428 101.121 54.1377 101.416 54.6252C101.72 55.0599 101.821 55.5676 101.719 56.1483L100.504 63.0375C100.411 63.5654 100.142 64.008 99.6983 64.3651C99.2636 64.6695 98.7559 64.7705 98.1752 64.6681L74.6569 60.5212L72.7161 71.5281L98.61 76.0939C99.1907 76.1963 99.6332 76.4648 99.9376 76.8995C100.242 77.3342 100.343 77.8419 100.241 78.4226L98.9281 85.8661C98.8257 86.4468 98.5572 86.8893 98.1225 87.1937C97.6878 87.4981 97.1801 87.5991 96.5994 87.4967L58.986 80.8644Z" fill="black"/>
<path d="M387.204 84.7877C381.925 83.8568 377.674 82.3451 374.45 80.2526C371.236 78.1074 368.946 75.6623 367.579 72.9174C366.212 70.1725 365.718 67.4182 366.097 64.6545C366.171 64.2322 366.395 63.8906 366.767 63.6297C367.202 63.3253 367.657 63.215 368.132 63.2988L378.109 65.0581C378.848 65.1884 379.38 65.4181 379.703 65.7472C380.078 66.0856 380.387 66.4939 380.63 66.9721C380.912 67.8384 381.358 68.7063 381.967 69.5757C382.628 70.4544 383.524 71.2383 384.655 71.9276C385.847 72.5733 387.367 73.059 389.215 73.3848C392.277 73.9247 394.657 73.8545 396.356 73.1742C398.107 72.5033 399.127 71.3495 399.415 69.713C399.62 68.5516 399.365 67.5269 398.651 66.6389C397.946 65.6981 396.694 64.7698 394.896 63.854C393.16 62.8947 390.791 61.8237 387.788 60.641C383.925 59.0889 380.684 57.4017 378.066 55.5793C375.51 53.7134 373.684 51.5679 372.588 49.1428C371.5 46.665 371.245 43.7895 371.823 40.5165C372.39 37.2963 373.795 34.5774 376.037 32.3599C378.331 30.1518 381.241 28.6236 384.765 27.7753C388.289 26.9271 392.295 26.8986 396.782 27.6898C400.425 28.3321 403.535 29.3704 406.113 30.8047C408.743 32.2482 410.869 33.9294 412.49 35.8483C414.111 37.7671 415.239 39.7077 415.872 41.6702C416.568 43.5891 416.794 45.3979 416.549 47.0965C416.474 47.5189 416.246 47.8869 415.864 48.2005C415.491 48.4614 415.068 48.55 414.592 48.4662L404.14 46.6232C403.559 46.5208 403.076 46.3267 402.691 46.0411C402.306 45.7555 401.997 45.3472 401.764 44.8162C401.652 43.599 400.984 42.447 399.761 41.3603C398.599 40.2302 396.936 39.4743 394.772 39.0926C392.449 38.6831 390.553 38.7843 389.085 39.3962C387.678 39.9647 386.826 41.0935 386.528 42.7828C386.342 43.8387 386.522 44.823 387.069 45.7359C387.668 46.6581 388.735 47.5538 390.269 48.423C391.856 49.3016 394.045 50.3136 396.837 51.4591C401.483 53.2036 405.163 55.0228 407.877 56.9166C410.6 58.7576 412.458 60.8814 413.449 63.2878C414.449 65.6415 414.665 68.4284 414.097 71.6486C413.464 75.2384 411.886 78.1716 409.361 80.4481C406.899 82.6811 403.752 84.1674 399.92 84.907C396.089 85.6466 391.85 85.6068 387.204 84.7877Z" fill="black"/>
<path d="M510.383 79.4177C509.961 79.3432 509.593 79.115 509.279 78.7331C509.028 78.3078 508.939 77.8839 509.014 77.4616C509.06 77.1976 509.128 76.9647 509.218 76.7629L536.791 29.2066C537.052 28.6538 537.457 28.2081 538.007 27.8696C538.618 27.4875 539.373 27.3756 540.27 27.5339L551.99 29.6004C552.887 29.7586 553.532 30.1172 553.923 30.6761C554.377 31.1915 554.631 31.7535 554.687 32.3621L564.253 86.4669C564.321 86.6967 564.332 86.9436 564.286 87.2075C564.211 87.6298 563.956 87.9932 563.522 88.2976C563.149 88.5585 562.725 88.647 562.25 88.5632L552.51 86.8458C551.718 86.7062 551.144 86.4144 550.787 85.9704C550.492 85.4829 550.319 85.0715 550.27 84.7361L548.605 76.1146L527.463 72.3866L523.03 79.933C522.868 80.2311 522.565 80.5587 522.121 80.9159C521.687 81.2203 521.021 81.2933 520.123 81.1351L510.383 79.4177ZM532.72 61.5562L547.449 64.1533L543.691 41.9356L532.72 61.5562Z" fill="black"/>
<path d="M111.684 83.9453C111.094 83.9453 110.612 83.7577 110.236 83.3825C109.861 83.0072 109.673 82.5248 109.673 81.9351V29.6701C109.673 29.0804 109.861 28.598 110.236 28.2227C110.612 27.8475 111.094 27.6599 111.684 27.6599H120.207C121.118 27.6599 121.761 27.8743 122.137 28.3031C122.565 28.6784 122.833 28.9732 122.941 29.1876L142.56 60.1446V29.6701C142.56 29.0804 142.748 28.598 143.123 28.2227C143.498 27.8475 143.981 27.6599 144.57 27.6599H154.219C154.809 27.6599 155.291 27.8475 155.667 28.2227C156.042 28.598 156.23 29.0804 156.23 29.6701V81.9351C156.23 82.4712 156.042 82.9536 155.667 83.3825C155.291 83.7577 154.809 83.9453 154.219 83.9453H145.616C144.758 83.9453 144.115 83.7309 143.686 83.3021C143.311 82.8732 143.069 82.5784 142.962 82.4176L123.343 52.6667V81.9351C123.343 82.5248 123.155 83.0072 122.78 83.3825C122.405 83.7577 121.922 83.9453 121.333 83.9453H111.684Z" fill="black"/>
<path d="M575.684 83.9453C575.094 83.9453 574.612 83.7577 574.236 83.3825C573.861 83.0072 573.673 82.5248 573.673 81.9351V29.6701C573.673 29.0804 573.861 28.598 574.236 28.2227C574.612 27.8475 575.094 27.6599 575.684 27.6599H584.207C585.118 27.6599 585.761 27.8743 586.137 28.3031C586.565 28.6784 586.833 28.9732 586.941 29.1876L606.56 60.1446V29.6701C606.56 29.0804 606.748 28.598 607.123 28.2227C607.498 27.8475 607.981 27.6599 608.57 27.6599H618.219C618.809 27.6599 619.291 27.8475 619.667 28.2227C620.042 28.598 620.23 29.0804 620.23 29.6701V81.9351C620.23 82.4712 620.042 82.9536 619.667 83.3825C619.291 83.7577 618.809 83.9453 618.219 83.9453H609.616C608.758 83.9453 608.115 83.7309 607.686 83.3021C607.311 82.8732 607.069 82.5784 606.962 82.4176L587.343 52.6667V81.9351C587.343 82.5248 587.155 83.0072 586.78 83.3825C586.405 83.7577 585.922 83.9453 585.333 83.9453H575.684Z" fill="black"/>
<path d="M185.658 85.0026C185.13 85.0956 184.622 84.9946 184.135 84.6996C183.7 84.3952 183.432 83.9527 183.329 83.372L180.327 66.3469L155.98 35.6946C155.899 35.5455 155.823 35.4229 155.752 35.3266C155.671 35.1775 155.617 35.0238 155.589 34.8654C155.515 34.4431 155.608 34.0456 155.869 33.6731C156.173 33.2384 156.563 32.9791 157.038 32.8953L166.936 31.15C167.728 31.0104 168.372 31.1145 168.869 31.4624C169.409 31.7481 169.76 32.0401 169.922 32.3382L184.927 50.7576L192.727 28.3169C192.83 27.9723 193.06 27.5779 193.417 27.1339C193.818 26.6278 194.414 26.305 195.206 26.1653L205.104 24.42C205.579 24.3362 206.008 24.4512 206.389 24.7649C206.762 25.0258 206.986 25.3674 207.06 25.7897C207.088 25.9481 207.09 26.1111 207.065 26.2788C207.083 26.3844 207.08 26.521 207.055 26.6887L194.581 63.8337L197.583 80.8587C197.685 81.4394 197.584 81.9471 197.28 82.3818C196.976 82.8165 196.533 83.085 195.952 83.1874L185.658 85.0026Z" fill="black"/>
<path d="M318.291 87.1091C317.71 87.2115 317.203 87.1105 316.768 86.8061C316.333 86.5018 316.065 86.0592 315.962 85.4785L306.887 34.0075C306.784 33.4268 306.885 32.9191 307.19 32.4844C307.494 32.0497 307.937 31.7812 308.517 31.6788L345.497 25.1582C346.078 25.0558 346.586 25.1568 347.02 25.4612C347.455 25.7656 347.724 26.2081 347.826 26.7888L349.138 34.2323C349.241 34.813 349.14 35.3207 348.835 35.7554C348.531 36.1901 348.089 36.4586 347.508 36.561L322.247 41.0151L324.132 51.7053L347.651 47.5584C348.231 47.456 348.744 47.5834 349.188 47.9405C349.622 48.2449 349.891 48.6874 349.993 49.2681L351.208 56.1573C351.301 56.6852 351.2 57.1929 350.905 57.6804C350.601 58.1151 350.158 58.3837 349.578 58.486L326.059 62.633L328 73.6398L353.894 69.074C354.475 68.9717 354.982 69.0726 355.417 69.377C355.852 69.6814 356.12 70.1239 356.223 70.7046L357.535 78.1481C357.638 78.7288 357.537 79.2365 357.232 79.6712C356.928 80.1059 356.485 80.3745 355.905 80.4769L318.291 87.1091Z" fill="black"/>
<path d="M427.089 88.5549C426.667 88.6293 426.243 88.5408 425.817 88.2892C425.435 87.9755 425.207 87.6075 425.133 87.1852C425.086 86.9212 425.071 86.679 425.086 86.4585L434.731 32.3398C434.787 31.7311 435.015 31.1738 435.416 30.6677C435.86 30.0995 436.531 29.7363 437.428 29.578L449.148 27.5115C450.045 27.3533 450.773 27.4698 451.332 27.8612C451.935 28.1904 452.366 28.6314 452.627 29.1842L480.121 76.7545C480.263 76.947 480.358 77.1753 480.405 77.4392C480.479 77.8616 480.364 78.2901 480.06 78.7248C479.799 79.0974 479.431 79.3255 478.956 79.4093L469.216 81.1267C468.424 81.2663 467.784 81.1886 467.297 80.8936C466.853 80.5364 466.55 80.2087 466.389 79.9106L461.876 72.3782L440.734 76.1062L439.149 84.7138C439.099 85.0491 438.927 85.4606 438.631 85.948C438.327 86.3827 437.726 86.6792 436.829 86.8375L427.089 88.5549ZM441.97 64.1309L456.698 61.5339L445.569 41.9412L441.97 64.1309Z" fill="black"/>
<path d="M497.234 84.725C496.653 84.8274 496.146 84.7265 495.711 84.4221C495.276 84.1177 495.008 83.6752 494.905 83.0945L485.83 31.6234C485.727 31.0427 485.828 30.535 486.132 30.1004C486.437 29.6657 486.879 29.3971 487.46 29.2947L498.071 27.4237C498.652 27.3213 499.159 27.4223 499.594 27.7267C500.029 28.0311 500.297 28.4736 500.4 29.0543L509.475 80.5253C509.578 81.106 509.477 81.6137 509.173 82.0484C508.868 82.4831 508.426 82.7517 507.845 82.8541L497.234 84.725Z" fill="black"/>
<path d="M221.065 83.9453C220.476 83.9453 219.993 83.7577 219.618 83.3825C219.243 83.0072 219.055 82.5248 219.055 81.9351V29.6701C219.055 29.0804 219.243 28.598 219.618 28.2227C219.993 27.8475 220.476 27.6599 221.065 27.6599H258.616C259.205 27.6599 259.688 27.8475 260.063 28.2227C260.438 28.598 260.626 29.0804 260.626 29.6701V37.2284C260.626 37.8181 260.438 38.3005 260.063 38.6757C259.688 39.051 259.205 39.2386 258.616 39.2386H232.966V50.0936H256.847C257.436 50.0936 257.919 50.3081 258.294 50.7369C258.669 51.1121 258.857 51.5946 258.857 52.1842V59.1797C258.857 59.7158 258.669 60.1982 258.294 60.6271C257.919 61.0023 257.436 61.1899 256.847 61.1899H232.966V72.3666H259.259C259.849 72.3666 260.331 72.5542 260.706 72.9294C261.081 73.3047 261.269 73.7871 261.269 74.3768V81.9351C261.269 82.5248 261.081 83.0072 260.706 83.3825C260.331 83.7577 259.849 83.9453 259.259 83.9453H221.065Z" fill="black"/>
<path d="M266.482 80.8904C265.901 80.788 265.458 80.5194 265.154 80.0847C264.85 79.65 264.749 79.1423 264.851 78.5616L273.927 27.0906C274.029 26.5099 274.298 26.0674 274.732 25.763C275.167 25.4586 275.675 25.3576 276.256 25.46L286.708 27.3031C287.236 27.3962 287.652 27.6601 287.957 28.0948C288.314 28.5388 288.441 29.0511 288.339 29.6318L281.022 71.1254L304.936 75.3421C305.517 75.4445 305.955 75.7394 306.25 76.2269C306.607 76.6709 306.735 77.1833 306.632 77.764L305.236 85.6826C305.134 86.2633 304.839 86.7012 304.351 86.9962C303.917 87.3006 303.409 87.4016 302.828 87.2992L266.482 80.8904Z" fill="black"/>
</svg>
