<svg width="28" height="159" viewBox="0 0 28 159" fill="none" xmlns="http://www.w3.org/2000/svg">
<path d="M5.18063 32.1543C4.94596 32.1543 4.75396 32.0796 4.60463 31.9303C4.45529 31.781 4.38063 31.589 4.38063 31.3543L4.38063 10.5543C4.38063 10.3196 4.45529 10.1276 4.60463 9.9783C4.75396 9.82896 4.94596 9.7543 5.18063 9.7543H14.1406C15.9113 9.7543 17.4473 10.0316 18.7486 10.5863C20.0713 11.1196 21.0953 11.9303 21.8206 13.0183C22.5673 14.1063 22.9406 15.4823 22.9406 17.1463C22.9406 18.789 22.5673 20.1436 21.8206 21.2103C21.0953 22.277 20.0713 23.0663 18.7486 23.5783C17.4473 24.0903 15.9113 24.3463 14.1406 24.3463H10.3326V31.3543C10.3326 31.589 10.2473 31.781 10.0766 31.9303C9.92729 32.0796 9.73529 32.1543 9.50063 32.1543H5.18063ZM10.2366 19.9303H13.9806C14.898 19.9303 15.6233 19.6956 16.1566 19.2263C16.7113 18.757 16.9886 18.0423 16.9886 17.0823C16.9886 16.2716 16.754 15.589 16.2846 15.0343C15.8153 14.4796 15.0473 14.2023 13.9806 14.2023H10.2366V19.9303Z" fill="black"/>
<path d="M9.3516 61.4236C9.1205 61.3828 8.94438 61.2759 8.82325 61.1029C8.70211 60.9299 8.66192 60.7279 8.70267 60.4968L12.3146 40.0128C12.3553 39.7817 12.4622 39.6056 12.6352 39.4844C12.8082 39.3633 13.0102 39.3231 13.2413 39.3639L17.4642 40.1085C17.6953 40.1492 17.8714 40.2561 17.9925 40.4291C18.1137 40.6021 18.1539 40.8041 18.1131 41.0352L14.5012 61.5192C14.4605 61.7503 14.3536 61.9265 14.1806 62.0476C14.0076 62.1687 13.8056 62.2089 13.5745 62.1682L9.3516 61.4236Z" fill="black"/>
<path d="M6.94625 92.1543C6.71158 92.1543 6.51958 92.0796 6.37025 91.9303C6.22092 91.781 6.14625 91.589 6.14625 91.3543L6.14625 70.5543C6.14625 70.3196 6.22092 70.1276 6.37025 69.9783C6.51958 69.829 6.71158 69.7543 6.94625 69.7543H11.1703C11.3836 69.7543 11.5649 69.829 11.7143 69.9783C11.8849 70.1276 11.9703 70.3196 11.9703 70.5543V87.3223H21.6343C21.8689 87.3223 22.0609 87.4076 22.2103 87.5783C22.3809 87.7276 22.4663 87.9196 22.4663 88.1543V91.3543C22.4663 91.589 22.3809 91.781 22.2103 91.9303C22.0609 92.0796 21.8689 92.1543 21.6343 92.1543H6.94625Z" fill="black"/>
<path d="M13.5603 122.364C13.3292 122.405 13.1272 122.365 12.9542 122.244C12.7812 122.123 12.6743 121.946 12.6335 121.715L9.02166 101.231C8.98091 101 9.0211 100.798 9.14223 100.625C9.26337 100.452 9.43949 100.345 9.67059 100.305L13.8934 99.56C14.1245 99.5193 14.3266 99.5595 14.4996 99.6806C14.6726 99.8017 14.7795 99.9779 14.8202 100.209L18.4321 120.693C18.4728 120.924 18.4326 121.126 18.3115 121.299C18.1904 121.472 18.0143 121.579 17.7832 121.62L13.5603 122.364Z" fill="black"/>
<path d="M4.5693 152.154C4.33463 152.154 4.14263 152.08 3.9933 151.93C3.84396 151.781 3.7693 151.589 3.7693 151.354L3.7693 130.554C3.7693 130.32 3.84396 130.128 3.9933 129.978C4.14263 129.829 4.33463 129.754 4.5693 129.754H8.6973C8.93196 129.754 9.12396 129.829 9.2733 129.978C9.42263 130.128 9.4973 130.32 9.4973 130.554V138.266H17.4013V130.554C17.4013 130.32 17.476 130.128 17.6253 129.978C17.7746 129.829 17.9666 129.754 18.2013 129.754H22.3293C22.564 129.754 22.756 129.829 22.9053 129.978C23.0546 130.128 23.1293 130.32 23.1293 130.554V151.354C23.1293 151.589 23.0546 151.781 22.9053 151.93C22.756 152.08 22.564 152.154 22.3293 152.154H18.2013C17.9666 152.154 17.7746 152.08 17.6253 151.93C17.476 151.781 17.4013 151.589 17.4013 151.354V143.386H9.4973V151.354C9.4973 151.589 9.42263 151.781 9.2733 151.93C9.12396 152.08 8.93196 152.154 8.6973 152.154H4.5693Z" fill="black"/>
</svg>
