<svg width="146" height="50" viewBox="0 0 146 50" fill="none" xmlns="http://www.w3.org/2000/svg">
<path d="M3.99617 37.1028C3.73217 37.1028 3.51617 37.0188 3.34817 36.8508C3.18017 36.6828 3.09617 36.4668 3.09617 36.2028L3.09617 12.8028C3.09617 12.5388 3.18017 12.3228 3.34817 12.1548C3.51617 11.9868 3.73217 11.9028 3.99617 11.9028H14.0762C16.0682 11.9028 17.7962 12.2148 19.2602 12.8388C20.7482 13.4388 21.9002 14.3508 22.7162 15.5748C23.5562 16.7988 23.9762 18.3468 23.9762 20.2188C23.9762 22.0668 23.5562 23.5908 22.7162 24.7908C21.9002 25.9908 20.7482 26.8788 19.2602 27.4548C17.7962 28.0308 16.0682 28.3188 14.0762 28.3188H9.79217L9.79217 36.2028C9.79217 36.4668 9.69617 36.6828 9.50417 36.8508C9.33617 37.0188 9.12017 37.1028 8.85617 37.1028H3.99617ZM9.68417 23.3508H13.8962C14.9282 23.3508 15.7442 23.0868 16.3442 22.5588C16.9682 22.0308 17.2802 21.2268 17.2802 20.1468C17.2802 19.2348 17.0162 18.4668 16.4882 17.8428C15.9602 17.2188 15.0962 16.9068 13.8962 16.9068H9.68417V23.3508Z" fill="black"/>
<path d="M37.5732 36.3938C37.3132 36.348 37.1151 36.2277 36.9788 36.0331C36.8425 35.8385 36.7973 35.6112 36.8432 35.3512L40.9065 12.3067C40.9524 12.0467 41.0726 11.8486 41.2672 11.7123C41.4618 11.576 41.6891 11.5308 41.9491 11.5766L46.6998 12.4143C46.9598 12.4602 47.158 12.5804 47.2942 12.775C47.4305 12.9696 47.4757 13.1969 47.4299 13.4569L43.3665 36.5014C43.3207 36.7614 43.2004 36.9596 43.0058 37.0958C42.8112 37.2321 42.5839 37.2773 42.3239 37.2315L37.5732 36.3938Z" fill="black"/>
<path d="M65.672 37.1028C65.408 37.1028 65.192 37.0188 65.024 36.8508C64.856 36.6828 64.772 36.4668 64.772 36.2028V12.8028C64.772 12.5388 64.856 12.3228 65.024 12.1548C65.192 11.9868 65.408 11.9028 65.672 11.9028H70.424C70.664 11.9028 70.868 11.9868 71.036 12.1548C71.228 12.3228 71.324 12.5388 71.324 12.8028V31.6668H82.196C82.46 31.6668 82.676 31.7628 82.844 31.9548C83.036 32.1228 83.132 32.3388 83.132 32.6028V36.2028C83.132 36.4668 83.036 36.6828 82.844 36.8508C82.676 37.0188 82.46 37.1028 82.196 37.1028H65.672Z" fill="black"/>
<path d="M102.666 37.7179C102.406 37.7638 102.178 37.7185 101.984 37.5823C101.789 37.446 101.669 37.2479 101.623 36.9879L97.5597 13.9434C97.5139 13.6834 97.5591 13.4561 97.6954 13.2615C97.8317 13.0668 98.0298 12.9466 98.2898 12.9008L103.04 12.0631C103.3 12.0172 103.528 12.0625 103.722 12.1987C103.917 12.335 104.037 12.5331 104.083 12.7931L108.146 35.8376C108.192 36.0976 108.147 36.3249 108.011 36.5195C107.875 36.7142 107.676 36.8344 107.416 36.8802L102.666 37.7179Z" fill="black"/>
<path d="M122.266 37.1028C122.002 37.1028 121.786 37.0188 121.618 36.8508C121.45 36.6828 121.366 36.4668 121.366 36.2028V12.8028C121.366 12.5388 121.45 12.3228 121.618 12.1548C121.786 11.9868 122.002 11.9028 122.266 11.9028H126.91C127.174 11.9028 127.39 11.9868 127.558 12.1548C127.726 12.3228 127.81 12.5388 127.81 12.8028V21.4788H136.702V12.8028C136.702 12.5388 136.786 12.3228 136.954 12.1548C137.122 11.9868 137.338 11.9028 137.602 11.9028H142.246C142.51 11.9028 142.726 11.9868 142.894 12.1548C143.062 12.3228 143.146 12.5388 143.146 12.8028V36.2028C143.146 36.4668 143.062 36.6828 142.894 36.8508C142.726 37.0188 142.51 37.1028 142.246 37.1028H137.602C137.338 37.1028 137.122 37.0188 136.954 36.8508C136.786 36.6828 136.702 36.4668 136.702 36.2028V27.2388H127.81V36.2028C127.81 36.4668 127.726 36.6828 127.558 36.8508C127.39 37.0188 127.174 37.1028 126.91 37.1028H122.266Z" fill="black"/>
</svg>
