<svg width="46" height="59" viewBox="0 0 46 59" fill="none" xmlns="http://www.w3.org/2000/svg">
<path d="M10.7979 56.6511C10.2058 56.5467 9.75439 56.2736 9.44378 55.8316C9.13316 55.3897 9.02987 54.8737 9.13391 54.2837L10.7512 45.1113C10.8458 44.5749 11.1146 44.1522 11.5577 43.8432C12.0101 43.4805 12.5325 43.3514 13.1246 43.4558L23.4604 45.2783C24.0525 45.3827 24.4992 45.6827 24.8003 46.1783C25.1648 46.6297 25.2997 47.1236 25.2051 47.66L23.5878 56.8323C23.4838 57.4224 23.1833 57.8671 22.6865 58.1667C22.2434 58.4757 21.7258 58.578 21.1337 58.4736L10.7979 56.6511Z" fill="#F26522"/>
<path d="M13.6441 39.5652C13.2134 39.4893 12.8603 39.2888 12.5846 38.9636C12.3183 38.5848 12.223 38.1809 12.2987 37.7518C12.3554 37.4299 12.4075 37.1349 12.4548 36.8667C12.5115 36.5449 12.5683 36.223 12.625 35.9012C13.279 34.0808 14.196 32.5003 15.376 31.1597C16.6193 29.775 17.9735 28.5482 19.4386 27.4792C20.9576 26.4196 22.4085 25.431 23.7914 24.5134C25.1743 23.5958 26.3641 22.6718 27.3608 21.7414C28.4207 20.7669 29.0769 19.7211 29.3294 18.6042C29.6451 17.4431 29.5778 16.408 29.1275 15.499C28.7311 14.5995 28.0593 13.845 27.1122 13.2356C26.2188 12.6356 25.2069 12.2359 24.0765 12.0366C21.9232 11.6569 20.1376 11.8675 18.7198 12.6683C17.3019 13.4692 16.1489 14.8145 15.2606 16.7042C14.9413 17.2563 14.5601 17.6868 14.117 17.9958C13.6835 18.2512 13.1168 18.3172 12.4169 18.1938L2.56567 16.4568C2.02735 16.3619 1.60288 16.0935 1.29227 15.6515C0.991106 15.156 0.897275 14.5864 1.01077 13.9427C1.44293 11.8066 2.3232 9.80483 3.65158 7.93738C5.0338 6.07943 6.81357 4.48515 8.99089 3.15455C11.2315 1.77979 13.8635 0.861203 16.8868 0.398769C19.9196 -0.117303 23.2932 -0.0478635 27.0077 0.607087C31.0451 1.31899 34.3244 2.395 36.8458 3.83511C39.3671 5.27523 41.2443 6.90595 42.4774 8.72727C43.7642 10.5581 44.5746 12.4155 44.9084 14.2995C45.2517 16.1299 45.2372 17.7865 44.8647 19.2694C44.4703 21.191 43.7861 22.8678 42.812 24.3C41.8379 25.7321 40.6943 27.0238 39.3812 28.1749C38.1314 29.2819 36.8056 30.3478 35.4038 31.3727C34.0652 32.3535 32.8027 33.3753 31.6162 34.4381C30.4391 35.4473 29.4901 36.5797 28.7692 37.8353C28.5953 38.1918 28.4214 38.5483 28.2476 38.9048C28.0832 39.2076 27.9409 39.542 27.8209 39.908C27.3211 40.5389 26.8766 41.0136 26.4874 41.3321C26.1077 41.597 25.5948 41.6725 24.9488 41.5586L13.6441 39.5652Z" fill="#115934"/>
</svg>
