<svg width="430" height="115" viewBox="0 0 430 115" fill="none" xmlns="http://www.w3.org/2000/svg">
<path d="M27.0952 85.5531C21.7347 85.5531 17.2855 84.8026 13.7475 83.3017C10.2096 81.7471 7.52933 79.7369 5.70675 77.2711C3.88417 74.8053 2.91928 72.1786 2.81207 69.3911C2.81207 68.9623 2.97289 68.5871 3.29452 68.2654C3.66975 67.8902 4.09859 67.7026 4.58104 67.7026H14.7124C15.4629 67.7026 16.0257 67.8366 16.401 68.1046C16.8298 68.3726 17.2051 68.7211 17.5267 69.1499C17.9555 69.954 18.5452 70.7313 19.2957 71.4817C20.0997 72.2322 21.1182 72.8487 22.3512 73.3311C23.6377 73.76 25.219 73.9744 27.0952 73.9744C30.2043 73.9744 32.5361 73.4919 34.0907 72.527C35.6988 71.5622 36.5029 70.2488 36.5029 68.5871C36.5029 67.4078 36.0741 66.4429 35.2164 65.6924C34.3587 64.8883 32.965 64.1914 31.0352 63.6018C29.159 62.9585 26.6396 62.3153 23.4769 61.672C19.4029 60.8143 15.9185 59.7154 13.0239 58.3753C10.1828 56.9815 8.01177 55.1858 6.51083 52.988C5.00988 50.7365 4.25941 47.9491 4.25941 44.6256C4.25941 41.3556 5.1707 38.4342 6.99327 35.8611C8.86945 33.2881 11.4693 31.2779 14.7928 29.8305C18.1163 28.3832 22.0563 27.6595 26.6128 27.6595C30.3115 27.6595 33.5546 28.142 36.3421 29.1069C39.1832 30.0717 41.5686 31.3583 43.4984 32.9664C45.4282 34.5746 46.8755 36.2899 47.8404 38.1125C48.8589 39.8815 49.395 41.6237 49.4486 43.339C49.4486 43.7679 49.2878 44.1699 48.9661 44.5451C48.6445 44.8668 48.2425 45.0276 47.76 45.0276H37.1462C36.5565 45.0276 36.0473 44.9204 35.6184 44.706C35.1896 44.4915 34.8144 44.1431 34.4927 43.6607C34.1711 42.4813 33.3134 41.4628 31.9197 40.6052C30.5796 39.6939 28.8106 39.2382 26.6128 39.2382C24.2541 39.2382 22.4048 39.6671 21.0646 40.5248C19.7781 41.3288 19.1348 42.5886 19.1348 44.3039C19.1348 45.376 19.4833 46.3141 20.1801 47.1182C20.9306 47.9223 22.1367 48.6191 23.7985 49.2088C25.5139 49.7985 27.8457 50.4149 30.794 51.0582C35.672 51.9695 39.612 53.122 42.6139 54.5157C45.6158 55.8558 47.8136 57.6248 49.2073 59.8226C50.6011 61.9668 51.2979 64.6739 51.2979 67.9438C51.2979 71.589 50.2526 74.7517 48.162 77.4319C46.125 80.0586 43.284 82.0688 39.6388 83.4625C35.9937 84.8562 31.8125 85.5531 27.0952 85.5531Z" fill="black"/>
<path d="M76.713 85.5924C71.8562 84.736 67.7726 83.1995 64.4621 80.9828C61.1516 78.7661 58.7725 75.8971 57.325 72.376C55.8867 68.802 55.4856 64.5944 56.1215 59.7532C56.469 57.4739 56.8428 55.1993 57.2431 52.9293C57.6434 50.6593 58.0747 48.3675 58.537 46.054C59.586 41.3401 61.3973 37.5499 63.9712 34.6833C66.6072 31.7733 69.8643 29.8166 73.7427 28.813C77.621 27.8095 81.9621 27.7313 86.7661 28.5783C91.5173 29.4161 95.5435 30.9697 98.8447 33.2392C102.199 35.518 104.617 38.4754 106.098 42.1115C107.589 45.6947 107.995 49.8759 107.316 54.655C107.012 56.9964 106.66 59.3021 106.259 61.5721C105.859 63.8421 105.406 66.1028 104.9 68.3542C103.842 73.121 102.026 76.9376 99.452 79.8041C96.8875 82.6178 93.6707 84.5001 89.8017 85.4508C85.9326 86.4016 81.5697 86.4487 76.713 85.5924ZM78.7236 74.1896C81.5215 74.6829 83.9405 74.2385 85.9804 72.8564C88.0732 71.4836 89.4981 68.9588 90.2553 65.2821C90.7705 62.9779 91.2096 60.7964 91.5726 58.7375C91.9356 56.6787 92.2598 54.5314 92.5452 52.2955C92.8771 49.7957 92.7557 47.7059 92.181 46.026C91.6684 44.3027 90.7646 42.9458 89.4695 41.9554C88.1745 40.965 86.6032 40.3069 84.7555 39.9811C82.9606 39.6646 81.2853 39.7503 79.7296 40.238C78.174 40.7258 76.8342 41.687 75.7103 43.1218C74.5957 44.5038 73.7668 46.4261 73.2238 48.8886C72.78 51.0965 72.3766 53.2299 72.0136 55.2888C71.6506 57.3476 71.2907 59.5431 70.9339 61.8752C70.4407 65.5984 70.9162 68.4583 72.3604 70.4548C73.8046 72.4513 75.9257 73.6962 78.7236 74.1896Z" fill="black"/>
<path d="M366.513 81.1085C365.932 81.0061 365.49 80.7376 365.185 80.3029C364.881 79.8682 364.78 79.3605 364.882 78.7798L373.958 27.3088C374.061 26.7281 374.329 26.2856 374.764 25.9812C375.198 25.6768 375.706 25.5758 376.287 25.6782L384.681 27.1582C385.578 27.3165 386.174 27.6394 386.469 28.1268C386.827 28.5708 387.039 28.9077 387.108 29.1375L401.053 63.0311L406.345 33.0195C406.448 32.4388 406.716 31.9963 407.151 31.6919C407.586 31.3875 408.093 31.2865 408.674 31.3889L418.176 33.0644C418.757 33.1668 419.2 33.4354 419.504 33.8701C419.808 34.3048 419.909 34.8125 419.807 35.3932L410.731 86.8642C410.638 87.3921 410.37 87.8346 409.926 88.1918C409.491 88.4962 408.983 88.5972 408.402 88.4948L399.93 87.0008C399.085 86.8518 398.489 86.529 398.141 86.0322C397.846 85.5447 397.659 85.2125 397.582 85.0355L383.426 52.3297L378.344 81.1535C378.242 81.7342 377.973 82.1767 377.538 82.4811C377.104 82.7854 376.596 82.8864 376.015 82.784L366.513 81.1085Z" fill="black"/>
<path d="M116.691 84.749C116.101 84.749 115.619 84.5614 115.244 84.1862C114.868 83.8109 114.681 83.3285 114.681 82.7388V30.4738C114.681 29.8841 114.868 29.4017 115.244 29.0264C115.619 28.6512 116.101 28.4636 116.691 28.4636H127.305C127.841 28.4636 128.296 28.6512 128.672 29.0264C129.101 29.4017 129.315 29.8841 129.315 30.4738V72.6075H153.598C154.188 72.6075 154.67 72.8219 155.045 73.2507C155.474 73.626 155.689 74.1084 155.689 74.6981V82.7388C155.689 83.3285 155.474 83.8109 155.045 84.1862C154.67 84.5614 154.188 84.749 153.598 84.749H116.691Z" fill="black"/>
<path d="M191.127 85.6756C186.375 86.5134 182.07 86.4833 178.21 85.5853C174.394 84.6252 171.225 82.7073 168.704 79.8315C166.174 76.9029 164.467 72.931 163.582 67.9159L157.886 35.6079C157.783 35.0272 157.884 34.5195 158.189 34.0848C158.493 33.6501 158.935 33.3816 159.516 33.2792L169.731 31.478C170.312 31.3756 170.82 31.4766 171.254 31.781C171.689 32.0853 171.957 32.5279 172.06 33.1086L177.743 65.3374C178.348 68.7688 179.622 71.2112 181.566 72.6648C183.553 74.0562 186.051 74.4866 189.06 73.956C192.016 73.4348 194.164 72.1852 195.503 70.2073C196.885 68.1674 197.273 65.4317 196.668 62.0003L190.985 29.7715C190.883 29.1908 190.984 28.6831 191.288 28.2484C191.646 27.8044 192.088 27.5359 192.616 27.4428L202.91 25.6276C203.438 25.5346 203.919 25.6402 204.354 25.9446C204.842 26.2396 205.137 26.6775 205.239 27.2582L210.936 59.5662C211.82 64.5813 211.574 68.8976 210.198 72.515C208.812 76.0797 206.491 78.9657 203.233 81.1731C199.966 83.3277 195.931 84.8285 191.127 85.6756Z" fill="black"/>
<path d="M332.297 85.5704C327.441 86.4267 323.078 86.3795 319.209 85.4288C315.34 84.478 312.123 82.5958 309.558 79.7821C306.985 76.9156 305.168 73.0989 304.11 68.3322C303.657 66.0715 303.231 63.8062 302.83 61.5362C302.43 59.2662 302.051 56.9651 301.695 54.633C301.068 49.8446 301.474 45.6634 302.912 42.0895C304.394 38.4534 306.785 35.5006 310.087 33.2311C313.388 30.9617 317.44 29.4034 322.244 28.5563C326.995 27.7185 331.31 27.8014 335.189 28.805C339.12 29.7992 342.403 31.7513 345.039 34.6613C347.666 37.5185 349.477 41.3088 350.473 46.032C350.989 48.3362 351.446 50.6233 351.847 52.8933C352.247 55.1633 352.594 57.4426 352.889 59.7312C353.525 64.5724 353.124 68.78 351.685 72.3539C350.238 75.8751 347.859 78.744 344.548 80.9607C341.238 83.1774 337.154 84.714 332.297 85.5704ZM330.287 74.1675C333.085 73.6742 335.206 72.4293 336.65 70.4328C338.147 68.427 338.623 65.5671 338.077 61.8532C337.773 59.5117 337.439 57.3116 337.076 55.2528C336.713 53.1939 336.283 51.0652 335.787 48.8666C335.244 46.4041 334.415 44.4818 333.3 43.0998C332.229 41.6557 330.916 40.6898 329.36 40.202C327.804 39.7143 326.103 39.6333 324.255 39.9591C322.46 40.2756 320.915 40.929 319.62 41.9194C318.325 42.9098 317.395 44.2714 316.829 46.004C316.255 47.6839 316.133 49.7737 316.465 52.2735C316.803 54.5 317.154 56.6427 317.517 58.7016C317.88 60.7604 318.293 62.9466 318.755 65.26C319.565 68.9275 320.99 71.4523 323.03 72.8344C325.07 74.2165 327.489 74.6609 330.287 74.1675Z" fill="black"/>
<path d="M234.401 84.749C233.811 84.749 233.329 84.5614 232.954 84.1862C232.578 83.8109 232.391 83.3285 232.391 82.7388V41.0876H218.078C217.488 41.0876 217.006 40.9 216.631 40.5248C216.256 40.0959 216.068 39.6135 216.068 39.0774V30.4738C216.068 29.8841 216.256 29.4017 216.631 29.0264C217.006 28.6512 217.488 28.4636 218.078 28.4636H261.338C261.927 28.4636 262.41 28.6512 262.785 29.0264C263.16 29.4017 263.348 29.8841 263.348 30.4738V39.0774C263.348 39.6135 263.16 40.0959 262.785 40.5248C262.41 40.9 261.927 41.0876 261.338 41.0876H247.025V82.7388C247.025 83.3285 246.837 83.8109 246.462 84.1862C246.087 84.5614 245.604 84.749 245.015 84.749H234.401Z" fill="black"/>
<path d="M267.861 83.684C267.281 83.5816 266.838 83.3131 266.534 82.8784C266.229 82.4437 266.128 81.936 266.231 81.3553L275.307 29.8843C275.409 29.3036 275.677 28.8611 276.112 28.5567C276.547 28.2523 277.055 28.1513 277.635 28.2537L288.246 30.1247C288.827 30.2271 289.269 30.4956 289.574 30.9303C289.878 31.365 289.979 31.8727 289.877 32.4534L280.801 83.9244C280.699 84.5051 280.43 84.9477 279.995 85.2521C279.561 85.5564 279.053 85.6574 278.472 85.555L267.861 83.684Z" fill="black"/>
</svg>
