<svg width="30" height="193" viewBox="0 0 30 193" fill="none" xmlns="http://www.w3.org/2000/svg">
<path d="M10.1494 37.3636C9.08584 37.1761 8.21687 36.8523 7.54252 36.3922C6.86817 35.9321 6.40026 35.3378 6.13878 34.6093C5.88148 33.8572 5.84242 32.973 6.02163 31.9567L8.7097 16.7119L14.0277 17.6496L11.4521 32.2562C11.3729 32.7053 11.4091 33.0529 11.5607 33.2989C11.7359 33.5492 12.0362 33.7118 12.4617 33.7868C12.6508 33.8201 12.8558 33.8319 13.0769 33.8222C13.2979 33.8124 13.5093 33.7887 13.7108 33.7512L13.6071 37.2422C13.1163 37.3993 12.5769 37.487 11.9888 37.5052C11.4007 37.5233 10.7876 37.4761 10.1494 37.3636Z" fill="black"/>
<path d="M13.9766 84.6357V71.8197C13.9766 70.6677 13.6646 69.8397 13.0406 69.3357C12.4166 68.8317 11.4566 68.5797 10.1606 68.5797C8.91261 68.5797 7.68861 68.7717 6.48861 69.1557C5.31261 69.5157 4.29261 69.9477 3.42861 70.4517V65.9877C4.12461 65.6517 5.10861 65.3157 6.38061 64.9797C7.65261 64.6197 9.12861 64.4397 10.8086 64.4397C12.0326 64.4397 13.1486 64.5717 14.1566 64.8357C15.1886 65.0757 16.0886 65.4957 16.8566 66.0957C17.6246 66.6717 18.2126 67.4517 18.6206 68.4357C19.0526 69.3957 19.2686 70.5957 19.2686 72.0357V84.6357H13.9766ZM8.07261 84.9957C6.00861 84.9957 4.41261 84.5037 3.28461 83.5197C2.18061 82.5357 1.62861 81.1557 1.62861 79.3797C1.62861 77.4597 2.31261 75.9237 3.68061 74.7717C5.07261 73.6197 7.25661 72.9237 10.2326 72.6837L14.8406 72.3237V76.2117L10.8446 76.6077C9.40461 76.7517 8.39661 77.0397 7.82061 77.4717C7.26861 77.9037 6.99261 78.4797 6.99261 79.1997C6.99261 79.9197 7.22061 80.4597 7.67661 80.8197C8.15661 81.1797 8.76861 81.3597 9.51261 81.3597C9.80061 81.3597 10.0886 81.3357 10.3766 81.2877C10.6646 81.2157 10.9286 81.1437 11.1686 81.0717L11.6366 84.4557C11.1806 84.6237 10.6406 84.7557 10.0166 84.8517C9.39261 84.9477 8.74461 84.9957 8.07261 84.9957ZM2.47939 62.1717V59.9037L6.11539 58.3917H18.9674V62.1717H2.47939ZM10.0394 59.9757V55.9077H13.4594V59.9757H10.0394ZM15.5834 59.9757V55.9077H18.9674V59.9757H15.5834Z" fill="black"/>
<path d="M16.8682 133.512C13.9846 134.021 11.7227 133.701 10.0823 132.552C8.43777 131.38 7.3717 129.411 6.8841 126.646C6.80075 126.173 6.71254 125.604 6.61949 124.938C6.5459 124.244 6.49871 123.631 6.47793 123.098L14.9867 121.598L15.5805 124.966L12.0707 125.585L12.1582 126.081C12.3249 127.027 12.5806 127.786 12.9253 128.359C13.2659 128.908 13.6975 129.283 14.2202 129.483C14.7666 129.679 15.4061 129.712 16.1388 129.583C16.9424 129.442 17.5848 129.146 18.0659 128.695C18.5706 128.241 18.8898 127.563 19.0233 126.662C19.1806 125.757 19.1279 124.56 18.8654 123.071C18.6195 121.676 18.2498 120.547 17.7564 119.684C17.2824 118.793 16.6256 118.177 15.7859 117.838C14.9699 117.495 13.9119 117.437 12.6119 117.667C11.9029 117.792 11.1848 118.004 10.4576 118.302C9.72626 118.578 9.03873 118.894 8.39497 119.251C7.77486 119.604 7.24164 119.966 6.7953 120.337L6.01389 115.906C6.48385 115.53 7.07825 115.17 7.79707 114.824C8.53953 114.473 9.34942 114.16 10.2267 113.883C11.104 113.607 11.9799 113.391 12.8544 113.237C15.1471 112.833 17.0657 112.933 18.6102 113.538C20.1742 114.116 21.4107 115.116 22.3197 116.54C23.2524 117.959 23.9042 119.721 24.2751 121.825C24.6544 123.975 24.6583 125.863 24.2868 127.489C23.9349 129.086 23.1541 130.393 21.9444 131.411C20.7347 132.428 19.0426 133.129 16.8682 133.512Z" fill="black"/>
<path d="M2.60758 181.742V175.73C2.60758 174.218 2.90758 173.054 3.50758 172.238C4.10758 171.422 4.95958 170.846 6.06358 170.51L6.09958 170.366L2.24758 168.962V168.026C2.24758 166.85 2.59558 165.77 3.29158 164.786C3.98758 163.802 5.00758 163.022 6.35158 162.446C7.71958 161.846 9.37558 161.546 11.3196 161.546C13.1436 161.546 14.7156 161.834 16.0356 162.41C17.3556 162.962 18.3756 163.802 19.0956 164.93C19.8396 166.034 20.2116 167.438 20.2116 169.142V181.742H14.8116L14.8116 169.466C14.8116 168.266 14.4876 167.366 13.8396 166.766C13.2156 166.166 12.3276 165.866 11.1756 165.866C10.0716 165.866 9.24358 166.106 8.69158 166.586C8.13958 167.042 7.83958 167.606 7.79158 168.278L10.9956 169.754L10.5996 172.094C9.73558 172.142 9.08758 172.454 8.65558 173.03C8.22358 173.606 8.00758 174.386 8.00758 175.37L8.00758 181.742H2.60758Z" fill="black"/>
</svg>
