<svg width="96" height="51" viewBox="0 0 96 51" fill="none" xmlns="http://www.w3.org/2000/svg">
<path d="M10.253 37.6893C9.18936 37.5018 8.32039 37.1779 7.64604 36.7179C6.97169 36.2578 6.50377 35.6635 6.2423 34.935C5.98499 34.1829 5.94594 33.2987 6.12515 32.2824L8.81322 17.0375L14.1312 17.9752L11.5556 32.5819C11.4764 33.031 11.5126 33.3786 11.6642 33.6246C11.8394 33.8748 12.1398 34.0375 12.5652 34.1125C12.7543 34.1458 12.9593 34.1576 13.1804 34.1478C13.4014 34.1381 13.6128 34.1144 13.8144 34.0768L13.7106 37.5679C13.2198 37.725 12.6804 37.8127 12.0923 37.8309C11.5042 37.849 10.8911 37.8018 10.253 37.6893Z" fill="black"/>
<path d="M35.045 36.418V23.602C35.045 22.45 34.733 21.622 34.109 21.118C33.485 20.614 32.525 20.362 31.229 20.362C29.981 20.362 28.757 20.554 27.557 20.938C26.381 21.298 25.361 21.73 24.497 22.234V17.77C25.193 17.434 26.177 17.098 27.449 16.762C28.721 16.402 30.197 16.222 31.877 16.222C33.101 16.222 34.217 16.354 35.225 16.618C36.257 16.858 37.157 17.278 37.925 17.878C38.693 18.454 39.281 19.234 39.689 20.218C40.121 21.178 40.337 22.378 40.337 23.818V36.418H35.045ZM29.141 36.778C27.077 36.778 25.481 36.286 24.353 35.302C23.249 34.318 22.697 32.938 22.697 31.162C22.697 29.242 23.381 27.706 24.749 26.554C26.141 25.402 28.325 24.706 31.301 24.466L35.909 24.106V27.994L31.913 28.39C30.473 28.534 29.465 28.822 28.889 29.254C28.337 29.686 28.061 30.262 28.061 30.982C28.061 31.702 28.289 32.242 28.745 32.602C29.225 32.962 29.837 33.142 30.581 33.142C30.869 33.142 31.157 33.118 31.445 33.07C31.733 32.998 31.997 32.926 32.237 32.854L32.705 36.238C32.249 36.406 31.709 36.538 31.085 36.634C30.461 36.73 29.813 36.778 29.141 36.778ZM23.5477 13.954V11.686L27.1837 10.174H40.0357V13.954H23.5477ZM31.1077 11.758V7.68997H34.5277V11.758H31.1077ZM36.6517 11.758V7.68997H40.0357V11.758H36.6517Z" fill="black"/>
<path d="M59.9365 38.2945C57.053 38.803 54.791 38.4829 53.1507 37.3343C51.5061 36.1621 50.4401 34.1933 49.9525 31.4279C49.8691 30.9552 49.7809 30.3859 49.6878 29.7199C49.6143 29.0262 49.5671 28.4131 49.5463 27.8806L58.055 26.3803L58.6489 29.7483L55.1391 30.3672L55.2266 30.8635C55.3933 31.8089 55.649 32.5681 55.9937 33.1409C56.3342 33.6901 56.7659 34.0649 57.2886 34.2651C57.8349 34.4612 58.4745 34.4947 59.2072 34.3655C60.0108 34.2238 60.6531 33.9278 61.1342 33.4774C61.639 33.0228 61.9581 32.3451 62.0917 31.4442C62.2489 30.5392 62.1963 29.3421 61.9337 27.8531C61.6878 26.4586 61.3182 25.3297 60.8247 24.4662C60.3508 23.575 59.694 22.9597 58.8543 22.6203C58.0382 22.2768 56.9802 22.2197 55.6803 22.4489C54.9712 22.5739 54.2531 22.7858 53.526 23.0847C52.7946 23.3598 52.1071 23.676 51.4633 24.0332C50.8432 24.3863 50.31 24.7484 49.8637 25.1195L49.0822 20.6879C49.5522 20.3126 50.1466 19.9519 50.8654 19.6058C51.6079 19.2556 52.4178 18.9422 53.2951 18.6656C54.1724 18.3891 55.0483 18.1737 55.9228 18.0195C58.2154 17.6152 60.134 17.7156 61.6785 18.3206C63.2425 18.8978 64.479 19.8983 65.3881 21.322C66.3208 22.7416 66.9726 24.5032 67.3435 26.6068C67.7227 28.7576 67.7266 30.6456 67.3552 32.2708C67.0032 33.8682 66.2224 35.1756 65.0127 36.1931C63.803 37.2107 62.111 37.9111 59.9365 38.2945Z" fill="black"/>
<path d="M75.5021 36.418V30.406C75.5021 28.894 75.8021 27.73 76.4021 26.914C77.0021 26.098 77.8541 25.522 78.9581 25.186L78.9941 25.042L75.1421 23.638V22.702C75.1421 21.526 75.4901 20.446 76.1861 19.462C76.8821 18.478 77.9021 17.698 79.2461 17.122C80.6141 16.522 82.2701 16.222 84.2141 16.222C86.0381 16.222 87.6101 16.51 88.9301 17.086C90.2501 17.638 91.2701 18.478 91.9901 19.606C92.7341 20.71 93.1061 22.114 93.1061 23.818V36.418H87.7061V24.142C87.7061 22.942 87.3821 22.042 86.7341 21.442C86.1101 20.842 85.2221 20.542 84.0701 20.542C82.9661 20.542 82.1381 20.782 81.5861 21.262C81.0341 21.718 80.7341 22.282 80.6861 22.954L83.8901 24.43L83.4941 26.77C82.6301 26.818 81.9821 27.13 81.5501 27.706C81.1181 28.282 80.9021 29.062 80.9021 30.046V36.418H75.5021Z" fill="black"/>
</svg>
