<svg width="307" height="112" viewBox="0 0 307 112" fill="none" xmlns="http://www.w3.org/2000/svg">
<path d="M6.83969 82.9668L6.83969 39.1268H15.6397L17.2397 46.0068H17.8797C18.7864 43.8201 20.3597 42.0068 22.5997 40.5668C24.8397 39.0735 27.7464 38.3268 31.3197 38.3268C34.733 38.3268 37.5597 38.9401 39.7997 40.1668C42.0397 41.3401 43.7197 43.1535 44.8397 45.6068C46.013 48.0068 46.5997 51.0468 46.5997 54.7268V82.9668H34.5997V57.1268C34.5997 54.1401 33.9864 52.0068 32.7597 50.7268C31.5864 49.3935 29.853 48.7268 27.5597 48.7268C25.693 48.7268 24.093 49.2335 22.7597 50.2468C21.4797 51.2601 20.493 52.7535 19.7997 54.7268C19.1597 56.6468 18.8397 59.0735 18.8397 62.0068L18.8397 82.9668H6.83969Z" fill="black"/>
<path d="M68.8164 82.5257L73.8452 54.0056C74.2342 51.7997 73.9914 50.1051 73.1169 48.9219C72.295 47.748 70.7285 46.9573 68.4174 46.5498C66.6842 46.2442 65.0405 46.1981 63.4866 46.4115C61.9851 46.6341 60.5439 46.9757 59.1629 47.4363L60.8299 37.9821C62.0781 37.6606 63.7989 37.4225 65.9924 37.2677C68.186 37.1129 70.7008 37.2856 73.5371 37.7857C76.4259 38.2951 78.8991 39.1644 80.9569 40.3938C83.0672 41.6324 84.5767 43.3607 85.4853 45.5789C86.4558 47.7538 86.64 50.5482 86.038 53.9622L80.6341 84.6094L68.8164 82.5257Z" fill="black"/>
<path d="M108.218 82.9668L95.4977 39.1268H107.578L117.258 73.2868H117.738C118.591 73.2868 119.391 73.0468 120.138 72.5668C120.884 72.0868 121.524 71.4468 122.058 70.6468C123.124 69.1535 123.924 67.3935 124.458 65.3668C124.991 63.2868 125.258 61.2335 125.258 59.2068C125.258 55.6335 124.564 52.8868 123.178 50.9668C121.844 49.0468 119.978 48.0868 117.578 48.0868C117.098 48.0868 116.644 48.1135 116.218 48.1668C115.844 48.2201 115.498 48.3268 115.178 48.4868L112.938 39.2868C114.164 38.9135 115.311 38.7001 116.378 38.6468C117.498 38.5401 118.404 38.4868 119.098 38.4868C121.924 38.4868 124.378 38.8601 126.458 39.6068C128.538 40.3535 130.324 41.4735 131.818 42.9668C133.684 44.7801 135.071 47.0468 135.978 49.7668C136.938 52.4868 137.418 55.5535 137.418 58.9668C137.418 63.2868 136.724 67.0735 135.338 70.3268C134.004 73.5268 132.378 76.0601 130.458 77.9268C128.858 79.4735 126.831 80.7001 124.378 81.6068C121.978 82.5135 118.671 82.9668 114.458 82.9668H108.218Z" fill="black"/>
<path d="M172.823 83.6978C166.415 84.8276 161.388 84.1163 157.743 81.5639C154.088 78.9589 151.719 74.5838 150.636 68.4386C150.451 67.3882 150.255 66.123 150.048 64.6431C149.884 63.1014 149.779 61.7389 149.733 60.5556L168.642 57.2216L169.961 64.7061L162.162 66.0814L162.356 67.1844C162.727 69.2853 163.295 70.9723 164.061 72.2453C164.818 73.4657 165.777 74.2985 166.938 74.7435C168.152 75.1793 169.574 75.2537 171.202 74.9666C172.988 74.6517 174.415 73.9938 175.484 72.993C176.606 71.9828 177.315 70.4768 177.612 68.4748C177.961 66.4636 177.844 63.8035 177.261 60.4946C176.714 57.3957 175.893 54.8869 174.797 52.9682C173.743 50.9876 172.284 49.6203 170.418 48.8662C168.604 48.1029 166.253 47.9759 163.364 48.4852C161.789 48.7631 160.193 49.234 158.577 49.898C156.952 50.5095 155.424 51.2122 153.993 52.006C152.615 52.7905 151.43 53.5952 150.439 54.4199L148.702 44.5719C149.746 43.7378 151.067 42.9363 152.665 42.1672C154.315 41.3889 156.114 40.6925 158.064 40.0779C160.014 39.4634 161.96 38.9848 163.903 38.6421C168.998 37.7438 173.262 37.9668 176.694 39.3112C180.169 40.5938 182.917 42.8171 184.937 45.9811C187.01 49.1358 188.458 53.0504 189.283 57.7249C190.125 62.5045 190.134 66.7001 189.309 70.3116C188.527 73.8614 186.791 76.7668 184.103 79.028C181.415 81.2891 177.655 82.8457 172.823 83.6978Z" fill="black"/>
<path d="M219.608 84.0068C213.102 84.0068 208.275 82.4335 205.128 79.2868C201.982 76.0868 200.408 71.3668 200.408 65.1268C200.408 64.0601 200.435 62.7801 200.488 61.2868C200.595 59.7401 200.728 58.3801 200.888 57.2068H220.088V64.8068H212.168V65.9268C212.168 68.0601 212.435 69.8201 212.968 71.2068C213.502 72.5401 214.302 73.5268 215.368 74.1668C216.488 74.8068 217.875 75.1268 219.528 75.1268C221.342 75.1268 222.862 74.7268 224.088 73.9268C225.368 73.1268 226.328 71.7668 226.968 69.8468C227.662 67.9268 228.008 65.2868 228.008 61.9268C228.008 58.7801 227.635 56.1668 226.888 54.0868C226.195 51.9535 224.995 50.3535 223.288 49.2868C221.635 48.2201 219.342 47.6868 216.408 47.6868C214.808 47.6868 213.155 47.8735 211.448 48.2468C209.742 48.5668 208.115 48.9935 206.568 49.5268C205.075 50.0601 203.768 50.6468 202.648 51.2868V41.2868C203.822 40.6468 205.262 40.0868 206.968 39.6068C208.728 39.1268 210.622 38.7535 212.648 38.4868C214.675 38.2201 216.675 38.0868 218.648 38.0868C223.822 38.0868 227.982 39.0468 231.128 40.9668C234.328 42.8335 236.648 45.5001 238.088 48.9668C239.582 52.4335 240.328 56.5401 240.328 61.2868C240.328 66.1401 239.608 70.2735 238.168 73.6868C236.782 77.0468 234.568 79.6068 231.528 81.3668C228.488 83.1268 224.515 84.0068 219.608 84.0068Z" fill="black"/>
<path d="M248.781 79.1256L251.101 65.9685C251.685 62.6596 252.79 60.228 254.418 58.6737C256.046 57.1195 258.133 56.1877 260.679 55.8784L260.813 55.5771L252.925 51.0181L253.286 48.9697C253.74 46.3961 254.918 44.1668 256.821 42.282C258.724 40.3971 261.257 39.0837 264.421 38.3418C267.646 37.5566 271.386 37.5391 275.64 38.2892C279.632 38.9931 282.961 40.23 285.628 41.9999C288.303 43.7173 290.212 45.9492 291.352 48.6956C292.554 51.3988 292.826 54.6149 292.169 58.3441L287.307 85.9187L275.489 83.8349L280.226 56.9694C280.689 54.3432 280.328 52.2486 279.141 50.6854C278.007 49.1316 276.179 48.1324 273.658 47.6878C271.242 47.2618 269.337 47.4675 267.944 48.305C266.56 49.0899 265.686 50.2084 265.322 51.6606L271.764 56.1271L269.994 61.0953C268.085 60.8669 266.546 61.2997 265.379 62.3935C264.211 63.4874 263.437 65.111 263.058 67.2645L260.599 81.2094L248.781 79.1256Z" fill="black"/>
</svg>
