<svg width="36" height="29" viewBox="0 0 36 29" fill="none" xmlns="http://www.w3.org/2000/svg">
<path d="M26.7692 19.403C25.5481 19.403 24.516 18.9814 23.6729 18.1383C22.8298 17.2952 22.4082 16.2631 22.4082 15.0421C22.4082 13.821 22.8298 12.7889 23.6729 11.9458C24.516 11.1027 25.5481 10.6811 26.7692 10.6811C27.9903 10.6811 29.0223 11.1027 29.8655 11.9458C30.7086 12.7889 31.1301 13.821 31.1301 15.0421C31.1301 16.2631 30.7086 17.2952 29.8655 18.1383C29.0223 18.9814 27.9903 19.403 26.7692 19.403ZM18.0473 28.1249V25.6828C18.0473 24.985 18.229 24.3381 18.5924 23.7421C18.9558 23.1461 19.4719 22.7173 20.1406 22.4557C21.1872 22.0196 22.2701 21.6925 23.3895 21.4745C24.5088 21.2564 25.6353 21.1474 26.7692 21.1474C27.903 21.1474 29.0296 21.2564 30.1489 21.4745C31.2682 21.6925 32.3512 22.0196 33.3978 22.4557C34.0665 22.7173 34.5825 23.1461 34.946 23.7421C35.3094 24.3381 35.4911 24.985 35.4911 25.6828V28.1249H18.0473ZM14.5585 14.1699C12.6397 14.1699 10.9971 13.4867 9.63067 12.1202C8.26424 10.7538 7.58103 9.11117 7.58103 7.19236C7.58103 5.27354 8.26424 3.63092 9.63067 2.26449C10.9971 0.898059 12.6397 0.214844 14.5585 0.214844C16.4774 0.214844 18.12 0.898059 19.4864 2.26449C20.8528 3.63092 21.5361 5.27354 21.5361 7.19236C21.5361 9.11117 20.8528 10.7538 19.4864 12.1202C18.12 13.4867 16.4774 14.1699 14.5585 14.1699ZM0.603516 28.1249V23.2406C0.603516 22.2522 0.850636 21.3436 1.34488 20.515C1.83912 19.6865 2.52233 19.0541 3.39452 18.618C5.1389 17.7458 6.94869 17.0772 8.8239 16.612C10.6991 16.1468 12.6107 15.9142 14.5585 15.9142C15.5761 15.9142 16.5936 16.0015 17.6112 16.1759C18.6288 16.3503 19.6463 16.5539 20.6639 16.7864L17.6984 19.7519C17.1751 19.6065 16.6518 19.512 16.1285 19.4684C15.6052 19.4248 15.0819 19.403 14.5585 19.403C12.8723 19.403 11.2224 19.6065 9.60887 20.0135C7.99532 20.4206 6.44718 21.002 4.96446 21.7579C4.67373 21.9033 4.45568 22.1068 4.31032 22.3684C4.16495 22.6301 4.09227 22.9208 4.09227 23.2406V24.6361H14.5585V28.1249H0.603516ZM14.5585 10.6811C15.5179 10.6811 16.3393 10.3395 17.0225 9.65629C17.7057 8.97307 18.0473 8.15176 18.0473 7.19236C18.0473 6.23295 17.7057 5.41164 17.0225 4.72842C16.3393 4.04521 15.5179 3.7036 14.5585 3.7036C13.5991 3.7036 12.7778 4.04521 12.0946 4.72842C11.4114 5.41164 11.0698 6.23295 11.0698 7.19236C11.0698 8.15176 11.4114 8.97307 12.0946 9.65629C12.7778 10.3395 13.5991 10.6811 14.5585 10.6811Z" fill="#F26522"/>
</svg>
