<svg width="302" height="114" viewBox="0 0 302 114" fill="none" xmlns="http://www.w3.org/2000/svg">
<path d="M27.8647 84.7299C22.5042 84.7299 18.055 83.9794 14.5171 82.4784C10.9791 80.9239 8.29886 78.9137 6.47628 76.4479C4.65371 73.982 3.68881 71.3554 3.5816 68.5679C3.5816 68.1391 3.74242 67.7638 4.06405 67.4422C4.43928 67.067 4.86813 66.8793 5.35057 66.8793H15.4819C16.2324 66.8793 16.7953 67.0133 17.1705 67.2814C17.5994 67.5494 17.9746 67.8978 18.2962 68.3267C18.7251 69.1308 19.3147 69.908 20.0652 70.6585C20.8693 71.409 21.8878 72.0254 23.1207 72.5079C24.4072 72.9367 25.9886 73.1511 27.8647 73.1511C30.9738 73.1511 33.3057 72.6687 34.8602 71.7038C36.4684 70.7389 37.2725 69.4256 37.2725 67.7638C37.2725 66.5845 36.8436 65.6196 35.9859 64.8691C35.1282 64.0651 33.7345 63.3682 31.8047 62.7785C29.9285 62.1353 27.4091 61.492 24.2464 60.8488C20.1724 59.9911 16.6881 58.8922 13.7934 57.552C10.9523 56.1583 8.7813 54.3625 7.28036 52.1647C5.77941 49.9133 5.02894 47.1258 5.02894 43.8023C5.02894 40.5324 5.94023 37.6109 7.7628 35.0379C9.63899 32.4648 12.2388 30.4546 15.5624 29.0073C18.8859 27.5599 22.8259 26.8363 27.3823 26.8363C31.0811 26.8363 34.3242 27.3187 37.1116 28.2836C39.9527 29.2485 42.3381 30.535 44.2679 32.1432C46.1977 33.7513 47.6451 35.4667 48.6099 37.2893C49.6284 39.0583 50.1645 40.8004 50.2181 42.5158C50.2181 42.9446 50.0573 43.3467 49.7357 43.7219C49.414 44.0435 49.012 44.2043 48.5295 44.2043H37.9157C37.3261 44.2043 36.8168 44.0971 36.388 43.8827C35.9591 43.6683 35.5839 43.3199 35.2623 42.8374C34.9406 41.6581 34.0829 40.6396 32.6892 39.7819C31.3491 38.8706 29.5801 38.415 27.3823 38.415C25.0237 38.415 23.1743 38.8438 21.8342 39.7015C20.5476 40.5056 19.9044 41.7653 19.9044 43.4807C19.9044 44.5528 20.2528 45.4909 20.9497 46.295C21.7001 47.099 22.9063 47.7959 24.568 48.3856C26.2834 48.9752 28.6152 49.5917 31.5635 50.2349C36.4416 51.1462 40.3816 52.2987 43.3834 53.6925C46.3853 55.0326 48.5831 56.8016 49.9769 58.9994C51.3706 61.1436 52.0675 63.8506 52.0675 67.1206C52.0675 70.7657 51.0222 73.9284 48.9316 76.6087C46.8946 79.2353 44.0535 81.2455 40.4084 82.6393C36.7632 84.033 32.582 84.7299 27.8647 84.7299Z" fill="black"/>
<path d="M77.4825 84.7691C72.6258 83.9128 68.5421 82.3762 65.2316 80.1595C61.9211 77.9428 59.5421 75.0739 58.0945 71.5527C56.6563 67.9788 56.2551 63.7712 56.891 58.93C57.2385 56.6507 57.6124 54.376 58.0126 52.106C58.4129 49.836 58.8442 47.5443 59.3066 45.2308C60.3555 40.5168 62.1669 36.7266 64.7407 33.8601C67.3767 30.9501 70.6339 28.9933 74.5122 27.9898C78.3905 26.9862 82.7317 26.908 87.5356 27.7551C92.2868 28.5928 96.313 30.1465 99.6142 32.416C102.968 34.6947 105.386 37.6522 106.868 41.2882C108.359 44.8715 108.765 49.0527 108.085 53.8318C107.781 56.1732 107.429 58.4789 107.029 60.7489C106.629 63.0189 106.176 65.2796 105.67 67.531C104.611 72.2977 102.795 76.1143 100.222 78.9809C97.657 81.7946 94.4402 83.6768 90.5712 84.6276C86.7022 85.5783 82.3393 85.6255 77.4825 84.7691ZM79.4931 73.3663C82.2911 73.8597 84.71 73.4153 86.75 72.0331C88.8427 70.6603 90.2677 68.1356 91.0249 64.4588C91.54 62.1546 91.9791 59.9731 92.3421 57.9143C92.7052 55.8554 93.0294 53.7081 93.3147 51.4723C93.6466 48.9725 93.5252 46.8827 92.9505 45.2028C92.4379 43.4795 91.5341 42.1226 90.2391 41.1322C88.944 40.1418 87.3727 39.4837 85.525 39.1579C83.7301 38.8414 82.0548 38.927 80.4992 39.4148C78.9435 39.9025 77.6037 40.8638 76.4798 42.2986C75.3652 43.6806 74.5364 45.6028 73.9933 48.0654C73.5496 50.2733 73.1462 52.4067 72.7831 54.4655C72.4201 56.5244 72.0602 58.7198 71.7034 61.0519C71.2102 64.7752 71.6857 67.6351 73.1299 69.6316C74.5742 71.6281 76.6952 72.873 79.4931 73.3663Z" fill="black"/>
<path d="M117.46 83.9258C116.871 83.9258 116.388 83.7382 116.013 83.3629C115.638 82.9877 115.45 82.5052 115.45 81.9156V29.6505C115.45 29.0609 115.638 28.5784 116.013 28.2032C116.388 27.828 116.871 27.6404 117.46 27.6404H128.074C128.61 27.6404 129.066 27.828 129.441 28.2032C129.87 28.5784 130.084 29.0609 130.084 29.6505V71.7842H154.368C154.957 71.7842 155.44 71.9986 155.815 72.4275C156.244 72.8027 156.458 73.2852 156.458 73.8748V81.9156C156.458 82.5052 156.244 82.9877 155.815 83.3629C155.44 83.7382 154.957 83.9258 154.368 83.9258H117.46Z" fill="black"/>
<path d="M191.896 84.8524C187.145 85.6901 182.84 85.66 178.98 84.7621C175.164 83.802 171.995 81.8841 169.474 79.0082C166.944 76.0796 165.236 72.1077 164.352 67.0926L158.655 34.7847C158.553 34.204 158.654 33.6963 158.958 33.2616C159.262 32.8269 159.705 32.5583 160.286 32.4559L170.501 30.6547C171.081 30.5524 171.589 30.6533 172.024 30.9577C172.458 31.2621 172.727 31.7046 172.829 32.2853L178.512 64.5141C179.117 67.9455 180.392 70.388 182.335 71.8415C184.323 73.233 186.821 73.6634 189.83 73.1328C192.786 72.6115 194.933 71.362 196.272 69.3841C197.654 67.3441 198.043 64.6084 197.438 61.177L191.755 28.9483C191.653 28.3676 191.754 27.8599 192.058 27.4252C192.415 26.9812 192.858 26.7126 193.386 26.6195L203.68 24.8044C204.208 24.7113 204.689 24.817 205.124 25.1213C205.611 25.4164 205.906 25.8543 206.008 26.435L211.705 58.7429C212.589 63.7581 212.344 68.0744 210.967 71.6918C209.582 75.2564 207.26 78.1425 204.003 80.3499C200.736 82.5045 196.7 84.0053 191.896 84.8524Z" fill="black"/>
<path d="M239.968 84.7299C234.608 84.7299 230.159 83.9794 226.621 82.4784C223.083 80.9239 220.402 78.9137 218.58 76.4479C216.757 73.982 215.792 71.3554 215.685 68.5679C215.685 68.1391 215.846 67.7638 216.168 67.4422C216.543 67.067 216.972 66.8793 217.454 66.8793H227.585C228.336 66.8793 228.899 67.0133 229.274 67.2814C229.703 67.5494 230.078 67.8978 230.4 68.3267C230.829 69.1308 231.418 69.908 232.169 70.6585C232.973 71.409 233.991 72.0254 235.224 72.5079C236.511 72.9367 238.092 73.1511 239.968 73.1511C243.077 73.1511 245.409 72.6687 246.964 71.7038C248.572 70.7389 249.376 69.4256 249.376 67.7638C249.376 66.5845 248.947 65.6196 248.089 64.8691C247.232 64.0651 245.838 63.3682 243.908 62.7785C242.032 62.1353 239.513 61.492 236.35 60.8488C232.276 59.9911 228.792 58.8922 225.897 57.552C223.056 56.1583 220.885 54.3625 219.384 52.1647C217.883 49.9133 217.132 47.1258 217.132 43.8023C217.132 40.5324 218.044 37.6109 219.866 35.0379C221.743 32.4648 224.342 30.4546 227.666 29.0073C230.989 27.5599 234.929 26.8363 239.486 26.8363C243.185 26.8363 246.428 27.3187 249.215 28.2836C252.056 29.2485 254.442 30.535 256.371 32.1432C258.301 33.7513 259.749 35.4667 260.713 37.2893C261.732 39.0583 262.268 40.8004 262.322 42.5158C262.322 42.9446 262.161 43.3467 261.839 43.7219C261.518 44.0435 261.115 44.2043 260.633 44.2043H250.019C249.43 44.2043 248.92 44.0971 248.491 43.8827C248.063 43.6683 247.687 43.3199 247.366 42.8374C247.044 41.6581 246.186 40.6396 244.793 39.7819C243.453 38.8706 241.684 38.415 239.486 38.415C237.127 38.415 235.278 38.8438 233.938 39.7015C232.651 40.5056 232.008 41.7653 232.008 43.4807C232.008 44.5528 232.356 45.4909 233.053 46.295C233.804 47.099 235.01 47.7959 236.672 48.3856C238.387 48.9752 240.719 49.5917 243.667 50.2349C248.545 51.1462 252.485 52.2987 255.487 53.6925C258.489 55.0326 260.687 56.8016 262.08 58.9994C263.474 61.1436 264.171 63.8506 264.171 67.1206C264.171 70.7657 263.126 73.9284 261.035 76.6087C258.998 79.2353 256.157 81.2455 252.512 82.6393C248.867 84.033 244.686 84.7299 239.968 84.7299Z" fill="black"/>
<path d="M268.632 82.8608C268.051 82.7584 267.609 82.4899 267.304 82.0552C267 81.6205 266.899 81.1128 267.001 80.5321L276.077 29.0611C276.179 28.4804 276.448 28.0378 276.883 27.7334C277.317 27.4291 277.825 27.3281 278.406 27.4305L289.017 29.3015C289.597 29.4039 290.04 29.6724 290.344 30.1071C290.649 30.5418 290.75 31.0495 290.647 31.6302L281.572 83.1012C281.469 83.6819 281.201 84.1244 280.766 84.4288C280.331 84.7332 279.824 84.8342 279.243 84.7318L268.632 82.8608Z" fill="black"/>
</svg>
